  0
SECTION
  2
BLOCKS
  0
ENDSEC
  0
SECTION
  2
ENTITIES
  0
LINE
  8
0
 10
-46.875
 20
-23.4549
 11
-50
 21
-28.8675
  0
LINE
  8
0
 10
-50
 20
-28.8675
 11
-43.75
 21
-28.8675
  0
LINE
  8
0
 10
-43.75
 20
-28.8675
 11
-46.875
 21
-23.4549
  0
LINE
  8
0
 10
-43.75
 20
-18.0422
 11
-46.875
 21
-23.4549
  0
LINE
  8
0
 10
-46.875
 20
-23.4549
 11
-40.625
 21
-23.4549
  0
LINE
  8
0
 10
-40.625
 20
-23.4549
 11
-43.75
 21
-18.0422
  0
LINE
  8
0
 10
-40.625
 20
-12.6295
 11
-43.75
 21
-18.0422
  0
LINE
  8
0
 10
-43.75
 20
-18.0422
 11
-37.5
 21
-18.0422
  0
LINE
  8
0
 10
-37.5
 20
-18.0422
 11
-40.625
 21
-12.6295
  0
LINE
  8
0
 10
-40.625
 20
-23.4549
 11
-43.75
 21
-28.8675
  0
LINE
  8
0
 10
-43.75
 20
-28.8675
 11
-37.5
 21
-28.8675
  0
LINE
  8
0
 10
-37.5
 20
-28.8675
 11
-40.625
 21
-23.4549
  0
LINE
  8
0
 10
-37.5
 20
-7.21688
 11
-40.625
 21
-12.6295
  0
LINE
  8
0
 10
-40.625
 20
-12.6295
 11
-34.375
 21
-12.6295
  0
LINE
  8
0
 10
-34.375
 20
-12.6295
 11
-37.5
 21
-7.21688
  0
LINE
  8
0
 10
-34.375
 20
-1.80422
 11
-37.5
 21
-7.21688
  0
LINE
  8
0
 10
-37.5
 20
-7.21688
 11
-31.25
 21
-7.21688
  0
LINE
  8
0
 10
-31.25
 20
-7.21688
 11
-34.375
 21
-1.80422
  0
LINE
  8
0
 10
-34.375
 20
-12.6295
 11
-37.5
 21
-18.0422
  0
LINE
  8
0
 10
-37.5
 20
-18.0422
 11
-31.25
 21
-18.0422
  0
LINE
  8
0
 10
-31.25
 20
-18.0422
 11
-34.375
 21
-12.6295
  0
LINE
  8
0
 10
-34.375
 20
-23.4549
 11
-37.5
 21
-28.8675
  0
LINE
  8
0
 10
-37.5
 20
-28.8675
 11
-31.25
 21
-28.8675
  0
LINE
  8
0
 10
-31.25
 20
-28.8675
 11
-34.375
 21
-23.4549
  0
LINE
  8
0
 10
-31.25
 20
3.60844
 11
-34.375
 21
-1.80422
  0
LINE
  8
0
 10
-34.375
 20
-1.80422
 11
-28.125
 21
-1.80422
  0
LINE
  8
0
 10
-28.125
 20
-1.80422
 11
-31.25
 21
3.60844
  0
LINE
  8
0
 10
-31.25
 20
-18.0422
 11
-34.375
 21
-23.4549
  0
LINE
  8
0
 10
-34.375
 20
-23.4549
 11
-28.125
 21
-23.4549
  0
LINE
  8
0
 10
-28.125
 20
-23.4549
 11
-31.25
 21
-18.0422
  0
LINE
  8
0
 10
-28.125
 20
9.0211
 11
-31.25
 21
3.60844
  0
LINE
  8
0
 10
-31.25
 20
3.60844
 11
-25
 21
3.60844
  0
LINE
  8
0
 10
-25
 20
3.60844
 11
-28.125
 21
9.0211
  0
LINE
  8
0
 10
-28.125
 20
-1.80422
 11
-31.25
 21
-7.21688
  0
LINE
  8
0
 10
-31.25
 20
-7.21688
 11
-25
 21
-7.21688
  0
LINE
  8
0
 10
-25
 20
-7.21688
 11
-28.125
 21
-1.80422
  0
LINE
  8
0
 10
-28.125
 20
-23.4549
 11
-31.25
 21
-28.8675
  0
LINE
  8
0
 10
-31.25
 20
-28.8675
 11
-25
 21
-28.8675
  0
LINE
  8
0
 10
-25
 20
-28.8675
 11
-28.125
 21
-23.4549
  0
LINE
  8
0
 10
-25
 20
14.4338
 11
-28.125
 21
9.0211
  0
LINE
  8
0
 10
-28.125
 20
9.0211
 11
-21.875
 21
9.0211
  0
LINE
  8
0
 10
-21.875
 20
9.0211
 11
-25
 21
14.4338
  0
LINE
  8
0
 10
-21.875
 20
19.8464
 11
-25
 21
14.4338
  0
LINE
  8
0
 10
-25
 20
14.4338
 11
-18.75
 21
14.4338
  0
LINE
  8
0
 10
-18.75
 20
14.4338
 11
-21.875
 21
19.8464
  0
LINE
  8
0
 10
-21.875
 20
-23.4549
 11
-25
 21
-28.8675
  0
LINE
  8
0
 10
-25
 20
-28.8675
 11
-18.75
 21
-28.8675
  0
LINE
  8
0
 10
-18.75
 20
-28.8675
 11
-21.875
 21
-23.4549
  0
LINE
  8
0
 10
-21.875
 20
9.0211
 11
-25
 21
3.60844
  0
LINE
  8
0
 10
-25
 20
3.60844
 11
-18.75
 21
3.60844
  0
LINE
  8
0
 10
-18.75
 20
3.60844
 11
-21.875
 21
9.0211
  0
LINE
  8
0
 10
-21.875
 20
-1.80422
 11
-25
 21
-7.21688
  0
LINE
  8
0
 10
-25
 20
-7.21688
 11
-18.75
 21
-7.21688
  0
LINE
  8
0
 10
-18.75
 20
-7.21688
 11
-21.875
 21
-1.80422
  0
LINE
  8
0
 10
-18.75
 20
3.60844
 11
-21.875
 21
-1.80422
  0
LINE
  8
0
 10
-21.875
 20
-1.80422
 11
-15.625
 21
-1.80422
  0
LINE
  8
0
 10
-15.625
 20
-1.80422
 11
-18.75
 21
3.60844
  0
LINE
  8
0
 10
-18.75
 20
-18.0422
 11
-21.875
 21
-23.4549
  0
LINE
  8
0
 10
-21.875
 20
-23.4549
 11
-15.625
 21
-23.4549
  0
LINE
  8
0
 10
-15.625
 20
-23.4549
 11
-18.75
 21
-18.0422
  0
LINE
  8
0
 10
-18.75
 20
25.2591
 11
-21.875
 21
19.8464
  0
LINE
  8
0
 10
-21.875
 20
19.8464
 11
-15.625
 21
19.8464
  0
LINE
  8
0
 10
-15.625
 20
19.8464
 11
-18.75
 21
25.2591
  0
LINE
  8
0
 10
-15.625
 20
-12.6295
 11
-18.75
 21
-18.0422
  0
LINE
  8
0
 10
-18.75
 20
-18.0422
 11
-12.5
 21
-18.0422
  0
LINE
  8
0
 10
-12.5
 20
-18.0422
 11
-15.625
 21
-12.6295
  0
LINE
  8
0
 10
-15.625
 20
-23.4549
 11
-18.75
 21
-28.8675
  0
LINE
  8
0
 10
-18.75
 20
-28.8675
 11
-12.5
 21
-28.8675
  0
LINE
  8
0
 10
-12.5
 20
-28.8675
 11
-15.625
 21
-23.4549
  0
LINE
  8
0
 10
-15.625
 20
19.8464
 11
-18.75
 21
14.4338
  0
LINE
  8
0
 10
-18.75
 20
14.4338
 11
-12.5
 21
14.4338
  0
LINE
  8
0
 10
-12.5
 20
14.4338
 11
-15.625
 21
19.8464
  0
LINE
  8
0
 10
-15.625
 20
30.6717
 11
-18.75
 21
25.2591
  0
LINE
  8
0
 10
-18.75
 20
25.2591
 11
-12.5
 21
25.2591
  0
LINE
  8
0
 10
-12.5
 20
25.2591
 11
-15.625
 21
30.6717
  0
LINE
  8
0
 10
-15.625
 20
-1.80422
 11
-18.75
 21
-7.21688
  0
LINE
  8
0
 10
-18.75
 20
-7.21688
 11
-12.5
 21
-7.21688
  0
LINE
  8
0
 10
-12.5
 20
-7.21688
 11
-15.625
 21
-1.80422
  0
LINE
  8
0
 10
-12.5
 20
-7.21688
 11
-15.625
 21
-12.6295
  0
LINE
  8
0
 10
-15.625
 20
-12.6295
 11
-9.375
 21
-12.6295
  0
LINE
  8
0
 10
-9.375
 20
-12.6295
 11
-12.5
 21
-7.21688
  0
LINE
  8
0
 10
-12.5
 20
36.0844
 11
-15.625
 21
30.6717
  0
LINE
  8
0
 10
-15.625
 20
30.6717
 11
-9.375
 21
30.6717
  0
LINE
  8
0
 10
-9.375
 20
30.6717
 11
-12.5
 21
36.0844
  0
LINE
  8
0
 10
-9.375
 20
-12.6295
 11
-12.5
 21
-18.0422
  0
LINE
  8
0
 10
-12.5
 20
-18.0422
 11
-6.25
 21
-18.0422
  0
LINE
  8
0
 10
-6.25
 20
-18.0422
 11
-9.375
 21
-12.6295
  0
LINE
  8
0
 10
-9.375
 20
-23.4549
 11
-12.5
 21
-28.8675
  0
LINE
  8
0
 10
-12.5
 20
-28.8675
 11
-6.25
 21
-28.8675
  0
LINE
  8
0
 10
-6.25
 20
-28.8675
 11
-9.375
 21
-23.4549
  0
LINE
  8
0
 10
-9.375
 20
19.8464
 11
-12.5
 21
14.4338
  0
LINE
  8
0
 10
-12.5
 20
14.4338
 11
-6.25
 21
14.4338
  0
LINE
  8
0
 10
-6.25
 20
14.4338
 11
-9.375
 21
19.8464
  0
LINE
  8
0
 10
-9.375
 20
30.6717
 11
-12.5
 21
25.2591
  0
LINE
  8
0
 10
-12.5
 20
25.2591
 11
-6.25
 21
25.2591
  0
LINE
  8
0
 10
-6.25
 20
25.2591
 11
-9.375
 21
30.6717
  0
LINE
  8
0
 10
-9.375
 20
41.497
 11
-12.5
 21
36.0844
  0
LINE
  8
0
 10
-12.5
 20
36.0844
 11
-6.25
 21
36.0844
  0
LINE
  8
0
 10
-6.25
 20
36.0844
 11
-9.375
 21
41.497
  0
LINE
  8
0
 10
-6.25
 20
-18.0422
 11
-9.375
 21
-23.4549
  0
LINE
  8
0
 10
-9.375
 20
-23.4549
 11
-3.125
 21
-23.4549
  0
LINE
  8
0
 10
-3.125
 20
-23.4549
 11
-6.25
 21
-18.0422
  0
LINE
  8
0
 10
-6.25
 20
25.2591
 11
-9.375
 21
19.8464
  0
LINE
  8
0
 10
-9.375
 20
19.8464
 11
-3.125
 21
19.8464
  0
LINE
  8
0
 10
-3.125
 20
19.8464
 11
-6.25
 21
25.2591
  0
LINE
  8
0
 10
-6.25
 20
46.9097
 11
-9.375
 21
41.497
  0
LINE
  8
0
 10
-9.375
 20
41.497
 11
-3.125
 21
41.497
  0
LINE
  8
0
 10
-3.125
 20
41.497
 11
-6.25
 21
46.9097
  0
LINE
  8
0
 10
-3.125
 20
-23.4549
 11
-6.25
 21
-28.8675
  0
LINE
  8
0
 10
-6.25
 20
-28.8675
 11
0
 21
-28.8675
  0
LINE
  8
0
 10
0
 20
-28.8675
 11
-3.125
 21
-23.4549
  0
LINE
  8
0
 10
-3.125
 20
19.8464
 11
-6.25
 21
14.4338
  0
LINE
  8
0
 10
-6.25
 20
14.4338
 11
0
 21
14.4338
  0
LINE
  8
0
 10
0
 20
14.4338
 11
-3.125
 21
19.8464
  0
LINE
  8
0
 10
-3.125
 20
41.497
 11
-6.25
 21
36.0844
  0
LINE
  8
0
 10
-6.25
 20
36.0844
 11
0
 21
36.0844
  0
LINE
  8
0
 10
0
 20
36.0844
 11
-3.125
 21
41.497
  0
LINE
  8
0
 10
-3.125
 20
52.3224
 11
-6.25
 21
46.9097
  0
LINE
  8
0
 10
-6.25
 20
46.9097
 11
0
 21
46.9097
  0
LINE
  8
0
 10
0
 20
46.9097
 11
-3.125
 21
52.3224
  0
LINE
  8
0
 10
0
 20
57.735
 11
-3.125
 21
52.3224
  0
LINE
  8
0
 10
-3.125
 20
52.3224
 11
3.125
 21
52.3224
  0
LINE
  8
0
 10
3.125
 20
52.3224
 11
0
 21
57.735
  0
LINE
  8
0
 10
3.125
 20
-23.4549
 11
0
 21
-28.8675
  0
LINE
  8
0
 10
0
 20
-28.8675
 11
6.25
 21
-28.8675
  0
LINE
  8
0
 10
6.25
 20
-28.8675
 11
3.125
 21
-23.4549
  0
LINE
  8
0
 10
3.125
 20
52.3224
 11
0
 21
46.9097
  0
LINE
  8
0
 10
0
 20
46.9097
 11
6.25
 21
46.9097
  0
LINE
  8
0
 10
6.25
 20
46.9097
 11
3.125
 21
52.3224
  0
LINE
  8
0
 10
3.125
 20
41.497
 11
0
 21
36.0844
  0
LINE
  8
0
 10
0
 20
36.0844
 11
6.25
 21
36.0844
  0
LINE
  8
0
 10
6.25
 20
36.0844
 11
3.125
 21
41.497
  0
LINE
  8
0
 10
3.125
 20
19.8464
 11
0
 21
14.4338
  0
LINE
  8
0
 10
0
 20
14.4338
 11
6.25
 21
14.4338
  0
LINE
  8
0
 10
6.25
 20
14.4338
 11
3.125
 21
19.8464
  0
LINE
  8
0
 10
6.25
 20
46.9097
 11
3.125
 21
41.497
  0
LINE
  8
0
 10
3.125
 20
41.497
 11
9.375
 21
41.497
  0
LINE
  8
0
 10
9.375
 20
41.497
 11
6.25
 21
46.9097
  0
LINE
  8
0
 10
6.25
 20
25.2591
 11
3.125
 21
19.8464
  0
LINE
  8
0
 10
3.125
 20
19.8464
 11
9.375
 21
19.8464
  0
LINE
  8
0
 10
9.375
 20
19.8464
 11
6.25
 21
25.2591
  0
LINE
  8
0
 10
6.25
 20
-18.0422
 11
3.125
 21
-23.4549
  0
LINE
  8
0
 10
3.125
 20
-23.4549
 11
9.375
 21
-23.4549
  0
LINE
  8
0
 10
9.375
 20
-23.4549
 11
6.25
 21
-18.0422
  0
LINE
  8
0
 10
9.375
 20
41.497
 11
6.25
 21
36.0844
  0
LINE
  8
0
 10
6.25
 20
36.0844
 11
12.5
 21
36.0844
  0
LINE
  8
0
 10
12.5
 20
36.0844
 11
9.375
 21
41.497
  0
LINE
  8
0
 10
9.375
 20
30.6717
 11
6.25
 21
25.2591
  0
LINE
  8
0
 10
6.25
 20
25.2591
 11
12.5
 21
25.2591
  0
LINE
  8
0
 10
12.5
 20
25.2591
 11
9.375
 21
30.6717
  0
LINE
  8
0
 10
9.375
 20
19.8464
 11
6.25
 21
14.4338
  0
LINE
  8
0
 10
6.25
 20
14.4338
 11
12.5
 21
14.4338
  0
LINE
  8
0
 10
12.5
 20
14.4338
 11
9.375
 21
19.8464
  0
LINE
  8
0
 10
9.375
 20
-23.4549
 11
6.25
 21
-28.8675
  0
LINE
  8
0
 10
6.25
 20
-28.8675
 11
12.5
 21
-28.8675
  0
LINE
  8
0
 10
12.5
 20
-28.8675
 11
9.375
 21
-23.4549
  0
LINE
  8
0
 10
9.375
 20
-12.6295
 11
6.25
 21
-18.0422
  0
LINE
  8
0
 10
6.25
 20
-18.0422
 11
12.5
 21
-18.0422
  0
LINE
  8
0
 10
12.5
 20
-18.0422
 11
9.375
 21
-12.6295
  0
LINE
  8
0
 10
12.5
 20
36.0844
 11
9.375
 21
30.6717
  0
LINE
  8
0
 10
9.375
 20
30.6717
 11
15.625
 21
30.6717
  0
LINE
  8
0
 10
15.625
 20
30.6717
 11
12.5
 21
36.0844
  0
LINE
  8
0
 10
12.5
 20
-7.21688
 11
9.375
 21
-12.6295
  0
LINE
  8
0
 10
9.375
 20
-12.6295
 11
15.625
 21
-12.6295
  0
LINE
  8
0
 10
15.625
 20
-12.6295
 11
12.5
 21
-7.21688
  0
LINE
  8
0
 10
15.625
 20
-1.80422
 11
12.5
 21
-7.21688
  0
LINE
  8
0
 10
12.5
 20
-7.21688
 11
18.75
 21
-7.21688
  0
LINE
  8
0
 10
18.75
 20
-7.21688
 11
15.625
 21
-1.80422
  0
LINE
  8
0
 10
15.625
 20
30.6717
 11
12.5
 21
25.2591
  0
LINE
  8
0
 10
12.5
 20
25.2591
 11
18.75
 21
25.2591
  0
LINE
  8
0
 10
18.75
 20
25.2591
 11
15.625
 21
30.6717
  0
LINE
  8
0
 10
15.625
 20
19.8464
 11
12.5
 21
14.4338
  0
LINE
  8
0
 10
12.5
 20
14.4338
 11
18.75
 21
14.4338
  0
LINE
  8
0
 10
18.75
 20
14.4338
 11
15.625
 21
19.8464
  0
LINE
  8
0
 10
15.625
 20
-23.4549
 11
12.5
 21
-28.8675
  0
LINE
  8
0
 10
12.5
 20
-28.8675
 11
18.75
 21
-28.8675
  0
LINE
  8
0
 10
18.75
 20
-28.8675
 11
15.625
 21
-23.4549
  0
LINE
  8
0
 10
15.625
 20
-12.6295
 11
12.5
 21
-18.0422
  0
LINE
  8
0
 10
12.5
 20
-18.0422
 11
18.75
 21
-18.0422
  0
LINE
  8
0
 10
18.75
 20
-18.0422
 11
15.625
 21
-12.6295
  0
LINE
  8
0
 10
18.75
 20
25.2591
 11
15.625
 21
19.8464
  0
LINE
  8
0
 10
15.625
 20
19.8464
 11
21.875
 21
19.8464
  0
LINE
  8
0
 10
21.875
 20
19.8464
 11
18.75
 21
25.2591
  0
LINE
  8
0
 10
18.75
 20
3.60844
 11
15.625
 21
-1.80422
  0
LINE
  8
0
 10
15.625
 20
-1.80422
 11
21.875
 21
-1.80422
  0
LINE
  8
0
 10
21.875
 20
-1.80422
 11
18.75
 21
3.60844
  0
LINE
  8
0
 10
18.75
 20
-18.0422
 11
15.625
 21
-23.4549
  0
LINE
  8
0
 10
15.625
 20
-23.4549
 11
21.875
 21
-23.4549
  0
LINE
  8
0
 10
21.875
 20
-23.4549
 11
18.75
 21
-18.0422
  0
LINE
  8
0
 10
21.875
 20
19.8464
 11
18.75
 21
14.4338
  0
LINE
  8
0
 10
18.75
 20
14.4338
 11
25
 21
14.4338
  0
LINE
  8
0
 10
25
 20
14.4338
 11
21.875
 21
19.8464
  0
LINE
  8
0
 10
21.875
 20
-23.4549
 11
18.75
 21
-28.8675
  0
LINE
  8
0
 10
18.75
 20
-28.8675
 11
25
 21
-28.8675
  0
LINE
  8
0
 10
25
 20
-28.8675
 11
21.875
 21
-23.4549
  0
LINE
  8
0
 10
21.875
 20
-1.80422
 11
18.75
 21
-7.21688
  0
LINE
  8
0
 10
18.75
 20
-7.21688
 11
25
 21
-7.21688
  0
LINE
  8
0
 10
25
 20
-7.21688
 11
21.875
 21
-1.80422
  0
LINE
  8
0
 10
21.875
 20
9.0211
 11
18.75
 21
3.60844
  0
LINE
  8
0
 10
18.75
 20
3.60844
 11
25
 21
3.60844
  0
LINE
  8
0
 10
25
 20
3.60844
 11
21.875
 21
9.0211
  0
LINE
  8
0
 10
25
 20
14.4338
 11
21.875
 21
9.0211
  0
LINE
  8
0
 10
21.875
 20
9.0211
 11
28.125
 21
9.0211
  0
LINE
  8
0
 10
28.125
 20
9.0211
 11
25
 21
14.4338
  0
LINE
  8
0
 10
28.125
 20
-23.4549
 11
25
 21
-28.8675
  0
LINE
  8
0
 10
25
 20
-28.8675
 11
31.25
 21
-28.8675
  0
LINE
  8
0
 10
31.25
 20
-28.8675
 11
28.125
 21
-23.4549
  0
LINE
  8
0
 10
28.125
 20
-1.80422
 11
25
 21
-7.21688
  0
LINE
  8
0
 10
25
 20
-7.21688
 11
31.25
 21
-7.21688
  0
LINE
  8
0
 10
31.25
 20
-7.21688
 11
28.125
 21
-1.80422
  0
LINE
  8
0
 10
28.125
 20
9.0211
 11
25
 21
3.60844
  0
LINE
  8
0
 10
25
 20
3.60844
 11
31.25
 21
3.60844
  0
LINE
  8
0
 10
31.25
 20
3.60844
 11
28.125
 21
9.0211
  0
LINE
  8
0
 10
31.25
 20
-18.0422
 11
28.125
 21
-23.4549
  0
LINE
  8
0
 10
28.125
 20
-23.4549
 11
34.375
 21
-23.4549
  0
LINE
  8
0
 10
34.375
 20
-23.4549
 11
31.25
 21
-18.0422
  0
LINE
  8
0
 10
31.25
 20
3.60844
 11
28.125
 21
-1.80422
  0
LINE
  8
0
 10
28.125
 20
-1.80422
 11
34.375
 21
-1.80422
  0
LINE
  8
0
 10
34.375
 20
-1.80422
 11
31.25
 21
3.60844
  0
LINE
  8
0
 10
34.375
 20
-23.4549
 11
31.25
 21
-28.8675
  0
LINE
  8
0
 10
31.25
 20
-28.8675
 11
37.5
 21
-28.8675
  0
LINE
  8
0
 10
37.5
 20
-28.8675
 11
34.375
 21
-23.4549
  0
LINE
  8
0
 10
34.375
 20
-12.6295
 11
31.25
 21
-18.0422
  0
LINE
  8
0
 10
31.25
 20
-18.0422
 11
37.5
 21
-18.0422
  0
LINE
  8
0
 10
37.5
 20
-18.0422
 11
34.375
 21
-12.6295
  0
LINE
  8
0
 10
34.375
 20
-1.80422
 11
31.25
 21
-7.21688
  0
LINE
  8
0
 10
31.25
 20
-7.21688
 11
37.5
 21
-7.21688
  0
LINE
  8
0
 10
37.5
 20
-7.21688
 11
34.375
 21
-1.80422
  0
LINE
  8
0
 10
37.5
 20
-7.21688
 11
34.375
 21
-12.6295
  0
LINE
  8
0
 10
34.375
 20
-12.6295
 11
40.625
 21
-12.6295
  0
LINE
  8
0
 10
40.625
 20
-12.6295
 11
37.5
 21
-7.21688
  0
LINE
  8
0
 10
40.625
 20
-23.4549
 11
37.5
 21
-28.8675
  0
LINE
  8
0
 10
37.5
 20
-28.8675
 11
43.75
 21
-28.8675
  0
LINE
  8
0
 10
43.75
 20
-28.8675
 11
40.625
 21
-23.4549
  0
LINE
  8
0
 10
40.625
 20
-12.6295
 11
37.5
 21
-18.0422
  0
LINE
  8
0
 10
37.5
 20
-18.0422
 11
43.75
 21
-18.0422
  0
LINE
  8
0
 10
43.75
 20
-18.0422
 11
40.625
 21
-12.6295
  0
LINE
  8
0
 10
43.75
 20
-18.0422
 11
40.625
 21
-23.4549
  0
LINE
  8
0
 10
40.625
 20
-23.4549
 11
46.875
 21
-23.4549
  0
LINE
  8
0
 10
46.875
 20
-23.4549
 11
43.75
 21
-18.0422
  0
LINE
  8
0
 10
46.875
 20
-23.4549
 11
43.75
 21
-28.8675
  0
LINE
  8
0
 10
43.75
 20
-28.8675
 11
50
 21
-28.8675
  0
LINE
  8
0
 10
50
 20
-28.8675
 11
46.875
 21
-23.4549
  0
ENDSEC
  0
SECTION
  2
OBJECTS
  0
DICTIONARY
  0
ENDSEC
  0
EOF
