<?xml version="1.0" standalone="no"?>
<!DOCTYPE svg PUBLIC "-//W3C//DTD SVG 1.1//EN" "http://www.w3.org/Graphics/SVG/1.1/DTD/svg11.dtd">
<svg width="100mm" height="116mm" viewBox="-50 -58 100 116" xmlns="http://www.w3.org/2000/svg" version="1.1">
<title>OpenSCAD Model</title>
<path d="
M 0,-57.735 L -3.125,-52.3224 L 3.125,-52.3224 z
M 3.125,-52.3224 L 0,-46.9097 L 6.25,-46.9097 z
M -3.125,-52.3224 L -6.25,-46.9097 L 0,-46.9097 z
M 6.25,-46.9097 L 3.125,-41.497 L 9.375,-41.497 z
M -6.25,-46.9097 L -9.375,-41.497 L -3.125,-41.497 z
M 9.375,-41.497 L 6.25,-36.0844 L 12.5,-36.0844 z
M 3.125,-41.497 L 0,-36.0844 L 6.25,-36.0844 z
M -3.125,-41.497 L -6.25,-36.0844 L 0,-36.0844 z
M -9.375,-41.497 L -12.5,-36.0844 L -6.25,-36.0844 z
M 12.5,-36.0844 L 9.375,-30.6717 L 15.625,-30.6717 z
M -12.5,-36.0844 L -15.625,-30.6717 L -9.375,-30.6717 z
M 16.6667,-25.2591 L 18.75,-25.2591 L 17.7083,-27.0633 L 18.75,-28.8675 L 16.6667,-28.8675 L 15.625,-30.6717
 L 14.5833,-28.8675 L 12.5,-28.8675 L 13.5417,-27.0633 L 12.5,-25.2591 L 14.5833,-25.2591 L 15.625,-23.4548
 z
M 10.4167,-25.2591 L 12.5,-25.2591 L 11.4583,-27.0633 L 12.5,-28.8675 L 10.4167,-28.8675 L 9.375,-30.6717
 L 8.33334,-28.8675 L 6.25,-28.8675 L 7.29167,-27.0633 L 6.25,-25.2591 L 8.33334,-25.2591 L 9.375,-23.4548
 z
M -8.33334,-25.2591 L -6.25,-25.2591 L -7.29167,-27.0633 L -6.25,-28.8675 L -8.33334,-28.8675 L -9.375,-30.6717
 L -10.4167,-28.8675 L -12.5,-28.8675 L -11.4583,-27.0633 L -12.5,-25.2591 L -10.4167,-25.2591 L -9.375,-23.4548
 z
M -14.5833,-25.2591 L -12.5,-25.2591 L -13.5417,-27.0633 L -12.5,-28.8675 L -14.5833,-28.8675 L -15.625,-30.6717
 L -16.6667,-28.8675 L -18.75,-28.8675 L -17.7083,-27.0633 L -18.75,-25.2591 L -16.6667,-25.2591 L -15.625,-23.4548
 z
M -43.75,-28.8675 L -50,-28.8675 L -46.875,-23.4548 z
M 43.75,-28.8675 L 37.5,-28.8675 L 40.625,-23.4548 z
M 37.5,-28.8675 L 31.25,-28.8675 L 34.375,-23.4548 z
M 31.25,-28.8675 L 25,-28.8675 L 28.125,-23.4548 z
M 25,-28.8675 L 18.75,-28.8675 L 21.875,-23.4548 z
M -37.5,-28.8675 L -43.75,-28.8675 L -40.625,-23.4548 z
M 50,-28.8675 L 43.75,-28.8675 L 46.875,-23.4548 z
M 6.25,-28.8675 L 0,-28.8675 L 3.125,-23.4548 z
M 0,-28.8675 L -6.25,-28.8675 L -3.125,-23.4548 z
M -31.25,-28.8675 L -37.5,-28.8675 L -34.375,-23.4548 z
M -25,-28.8675 L -31.25,-28.8675 L -28.125,-23.4548 z
M -18.75,-28.8675 L -25,-28.8675 L -21.875,-23.4548 z
M -17.7083,-19.8464 L -15.625,-19.8464 L -16.6667,-21.6506 L -15.625,-23.4548 L -17.7083,-23.4548 L -18.75,-25.2591
 L -19.7917,-23.4548 L -21.875,-23.4548 L -20.8333,-21.6506 L -21.875,-19.8464 L -19.7917,-19.8464 L -18.75,-18.0422
 z
M 19.7917,-19.8464 L 21.875,-19.8464 L 20.8333,-21.6506 L 21.875,-23.4548 L 19.7917,-23.4548 L 18.75,-25.2591
 L 17.7083,-23.4548 L 15.625,-23.4548 L 16.6667,-21.6506 L 15.625,-19.8464 L 17.7083,-19.8464 L 18.75,-18.0422
 z
M 7.29166,-19.8464 L 9.375,-19.8464 L 8.33333,-21.6506 L 9.375,-23.4548 L 7.29166,-23.4548 L 6.25,-25.2591
 L 5.20834,-23.4548 L 3.125,-23.4548 L 4.16667,-21.6506 L 3.125,-19.8464 L 5.20834,-19.8464 L 6.25,-18.0422
 z
M -5.20834,-19.8464 L -3.125,-19.8464 L -4.16667,-21.6506 L -3.125,-23.4548 L -5.20834,-23.4548 L -6.25,-25.2591
 L -7.29166,-23.4548 L -9.375,-23.4548 L -8.33333,-21.6506 L -9.375,-19.8464 L -7.29166,-19.8464 L -6.25,-18.0422
 z
M 46.875,-23.4548 L 40.625,-23.4548 L 43.75,-18.0422 z
M 34.375,-23.4548 L 28.125,-23.4548 L 31.25,-18.0422 z
M -40.625,-23.4548 L -46.875,-23.4548 L -43.75,-18.0422 z
M -28.125,-23.4548 L -34.375,-23.4548 L -31.25,-18.0422 z
M -3.125,-19.8464 L -6.25,-14.4337 L 0,-14.4337 z
M 21.875,-19.8464 L 18.75,-14.4337 L 25,-14.4337 z
M -14.5833,-14.4337 L -12.5,-14.4337 L -13.5417,-16.238 L -12.5,-18.0422 L -14.5833,-18.0422 L -15.625,-19.8464
 L -16.6667,-18.0422 L -18.75,-18.0422 L -17.7083,-16.238 L -18.75,-14.4337 L -16.6667,-14.4337 L -15.625,-12.6295
 z
M 3.125,-19.8464 L 0,-14.4337 L 6.25,-14.4337 z
M -8.33334,-14.4337 L -6.25,-14.4337 L -7.29167,-16.238 L -6.25,-18.0422 L -8.33334,-18.0422 L -9.375,-19.8464
 L -10.4167,-18.0422 L -12.5,-18.0422 L -11.4583,-16.238 L -12.5,-14.4337 L -10.4167,-14.4337 L -9.375,-12.6295
 z
M 16.6667,-14.4337 L 18.75,-14.4337 L 17.7083,-16.238 L 18.75,-18.0422 L 16.6667,-18.0422 L 15.625,-19.8464
 L 14.5833,-18.0422 L 12.5,-18.0422 L 13.5417,-16.238 L 12.5,-14.4337 L 14.5833,-14.4337 L 15.625,-12.6295
 z
M -21.875,-19.8464 L -25,-14.4337 L -18.75,-14.4337 z
M 10.4167,-14.4337 L 12.5,-14.4337 L 11.4583,-16.238 L 12.5,-18.0422 L 10.4167,-18.0422 L 9.375,-19.8464
 L 8.33334,-18.0422 L 6.25,-18.0422 L 7.29167,-16.238 L 6.25,-14.4337 L 8.33334,-14.4337 L 9.375,-12.6295
 z
M -31.25,-18.0422 L -37.5,-18.0422 L -34.375,-12.6295 z
M -37.5,-18.0422 L -43.75,-18.0422 L -40.625,-12.6295 z
M 37.5,-18.0422 L 31.25,-18.0422 L 34.375,-12.6295 z
M 43.75,-18.0422 L 37.5,-18.0422 L 40.625,-12.6295 z
M -25,-14.4337 L -28.125,-9.02109 L -21.875,-9.02109 z
M 25,-14.4337 L 21.875,-9.02109 L 28.125,-9.02109 z
M 15.625,-12.6295 L 9.375,-12.6295 L 12.5,-7.21687 z
M -9.375,-12.6295 L -15.625,-12.6295 L -12.5,-7.21687 z
M -34.375,-12.6295 L -40.625,-12.6295 L -37.5,-7.21687 z
M 40.625,-12.6295 L 34.375,-12.6295 L 37.5,-7.21687 z
M -27.0833,-3.60843 L -25,-3.60843 L -26.0417,-5.41264 L -25,-7.21687 L -27.0833,-7.21687 L -28.125,-9.02109
 L -29.1667,-7.21687 L -31.25,-7.21687 L -30.2083,-5.41266 L -31.25,-3.60843 L -29.1667,-3.60843 L -28.125,-1.80421
 z
M 29.1667,-3.60843 L 31.25,-3.60843 L 30.2083,-5.41266 L 31.25,-7.21687 L 29.1667,-7.21687 L 28.125,-9.02109
 L 27.0833,-7.21687 L 25,-7.21687 L 26.0417,-5.41264 L 25,-3.60843 L 27.0833,-3.60843 L 28.125,-1.80421
 z
M 22.9167,-3.60843 L 25,-3.60843 L 23.9583,-5.41264 L 25,-7.21687 L 22.9167,-7.21687 L 21.875,-9.02109
 L 20.8333,-7.21687 L 18.75,-7.21687 L 19.7917,-5.41264 L 18.75,-3.60843 L 20.8333,-3.60843 L 21.875,-1.80421
 z
M -20.8333,-3.60843 L -18.75,-3.60843 L -19.7917,-5.41264 L -18.75,-7.21687 L -20.8333,-7.21687 L -21.875,-9.02109
 L -22.9167,-7.21687 L -25,-7.21687 L -23.9583,-5.41264 L -25,-3.60843 L -22.9167,-3.60843 L -21.875,-1.80421
 z
M -31.25,-7.21687 L -37.5,-7.21687 L -34.375,-1.80421 z
M 37.5,-7.21687 L 31.25,-7.21687 L 34.375,-1.80421 z
M -12.5,-7.21687 L -18.75,-7.21687 L -15.625,-1.80421 z
M 18.75,-7.21687 L 12.5,-7.21687 L 15.625,-1.80421 z
M 32.2917,1.80421 L 34.375,1.80421 L 33.3333,-0 L 34.375,-1.80421 L 32.2917,-1.80421 L 31.25,-3.60843
 L 30.2083,-1.80421 L 28.125,-1.80421 L 29.1667,-0 L 28.125,1.80421 L 30.2083,1.80421 L 31.25,3.60843
 z
M 19.7917,1.80421 L 21.875,1.80421 L 20.8333,-0 L 21.875,-1.80421 L 19.7917,-1.80421 L 18.75,-3.60843
 L 17.7083,-1.80421 L 15.625,-1.80421 L 16.6667,-0 L 15.625,1.80421 L 17.7083,1.80421 L 18.75,3.60843
 z
M -17.7083,1.80421 L -15.625,1.80421 L -16.6667,-0 L -15.625,-1.80421 L -17.7083,-1.80421 L -18.75,-3.60843
 L -19.7917,-1.80421 L -21.875,-1.80421 L -20.8333,-0 L -21.875,1.80421 L -19.7917,1.80421 L -18.75,3.60843
 z
M -30.2083,1.80421 L -28.125,1.80421 L -29.1667,-0 L -28.125,-1.80421 L -30.2083,-1.80421 L -31.25,-3.60843
 L -32.2917,-1.80421 L -34.375,-1.80421 L -33.3333,-0 L -34.375,1.80421 L -32.2917,1.80421 L -31.25,3.60843
 z
M -34.375,1.80421 L -37.5,7.21687 L -31.25,7.21687 z
M -20.8333,7.21687 L -18.75,7.21687 L -19.7917,5.41266 L -18.75,3.60843 L -20.8333,3.60843 L -21.875,1.80421
 L -22.9167,3.60843 L -25,3.60843 L -23.9583,5.41266 L -25,7.21687 L -22.9167,7.21687 L -21.875,9.02109
 z
M 34.375,1.80421 L 31.25,7.21687 L 37.5,7.21687 z
M -27.0833,7.21687 L -25,7.21687 L -26.0417,5.41266 L -25,3.60843 L -27.0833,3.60843 L -28.125,1.80421
 L -29.1667,3.60843 L -31.25,3.60843 L -30.2083,5.41266 L -31.25,7.21687 L -29.1667,7.21687 L -28.125,9.02109
 z
M 29.1667,7.21687 L 31.25,7.21687 L 30.2083,5.41266 L 31.25,3.60843 L 29.1667,3.60843 L 28.125,1.80421
 L 27.0833,3.60843 L 25,3.60843 L 26.0417,5.41266 L 25,7.21687 L 27.0833,7.21687 L 28.125,9.02109
 z
M -15.625,1.80421 L -18.75,7.21687 L -12.5,7.21687 z
M 22.9167,7.21687 L 25,7.21687 L 23.9583,5.41266 L 25,3.60843 L 22.9167,3.60843 L 21.875,1.80421
 L 20.8333,3.60843 L 18.75,3.60843 L 19.7917,5.41266 L 18.75,7.21687 L 20.8333,7.21687 L 21.875,9.02109
 z
M 15.625,1.80421 L 12.5,7.21687 L 18.75,7.21687 z
M -37.5,7.21687 L -40.625,12.6295 L -34.375,12.6295 z
M 37.5,7.21687 L 34.375,12.6295 L 40.625,12.6295 z
M 12.5,7.21687 L 9.375,12.6295 L 15.625,12.6295 z
M -12.5,7.21687 L -15.625,12.6295 L -9.375,12.6295 z
M -21.875,9.02109 L -28.125,9.02109 L -25,14.4337 z
M 28.125,9.02109 L 21.875,9.02109 L 25,14.4337 z
M 16.6667,18.0422 L 18.75,18.0422 L 17.7083,16.238 L 18.75,14.4337 L 16.6667,14.4337 L 15.625,12.6295
 L 14.5833,14.4337 L 12.5,14.4337 L 13.5417,16.238 L 12.5,18.0422 L 14.5833,18.0422 L 15.625,19.8464
 z
M -8.33334,18.0422 L -6.25,18.0422 L -7.29167,16.238 L -6.25,14.4337 L -8.33334,14.4337 L -9.375,12.6295
 L -10.4167,14.4337 L -12.5,14.4337 L -11.4583,16.238 L -12.5,18.0422 L -10.4167,18.0422 L -9.375,19.8464
 z
M -40.625,12.6295 L -43.75,18.0422 L -37.5,18.0422 z
M -14.5833,18.0422 L -12.5,18.0422 L -13.5417,16.238 L -12.5,14.4337 L -14.5833,14.4337 L -15.625,12.6295
 L -16.6667,14.4337 L -18.75,14.4337 L -17.7083,16.238 L -18.75,18.0422 L -16.6667,18.0422 L -15.625,19.8464
 z
M 10.4167,18.0422 L 12.5,18.0422 L 11.4583,16.238 L 12.5,14.4337 L 10.4167,14.4337 L 9.375,12.6295
 L 8.33334,14.4337 L 6.25,14.4337 L 7.29167,16.238 L 6.25,18.0422 L 8.33334,18.0422 L 9.375,19.8464
 z
M 34.375,12.6295 L 31.25,18.0422 L 37.5,18.0422 z
M -34.375,12.6295 L -37.5,18.0422 L -31.25,18.0422 z
M 40.625,12.6295 L 37.5,18.0422 L 43.75,18.0422 z
M 25,14.4337 L 18.75,14.4337 L 21.875,19.8464 z
M 6.25,14.4337 L 0,14.4337 L 3.125,19.8464 z
M -18.75,14.4337 L -25,14.4337 L -21.875,19.8464 z
M 0,14.4337 L -6.25,14.4337 L -3.125,19.8464 z
M 19.7917,23.4548 L 21.875,23.4548 L 20.8333,21.6506 L 21.875,19.8464 L 19.7917,19.8464 L 18.75,18.0422
 L 17.7083,19.8464 L 15.625,19.8464 L 16.6667,21.6506 L 15.625,23.4548 L 17.7083,23.4548 L 18.75,25.2591
 z
M -43.75,18.0422 L -46.875,23.4548 L -40.625,23.4548 z
M 31.25,18.0422 L 28.125,23.4548 L 34.375,23.4548 z
M -17.7083,23.4548 L -15.625,23.4548 L -16.6667,21.6506 L -15.625,19.8464 L -17.7083,19.8464 L -18.75,18.0422
 L -19.7917,19.8464 L -21.875,19.8464 L -20.8333,21.6506 L -21.875,23.4548 L -19.7917,23.4548 L -18.75,25.2591
 z
M -5.20834,23.4548 L -3.125,23.4548 L -4.16667,21.6506 L -3.125,19.8464 L -5.20834,19.8464 L -6.25,18.0422
 L -7.29166,19.8464 L -9.375,19.8464 L -8.33333,21.6506 L -9.375,23.4548 L -7.29166,23.4548 L -6.25,25.2591
 z
M -31.25,18.0422 L -34.375,23.4548 L -28.125,23.4548 z
M 43.75,18.0422 L 40.625,23.4548 L 46.875,23.4548 z
M 7.29166,23.4548 L 9.375,23.4548 L 8.33333,21.6506 L 9.375,19.8464 L 7.29166,19.8464 L 6.25,18.0422
 L 5.20834,19.8464 L 3.125,19.8464 L 4.16667,21.6506 L 3.125,23.4548 L 5.20834,23.4548 L 6.25,25.2591
 z
M 46.875,23.4548 L 43.75,28.8675 L 50,28.8675 z
M -40.625,23.4548 L -43.75,28.8675 L -37.5,28.8675 z
M 3.125,23.4548 L 0,28.8675 L 6.25,28.8675 z
M -34.375,23.4548 L -37.5,28.8675 L -31.25,28.8675 z
M -3.125,23.4548 L -6.25,28.8675 L 0,28.8675 z
M 10.4167,28.8675 L 12.5,28.8675 L 11.4583,27.0633 L 12.5,25.2591 L 10.4167,25.2591 L 9.375,23.4548
 L 8.33334,25.2591 L 6.25,25.2591 L 7.29167,27.0633 L 6.25,28.8675 L 8.33334,28.8675 L 9.375,30.6717
 z
M -28.125,23.4548 L -31.25,28.8675 L -25,28.8675 z
M -8.33334,28.8675 L -6.25,28.8675 L -7.29167,27.0633 L -6.25,25.2591 L -8.33334,25.2591 L -9.375,23.4548
 L -10.4167,25.2591 L -12.5,25.2591 L -11.4583,27.0633 L -12.5,28.8675 L -10.4167,28.8675 L -9.375,30.6717
 z
M 16.6667,28.8675 L 18.75,28.8675 L 17.7083,27.0633 L 18.75,25.2591 L 16.6667,25.2591 L 15.625,23.4548
 L 14.5833,25.2591 L 12.5,25.2591 L 13.5417,27.0633 L 12.5,28.8675 L 14.5833,28.8675 L 15.625,30.6717
 z
M 21.875,23.4548 L 18.75,28.8675 L 25,28.8675 z
M 28.125,23.4548 L 25,28.8675 L 31.25,28.8675 z
M -14.5833,28.8675 L -12.5,28.8675 L -13.5417,27.0633 L -12.5,25.2591 L -14.5833,25.2591 L -15.625,23.4548
 L -16.6667,25.2591 L -18.75,25.2591 L -17.7083,27.0633 L -18.75,28.8675 L -16.6667,28.8675 L -15.625,30.6717
 z
M 34.375,23.4548 L 31.25,28.8675 L 37.5,28.8675 z
M -21.875,23.4548 L -25,28.8675 L -18.75,28.8675 z
M 40.625,23.4548 L 37.5,28.8675 L 43.75,28.8675 z
M -46.875,23.4548 L -50,28.8675 L -43.75,28.8675 z
M -9.375,30.6717 L -15.625,30.6717 L -12.5,36.0844 z
M 15.625,30.6717 L 9.375,30.6717 L 12.5,36.0844 z
M -6.25,36.0844 L -12.5,36.0844 L -9.375,41.497 z
M 0,36.0844 L -6.25,36.0844 L -3.125,41.497 z
M 6.25,36.0844 L 0,36.0844 L 3.125,41.497 z
M 12.5,36.0844 L 6.25,36.0844 L 9.375,41.497 z
M -3.125,41.497 L -9.375,41.497 L -6.25,46.9097 z
M 9.375,41.497 L 3.125,41.497 L 6.25,46.9097 z
M 0,46.9097 L -6.25,46.9097 L -3.125,52.3224 z
M 6.25,46.9097 L 0,46.9097 L 3.125,52.3224 z
M 3.125,52.3224 L -3.125,52.3224 L 0,57.735 z
" stroke="black" fill="lightgray" stroke-width="0.5"/>
</svg>
