  0
SECTION
  2
BLOCKS
  0
ENDSEC
  0
SECTION
  2
ENTITIES
  0
LINE
  8
0
 10
0
 20
57.735
 11
-3.125
 21
52.3224
  0
LINE
  8
0
 10
-3.125
 20
52.3224
 11
3.125
 21
52.3224
  0
LINE
  8
0
 10
3.125
 20
52.3224
 11
0
 21
57.735
  0
LINE
  8
0
 10
3.125
 20
52.3224
 11
0
 21
46.9097
  0
LINE
  8
0
 10
0
 20
46.9097
 11
6.25
 21
46.9097
  0
LINE
  8
0
 10
6.25
 20
46.9097
 11
3.125
 21
52.3224
  0
LINE
  8
0
 10
-3.125
 20
52.3224
 11
-6.25
 21
46.9097
  0
LINE
  8
0
 10
-6.25
 20
46.9097
 11
0
 21
46.9097
  0
LINE
  8
0
 10
0
 20
46.9097
 11
-3.125
 21
52.3224
  0
LINE
  8
0
 10
6.25
 20
46.9097
 11
3.125
 21
41.497
  0
LINE
  8
0
 10
3.125
 20
41.497
 11
9.375
 21
41.497
  0
LINE
  8
0
 10
9.375
 20
41.497
 11
6.25
 21
46.9097
  0
LINE
  8
0
 10
-6.25
 20
46.9097
 11
-9.375
 21
41.497
  0
LINE
  8
0
 10
-9.375
 20
41.497
 11
-3.125
 21
41.497
  0
LINE
  8
0
 10
-3.125
 20
41.497
 11
-6.25
 21
46.9097
  0
LINE
  8
0
 10
9.375
 20
41.497
 11
6.25
 21
36.0844
  0
LINE
  8
0
 10
6.25
 20
36.0844
 11
12.5
 21
36.0844
  0
LINE
  8
0
 10
12.5
 20
36.0844
 11
9.375
 21
41.497
  0
LINE
  8
0
 10
3.125
 20
41.497
 11
0
 21
36.0844
  0
LINE
  8
0
 10
0
 20
36.0844
 11
6.25
 21
36.0844
  0
LINE
  8
0
 10
6.25
 20
36.0844
 11
3.125
 21
41.497
  0
LINE
  8
0
 10
-3.125
 20
41.497
 11
-6.25
 21
36.0844
  0
LINE
  8
0
 10
-6.25
 20
36.0844
 11
0
 21
36.0844
  0
LINE
  8
0
 10
0
 20
36.0844
 11
-3.125
 21
41.497
  0
LINE
  8
0
 10
-9.375
 20
41.497
 11
-12.5
 21
36.0844
  0
LINE
  8
0
 10
-12.5
 20
36.0844
 11
-6.25
 21
36.0844
  0
LINE
  8
0
 10
-6.25
 20
36.0844
 11
-9.375
 21
41.497
  0
LINE
  8
0
 10
12.5
 20
36.0844
 11
9.375
 21
30.6717
  0
LINE
  8
0
 10
9.375
 20
30.6717
 11
15.625
 21
30.6717
  0
LINE
  8
0
 10
15.625
 20
30.6717
 11
12.5
 21
36.0844
  0
LINE
  8
0
 10
-12.5
 20
36.0844
 11
-15.625
 21
30.6717
  0
LINE
  8
0
 10
-15.625
 20
30.6717
 11
-9.375
 21
30.6717
  0
LINE
  8
0
 10
-9.375
 20
30.6717
 11
-12.5
 21
36.0844
  0
LINE
  8
0
 10
16.6667
 20
25.2591
 11
18.75
 21
25.2591
  0
LINE
  8
0
 10
18.75
 20
25.2591
 11
17.7083
 21
27.0633
  0
LINE
  8
0
 10
17.7083
 20
27.0633
 11
18.75
 21
28.8675
  0
LINE
  8
0
 10
18.75
 20
28.8675
 11
16.6667
 21
28.8675
  0
LINE
  8
0
 10
16.6667
 20
28.8675
 11
15.625
 21
30.6717
  0
LINE
  8
0
 10
15.625
 20
30.6717
 11
14.5833
 21
28.8675
  0
LINE
  8
0
 10
14.5833
 20
28.8675
 11
12.5
 21
28.8675
  0
LINE
  8
0
 10
12.5
 20
28.8675
 11
13.5417
 21
27.0633
  0
LINE
  8
0
 10
13.5417
 20
27.0633
 11
12.5
 21
25.2591
  0
LINE
  8
0
 10
12.5
 20
25.2591
 11
14.5833
 21
25.2591
  0
LINE
  8
0
 10
14.5833
 20
25.2591
 11
15.625
 21
23.4548
  0
LINE
  8
0
 10
15.625
 20
23.4548
 11
16.6667
 21
25.2591
  0
LINE
  8
0
 10
10.4167
 20
25.2591
 11
12.5
 21
25.2591
  0
LINE
  8
0
 10
12.5
 20
25.2591
 11
11.4583
 21
27.0633
  0
LINE
  8
0
 10
11.4583
 20
27.0633
 11
12.5
 21
28.8675
  0
LINE
  8
0
 10
12.5
 20
28.8675
 11
10.4167
 21
28.8675
  0
LINE
  8
0
 10
10.4167
 20
28.8675
 11
9.375
 21
30.6717
  0
LINE
  8
0
 10
9.375
 20
30.6717
 11
8.33334
 21
28.8675
  0
LINE
  8
0
 10
8.33334
 20
28.8675
 11
6.25
 21
28.8675
  0
LINE
  8
0
 10
6.25
 20
28.8675
 11
7.29167
 21
27.0633
  0
LINE
  8
0
 10
7.29167
 20
27.0633
 11
6.25
 21
25.2591
  0
LINE
  8
0
 10
6.25
 20
25.2591
 11
8.33334
 21
25.2591
  0
LINE
  8
0
 10
8.33334
 20
25.2591
 11
9.375
 21
23.4548
  0
LINE
  8
0
 10
9.375
 20
23.4548
 11
10.4167
 21
25.2591
  0
LINE
  8
0
 10
-8.33334
 20
25.2591
 11
-6.25
 21
25.2591
  0
LINE
  8
0
 10
-6.25
 20
25.2591
 11
-7.29167
 21
27.0633
  0
LINE
  8
0
 10
-7.29167
 20
27.0633
 11
-6.25
 21
28.8675
  0
LINE
  8
0
 10
-6.25
 20
28.8675
 11
-8.33334
 21
28.8675
  0
LINE
  8
0
 10
-8.33334
 20
28.8675
 11
-9.375
 21
30.6717
  0
LINE
  8
0
 10
-9.375
 20
30.6717
 11
-10.4167
 21
28.8675
  0
LINE
  8
0
 10
-10.4167
 20
28.8675
 11
-12.5
 21
28.8675
  0
LINE
  8
0
 10
-12.5
 20
28.8675
 11
-11.4583
 21
27.0633
  0
LINE
  8
0
 10
-11.4583
 20
27.0633
 11
-12.5
 21
25.2591
  0
LINE
  8
0
 10
-12.5
 20
25.2591
 11
-10.4167
 21
25.2591
  0
LINE
  8
0
 10
-10.4167
 20
25.2591
 11
-9.375
 21
23.4548
  0
LINE
  8
0
 10
-9.375
 20
23.4548
 11
-8.33334
 21
25.2591
  0
LINE
  8
0
 10
-14.5833
 20
25.2591
 11
-12.5
 21
25.2591
  0
LINE
  8
0
 10
-12.5
 20
25.2591
 11
-13.5417
 21
27.0633
  0
LINE
  8
0
 10
-13.5417
 20
27.0633
 11
-12.5
 21
28.8675
  0
LINE
  8
0
 10
-12.5
 20
28.8675
 11
-14.5833
 21
28.8675
  0
LINE
  8
0
 10
-14.5833
 20
28.8675
 11
-15.625
 21
30.6717
  0
LINE
  8
0
 10
-15.625
 20
30.6717
 11
-16.6667
 21
28.8675
  0
LINE
  8
0
 10
-16.6667
 20
28.8675
 11
-18.75
 21
28.8675
  0
LINE
  8
0
 10
-18.75
 20
28.8675
 11
-17.7083
 21
27.0633
  0
LINE
  8
0
 10
-17.7083
 20
27.0633
 11
-18.75
 21
25.2591
  0
LINE
  8
0
 10
-18.75
 20
25.2591
 11
-16.6667
 21
25.2591
  0
LINE
  8
0
 10
-16.6667
 20
25.2591
 11
-15.625
 21
23.4548
  0
LINE
  8
0
 10
-15.625
 20
23.4548
 11
-14.5833
 21
25.2591
  0
LINE
  8
0
 10
-43.75
 20
28.8675
 11
-50
 21
28.8675
  0
LINE
  8
0
 10
-50
 20
28.8675
 11
-46.875
 21
23.4548
  0
LINE
  8
0
 10
-46.875
 20
23.4548
 11
-43.75
 21
28.8675
  0
LINE
  8
0
 10
43.75
 20
28.8675
 11
37.5
 21
28.8675
  0
LINE
  8
0
 10
37.5
 20
28.8675
 11
40.625
 21
23.4548
  0
LINE
  8
0
 10
40.625
 20
23.4548
 11
43.75
 21
28.8675
  0
LINE
  8
0
 10
37.5
 20
28.8675
 11
31.25
 21
28.8675
  0
LINE
  8
0
 10
31.25
 20
28.8675
 11
34.375
 21
23.4548
  0
LINE
  8
0
 10
34.375
 20
23.4548
 11
37.5
 21
28.8675
  0
LINE
  8
0
 10
31.25
 20
28.8675
 11
25
 21
28.8675
  0
LINE
  8
0
 10
25
 20
28.8675
 11
28.125
 21
23.4548
  0
LINE
  8
0
 10
28.125
 20
23.4548
 11
31.25
 21
28.8675
  0
LINE
  8
0
 10
25
 20
28.8675
 11
18.75
 21
28.8675
  0
LINE
  8
0
 10
18.75
 20
28.8675
 11
21.875
 21
23.4548
  0
LINE
  8
0
 10
21.875
 20
23.4548
 11
25
 21
28.8675
  0
LINE
  8
0
 10
-37.5
 20
28.8675
 11
-43.75
 21
28.8675
  0
LINE
  8
0
 10
-43.75
 20
28.8675
 11
-40.625
 21
23.4548
  0
LINE
  8
0
 10
-40.625
 20
23.4548
 11
-37.5
 21
28.8675
  0
LINE
  8
0
 10
50
 20
28.8675
 11
43.75
 21
28.8675
  0
LINE
  8
0
 10
43.75
 20
28.8675
 11
46.875
 21
23.4548
  0
LINE
  8
0
 10
46.875
 20
23.4548
 11
50
 21
28.8675
  0
LINE
  8
0
 10
6.25
 20
28.8675
 11
0
 21
28.8675
  0
LINE
  8
0
 10
0
 20
28.8675
 11
3.125
 21
23.4548
  0
LINE
  8
0
 10
3.125
 20
23.4548
 11
6.25
 21
28.8675
  0
LINE
  8
0
 10
0
 20
28.8675
 11
-6.25
 21
28.8675
  0
LINE
  8
0
 10
-6.25
 20
28.8675
 11
-3.125
 21
23.4548
  0
LINE
  8
0
 10
-3.125
 20
23.4548
 11
0
 21
28.8675
  0
LINE
  8
0
 10
-31.25
 20
28.8675
 11
-37.5
 21
28.8675
  0
LINE
  8
0
 10
-37.5
 20
28.8675
 11
-34.375
 21
23.4548
  0
LINE
  8
0
 10
-34.375
 20
23.4548
 11
-31.25
 21
28.8675
  0
LINE
  8
0
 10
-25
 20
28.8675
 11
-31.25
 21
28.8675
  0
LINE
  8
0
 10
-31.25
 20
28.8675
 11
-28.125
 21
23.4548
  0
LINE
  8
0
 10
-28.125
 20
23.4548
 11
-25
 21
28.8675
  0
LINE
  8
0
 10
-18.75
 20
28.8675
 11
-25
 21
28.8675
  0
LINE
  8
0
 10
-25
 20
28.8675
 11
-21.875
 21
23.4548
  0
LINE
  8
0
 10
-21.875
 20
23.4548
 11
-18.75
 21
28.8675
  0
LINE
  8
0
 10
-17.7083
 20
19.8464
 11
-15.625
 21
19.8464
  0
LINE
  8
0
 10
-15.625
 20
19.8464
 11
-16.6667
 21
21.6506
  0
LINE
  8
0
 10
-16.6667
 20
21.6506
 11
-15.625
 21
23.4548
  0
LINE
  8
0
 10
-15.625
 20
23.4548
 11
-17.7083
 21
23.4548
  0
LINE
  8
0
 10
-17.7083
 20
23.4548
 11
-18.75
 21
25.2591
  0
LINE
  8
0
 10
-18.75
 20
25.2591
 11
-19.7917
 21
23.4548
  0
LINE
  8
0
 10
-19.7917
 20
23.4548
 11
-21.875
 21
23.4548
  0
LINE
  8
0
 10
-21.875
 20
23.4548
 11
-20.8333
 21
21.6506
  0
LINE
  8
0
 10
-20.8333
 20
21.6506
 11
-21.875
 21
19.8464
  0
LINE
  8
0
 10
-21.875
 20
19.8464
 11
-19.7917
 21
19.8464
  0
LINE
  8
0
 10
-19.7917
 20
19.8464
 11
-18.75
 21
18.0422
  0
LINE
  8
0
 10
-18.75
 20
18.0422
 11
-17.7083
 21
19.8464
  0
LINE
  8
0
 10
19.7917
 20
19.8464
 11
21.875
 21
19.8464
  0
LINE
  8
0
 10
21.875
 20
19.8464
 11
20.8333
 21
21.6506
  0
LINE
  8
0
 10
20.8333
 20
21.6506
 11
21.875
 21
23.4548
  0
LINE
  8
0
 10
21.875
 20
23.4548
 11
19.7917
 21
23.4548
  0
LINE
  8
0
 10
19.7917
 20
23.4548
 11
18.75
 21
25.2591
  0
LINE
  8
0
 10
18.75
 20
25.2591
 11
17.7083
 21
23.4548
  0
LINE
  8
0
 10
17.7083
 20
23.4548
 11
15.625
 21
23.4548
  0
LINE
  8
0
 10
15.625
 20
23.4548
 11
16.6667
 21
21.6506
  0
LINE
  8
0
 10
16.6667
 20
21.6506
 11
15.625
 21
19.8464
  0
LINE
  8
0
 10
15.625
 20
19.8464
 11
17.7083
 21
19.8464
  0
LINE
  8
0
 10
17.7083
 20
19.8464
 11
18.75
 21
18.0422
  0
LINE
  8
0
 10
18.75
 20
18.0422
 11
19.7917
 21
19.8464
  0
LINE
  8
0
 10
7.29166
 20
19.8464
 11
9.375
 21
19.8464
  0
LINE
  8
0
 10
9.375
 20
19.8464
 11
8.33333
 21
21.6506
  0
LINE
  8
0
 10
8.33333
 20
21.6506
 11
9.375
 21
23.4548
  0
LINE
  8
0
 10
9.375
 20
23.4548
 11
7.29166
 21
23.4548
  0
LINE
  8
0
 10
7.29166
 20
23.4548
 11
6.25
 21
25.2591
  0
LINE
  8
0
 10
6.25
 20
25.2591
 11
5.20834
 21
23.4548
  0
LINE
  8
0
 10
5.20834
 20
23.4548
 11
3.125
 21
23.4548
  0
LINE
  8
0
 10
3.125
 20
23.4548
 11
4.16667
 21
21.6506
  0
LINE
  8
0
 10
4.16667
 20
21.6506
 11
3.125
 21
19.8464
  0
LINE
  8
0
 10
3.125
 20
19.8464
 11
5.20834
 21
19.8464
  0
LINE
  8
0
 10
5.20834
 20
19.8464
 11
6.25
 21
18.0422
  0
LINE
  8
0
 10
6.25
 20
18.0422
 11
7.29166
 21
19.8464
  0
LINE
  8
0
 10
-5.20834
 20
19.8464
 11
-3.125
 21
19.8464
  0
LINE
  8
0
 10
-3.125
 20
19.8464
 11
-4.16667
 21
21.6506
  0
LINE
  8
0
 10
-4.16667
 20
21.6506
 11
-3.125
 21
23.4548
  0
LINE
  8
0
 10
-3.125
 20
23.4548
 11
-5.20834
 21
23.4548
  0
LINE
  8
0
 10
-5.20834
 20
23.4548
 11
-6.25
 21
25.2591
  0
LINE
  8
0
 10
-6.25
 20
25.2591
 11
-7.29166
 21
23.4548
  0
LINE
  8
0
 10
-7.29166
 20
23.4548
 11
-9.375
 21
23.4548
  0
LINE
  8
0
 10
-9.375
 20
23.4548
 11
-8.33333
 21
21.6506
  0
LINE
  8
0
 10
-8.33333
 20
21.6506
 11
-9.375
 21
19.8464
  0
LINE
  8
0
 10
-9.375
 20
19.8464
 11
-7.29166
 21
19.8464
  0
LINE
  8
0
 10
-7.29166
 20
19.8464
 11
-6.25
 21
18.0422
  0
LINE
  8
0
 10
-6.25
 20
18.0422
 11
-5.20834
 21
19.8464
  0
LINE
  8
0
 10
46.875
 20
23.4548
 11
40.625
 21
23.4548
  0
LINE
  8
0
 10
40.625
 20
23.4548
 11
43.75
 21
18.0422
  0
LINE
  8
0
 10
43.75
 20
18.0422
 11
46.875
 21
23.4548
  0
LINE
  8
0
 10
34.375
 20
23.4548
 11
28.125
 21
23.4548
  0
LINE
  8
0
 10
28.125
 20
23.4548
 11
31.25
 21
18.0422
  0
LINE
  8
0
 10
31.25
 20
18.0422
 11
34.375
 21
23.4548
  0
LINE
  8
0
 10
-40.625
 20
23.4548
 11
-46.875
 21
23.4548
  0
LINE
  8
0
 10
-46.875
 20
23.4548
 11
-43.75
 21
18.0422
  0
LINE
  8
0
 10
-43.75
 20
18.0422
 11
-40.625
 21
23.4548
  0
LINE
  8
0
 10
-28.125
 20
23.4548
 11
-34.375
 21
23.4548
  0
LINE
  8
0
 10
-34.375
 20
23.4548
 11
-31.25
 21
18.0422
  0
LINE
  8
0
 10
-31.25
 20
18.0422
 11
-28.125
 21
23.4548
  0
LINE
  8
0
 10
-3.125
 20
19.8464
 11
-6.25
 21
14.4337
  0
LINE
  8
0
 10
-6.25
 20
14.4337
 11
0
 21
14.4337
  0
LINE
  8
0
 10
0
 20
14.4337
 11
-3.125
 21
19.8464
  0
LINE
  8
0
 10
21.875
 20
19.8464
 11
18.75
 21
14.4337
  0
LINE
  8
0
 10
18.75
 20
14.4337
 11
25
 21
14.4337
  0
LINE
  8
0
 10
25
 20
14.4337
 11
21.875
 21
19.8464
  0
LINE
  8
0
 10
-14.5833
 20
14.4337
 11
-12.5
 21
14.4337
  0
LINE
  8
0
 10
-12.5
 20
14.4337
 11
-13.5417
 21
16.238
  0
LINE
  8
0
 10
-13.5417
 20
16.238
 11
-12.5
 21
18.0422
  0
LINE
  8
0
 10
-12.5
 20
18.0422
 11
-14.5833
 21
18.0422
  0
LINE
  8
0
 10
-14.5833
 20
18.0422
 11
-15.625
 21
19.8464
  0
LINE
  8
0
 10
-15.625
 20
19.8464
 11
-16.6667
 21
18.0422
  0
LINE
  8
0
 10
-16.6667
 20
18.0422
 11
-18.75
 21
18.0422
  0
LINE
  8
0
 10
-18.75
 20
18.0422
 11
-17.7083
 21
16.238
  0
LINE
  8
0
 10
-17.7083
 20
16.238
 11
-18.75
 21
14.4337
  0
LINE
  8
0
 10
-18.75
 20
14.4337
 11
-16.6667
 21
14.4337
  0
LINE
  8
0
 10
-16.6667
 20
14.4337
 11
-15.625
 21
12.6295
  0
LINE
  8
0
 10
-15.625
 20
12.6295
 11
-14.5833
 21
14.4337
  0
LINE
  8
0
 10
3.125
 20
19.8464
 11
0
 21
14.4337
  0
LINE
  8
0
 10
0
 20
14.4337
 11
6.25
 21
14.4337
  0
LINE
  8
0
 10
6.25
 20
14.4337
 11
3.125
 21
19.8464
  0
LINE
  8
0
 10
-8.33334
 20
14.4337
 11
-6.25
 21
14.4337
  0
LINE
  8
0
 10
-6.25
 20
14.4337
 11
-7.29167
 21
16.238
  0
LINE
  8
0
 10
-7.29167
 20
16.238
 11
-6.25
 21
18.0422
  0
LINE
  8
0
 10
-6.25
 20
18.0422
 11
-8.33334
 21
18.0422
  0
LINE
  8
0
 10
-8.33334
 20
18.0422
 11
-9.375
 21
19.8464
  0
LINE
  8
0
 10
-9.375
 20
19.8464
 11
-10.4167
 21
18.0422
  0
LINE
  8
0
 10
-10.4167
 20
18.0422
 11
-12.5
 21
18.0422
  0
LINE
  8
0
 10
-12.5
 20
18.0422
 11
-11.4583
 21
16.238
  0
LINE
  8
0
 10
-11.4583
 20
16.238
 11
-12.5
 21
14.4337
  0
LINE
  8
0
 10
-12.5
 20
14.4337
 11
-10.4167
 21
14.4337
  0
LINE
  8
0
 10
-10.4167
 20
14.4337
 11
-9.375
 21
12.6295
  0
LINE
  8
0
 10
-9.375
 20
12.6295
 11
-8.33334
 21
14.4337
  0
LINE
  8
0
 10
16.6667
 20
14.4337
 11
18.75
 21
14.4337
  0
LINE
  8
0
 10
18.75
 20
14.4337
 11
17.7083
 21
16.238
  0
LINE
  8
0
 10
17.7083
 20
16.238
 11
18.75
 21
18.0422
  0
LINE
  8
0
 10
18.75
 20
18.0422
 11
16.6667
 21
18.0422
  0
LINE
  8
0
 10
16.6667
 20
18.0422
 11
15.625
 21
19.8464
  0
LINE
  8
0
 10
15.625
 20
19.8464
 11
14.5833
 21
18.0422
  0
LINE
  8
0
 10
14.5833
 20
18.0422
 11
12.5
 21
18.0422
  0
LINE
  8
0
 10
12.5
 20
18.0422
 11
13.5417
 21
16.238
  0
LINE
  8
0
 10
13.5417
 20
16.238
 11
12.5
 21
14.4337
  0
LINE
  8
0
 10
12.5
 20
14.4337
 11
14.5833
 21
14.4337
  0
LINE
  8
0
 10
14.5833
 20
14.4337
 11
15.625
 21
12.6295
  0
LINE
  8
0
 10
15.625
 20
12.6295
 11
16.6667
 21
14.4337
  0
LINE
  8
0
 10
-21.875
 20
19.8464
 11
-25
 21
14.4337
  0
LINE
  8
0
 10
-25
 20
14.4337
 11
-18.75
 21
14.4337
  0
LINE
  8
0
 10
-18.75
 20
14.4337
 11
-21.875
 21
19.8464
  0
LINE
  8
0
 10
10.4167
 20
14.4337
 11
12.5
 21
14.4337
  0
LINE
  8
0
 10
12.5
 20
14.4337
 11
11.4583
 21
16.238
  0
LINE
  8
0
 10
11.4583
 20
16.238
 11
12.5
 21
18.0422
  0
LINE
  8
0
 10
12.5
 20
18.0422
 11
10.4167
 21
18.0422
  0
LINE
  8
0
 10
10.4167
 20
18.0422
 11
9.375
 21
19.8464
  0
LINE
  8
0
 10
9.375
 20
19.8464
 11
8.33334
 21
18.0422
  0
LINE
  8
0
 10
8.33334
 20
18.0422
 11
6.25
 21
18.0422
  0
LINE
  8
0
 10
6.25
 20
18.0422
 11
7.29167
 21
16.238
  0
LINE
  8
0
 10
7.29167
 20
16.238
 11
6.25
 21
14.4337
  0
LINE
  8
0
 10
6.25
 20
14.4337
 11
8.33334
 21
14.4337
  0
LINE
  8
0
 10
8.33334
 20
14.4337
 11
9.375
 21
12.6295
  0
LINE
  8
0
 10
9.375
 20
12.6295
 11
10.4167
 21
14.4337
  0
LINE
  8
0
 10
-31.25
 20
18.0422
 11
-37.5
 21
18.0422
  0
LINE
  8
0
 10
-37.5
 20
18.0422
 11
-34.375
 21
12.6295
  0
LINE
  8
0
 10
-34.375
 20
12.6295
 11
-31.25
 21
18.0422
  0
LINE
  8
0
 10
-37.5
 20
18.0422
 11
-43.75
 21
18.0422
  0
LINE
  8
0
 10
-43.75
 20
18.0422
 11
-40.625
 21
12.6295
  0
LINE
  8
0
 10
-40.625
 20
12.6295
 11
-37.5
 21
18.0422
  0
LINE
  8
0
 10
37.5
 20
18.0422
 11
31.25
 21
18.0422
  0
LINE
  8
0
 10
31.25
 20
18.0422
 11
34.375
 21
12.6295
  0
LINE
  8
0
 10
34.375
 20
12.6295
 11
37.5
 21
18.0422
  0
LINE
  8
0
 10
43.75
 20
18.0422
 11
37.5
 21
18.0422
  0
LINE
  8
0
 10
37.5
 20
18.0422
 11
40.625
 21
12.6295
  0
LINE
  8
0
 10
40.625
 20
12.6295
 11
43.75
 21
18.0422
  0
LINE
  8
0
 10
-25
 20
14.4337
 11
-28.125
 21
9.02109
  0
LINE
  8
0
 10
-28.125
 20
9.02109
 11
-21.875
 21
9.02109
  0
LINE
  8
0
 10
-21.875
 20
9.02109
 11
-25
 21
14.4337
  0
LINE
  8
0
 10
25
 20
14.4337
 11
21.875
 21
9.02109
  0
LINE
  8
0
 10
21.875
 20
9.02109
 11
28.125
 21
9.02109
  0
LINE
  8
0
 10
28.125
 20
9.02109
 11
25
 21
14.4337
  0
LINE
  8
0
 10
15.625
 20
12.6295
 11
9.375
 21
12.6295
  0
LINE
  8
0
 10
9.375
 20
12.6295
 11
12.5
 21
7.21687
  0
LINE
  8
0
 10
12.5
 20
7.21687
 11
15.625
 21
12.6295
  0
LINE
  8
0
 10
-9.375
 20
12.6295
 11
-15.625
 21
12.6295
  0
LINE
  8
0
 10
-15.625
 20
12.6295
 11
-12.5
 21
7.21687
  0
LINE
  8
0
 10
-12.5
 20
7.21687
 11
-9.375
 21
12.6295
  0
LINE
  8
0
 10
-34.375
 20
12.6295
 11
-40.625
 21
12.6295
  0
LINE
  8
0
 10
-40.625
 20
12.6295
 11
-37.5
 21
7.21687
  0
LINE
  8
0
 10
-37.5
 20
7.21687
 11
-34.375
 21
12.6295
  0
LINE
  8
0
 10
40.625
 20
12.6295
 11
34.375
 21
12.6295
  0
LINE
  8
0
 10
34.375
 20
12.6295
 11
37.5
 21
7.21687
  0
LINE
  8
0
 10
37.5
 20
7.21687
 11
40.625
 21
12.6295
  0
LINE
  8
0
 10
-27.0833
 20
3.60843
 11
-25
 21
3.60843
  0
LINE
  8
0
 10
-25
 20
3.60843
 11
-26.0417
 21
5.41264
  0
LINE
  8
0
 10
-26.0417
 20
5.41264
 11
-25
 21
7.21687
  0
LINE
  8
0
 10
-25
 20
7.21687
 11
-27.0833
 21
7.21687
  0
LINE
  8
0
 10
-27.0833
 20
7.21687
 11
-28.125
 21
9.02109
  0
LINE
  8
0
 10
-28.125
 20
9.02109
 11
-29.1667
 21
7.21687
  0
LINE
  8
0
 10
-29.1667
 20
7.21687
 11
-31.25
 21
7.21687
  0
LINE
  8
0
 10
-31.25
 20
7.21687
 11
-30.2083
 21
5.41266
  0
LINE
  8
0
 10
-30.2083
 20
5.41266
 11
-31.25
 21
3.60843
  0
LINE
  8
0
 10
-31.25
 20
3.60843
 11
-29.1667
 21
3.60843
  0
LINE
  8
0
 10
-29.1667
 20
3.60843
 11
-28.125
 21
1.80421
  0
LINE
  8
0
 10
-28.125
 20
1.80421
 11
-27.0833
 21
3.60843
  0
LINE
  8
0
 10
29.1667
 20
3.60843
 11
31.25
 21
3.60843
  0
LINE
  8
0
 10
31.25
 20
3.60843
 11
30.2083
 21
5.41266
  0
LINE
  8
0
 10
30.2083
 20
5.41266
 11
31.25
 21
7.21687
  0
LINE
  8
0
 10
31.25
 20
7.21687
 11
29.1667
 21
7.21687
  0
LINE
  8
0
 10
29.1667
 20
7.21687
 11
28.125
 21
9.02109
  0
LINE
  8
0
 10
28.125
 20
9.02109
 11
27.0833
 21
7.21687
  0
LINE
  8
0
 10
27.0833
 20
7.21687
 11
25
 21
7.21687
  0
LINE
  8
0
 10
25
 20
7.21687
 11
26.0417
 21
5.41264
  0
LINE
  8
0
 10
26.0417
 20
5.41264
 11
25
 21
3.60843
  0
LINE
  8
0
 10
25
 20
3.60843
 11
27.0833
 21
3.60843
  0
LINE
  8
0
 10
27.0833
 20
3.60843
 11
28.125
 21
1.80421
  0
LINE
  8
0
 10
28.125
 20
1.80421
 11
29.1667
 21
3.60843
  0
LINE
  8
0
 10
22.9167
 20
3.60843
 11
25
 21
3.60843
  0
LINE
  8
0
 10
25
 20
3.60843
 11
23.9583
 21
5.41264
  0
LINE
  8
0
 10
23.9583
 20
5.41264
 11
25
 21
7.21687
  0
LINE
  8
0
 10
25
 20
7.21687
 11
22.9167
 21
7.21687
  0
LINE
  8
0
 10
22.9167
 20
7.21687
 11
21.875
 21
9.02109
  0
LINE
  8
0
 10
21.875
 20
9.02109
 11
20.8333
 21
7.21687
  0
LINE
  8
0
 10
20.8333
 20
7.21687
 11
18.75
 21
7.21687
  0
LINE
  8
0
 10
18.75
 20
7.21687
 11
19.7917
 21
5.41264
  0
LINE
  8
0
 10
19.7917
 20
5.41264
 11
18.75
 21
3.60843
  0
LINE
  8
0
 10
18.75
 20
3.60843
 11
20.8333
 21
3.60843
  0
LINE
  8
0
 10
20.8333
 20
3.60843
 11
21.875
 21
1.80421
  0
LINE
  8
0
 10
21.875
 20
1.80421
 11
22.9167
 21
3.60843
  0
LINE
  8
0
 10
-20.8333
 20
3.60843
 11
-18.75
 21
3.60843
  0
LINE
  8
0
 10
-18.75
 20
3.60843
 11
-19.7917
 21
5.41264
  0
LINE
  8
0
 10
-19.7917
 20
5.41264
 11
-18.75
 21
7.21687
  0
LINE
  8
0
 10
-18.75
 20
7.21687
 11
-20.8333
 21
7.21687
  0
LINE
  8
0
 10
-20.8333
 20
7.21687
 11
-21.875
 21
9.02109
  0
LINE
  8
0
 10
-21.875
 20
9.02109
 11
-22.9167
 21
7.21687
  0
LINE
  8
0
 10
-22.9167
 20
7.21687
 11
-25
 21
7.21687
  0
LINE
  8
0
 10
-25
 20
7.21687
 11
-23.9583
 21
5.41264
  0
LINE
  8
0
 10
-23.9583
 20
5.41264
 11
-25
 21
3.60843
  0
LINE
  8
0
 10
-25
 20
3.60843
 11
-22.9167
 21
3.60843
  0
LINE
  8
0
 10
-22.9167
 20
3.60843
 11
-21.875
 21
1.80421
  0
LINE
  8
0
 10
-21.875
 20
1.80421
 11
-20.8333
 21
3.60843
  0
LINE
  8
0
 10
-31.25
 20
7.21687
 11
-37.5
 21
7.21687
  0
LINE
  8
0
 10
-37.5
 20
7.21687
 11
-34.375
 21
1.80421
  0
LINE
  8
0
 10
-34.375
 20
1.80421
 11
-31.25
 21
7.21687
  0
LINE
  8
0
 10
37.5
 20
7.21687
 11
31.25
 21
7.21687
  0
LINE
  8
0
 10
31.25
 20
7.21687
 11
34.375
 21
1.80421
  0
LINE
  8
0
 10
34.375
 20
1.80421
 11
37.5
 21
7.21687
  0
LINE
  8
0
 10
-12.5
 20
7.21687
 11
-18.75
 21
7.21687
  0
LINE
  8
0
 10
-18.75
 20
7.21687
 11
-15.625
 21
1.80421
  0
LINE
  8
0
 10
-15.625
 20
1.80421
 11
-12.5
 21
7.21687
  0
LINE
  8
0
 10
18.75
 20
7.21687
 11
12.5
 21
7.21687
  0
LINE
  8
0
 10
12.5
 20
7.21687
 11
15.625
 21
1.80421
  0
LINE
  8
0
 10
15.625
 20
1.80421
 11
18.75
 21
7.21687
  0
LINE
  8
0
 10
32.2917
 20
-1.80421
 11
34.375
 21
-1.80421
  0
LINE
  8
0
 10
34.375
 20
-1.80421
 11
33.3333
 21
0
  0
LINE
  8
0
 10
33.3333
 20
0
 11
34.375
 21
1.80421
  0
LINE
  8
0
 10
34.375
 20
1.80421
 11
32.2917
 21
1.80421
  0
LINE
  8
0
 10
32.2917
 20
1.80421
 11
31.25
 21
3.60843
  0
LINE
  8
0
 10
31.25
 20
3.60843
 11
30.2083
 21
1.80421
  0
LINE
  8
0
 10
30.2083
 20
1.80421
 11
28.125
 21
1.80421
  0
LINE
  8
0
 10
28.125
 20
1.80421
 11
29.1667
 21
0
  0
LINE
  8
0
 10
29.1667
 20
0
 11
28.125
 21
-1.80421
  0
LINE
  8
0
 10
28.125
 20
-1.80421
 11
30.2083
 21
-1.80421
  0
LINE
  8
0
 10
30.2083
 20
-1.80421
 11
31.25
 21
-3.60843
  0
LINE
  8
0
 10
31.25
 20
-3.60843
 11
32.2917
 21
-1.80421
  0
LINE
  8
0
 10
19.7917
 20
-1.80421
 11
21.875
 21
-1.80421
  0
LINE
  8
0
 10
21.875
 20
-1.80421
 11
20.8333
 21
0
  0
LINE
  8
0
 10
20.8333
 20
0
 11
21.875
 21
1.80421
  0
LINE
  8
0
 10
21.875
 20
1.80421
 11
19.7917
 21
1.80421
  0
LINE
  8
0
 10
19.7917
 20
1.80421
 11
18.75
 21
3.60843
  0
LINE
  8
0
 10
18.75
 20
3.60843
 11
17.7083
 21
1.80421
  0
LINE
  8
0
 10
17.7083
 20
1.80421
 11
15.625
 21
1.80421
  0
LINE
  8
0
 10
15.625
 20
1.80421
 11
16.6667
 21
0
  0
LINE
  8
0
 10
16.6667
 20
0
 11
15.625
 21
-1.80421
  0
LINE
  8
0
 10
15.625
 20
-1.80421
 11
17.7083
 21
-1.80421
  0
LINE
  8
0
 10
17.7083
 20
-1.80421
 11
18.75
 21
-3.60843
  0
LINE
  8
0
 10
18.75
 20
-3.60843
 11
19.7917
 21
-1.80421
  0
LINE
  8
0
 10
-17.7083
 20
-1.80421
 11
-15.625
 21
-1.80421
  0
LINE
  8
0
 10
-15.625
 20
-1.80421
 11
-16.6667
 21
0
  0
LINE
  8
0
 10
-16.6667
 20
0
 11
-15.625
 21
1.80421
  0
LINE
  8
0
 10
-15.625
 20
1.80421
 11
-17.7083
 21
1.80421
  0
LINE
  8
0
 10
-17.7083
 20
1.80421
 11
-18.75
 21
3.60843
  0
LINE
  8
0
 10
-18.75
 20
3.60843
 11
-19.7917
 21
1.80421
  0
LINE
  8
0
 10
-19.7917
 20
1.80421
 11
-21.875
 21
1.80421
  0
LINE
  8
0
 10
-21.875
 20
1.80421
 11
-20.8333
 21
0
  0
LINE
  8
0
 10
-20.8333
 20
0
 11
-21.875
 21
-1.80421
  0
LINE
  8
0
 10
-21.875
 20
-1.80421
 11
-19.7917
 21
-1.80421
  0
LINE
  8
0
 10
-19.7917
 20
-1.80421
 11
-18.75
 21
-3.60843
  0
LINE
  8
0
 10
-18.75
 20
-3.60843
 11
-17.7083
 21
-1.80421
  0
LINE
  8
0
 10
-30.2083
 20
-1.80421
 11
-28.125
 21
-1.80421
  0
LINE
  8
0
 10
-28.125
 20
-1.80421
 11
-29.1667
 21
0
  0
LINE
  8
0
 10
-29.1667
 20
0
 11
-28.125
 21
1.80421
  0
LINE
  8
0
 10
-28.125
 20
1.80421
 11
-30.2083
 21
1.80421
  0
LINE
  8
0
 10
-30.2083
 20
1.80421
 11
-31.25
 21
3.60843
  0
LINE
  8
0
 10
-31.25
 20
3.60843
 11
-32.2917
 21
1.80421
  0
LINE
  8
0
 10
-32.2917
 20
1.80421
 11
-34.375
 21
1.80421
  0
LINE
  8
0
 10
-34.375
 20
1.80421
 11
-33.3333
 21
0
  0
LINE
  8
0
 10
-33.3333
 20
0
 11
-34.375
 21
-1.80421
  0
LINE
  8
0
 10
-34.375
 20
-1.80421
 11
-32.2917
 21
-1.80421
  0
LINE
  8
0
 10
-32.2917
 20
-1.80421
 11
-31.25
 21
-3.60843
  0
LINE
  8
0
 10
-31.25
 20
-3.60843
 11
-30.2083
 21
-1.80421
  0
LINE
  8
0
 10
-34.375
 20
-1.80421
 11
-37.5
 21
-7.21687
  0
LINE
  8
0
 10
-37.5
 20
-7.21687
 11
-31.25
 21
-7.21687
  0
LINE
  8
0
 10
-31.25
 20
-7.21687
 11
-34.375
 21
-1.80421
  0
LINE
  8
0
 10
-20.8333
 20
-7.21687
 11
-18.75
 21
-7.21687
  0
LINE
  8
0
 10
-18.75
 20
-7.21687
 11
-19.7917
 21
-5.41266
  0
LINE
  8
0
 10
-19.7917
 20
-5.41266
 11
-18.75
 21
-3.60843
  0
LINE
  8
0
 10
-18.75
 20
-3.60843
 11
-20.8333
 21
-3.60843
  0
LINE
  8
0
 10
-20.8333
 20
-3.60843
 11
-21.875
 21
-1.80421
  0
LINE
  8
0
 10
-21.875
 20
-1.80421
 11
-22.9167
 21
-3.60843
  0
LINE
  8
0
 10
-22.9167
 20
-3.60843
 11
-25
 21
-3.60843
  0
LINE
  8
0
 10
-25
 20
-3.60843
 11
-23.9583
 21
-5.41266
  0
LINE
  8
0
 10
-23.9583
 20
-5.41266
 11
-25
 21
-7.21687
  0
LINE
  8
0
 10
-25
 20
-7.21687
 11
-22.9167
 21
-7.21687
  0
LINE
  8
0
 10
-22.9167
 20
-7.21687
 11
-21.875
 21
-9.02109
  0
LINE
  8
0
 10
-21.875
 20
-9.02109
 11
-20.8333
 21
-7.21687
  0
LINE
  8
0
 10
34.375
 20
-1.80421
 11
31.25
 21
-7.21687
  0
LINE
  8
0
 10
31.25
 20
-7.21687
 11
37.5
 21
-7.21687
  0
LINE
  8
0
 10
37.5
 20
-7.21687
 11
34.375
 21
-1.80421
  0
LINE
  8
0
 10
-27.0833
 20
-7.21687
 11
-25
 21
-7.21687
  0
LINE
  8
0
 10
-25
 20
-7.21687
 11
-26.0417
 21
-5.41266
  0
LINE
  8
0
 10
-26.0417
 20
-5.41266
 11
-25
 21
-3.60843
  0
LINE
  8
0
 10
-25
 20
-3.60843
 11
-27.0833
 21
-3.60843
  0
LINE
  8
0
 10
-27.0833
 20
-3.60843
 11
-28.125
 21
-1.80421
  0
LINE
  8
0
 10
-28.125
 20
-1.80421
 11
-29.1667
 21
-3.60843
  0
LINE
  8
0
 10
-29.1667
 20
-3.60843
 11
-31.25
 21
-3.60843
  0
LINE
  8
0
 10
-31.25
 20
-3.60843
 11
-30.2083
 21
-5.41266
  0
LINE
  8
0
 10
-30.2083
 20
-5.41266
 11
-31.25
 21
-7.21687
  0
LINE
  8
0
 10
-31.25
 20
-7.21687
 11
-29.1667
 21
-7.21687
  0
LINE
  8
0
 10
-29.1667
 20
-7.21687
 11
-28.125
 21
-9.02109
  0
LINE
  8
0
 10
-28.125
 20
-9.02109
 11
-27.0833
 21
-7.21687
  0
LINE
  8
0
 10
29.1667
 20
-7.21687
 11
31.25
 21
-7.21687
  0
LINE
  8
0
 10
31.25
 20
-7.21687
 11
30.2083
 21
-5.41266
  0
LINE
  8
0
 10
30.2083
 20
-5.41266
 11
31.25
 21
-3.60843
  0
LINE
  8
0
 10
31.25
 20
-3.60843
 11
29.1667
 21
-3.60843
  0
LINE
  8
0
 10
29.1667
 20
-3.60843
 11
28.125
 21
-1.80421
  0
LINE
  8
0
 10
28.125
 20
-1.80421
 11
27.0833
 21
-3.60843
  0
LINE
  8
0
 10
27.0833
 20
-3.60843
 11
25
 21
-3.60843
  0
LINE
  8
0
 10
25
 20
-3.60843
 11
26.0417
 21
-5.41266
  0
LINE
  8
0
 10
26.0417
 20
-5.41266
 11
25
 21
-7.21687
  0
LINE
  8
0
 10
25
 20
-7.21687
 11
27.0833
 21
-7.21687
  0
LINE
  8
0
 10
27.0833
 20
-7.21687
 11
28.125
 21
-9.02109
  0
LINE
  8
0
 10
28.125
 20
-9.02109
 11
29.1667
 21
-7.21687
  0
LINE
  8
0
 10
-15.625
 20
-1.80421
 11
-18.75
 21
-7.21687
  0
LINE
  8
0
 10
-18.75
 20
-7.21687
 11
-12.5
 21
-7.21687
  0
LINE
  8
0
 10
-12.5
 20
-7.21687
 11
-15.625
 21
-1.80421
  0
LINE
  8
0
 10
22.9167
 20
-7.21687
 11
25
 21
-7.21687
  0
LINE
  8
0
 10
25
 20
-7.21687
 11
23.9583
 21
-5.41266
  0
LINE
  8
0
 10
23.9583
 20
-5.41266
 11
25
 21
-3.60843
  0
LINE
  8
0
 10
25
 20
-3.60843
 11
22.9167
 21
-3.60843
  0
LINE
  8
0
 10
22.9167
 20
-3.60843
 11
21.875
 21
-1.80421
  0
LINE
  8
0
 10
21.875
 20
-1.80421
 11
20.8333
 21
-3.60843
  0
LINE
  8
0
 10
20.8333
 20
-3.60843
 11
18.75
 21
-3.60843
  0
LINE
  8
0
 10
18.75
 20
-3.60843
 11
19.7917
 21
-5.41266
  0
LINE
  8
0
 10
19.7917
 20
-5.41266
 11
18.75
 21
-7.21687
  0
LINE
  8
0
 10
18.75
 20
-7.21687
 11
20.8333
 21
-7.21687
  0
LINE
  8
0
 10
20.8333
 20
-7.21687
 11
21.875
 21
-9.02109
  0
LINE
  8
0
 10
21.875
 20
-9.02109
 11
22.9167
 21
-7.21687
  0
LINE
  8
0
 10
15.625
 20
-1.80421
 11
12.5
 21
-7.21687
  0
LINE
  8
0
 10
12.5
 20
-7.21687
 11
18.75
 21
-7.21687
  0
LINE
  8
0
 10
18.75
 20
-7.21687
 11
15.625
 21
-1.80421
  0
LINE
  8
0
 10
-37.5
 20
-7.21687
 11
-40.625
 21
-12.6295
  0
LINE
  8
0
 10
-40.625
 20
-12.6295
 11
-34.375
 21
-12.6295
  0
LINE
  8
0
 10
-34.375
 20
-12.6295
 11
-37.5
 21
-7.21687
  0
LINE
  8
0
 10
37.5
 20
-7.21687
 11
34.375
 21
-12.6295
  0
LINE
  8
0
 10
34.375
 20
-12.6295
 11
40.625
 21
-12.6295
  0
LINE
  8
0
 10
40.625
 20
-12.6295
 11
37.5
 21
-7.21687
  0
LINE
  8
0
 10
12.5
 20
-7.21687
 11
9.375
 21
-12.6295
  0
LINE
  8
0
 10
9.375
 20
-12.6295
 11
15.625
 21
-12.6295
  0
LINE
  8
0
 10
15.625
 20
-12.6295
 11
12.5
 21
-7.21687
  0
LINE
  8
0
 10
-12.5
 20
-7.21687
 11
-15.625
 21
-12.6295
  0
LINE
  8
0
 10
-15.625
 20
-12.6295
 11
-9.375
 21
-12.6295
  0
LINE
  8
0
 10
-9.375
 20
-12.6295
 11
-12.5
 21
-7.21687
  0
LINE
  8
0
 10
-21.875
 20
-9.02109
 11
-28.125
 21
-9.02109
  0
LINE
  8
0
 10
-28.125
 20
-9.02109
 11
-25
 21
-14.4337
  0
LINE
  8
0
 10
-25
 20
-14.4337
 11
-21.875
 21
-9.02109
  0
LINE
  8
0
 10
28.125
 20
-9.02109
 11
21.875
 21
-9.02109
  0
LINE
  8
0
 10
21.875
 20
-9.02109
 11
25
 21
-14.4337
  0
LINE
  8
0
 10
25
 20
-14.4337
 11
28.125
 21
-9.02109
  0
LINE
  8
0
 10
16.6667
 20
-18.0422
 11
18.75
 21
-18.0422
  0
LINE
  8
0
 10
18.75
 20
-18.0422
 11
17.7083
 21
-16.238
  0
LINE
  8
0
 10
17.7083
 20
-16.238
 11
18.75
 21
-14.4337
  0
LINE
  8
0
 10
18.75
 20
-14.4337
 11
16.6667
 21
-14.4337
  0
LINE
  8
0
 10
16.6667
 20
-14.4337
 11
15.625
 21
-12.6295
  0
LINE
  8
0
 10
15.625
 20
-12.6295
 11
14.5833
 21
-14.4337
  0
LINE
  8
0
 10
14.5833
 20
-14.4337
 11
12.5
 21
-14.4337
  0
LINE
  8
0
 10
12.5
 20
-14.4337
 11
13.5417
 21
-16.238
  0
LINE
  8
0
 10
13.5417
 20
-16.238
 11
12.5
 21
-18.0422
  0
LINE
  8
0
 10
12.5
 20
-18.0422
 11
14.5833
 21
-18.0422
  0
LINE
  8
0
 10
14.5833
 20
-18.0422
 11
15.625
 21
-19.8464
  0
LINE
  8
0
 10
15.625
 20
-19.8464
 11
16.6667
 21
-18.0422
  0
LINE
  8
0
 10
-8.33334
 20
-18.0422
 11
-6.25
 21
-18.0422
  0
LINE
  8
0
 10
-6.25
 20
-18.0422
 11
-7.29167
 21
-16.238
  0
LINE
  8
0
 10
-7.29167
 20
-16.238
 11
-6.25
 21
-14.4337
  0
LINE
  8
0
 10
-6.25
 20
-14.4337
 11
-8.33334
 21
-14.4337
  0
LINE
  8
0
 10
-8.33334
 20
-14.4337
 11
-9.375
 21
-12.6295
  0
LINE
  8
0
 10
-9.375
 20
-12.6295
 11
-10.4167
 21
-14.4337
  0
LINE
  8
0
 10
-10.4167
 20
-14.4337
 11
-12.5
 21
-14.4337
  0
LINE
  8
0
 10
-12.5
 20
-14.4337
 11
-11.4583
 21
-16.238
  0
LINE
  8
0
 10
-11.4583
 20
-16.238
 11
-12.5
 21
-18.0422
  0
LINE
  8
0
 10
-12.5
 20
-18.0422
 11
-10.4167
 21
-18.0422
  0
LINE
  8
0
 10
-10.4167
 20
-18.0422
 11
-9.375
 21
-19.8464
  0
LINE
  8
0
 10
-9.375
 20
-19.8464
 11
-8.33334
 21
-18.0422
  0
LINE
  8
0
 10
-40.625
 20
-12.6295
 11
-43.75
 21
-18.0422
  0
LINE
  8
0
 10
-43.75
 20
-18.0422
 11
-37.5
 21
-18.0422
  0
LINE
  8
0
 10
-37.5
 20
-18.0422
 11
-40.625
 21
-12.6295
  0
LINE
  8
0
 10
-14.5833
 20
-18.0422
 11
-12.5
 21
-18.0422
  0
LINE
  8
0
 10
-12.5
 20
-18.0422
 11
-13.5417
 21
-16.238
  0
LINE
  8
0
 10
-13.5417
 20
-16.238
 11
-12.5
 21
-14.4337
  0
LINE
  8
0
 10
-12.5
 20
-14.4337
 11
-14.5833
 21
-14.4337
  0
LINE
  8
0
 10
-14.5833
 20
-14.4337
 11
-15.625
 21
-12.6295
  0
LINE
  8
0
 10
-15.625
 20
-12.6295
 11
-16.6667
 21
-14.4337
  0
LINE
  8
0
 10
-16.6667
 20
-14.4337
 11
-18.75
 21
-14.4337
  0
LINE
  8
0
 10
-18.75
 20
-14.4337
 11
-17.7083
 21
-16.238
  0
LINE
  8
0
 10
-17.7083
 20
-16.238
 11
-18.75
 21
-18.0422
  0
LINE
  8
0
 10
-18.75
 20
-18.0422
 11
-16.6667
 21
-18.0422
  0
LINE
  8
0
 10
-16.6667
 20
-18.0422
 11
-15.625
 21
-19.8464
  0
LINE
  8
0
 10
-15.625
 20
-19.8464
 11
-14.5833
 21
-18.0422
  0
LINE
  8
0
 10
10.4167
 20
-18.0422
 11
12.5
 21
-18.0422
  0
LINE
  8
0
 10
12.5
 20
-18.0422
 11
11.4583
 21
-16.238
  0
LINE
  8
0
 10
11.4583
 20
-16.238
 11
12.5
 21
-14.4337
  0
LINE
  8
0
 10
12.5
 20
-14.4337
 11
10.4167
 21
-14.4337
  0
LINE
  8
0
 10
10.4167
 20
-14.4337
 11
9.375
 21
-12.6295
  0
LINE
  8
0
 10
9.375
 20
-12.6295
 11
8.33334
 21
-14.4337
  0
LINE
  8
0
 10
8.33334
 20
-14.4337
 11
6.25
 21
-14.4337
  0
LINE
  8
0
 10
6.25
 20
-14.4337
 11
7.29167
 21
-16.238
  0
LINE
  8
0
 10
7.29167
 20
-16.238
 11
6.25
 21
-18.0422
  0
LINE
  8
0
 10
6.25
 20
-18.0422
 11
8.33334
 21
-18.0422
  0
LINE
  8
0
 10
8.33334
 20
-18.0422
 11
9.375
 21
-19.8464
  0
LINE
  8
0
 10
9.375
 20
-19.8464
 11
10.4167
 21
-18.0422
  0
LINE
  8
0
 10
34.375
 20
-12.6295
 11
31.25
 21
-18.0422
  0
LINE
  8
0
 10
31.25
 20
-18.0422
 11
37.5
 21
-18.0422
  0
LINE
  8
0
 10
37.5
 20
-18.0422
 11
34.375
 21
-12.6295
  0
LINE
  8
0
 10
-34.375
 20
-12.6295
 11
-37.5
 21
-18.0422
  0
LINE
  8
0
 10
-37.5
 20
-18.0422
 11
-31.25
 21
-18.0422
  0
LINE
  8
0
 10
-31.25
 20
-18.0422
 11
-34.375
 21
-12.6295
  0
LINE
  8
0
 10
40.625
 20
-12.6295
 11
37.5
 21
-18.0422
  0
LINE
  8
0
 10
37.5
 20
-18.0422
 11
43.75
 21
-18.0422
  0
LINE
  8
0
 10
43.75
 20
-18.0422
 11
40.625
 21
-12.6295
  0
LINE
  8
0
 10
25
 20
-14.4337
 11
18.75
 21
-14.4337
  0
LINE
  8
0
 10
18.75
 20
-14.4337
 11
21.875
 21
-19.8464
  0
LINE
  8
0
 10
21.875
 20
-19.8464
 11
25
 21
-14.4337
  0
LINE
  8
0
 10
6.25
 20
-14.4337
 11
0
 21
-14.4337
  0
LINE
  8
0
 10
0
 20
-14.4337
 11
3.125
 21
-19.8464
  0
LINE
  8
0
 10
3.125
 20
-19.8464
 11
6.25
 21
-14.4337
  0
LINE
  8
0
 10
-18.75
 20
-14.4337
 11
-25
 21
-14.4337
  0
LINE
  8
0
 10
-25
 20
-14.4337
 11
-21.875
 21
-19.8464
  0
LINE
  8
0
 10
-21.875
 20
-19.8464
 11
-18.75
 21
-14.4337
  0
LINE
  8
0
 10
0
 20
-14.4337
 11
-6.25
 21
-14.4337
  0
LINE
  8
0
 10
-6.25
 20
-14.4337
 11
-3.125
 21
-19.8464
  0
LINE
  8
0
 10
-3.125
 20
-19.8464
 11
0
 21
-14.4337
  0
LINE
  8
0
 10
19.7917
 20
-23.4548
 11
21.875
 21
-23.4548
  0
LINE
  8
0
 10
21.875
 20
-23.4548
 11
20.8333
 21
-21.6506
  0
LINE
  8
0
 10
20.8333
 20
-21.6506
 11
21.875
 21
-19.8464
  0
LINE
  8
0
 10
21.875
 20
-19.8464
 11
19.7917
 21
-19.8464
  0
LINE
  8
0
 10
19.7917
 20
-19.8464
 11
18.75
 21
-18.0422
  0
LINE
  8
0
 10
18.75
 20
-18.0422
 11
17.7083
 21
-19.8464
  0
LINE
  8
0
 10
17.7083
 20
-19.8464
 11
15.625
 21
-19.8464
  0
LINE
  8
0
 10
15.625
 20
-19.8464
 11
16.6667
 21
-21.6506
  0
LINE
  8
0
 10
16.6667
 20
-21.6506
 11
15.625
 21
-23.4548
  0
LINE
  8
0
 10
15.625
 20
-23.4548
 11
17.7083
 21
-23.4548
  0
LINE
  8
0
 10
17.7083
 20
-23.4548
 11
18.75
 21
-25.2591
  0
LINE
  8
0
 10
18.75
 20
-25.2591
 11
19.7917
 21
-23.4548
  0
LINE
  8
0
 10
-43.75
 20
-18.0422
 11
-46.875
 21
-23.4548
  0
LINE
  8
0
 10
-46.875
 20
-23.4548
 11
-40.625
 21
-23.4548
  0
LINE
  8
0
 10
-40.625
 20
-23.4548
 11
-43.75
 21
-18.0422
  0
LINE
  8
0
 10
31.25
 20
-18.0422
 11
28.125
 21
-23.4548
  0
LINE
  8
0
 10
28.125
 20
-23.4548
 11
34.375
 21
-23.4548
  0
LINE
  8
0
 10
34.375
 20
-23.4548
 11
31.25
 21
-18.0422
  0
LINE
  8
0
 10
-17.7083
 20
-23.4548
 11
-15.625
 21
-23.4548
  0
LINE
  8
0
 10
-15.625
 20
-23.4548
 11
-16.6667
 21
-21.6506
  0
LINE
  8
0
 10
-16.6667
 20
-21.6506
 11
-15.625
 21
-19.8464
  0
LINE
  8
0
 10
-15.625
 20
-19.8464
 11
-17.7083
 21
-19.8464
  0
LINE
  8
0
 10
-17.7083
 20
-19.8464
 11
-18.75
 21
-18.0422
  0
LINE
  8
0
 10
-18.75
 20
-18.0422
 11
-19.7917
 21
-19.8464
  0
LINE
  8
0
 10
-19.7917
 20
-19.8464
 11
-21.875
 21
-19.8464
  0
LINE
  8
0
 10
-21.875
 20
-19.8464
 11
-20.8333
 21
-21.6506
  0
LINE
  8
0
 10
-20.8333
 20
-21.6506
 11
-21.875
 21
-23.4548
  0
LINE
  8
0
 10
-21.875
 20
-23.4548
 11
-19.7917
 21
-23.4548
  0
LINE
  8
0
 10
-19.7917
 20
-23.4548
 11
-18.75
 21
-25.2591
  0
LINE
  8
0
 10
-18.75
 20
-25.2591
 11
-17.7083
 21
-23.4548
  0
LINE
  8
0
 10
-5.20834
 20
-23.4548
 11
-3.125
 21
-23.4548
  0
LINE
  8
0
 10
-3.125
 20
-23.4548
 11
-4.16667
 21
-21.6506
  0
LINE
  8
0
 10
-4.16667
 20
-21.6506
 11
-3.125
 21
-19.8464
  0
LINE
  8
0
 10
-3.125
 20
-19.8464
 11
-5.20834
 21
-19.8464
  0
LINE
  8
0
 10
-5.20834
 20
-19.8464
 11
-6.25
 21
-18.0422
  0
LINE
  8
0
 10
-6.25
 20
-18.0422
 11
-7.29166
 21
-19.8464
  0
LINE
  8
0
 10
-7.29166
 20
-19.8464
 11
-9.375
 21
-19.8464
  0
LINE
  8
0
 10
-9.375
 20
-19.8464
 11
-8.33333
 21
-21.6506
  0
LINE
  8
0
 10
-8.33333
 20
-21.6506
 11
-9.375
 21
-23.4548
  0
LINE
  8
0
 10
-9.375
 20
-23.4548
 11
-7.29166
 21
-23.4548
  0
LINE
  8
0
 10
-7.29166
 20
-23.4548
 11
-6.25
 21
-25.2591
  0
LINE
  8
0
 10
-6.25
 20
-25.2591
 11
-5.20834
 21
-23.4548
  0
LINE
  8
0
 10
-31.25
 20
-18.0422
 11
-34.375
 21
-23.4548
  0
LINE
  8
0
 10
-34.375
 20
-23.4548
 11
-28.125
 21
-23.4548
  0
LINE
  8
0
 10
-28.125
 20
-23.4548
 11
-31.25
 21
-18.0422
  0
LINE
  8
0
 10
43.75
 20
-18.0422
 11
40.625
 21
-23.4548
  0
LINE
  8
0
 10
40.625
 20
-23.4548
 11
46.875
 21
-23.4548
  0
LINE
  8
0
 10
46.875
 20
-23.4548
 11
43.75
 21
-18.0422
  0
LINE
  8
0
 10
7.29166
 20
-23.4548
 11
9.375
 21
-23.4548
  0
LINE
  8
0
 10
9.375
 20
-23.4548
 11
8.33333
 21
-21.6506
  0
LINE
  8
0
 10
8.33333
 20
-21.6506
 11
9.375
 21
-19.8464
  0
LINE
  8
0
 10
9.375
 20
-19.8464
 11
7.29166
 21
-19.8464
  0
LINE
  8
0
 10
7.29166
 20
-19.8464
 11
6.25
 21
-18.0422
  0
LINE
  8
0
 10
6.25
 20
-18.0422
 11
5.20834
 21
-19.8464
  0
LINE
  8
0
 10
5.20834
 20
-19.8464
 11
3.125
 21
-19.8464
  0
LINE
  8
0
 10
3.125
 20
-19.8464
 11
4.16667
 21
-21.6506
  0
LINE
  8
0
 10
4.16667
 20
-21.6506
 11
3.125
 21
-23.4548
  0
LINE
  8
0
 10
3.125
 20
-23.4548
 11
5.20834
 21
-23.4548
  0
LINE
  8
0
 10
5.20834
 20
-23.4548
 11
6.25
 21
-25.2591
  0
LINE
  8
0
 10
6.25
 20
-25.2591
 11
7.29166
 21
-23.4548
  0
LINE
  8
0
 10
46.875
 20
-23.4548
 11
43.75
 21
-28.8675
  0
LINE
  8
0
 10
43.75
 20
-28.8675
 11
50
 21
-28.8675
  0
LINE
  8
0
 10
50
 20
-28.8675
 11
46.875
 21
-23.4548
  0
LINE
  8
0
 10
-40.625
 20
-23.4548
 11
-43.75
 21
-28.8675
  0
LINE
  8
0
 10
-43.75
 20
-28.8675
 11
-37.5
 21
-28.8675
  0
LINE
  8
0
 10
-37.5
 20
-28.8675
 11
-40.625
 21
-23.4548
  0
LINE
  8
0
 10
3.125
 20
-23.4548
 11
0
 21
-28.8675
  0
LINE
  8
0
 10
0
 20
-28.8675
 11
6.25
 21
-28.8675
  0
LINE
  8
0
 10
6.25
 20
-28.8675
 11
3.125
 21
-23.4548
  0
LINE
  8
0
 10
-34.375
 20
-23.4548
 11
-37.5
 21
-28.8675
  0
LINE
  8
0
 10
-37.5
 20
-28.8675
 11
-31.25
 21
-28.8675
  0
LINE
  8
0
 10
-31.25
 20
-28.8675
 11
-34.375
 21
-23.4548
  0
LINE
  8
0
 10
-3.125
 20
-23.4548
 11
-6.25
 21
-28.8675
  0
LINE
  8
0
 10
-6.25
 20
-28.8675
 11
0
 21
-28.8675
  0
LINE
  8
0
 10
0
 20
-28.8675
 11
-3.125
 21
-23.4548
  0
LINE
  8
0
 10
10.4167
 20
-28.8675
 11
12.5
 21
-28.8675
  0
LINE
  8
0
 10
12.5
 20
-28.8675
 11
11.4583
 21
-27.0633
  0
LINE
  8
0
 10
11.4583
 20
-27.0633
 11
12.5
 21
-25.2591
  0
LINE
  8
0
 10
12.5
 20
-25.2591
 11
10.4167
 21
-25.2591
  0
LINE
  8
0
 10
10.4167
 20
-25.2591
 11
9.375
 21
-23.4548
  0
LINE
  8
0
 10
9.375
 20
-23.4548
 11
8.33334
 21
-25.2591
  0
LINE
  8
0
 10
8.33334
 20
-25.2591
 11
6.25
 21
-25.2591
  0
LINE
  8
0
 10
6.25
 20
-25.2591
 11
7.29167
 21
-27.0633
  0
LINE
  8
0
 10
7.29167
 20
-27.0633
 11
6.25
 21
-28.8675
  0
LINE
  8
0
 10
6.25
 20
-28.8675
 11
8.33334
 21
-28.8675
  0
LINE
  8
0
 10
8.33334
 20
-28.8675
 11
9.375
 21
-30.6717
  0
LINE
  8
0
 10
9.375
 20
-30.6717
 11
10.4167
 21
-28.8675
  0
LINE
  8
0
 10
-28.125
 20
-23.4548
 11
-31.25
 21
-28.8675
  0
LINE
  8
0
 10
-31.25
 20
-28.8675
 11
-25
 21
-28.8675
  0
LINE
  8
0
 10
-25
 20
-28.8675
 11
-28.125
 21
-23.4548
  0
LINE
  8
0
 10
-8.33334
 20
-28.8675
 11
-6.25
 21
-28.8675
  0
LINE
  8
0
 10
-6.25
 20
-28.8675
 11
-7.29167
 21
-27.0633
  0
LINE
  8
0
 10
-7.29167
 20
-27.0633
 11
-6.25
 21
-25.2591
  0
LINE
  8
0
 10
-6.25
 20
-25.2591
 11
-8.33334
 21
-25.2591
  0
LINE
  8
0
 10
-8.33334
 20
-25.2591
 11
-9.375
 21
-23.4548
  0
LINE
  8
0
 10
-9.375
 20
-23.4548
 11
-10.4167
 21
-25.2591
  0
LINE
  8
0
 10
-10.4167
 20
-25.2591
 11
-12.5
 21
-25.2591
  0
LINE
  8
0
 10
-12.5
 20
-25.2591
 11
-11.4583
 21
-27.0633
  0
LINE
  8
0
 10
-11.4583
 20
-27.0633
 11
-12.5
 21
-28.8675
  0
LINE
  8
0
 10
-12.5
 20
-28.8675
 11
-10.4167
 21
-28.8675
  0
LINE
  8
0
 10
-10.4167
 20
-28.8675
 11
-9.375
 21
-30.6717
  0
LINE
  8
0
 10
-9.375
 20
-30.6717
 11
-8.33334
 21
-28.8675
  0
LINE
  8
0
 10
16.6667
 20
-28.8675
 11
18.75
 21
-28.8675
  0
LINE
  8
0
 10
18.75
 20
-28.8675
 11
17.7083
 21
-27.0633
  0
LINE
  8
0
 10
17.7083
 20
-27.0633
 11
18.75
 21
-25.2591
  0
LINE
  8
0
 10
18.75
 20
-25.2591
 11
16.6667
 21
-25.2591
  0
LINE
  8
0
 10
16.6667
 20
-25.2591
 11
15.625
 21
-23.4548
  0
LINE
  8
0
 10
15.625
 20
-23.4548
 11
14.5833
 21
-25.2591
  0
LINE
  8
0
 10
14.5833
 20
-25.2591
 11
12.5
 21
-25.2591
  0
LINE
  8
0
 10
12.5
 20
-25.2591
 11
13.5417
 21
-27.0633
  0
LINE
  8
0
 10
13.5417
 20
-27.0633
 11
12.5
 21
-28.8675
  0
LINE
  8
0
 10
12.5
 20
-28.8675
 11
14.5833
 21
-28.8675
  0
LINE
  8
0
 10
14.5833
 20
-28.8675
 11
15.625
 21
-30.6717
  0
LINE
  8
0
 10
15.625
 20
-30.6717
 11
16.6667
 21
-28.8675
  0
LINE
  8
0
 10
21.875
 20
-23.4548
 11
18.75
 21
-28.8675
  0
LINE
  8
0
 10
18.75
 20
-28.8675
 11
25
 21
-28.8675
  0
LINE
  8
0
 10
25
 20
-28.8675
 11
21.875
 21
-23.4548
  0
LINE
  8
0
 10
28.125
 20
-23.4548
 11
25
 21
-28.8675
  0
LINE
  8
0
 10
25
 20
-28.8675
 11
31.25
 21
-28.8675
  0
LINE
  8
0
 10
31.25
 20
-28.8675
 11
28.125
 21
-23.4548
  0
LINE
  8
0
 10
-14.5833
 20
-28.8675
 11
-12.5
 21
-28.8675
  0
LINE
  8
0
 10
-12.5
 20
-28.8675
 11
-13.5417
 21
-27.0633
  0
LINE
  8
0
 10
-13.5417
 20
-27.0633
 11
-12.5
 21
-25.2591
  0
LINE
  8
0
 10
-12.5
 20
-25.2591
 11
-14.5833
 21
-25.2591
  0
LINE
  8
0
 10
-14.5833
 20
-25.2591
 11
-15.625
 21
-23.4548
  0
LINE
  8
0
 10
-15.625
 20
-23.4548
 11
-16.6667
 21
-25.2591
  0
LINE
  8
0
 10
-16.6667
 20
-25.2591
 11
-18.75
 21
-25.2591
  0
LINE
  8
0
 10
-18.75
 20
-25.2591
 11
-17.7083
 21
-27.0633
  0
LINE
  8
0
 10
-17.7083
 20
-27.0633
 11
-18.75
 21
-28.8675
  0
LINE
  8
0
 10
-18.75
 20
-28.8675
 11
-16.6667
 21
-28.8675
  0
LINE
  8
0
 10
-16.6667
 20
-28.8675
 11
-15.625
 21
-30.6717
  0
LINE
  8
0
 10
-15.625
 20
-30.6717
 11
-14.5833
 21
-28.8675
  0
LINE
  8
0
 10
34.375
 20
-23.4548
 11
31.25
 21
-28.8675
  0
LINE
  8
0
 10
31.25
 20
-28.8675
 11
37.5
 21
-28.8675
  0
LINE
  8
0
 10
37.5
 20
-28.8675
 11
34.375
 21
-23.4548
  0
LINE
  8
0
 10
-21.875
 20
-23.4548
 11
-25
 21
-28.8675
  0
LINE
  8
0
 10
-25
 20
-28.8675
 11
-18.75
 21
-28.8675
  0
LINE
  8
0
 10
-18.75
 20
-28.8675
 11
-21.875
 21
-23.4548
  0
LINE
  8
0
 10
40.625
 20
-23.4548
 11
37.5
 21
-28.8675
  0
LINE
  8
0
 10
37.5
 20
-28.8675
 11
43.75
 21
-28.8675
  0
LINE
  8
0
 10
43.75
 20
-28.8675
 11
40.625
 21
-23.4548
  0
LINE
  8
0
 10
-46.875
 20
-23.4548
 11
-50
 21
-28.8675
  0
LINE
  8
0
 10
-50
 20
-28.8675
 11
-43.75
 21
-28.8675
  0
LINE
  8
0
 10
-43.75
 20
-28.8675
 11
-46.875
 21
-23.4548
  0
LINE
  8
0
 10
-9.375
 20
-30.6717
 11
-15.625
 21
-30.6717
  0
LINE
  8
0
 10
-15.625
 20
-30.6717
 11
-12.5
 21
-36.0844
  0
LINE
  8
0
 10
-12.5
 20
-36.0844
 11
-9.375
 21
-30.6717
  0
LINE
  8
0
 10
15.625
 20
-30.6717
 11
9.375
 21
-30.6717
  0
LINE
  8
0
 10
9.375
 20
-30.6717
 11
12.5
 21
-36.0844
  0
LINE
  8
0
 10
12.5
 20
-36.0844
 11
15.625
 21
-30.6717
  0
LINE
  8
0
 10
-6.25
 20
-36.0844
 11
-12.5
 21
-36.0844
  0
LINE
  8
0
 10
-12.5
 20
-36.0844
 11
-9.375
 21
-41.497
  0
LINE
  8
0
 10
-9.375
 20
-41.497
 11
-6.25
 21
-36.0844
  0
LINE
  8
0
 10
0
 20
-36.0844
 11
-6.25
 21
-36.0844
  0
LINE
  8
0
 10
-6.25
 20
-36.0844
 11
-3.125
 21
-41.497
  0
LINE
  8
0
 10
-3.125
 20
-41.497
 11
0
 21
-36.0844
  0
LINE
  8
0
 10
6.25
 20
-36.0844
 11
0
 21
-36.0844
  0
LINE
  8
0
 10
0
 20
-36.0844
 11
3.125
 21
-41.497
  0
LINE
  8
0
 10
3.125
 20
-41.497
 11
6.25
 21
-36.0844
  0
LINE
  8
0
 10
12.5
 20
-36.0844
 11
6.25
 21
-36.0844
  0
LINE
  8
0
 10
6.25
 20
-36.0844
 11
9.375
 21
-41.497
  0
LINE
  8
0
 10
9.375
 20
-41.497
 11
12.5
 21
-36.0844
  0
LINE
  8
0
 10
-3.125
 20
-41.497
 11
-9.375
 21
-41.497
  0
LINE
  8
0
 10
-9.375
 20
-41.497
 11
-6.25
 21
-46.9097
  0
LINE
  8
0
 10
-6.25
 20
-46.9097
 11
-3.125
 21
-41.497
  0
LINE
  8
0
 10
9.375
 20
-41.497
 11
3.125
 21
-41.497
  0
LINE
  8
0
 10
3.125
 20
-41.497
 11
6.25
 21
-46.9097
  0
LINE
  8
0
 10
6.25
 20
-46.9097
 11
9.375
 21
-41.497
  0
LINE
  8
0
 10
0
 20
-46.9097
 11
-6.25
 21
-46.9097
  0
LINE
  8
0
 10
-6.25
 20
-46.9097
 11
-3.125
 21
-52.3224
  0
LINE
  8
0
 10
-3.125
 20
-52.3224
 11
0
 21
-46.9097
  0
LINE
  8
0
 10
6.25
 20
-46.9097
 11
0
 21
-46.9097
  0
LINE
  8
0
 10
0
 20
-46.9097
 11
3.125
 21
-52.3224
  0
LINE
  8
0
 10
3.125
 20
-52.3224
 11
6.25
 21
-46.9097
  0
LINE
  8
0
 10
3.125
 20
-52.3224
 11
-3.125
 21
-52.3224
  0
LINE
  8
0
 10
-3.125
 20
-52.3224
 11
0
 21
-57.735
  0
LINE
  8
0
 10
0
 20
-57.735
 11
3.125
 21
-52.3224
  0
ENDSEC
  0
SECTION
  2
OBJECTS
  0
DICTIONARY
  0
ENDSEC
  0
EOF
