  0
SECTION
  2
BLOCKS
  0
ENDSEC
  0
SECTION
  2
ENTITIES
  0
LINE
  8
0
 10
0
 20
57.735
 11
-6.25
 21
46.9097
  0
LINE
  8
0
 10
-6.25
 20
46.9097
 11
6.25
 21
46.9097
  0
LINE
  8
0
 10
6.25
 20
46.9097
 11
0
 21
57.735
  0
LINE
  8
0
 10
6.25
 20
46.9097
 11
0
 21
36.0844
  0
LINE
  8
0
 10
0
 20
36.0844
 11
12.5
 21
36.0844
  0
LINE
  8
0
 10
12.5
 20
36.0844
 11
6.25
 21
46.9097
  0
LINE
  8
0
 10
-6.25
 20
46.9097
 11
-12.5
 21
36.0844
  0
LINE
  8
0
 10
-12.5
 20
36.0844
 11
0
 21
36.0844
  0
LINE
  8
0
 10
0
 20
36.0844
 11
-6.25
 21
46.9097
  0
LINE
  8
0
 10
16.6667
 20
14.4337
 11
25
 21
14.4337
  0
LINE
  8
0
 10
25
 20
14.4337
 11
20.8333
 21
21.6506
  0
LINE
  8
0
 10
20.8333
 20
21.6506
 11
25
 21
28.8675
  0
LINE
  8
0
 10
25
 20
28.8675
 11
16.6667
 21
28.8675
  0
LINE
  8
0
 10
16.6667
 20
28.8675
 11
12.5
 21
36.0844
  0
LINE
  8
0
 10
12.5
 20
36.0844
 11
8.33334
 21
28.8675
  0
LINE
  8
0
 10
8.33334
 20
28.8675
 11
0
 21
28.8675
  0
LINE
  8
0
 10
0
 20
28.8675
 11
4.16667
 21
21.6506
  0
LINE
  8
0
 10
4.16667
 20
21.6506
 11
0
 21
14.4337
  0
LINE
  8
0
 10
0
 20
14.4337
 11
8.33334
 21
14.4337
  0
LINE
  8
0
 10
8.33334
 20
14.4337
 11
12.5
 21
7.21687
  0
LINE
  8
0
 10
12.5
 20
7.21687
 11
16.6667
 21
14.4337
  0
LINE
  8
0
 10
10.4167
 20
18.0422
 11
8.33333
 21
21.6506
  0
LINE
  8
0
 10
8.33333
 20
21.6506
 11
10.4167
 21
25.2591
  0
LINE
  8
0
 10
10.4167
 20
25.2591
 11
14.5833
 21
25.2591
  0
LINE
  8
0
 10
14.5833
 20
25.2591
 11
16.6667
 21
21.6506
  0
LINE
  8
0
 10
16.6667
 20
21.6506
 11
14.5833
 21
18.0422
  0
LINE
  8
0
 10
14.5833
 20
18.0422
 11
10.4167
 21
18.0422
  0
LINE
  8
0
 10
-8.33334
 20
14.4337
 11
0
 21
14.4337
  0
LINE
  8
0
 10
0
 20
14.4337
 11
-4.16667
 21
21.6506
  0
LINE
  8
0
 10
-4.16667
 20
21.6506
 11
0
 21
28.8675
  0
LINE
  8
0
 10
0
 20
28.8675
 11
-8.33334
 21
28.8675
  0
LINE
  8
0
 10
-8.33334
 20
28.8675
 11
-12.5
 21
36.0844
  0
LINE
  8
0
 10
-12.5
 20
36.0844
 11
-16.6667
 21
28.8675
  0
LINE
  8
0
 10
-16.6667
 20
28.8675
 11
-25
 21
28.8675
  0
LINE
  8
0
 10
-25
 20
28.8675
 11
-20.8333
 21
21.6506
  0
LINE
  8
0
 10
-20.8333
 20
21.6506
 11
-25
 21
14.4337
  0
LINE
  8
0
 10
-25
 20
14.4337
 11
-16.6667
 21
14.4337
  0
LINE
  8
0
 10
-16.6667
 20
14.4337
 11
-12.5
 21
7.21687
  0
LINE
  8
0
 10
-12.5
 20
7.21687
 11
-8.33334
 21
14.4337
  0
LINE
  8
0
 10
-14.5833
 20
18.0422
 11
-16.6667
 21
21.6506
  0
LINE
  8
0
 10
-16.6667
 20
21.6506
 11
-14.5833
 21
25.2591
  0
LINE
  8
0
 10
-14.5833
 20
25.2591
 11
-10.4167
 21
25.2591
  0
LINE
  8
0
 10
-10.4167
 20
25.2591
 11
-8.33333
 21
21.6506
  0
LINE
  8
0
 10
-8.33333
 20
21.6506
 11
-10.4167
 21
18.0422
  0
LINE
  8
0
 10
-10.4167
 20
18.0422
 11
-14.5833
 21
18.0422
  0
LINE
  8
0
 10
-37.5
 20
28.8675
 11
-50
 21
28.8675
  0
LINE
  8
0
 10
-50
 20
28.8675
 11
-43.75
 21
18.0422
  0
LINE
  8
0
 10
-43.75
 20
18.0422
 11
-37.5
 21
28.8675
  0
LINE
  8
0
 10
-25
 20
28.8675
 11
-37.5
 21
28.8675
  0
LINE
  8
0
 10
-37.5
 20
28.8675
 11
-31.25
 21
18.0422
  0
LINE
  8
0
 10
-31.25
 20
18.0422
 11
-25
 21
28.8675
  0
LINE
  8
0
 10
50
 20
28.8675
 11
37.5
 21
28.8675
  0
LINE
  8
0
 10
37.5
 20
28.8675
 11
43.75
 21
18.0422
  0
LINE
  8
0
 10
43.75
 20
18.0422
 11
50
 21
28.8675
  0
LINE
  8
0
 10
37.5
 20
28.8675
 11
25
 21
28.8675
  0
LINE
  8
0
 10
25
 20
28.8675
 11
31.25
 21
18.0422
  0
LINE
  8
0
 10
31.25
 20
18.0422
 11
37.5
 21
28.8675
  0
LINE
  8
0
 10
-31.25
 20
18.0422
 11
-43.75
 21
18.0422
  0
LINE
  8
0
 10
-43.75
 20
18.0422
 11
-37.5
 21
7.21687
  0
LINE
  8
0
 10
-37.5
 20
7.21687
 11
-31.25
 21
18.0422
  0
LINE
  8
0
 10
43.75
 20
18.0422
 11
31.25
 21
18.0422
  0
LINE
  8
0
 10
31.25
 20
18.0422
 11
37.5
 21
7.21687
  0
LINE
  8
0
 10
37.5
 20
7.21687
 11
43.75
 21
18.0422
  0
LINE
  8
0
 10
-20.8333
 20
-7.21687
 11
-12.5
 21
-7.21687
  0
LINE
  8
0
 10
-12.5
 20
-7.21687
 11
-16.6667
 21
0
  0
LINE
  8
0
 10
-16.6667
 20
0
 11
-12.5
 21
7.21687
  0
LINE
  8
0
 10
-12.5
 20
7.21687
 11
-20.8333
 21
7.21687
  0
LINE
  8
0
 10
-20.8333
 20
7.21687
 11
-25
 21
14.4337
  0
LINE
  8
0
 10
-25
 20
14.4337
 11
-29.1667
 21
7.21687
  0
LINE
  8
0
 10
-29.1667
 20
7.21687
 11
-37.5
 21
7.21687
  0
LINE
  8
0
 10
-37.5
 20
7.21687
 11
-33.3333
 21
0
  0
LINE
  8
0
 10
-33.3333
 20
0
 11
-37.5
 21
-7.21687
  0
LINE
  8
0
 10
-37.5
 20
-7.21687
 11
-29.1667
 21
-7.21687
  0
LINE
  8
0
 10
-29.1667
 20
-7.21687
 11
-25
 21
-14.4337
  0
LINE
  8
0
 10
-25
 20
-14.4337
 11
-20.8333
 21
-7.21687
  0
LINE
  8
0
 10
-27.0833
 20
-3.60843
 11
-29.1667
 21
0
  0
LINE
  8
0
 10
-29.1667
 20
0
 11
-27.0833
 21
3.60843
  0
LINE
  8
0
 10
-27.0833
 20
3.60843
 11
-22.9167
 21
3.60843
  0
LINE
  8
0
 10
-22.9167
 20
3.60843
 11
-20.8333
 21
0
  0
LINE
  8
0
 10
-20.8333
 20
0
 11
-22.9167
 21
-3.60843
  0
LINE
  8
0
 10
-22.9167
 20
-3.60843
 11
-27.0833
 21
-3.60843
  0
LINE
  8
0
 10
29.1667
 20
-7.21687
 11
37.5
 21
-7.21687
  0
LINE
  8
0
 10
37.5
 20
-7.21687
 11
33.3333
 21
0
  0
LINE
  8
0
 10
33.3333
 20
0
 11
37.5
 21
7.21687
  0
LINE
  8
0
 10
37.5
 20
7.21687
 11
29.1667
 21
7.21687
  0
LINE
  8
0
 10
29.1667
 20
7.21687
 11
25
 21
14.4337
  0
LINE
  8
0
 10
25
 20
14.4337
 11
20.8333
 21
7.21687
  0
LINE
  8
0
 10
20.8333
 20
7.21687
 11
12.5
 21
7.21687
  0
LINE
  8
0
 10
12.5
 20
7.21687
 11
16.6667
 21
0
  0
LINE
  8
0
 10
16.6667
 20
0
 11
12.5
 21
-7.21687
  0
LINE
  8
0
 10
12.5
 20
-7.21687
 11
20.8333
 21
-7.21687
  0
LINE
  8
0
 10
20.8333
 20
-7.21687
 11
25
 21
-14.4337
  0
LINE
  8
0
 10
25
 20
-14.4337
 11
29.1667
 21
-7.21687
  0
LINE
  8
0
 10
22.9167
 20
-3.60843
 11
20.8333
 21
0
  0
LINE
  8
0
 10
20.8333
 20
0
 11
22.9167
 21
3.60843
  0
LINE
  8
0
 10
22.9167
 20
3.60843
 11
27.0833
 21
3.60843
  0
LINE
  8
0
 10
27.0833
 20
3.60843
 11
29.1667
 21
0
  0
LINE
  8
0
 10
29.1667
 20
0
 11
27.0833
 21
-3.60843
  0
LINE
  8
0
 10
27.0833
 20
-3.60843
 11
22.9167
 21
-3.60843
  0
LINE
  8
0
 10
37.5
 20
-7.21687
 11
31.25
 21
-18.0422
  0
LINE
  8
0
 10
31.25
 20
-18.0422
 11
43.75
 21
-18.0422
  0
LINE
  8
0
 10
43.75
 20
-18.0422
 11
37.5
 21
-7.21687
  0
LINE
  8
0
 10
16.6667
 20
-28.8675
 11
25
 21
-28.8675
  0
LINE
  8
0
 10
25
 20
-28.8675
 11
20.8333
 21
-21.6506
  0
LINE
  8
0
 10
20.8333
 20
-21.6506
 11
25
 21
-14.4337
  0
LINE
  8
0
 10
25
 20
-14.4337
 11
16.6667
 21
-14.4337
  0
LINE
  8
0
 10
16.6667
 20
-14.4337
 11
12.5
 21
-7.21687
  0
LINE
  8
0
 10
12.5
 20
-7.21687
 11
8.33334
 21
-14.4337
  0
LINE
  8
0
 10
8.33334
 20
-14.4337
 11
0
 21
-14.4337
  0
LINE
  8
0
 10
0
 20
-14.4337
 11
4.16667
 21
-21.6506
  0
LINE
  8
0
 10
4.16667
 20
-21.6506
 11
0
 21
-28.8675
  0
LINE
  8
0
 10
0
 20
-28.8675
 11
8.33334
 21
-28.8675
  0
LINE
  8
0
 10
8.33334
 20
-28.8675
 11
12.5
 21
-36.0844
  0
LINE
  8
0
 10
12.5
 20
-36.0844
 11
16.6667
 21
-28.8675
  0
LINE
  8
0
 10
10.4167
 20
-25.2591
 11
8.33333
 21
-21.6506
  0
LINE
  8
0
 10
8.33333
 20
-21.6506
 11
10.4167
 21
-18.0422
  0
LINE
  8
0
 10
10.4167
 20
-18.0422
 11
14.5833
 21
-18.0422
  0
LINE
  8
0
 10
14.5833
 20
-18.0422
 11
16.6667
 21
-21.6506
  0
LINE
  8
0
 10
16.6667
 20
-21.6506
 11
14.5833
 21
-25.2591
  0
LINE
  8
0
 10
14.5833
 20
-25.2591
 11
10.4167
 21
-25.2591
  0
LINE
  8
0
 10
-37.5
 20
-7.21687
 11
-43.75
 21
-18.0422
  0
LINE
  8
0
 10
-43.75
 20
-18.0422
 11
-31.25
 21
-18.0422
  0
LINE
  8
0
 10
-31.25
 20
-18.0422
 11
-37.5
 21
-7.21687
  0
LINE
  8
0
 10
-8.33334
 20
-28.8675
 11
0
 21
-28.8675
  0
LINE
  8
0
 10
0
 20
-28.8675
 11
-4.16667
 21
-21.6506
  0
LINE
  8
0
 10
-4.16667
 20
-21.6506
 11
0
 21
-14.4337
  0
LINE
  8
0
 10
0
 20
-14.4337
 11
-8.33334
 21
-14.4337
  0
LINE
  8
0
 10
-8.33334
 20
-14.4337
 11
-12.5
 21
-7.21687
  0
LINE
  8
0
 10
-12.5
 20
-7.21687
 11
-16.6667
 21
-14.4337
  0
LINE
  8
0
 10
-16.6667
 20
-14.4337
 11
-25
 21
-14.4337
  0
LINE
  8
0
 10
-25
 20
-14.4337
 11
-20.8333
 21
-21.6506
  0
LINE
  8
0
 10
-20.8333
 20
-21.6506
 11
-25
 21
-28.8675
  0
LINE
  8
0
 10
-25
 20
-28.8675
 11
-16.6667
 21
-28.8675
  0
LINE
  8
0
 10
-16.6667
 20
-28.8675
 11
-12.5
 21
-36.0844
  0
LINE
  8
0
 10
-12.5
 20
-36.0844
 11
-8.33334
 21
-28.8675
  0
LINE
  8
0
 10
-14.5833
 20
-25.2591
 11
-16.6667
 21
-21.6506
  0
LINE
  8
0
 10
-16.6667
 20
-21.6506
 11
-14.5833
 21
-18.0422
  0
LINE
  8
0
 10
-14.5833
 20
-18.0422
 11
-10.4167
 21
-18.0422
  0
LINE
  8
0
 10
-10.4167
 20
-18.0422
 11
-8.33333
 21
-21.6506
  0
LINE
  8
0
 10
-8.33333
 20
-21.6506
 11
-10.4167
 21
-25.2591
  0
LINE
  8
0
 10
-10.4167
 20
-25.2591
 11
-14.5833
 21
-25.2591
  0
LINE
  8
0
 10
43.75
 20
-18.0422
 11
37.5
 21
-28.8675
  0
LINE
  8
0
 10
37.5
 20
-28.8675
 11
50
 21
-28.8675
  0
LINE
  8
0
 10
50
 20
-28.8675
 11
43.75
 21
-18.0422
  0
LINE
  8
0
 10
31.25
 20
-18.0422
 11
25
 21
-28.8675
  0
LINE
  8
0
 10
25
 20
-28.8675
 11
37.5
 21
-28.8675
  0
LINE
  8
0
 10
37.5
 20
-28.8675
 11
31.25
 21
-18.0422
  0
LINE
  8
0
 10
-31.25
 20
-18.0422
 11
-37.5
 21
-28.8675
  0
LINE
  8
0
 10
-37.5
 20
-28.8675
 11
-25
 21
-28.8675
  0
LINE
  8
0
 10
-25
 20
-28.8675
 11
-31.25
 21
-18.0422
  0
LINE
  8
0
 10
-43.75
 20
-18.0422
 11
-50
 21
-28.8675
  0
LINE
  8
0
 10
-50
 20
-28.8675
 11
-37.5
 21
-28.8675
  0
LINE
  8
0
 10
-37.5
 20
-28.8675
 11
-43.75
 21
-18.0422
  0
LINE
  8
0
 10
12.5
 20
-36.0844
 11
0
 21
-36.0844
  0
LINE
  8
0
 10
0
 20
-36.0844
 11
6.25
 21
-46.9097
  0
LINE
  8
0
 10
6.25
 20
-46.9097
 11
12.5
 21
-36.0844
  0
LINE
  8
0
 10
0
 20
-36.0844
 11
-12.5
 21
-36.0844
  0
LINE
  8
0
 10
-12.5
 20
-36.0844
 11
-6.25
 21
-46.9097
  0
LINE
  8
0
 10
-6.25
 20
-46.9097
 11
0
 21
-36.0844
  0
LINE
  8
0
 10
6.25
 20
-46.9097
 11
-6.25
 21
-46.9097
  0
LINE
  8
0
 10
-6.25
 20
-46.9097
 11
0
 21
-57.735
  0
LINE
  8
0
 10
0
 20
-57.735
 11
6.25
 21
-46.9097
  0
ENDSEC
  0
SECTION
  2
OBJECTS
  0
DICTIONARY
  0
ENDSEC
  0
EOF
