<?xml version="1.0" standalone="no"?>
<!DOCTYPE svg PUBLIC "-//W3C//DTD SVG 1.1//EN" "http://www.w3.org/Graphics/SVG/1.1/DTD/svg11.dtd">
<svg width="100mm" height="87mm" viewBox="-50 -58 100 87" xmlns="http://www.w3.org/2000/svg" version="1.1">
<title>OpenSCAD Model</title>
<path d="
M -49.2188,27.5143 L -50,28.8675 L -48.4375,28.8675 z
M -48.4375,26.1612 L -49.2188,27.5143 L -47.6562,27.5143 z
M -47.6562,24.808 L -48.4375,26.1612 L -46.875,26.1612 z
M -47.6562,27.5143 L -48.4375,28.8675 L -46.875,28.8675 z
M -46.875,23.4549 L -47.6562,24.808 L -46.0938,24.808 z
M -46.0938,22.1017 L -46.875,23.4549 L -45.3125,23.4549 z
M -46.0938,24.808 L -46.875,26.1612 L -45.3125,26.1612 z
M -46.0938,27.5143 L -46.875,28.8675 L -45.3125,28.8675 z
M -45.3125,20.7485 L -46.0938,22.1017 L -44.5312,22.1017 z
M -45.3125,26.1612 L -46.0938,27.5143 L -44.5312,27.5143 z
M -44.5312,19.3954 L -45.3125,20.7485 L -43.75,20.7485 z
M -44.5312,22.1017 L -45.3125,23.4549 L -43.75,23.4549 z
M -44.5312,27.5143 L -45.3125,28.8675 L -43.75,28.8675 z
M -43.75,18.0422 L -44.5312,19.3954 L -42.9688,19.3954 z
M -42.9688,16.689 L -43.75,18.0422 L -42.1875,18.0422 z
M -42.9688,27.5143 L -43.75,28.8675 L -42.1875,28.8675 z
M -42.9688,19.3954 L -43.75,20.7485 L -42.1875,20.7485 z
M -42.9688,22.1017 L -43.75,23.4549 L -42.1875,23.4549 z
M -42.1875,15.3359 L -42.9688,16.689 L -41.4062,16.689 z
M -42.1875,26.1612 L -42.9688,27.5143 L -41.4062,27.5143 z
M -42.1875,20.7485 L -42.9688,22.1017 L -41.4062,22.1017 z
M -41.4062,24.808 L -42.1875,26.1612 L -40.625,26.1612 z
M -41.4062,27.5143 L -42.1875,28.8675 L -40.625,28.8675 z
M -41.4062,16.689 L -42.1875,18.0422 L -40.625,18.0422 z
M -41.4062,13.9827 L -42.1875,15.3359 L -40.625,15.3359 z
M -41.4062,22.1017 L -42.1875,23.4549 L -40.625,23.4549 z
M -40.625,23.4549 L -41.4062,24.808 L -39.8438,24.808 z
M -40.625,12.6295 L -41.4062,13.9827 L -39.8438,13.9827 z
M -39.8438,24.808 L -40.625,26.1612 L -39.0625,26.1612 z
M -39.8438,27.5143 L -40.625,28.8675 L -39.0625,28.8675 z
M -39.8438,16.689 L -40.625,18.0422 L -39.0625,18.0422 z
M -39.8438,13.9827 L -40.625,15.3359 L -39.0625,15.3359 z
M -39.8438,11.2764 L -40.625,12.6295 L -39.0625,12.6295 z
M -39.0625,26.1612 L -39.8438,27.5143 L -38.2812,27.5143 z
M -39.0625,15.3359 L -39.8438,16.689 L -38.2812,16.689 z
M -39.0625,9.92321 L -39.8438,11.2764 L -38.2812,11.2764 z
M -38.2812,27.5143 L -39.0625,28.8675 L -37.5,28.8675 z
M -38.2812,16.689 L -39.0625,18.0422 L -37.5,18.0422 z
M -38.2812,11.2764 L -39.0625,12.6295 L -37.5,12.6295 z
M -38.2812,8.57004 L -39.0625,9.92321 L -37.5,9.92321 z
M -37.5,7.21688 L -38.2812,8.57004 L -36.7188,8.57004 z
M -36.7188,5.86371 L -37.5,7.21688 L -35.9375,7.21688 z
M -36.7188,8.57004 L -37.5,9.92321 L -35.9375,9.92321 z
M -36.7188,11.2764 L -37.5,12.6295 L -35.9375,12.6295 z
M -36.7188,16.689 L -37.5,18.0422 L -35.9375,18.0422 z
M -36.7188,27.5143 L -37.5,28.8675 L -35.9375,28.8675 z
M -35.9375,4.51055 L -36.7188,5.86371 L -35.1562,5.86371 z
M -35.9375,9.92321 L -36.7188,11.2764 L -35.1562,11.2764 z
M -35.9375,15.3359 L -36.7188,16.689 L -35.1562,16.689 z
M -35.9375,26.1612 L -36.7188,27.5143 L -35.1562,27.5143 z
M -35.1562,3.15738 L -35.9375,4.51055 L -34.375,4.51055 z
M -35.1562,5.86371 L -35.9375,7.21688 L -34.375,7.21688 z
M -35.1562,11.2764 L -35.9375,12.6295 L -34.375,12.6295 z
M -35.1562,13.9827 L -35.9375,15.3359 L -34.375,15.3359 z
M -35.1562,16.689 L -35.9375,18.0422 L -34.375,18.0422 z
M -35.1562,27.5143 L -35.9375,28.8675 L -34.375,28.8675 z
M -35.1562,24.808 L -35.9375,26.1612 L -34.375,26.1612 z
M -34.375,1.80422 L -35.1562,3.15738 L -33.5938,3.15738 z
M -34.375,12.6295 L -35.1562,13.9827 L -33.5938,13.9827 z
M -34.375,23.4549 L -35.1562,24.808 L -33.5938,24.808 z
M -33.5938,3.15738 L -34.375,4.51055 L -32.8125,4.51055 z
M -33.5938,5.86371 L -34.375,7.21688 L -32.8125,7.21688 z
M -33.5938,0.451055 L -34.375,1.80422 L -32.8125,1.80422 z
M -33.5938,24.808 L -34.375,26.1612 L -32.8125,26.1612 z
M -33.5938,27.5143 L -34.375,28.8675 L -32.8125,28.8675 z
M -33.5938,16.689 L -34.375,18.0422 L -32.8125,18.0422 z
M -33.5938,13.9827 L -34.375,15.3359 L -32.8125,15.3359 z
M -33.5938,22.1017 L -34.375,23.4549 L -32.8125,23.4549 z
M -32.8125,15.3359 L -33.5938,16.689 L -32.0312,16.689 z
M -32.8125,26.1612 L -33.5938,27.5143 L -32.0312,27.5143 z
M -32.8125,4.51055 L -33.5938,5.86371 L -32.0312,5.86371 z
M -32.8125,-0.902109 L -33.5938,0.451055 L -32.0312,0.451055 z
M -32.8125,20.7485 L -33.5938,22.1017 L -32.0312,22.1017 z
M -32.0312,16.689 L -32.8125,18.0422 L -31.25,18.0422 z
M -32.0312,27.5143 L -32.8125,28.8675 L -31.25,28.8675 z
M -32.0312,22.1017 L -32.8125,23.4549 L -31.25,23.4549 z
M -32.0312,19.3954 L -32.8125,20.7485 L -31.25,20.7485 z
M -32.0312,5.86371 L -32.8125,7.21688 L -31.25,7.21688 z
M -32.0312,0.451055 L -32.8125,1.80422 L -31.25,1.80422 z
M -32.0312,-2.25527 L -32.8125,-0.902109 L -31.25,-0.902109 z
M -31.25,18.0422 L -32.0312,19.3954 L -30.4688,19.3954 z
M -31.25,-3.60844 L -32.0312,-2.25527 L -30.4688,-2.25527 z
M -30.4688,5.86371 L -31.25,7.21688 L -29.6875,7.21688 z
M -30.4688,0.451055 L -31.25,1.80422 L -29.6875,1.80422 z
M -30.4688,-2.25527 L -31.25,-0.902109 L -29.6875,-0.902109 z
M -30.4688,-4.9616 L -31.25,-3.60844 L -29.6875,-3.60844 z
M -30.4688,19.3954 L -31.25,20.7485 L -29.6875,20.7485 z
M -30.4688,22.1017 L -31.25,23.4549 L -29.6875,23.4549 z
M -30.4688,27.5143 L -31.25,28.8675 L -29.6875,28.8675 z
M -29.6875,-6.31477 L -30.4688,-4.9616 L -28.9062,-4.9616 z
M -29.6875,4.51055 L -30.4688,5.86371 L -28.9062,5.86371 z
M -29.6875,-0.902109 L -30.4688,0.451055 L -28.9062,0.451055 z
M -29.6875,20.7485 L -30.4688,22.1017 L -28.9062,22.1017 z
M -29.6875,26.1612 L -30.4688,27.5143 L -28.9062,27.5143 z
M -28.9062,27.5143 L -29.6875,28.8675 L -28.125,28.8675 z
M -28.9062,24.808 L -29.6875,26.1612 L -28.125,26.1612 z
M -28.9062,22.1017 L -29.6875,23.4549 L -28.125,23.4549 z
M -28.9062,3.15738 L -29.6875,4.51055 L -28.125,4.51055 z
M -28.9062,5.86371 L -29.6875,7.21688 L -28.125,7.21688 z
M -28.9062,-4.9616 L -29.6875,-3.60844 L -28.125,-3.60844 z
M -28.9062,-7.66793 L -29.6875,-6.31477 L -28.125,-6.31477 z
M -28.9062,0.451055 L -29.6875,1.80422 L -28.125,1.80422 z
M -28.125,23.4549 L -28.9062,24.808 L -27.3438,24.808 z
M -28.125,1.80422 L -28.9062,3.15738 L -27.3438,3.15738 z
M -28.125,-9.0211 L -28.9062,-7.66793 L -27.3438,-7.66793 z
M -27.3438,24.808 L -28.125,26.1612 L -26.5625,26.1612 z
M -27.3438,27.5143 L -28.125,28.8675 L -26.5625,28.8675 z
M -27.3438,3.15738 L -28.125,4.51055 L -26.5625,4.51055 z
M -27.3438,5.86371 L -28.125,7.21688 L -26.5625,7.21688 z
M -27.3438,-4.9616 L -28.125,-3.60844 L -26.5625,-3.60844 z
M -27.3438,-7.66793 L -28.125,-6.31477 L -26.5625,-6.31477 z
M -27.3438,-10.3743 L -28.125,-9.0211 L -26.5625,-9.0211 z
M -26.5625,26.1612 L -27.3438,27.5143 L -25.7812,27.5143 z
M -26.5625,4.51055 L -27.3438,5.86371 L -25.7812,5.86371 z
M -26.5625,-6.31477 L -27.3438,-4.9616 L -25.7812,-4.9616 z
M -26.5625,-11.7274 L -27.3438,-10.3743 L -25.7812,-10.3743 z
M -25.7812,5.86371 L -26.5625,7.21688 L -25,7.21688 z
M -25.7812,-4.9616 L -26.5625,-3.60844 L -25,-3.60844 z
M -25.7812,-10.3743 L -26.5625,-9.0211 L -25,-9.0211 z
M -25.7812,-13.0806 L -26.5625,-11.7274 L -25,-11.7274 z
M -25.7812,27.5143 L -26.5625,28.8675 L -25,28.8675 z
M -25,-14.4338 L -25.7812,-13.0806 L -24.2188,-13.0806 z
M -24.2188,-15.7869 L -25,-14.4338 L -23.4375,-14.4338 z
M -24.2188,27.5143 L -25,28.8675 L -23.4375,28.8675 z
M -24.2188,-4.9616 L -25,-3.60844 L -23.4375,-3.60844 z
M -24.2188,-13.0806 L -25,-11.7274 L -23.4375,-11.7274 z
M -24.2188,5.86371 L -25,7.21688 L -23.4375,7.21688 z
M -24.2188,-10.3743 L -25,-9.0211 L -23.4375,-9.0211 z
M -23.4375,4.51055 L -24.2188,5.86371 L -22.6562,5.86371 z
M -23.4375,-6.31477 L -24.2188,-4.9616 L -22.6562,-4.9616 z
M -23.4375,-11.7274 L -24.2188,-10.3743 L -22.6562,-10.3743 z
M -23.4375,26.1612 L -24.2188,27.5143 L -22.6562,27.5143 z
M -23.4375,-17.1401 L -24.2188,-15.7869 L -22.6562,-15.7869 z
M -22.6562,-18.4933 L -23.4375,-17.1401 L -21.875,-17.1401 z
M -22.6562,3.15738 L -23.4375,4.51055 L -21.875,4.51055 z
M -22.6562,5.86371 L -23.4375,7.21688 L -21.875,7.21688 z
M -22.6562,-4.9616 L -23.4375,-3.60844 L -21.875,-3.60844 z
M -22.6562,-7.66793 L -23.4375,-6.31477 L -21.875,-6.31477 z
M -22.6562,-10.3743 L -23.4375,-9.0211 L -21.875,-9.0211 z
M -22.6562,24.808 L -23.4375,26.1612 L -21.875,26.1612 z
M -22.6562,27.5143 L -23.4375,28.8675 L -21.875,28.8675 z
M -22.6562,-15.7869 L -23.4375,-14.4338 L -21.875,-14.4338 z
M -21.875,1.80422 L -22.6562,3.15738 L -21.0938,3.15738 z
M -21.875,-9.0211 L -22.6562,-7.66793 L -21.0938,-7.66793 z
M -21.875,23.4549 L -22.6562,24.808 L -21.0938,24.808 z
M -21.875,-19.8464 L -22.6562,-18.4933 L -21.0938,-18.4933 z
M -21.0938,-21.1996 L -21.875,-19.8464 L -20.3125,-19.8464 z
M -21.0938,-18.4933 L -21.875,-17.1401 L -20.3125,-17.1401 z
M -21.0938,-15.7869 L -21.875,-14.4338 L -20.3125,-14.4338 z
M -21.0938,24.808 L -21.875,26.1612 L -20.3125,26.1612 z
M -21.0938,22.1017 L -21.875,23.4549 L -20.3125,23.4549 z
M -21.0938,0.451055 L -21.875,1.80422 L -20.3125,1.80422 z
M -21.0938,-7.66793 L -21.875,-6.31477 L -20.3125,-6.31477 z
M -21.0938,-4.9616 L -21.875,-3.60844 L -20.3125,-3.60844 z
M -21.0938,5.86371 L -21.875,7.21688 L -20.3125,7.21688 z
M -21.0938,3.15738 L -21.875,4.51055 L -20.3125,4.51055 z
M -21.0938,27.5143 L -21.875,28.8675 L -20.3125,28.8675 z
M -20.3125,4.51055 L -21.0938,5.86371 L -19.5312,5.86371 z
M -20.3125,26.1612 L -21.0938,27.5143 L -19.5312,27.5143 z
M -20.3125,-17.1401 L -21.0938,-15.7869 L -19.5312,-15.7869 z
M -20.3125,-22.5527 L -21.0938,-21.1996 L -19.5312,-21.1996 z
M -20.3125,-0.902109 L -21.0938,0.451055 L -19.5312,0.451055 z
M -20.3125,-6.31477 L -21.0938,-4.9616 L -19.5312,-4.9616 z
M -20.3125,20.7485 L -21.0938,22.1017 L -19.5312,22.1017 z
M -19.5312,-2.25527 L -20.3125,-0.902109 L -18.75,-0.902109 z
M -19.5312,19.3954 L -20.3125,20.7485 L -18.75,20.7485 z
M -19.5312,22.1017 L -20.3125,23.4549 L -18.75,23.4549 z
M -19.5312,27.5143 L -20.3125,28.8675 L -18.75,28.8675 z
M -19.5312,0.451055 L -20.3125,1.80422 L -18.75,1.80422 z
M -19.5312,5.86371 L -20.3125,7.21688 L -18.75,7.21688 z
M -19.5312,-4.9616 L -20.3125,-3.60844 L -18.75,-3.60844 z
M -19.5312,-15.7869 L -20.3125,-14.4338 L -18.75,-14.4338 z
M -19.5312,-21.1996 L -20.3125,-19.8464 L -18.75,-19.8464 z
M -19.5312,-23.9059 L -20.3125,-22.5527 L -18.75,-22.5527 z
M -18.75,-3.60844 L -19.5312,-2.25527 L -17.9688,-2.25527 z
M -18.75,18.0422 L -19.5312,19.3954 L -17.9688,19.3954 z
M -18.75,-25.2591 L -19.5312,-23.9059 L -17.9688,-23.9059 z
M -17.9688,-26.6122 L -18.75,-25.2591 L -17.1875,-25.2591 z
M -17.9688,-23.9059 L -18.75,-22.5527 L -17.1875,-22.5527 z
M -17.9688,-15.7869 L -18.75,-14.4338 L -17.1875,-14.4338 z
M -17.9688,5.86371 L -18.75,7.21688 L -17.1875,7.21688 z
M -17.9688,0.451055 L -18.75,1.80422 L -17.1875,1.80422 z
M -17.9688,-2.25527 L -18.75,-0.902109 L -17.1875,-0.902109 z
M -17.9688,-21.1996 L -18.75,-19.8464 L -17.1875,-19.8464 z
M -17.9688,16.689 L -18.75,18.0422 L -17.1875,18.0422 z
M -17.9688,27.5143 L -18.75,28.8675 L -17.1875,28.8675 z
M -17.9688,19.3954 L -18.75,20.7485 L -17.1875,20.7485 z
M -17.9688,22.1017 L -18.75,23.4549 L -17.1875,23.4549 z
M -17.1875,20.7485 L -17.9688,22.1017 L -16.4062,22.1017 z
M -17.1875,4.51055 L -17.9688,5.86371 L -16.4062,5.86371 z
M -17.1875,-0.902109 L -17.9688,0.451055 L -16.4062,0.451055 z
M -17.1875,26.1612 L -17.9688,27.5143 L -16.4062,27.5143 z
M -17.1875,15.3359 L -17.9688,16.689 L -16.4062,16.689 z
M -17.1875,-22.5527 L -17.9688,-21.1996 L -16.4062,-21.1996 z
M -17.1875,-17.1401 L -17.9688,-15.7869 L -16.4062,-15.7869 z
M -17.1875,-27.9654 L -17.9688,-26.6122 L -16.4062,-26.6122 z
M -16.4062,13.9827 L -17.1875,15.3359 L -15.625,15.3359 z
M -16.4062,22.1017 L -17.1875,23.4549 L -15.625,23.4549 z
M -16.4062,16.689 L -17.1875,18.0422 L -15.625,18.0422 z
M -16.4062,27.5143 L -17.1875,28.8675 L -15.625,28.8675 z
M -16.4062,24.808 L -17.1875,26.1612 L -15.625,26.1612 z
M -16.4062,0.451055 L -17.1875,1.80422 L -15.625,1.80422 z
M -16.4062,3.15738 L -17.1875,4.51055 L -15.625,4.51055 z
M -16.4062,-21.1996 L -17.1875,-19.8464 L -15.625,-19.8464 z
M -16.4062,-26.6122 L -17.1875,-25.2591 L -15.625,-25.2591 z
M -16.4062,-29.3186 L -17.1875,-27.9654 L -15.625,-27.9654 z
M -16.4062,-15.7869 L -17.1875,-14.4338 L -15.625,-14.4338 z
M -16.4062,-18.4933 L -17.1875,-17.1401 L -15.625,-17.1401 z
M -16.4062,5.86371 L -17.1875,7.21688 L -15.625,7.21688 z
M -15.625,23.4549 L -16.4062,24.808 L -14.8438,24.808 z
M -15.625,1.80422 L -16.4062,3.15738 L -14.8438,3.15738 z
M -15.625,-19.8464 L -16.4062,-18.4933 L -14.8438,-18.4933 z
M -15.625,-30.6717 L -16.4062,-29.3186 L -14.8438,-29.3186 z
M -15.625,12.6295 L -16.4062,13.9827 L -14.8438,13.9827 z
M -14.8438,27.5143 L -15.625,28.8675 L -14.0625,28.8675 z
M -14.8438,24.808 L -15.625,26.1612 L -14.0625,26.1612 z
M -14.8438,3.15738 L -15.625,4.51055 L -14.0625,4.51055 z
M -14.8438,5.86371 L -15.625,7.21688 L -14.0625,7.21688 z
M -14.8438,16.689 L -15.625,18.0422 L -14.0625,18.0422 z
M -14.8438,-32.0249 L -15.625,-30.6717 L -14.0625,-30.6717 z
M -14.8438,-29.3186 L -15.625,-27.9654 L -14.0625,-27.9654 z
M -14.8438,-26.6122 L -15.625,-25.2591 L -14.0625,-25.2591 z
M -14.8438,-15.7869 L -15.625,-14.4338 L -14.0625,-14.4338 z
M -14.8438,-18.4933 L -15.625,-17.1401 L -14.0625,-17.1401 z
M -14.8438,13.9827 L -15.625,15.3359 L -14.0625,15.3359 z
M -14.8438,11.2764 L -15.625,12.6295 L -14.0625,12.6295 z
M -14.0625,26.1612 L -14.8438,27.5143 L -13.2812,27.5143 z
M -14.0625,9.92321 L -14.8438,11.2764 L -13.2812,11.2764 z
M -14.0625,4.51055 L -14.8438,5.86371 L -13.2812,5.86371 z
M -14.0625,15.3359 L -14.8438,16.689 L -13.2812,16.689 z
M -14.0625,-33.3781 L -14.8438,-32.0249 L -13.2812,-32.0249 z
M -14.0625,-27.9654 L -14.8438,-26.6122 L -13.2812,-26.6122 z
M -14.0625,-17.1401 L -14.8438,-15.7869 L -13.2812,-15.7869 z
M -13.2812,5.86371 L -14.0625,7.21688 L -12.5,7.21688 z
M -13.2812,27.5143 L -14.0625,28.8675 L -12.5,28.8675 z
M -13.2812,16.689 L -14.0625,18.0422 L -12.5,18.0422 z
M -13.2812,11.2764 L -14.0625,12.6295 L -12.5,12.6295 z
M -13.2812,8.57004 L -14.0625,9.92321 L -12.5,9.92321 z
M -13.2812,-34.7312 L -14.0625,-33.3781 L -12.5,-33.3781 z
M -13.2812,-32.0249 L -14.0625,-30.6717 L -12.5,-30.6717 z
M -13.2812,-26.6122 L -14.0625,-25.2591 L -12.5,-25.2591 z
M -13.2812,-15.7869 L -14.0625,-14.4338 L -12.5,-14.4338 z
M -12.5,-36.0844 L -13.2812,-34.7312 L -11.7188,-34.7312 z
M -12.5,7.21688 L -13.2812,8.57004 L -11.7188,8.57004 z
M -11.7188,-15.7869 L -12.5,-14.4338 L -10.9375,-14.4338 z
M -11.7188,-34.7312 L -12.5,-33.3781 L -10.9375,-33.3781 z
M -11.7188,16.689 L -12.5,18.0422 L -10.9375,18.0422 z
M -11.7188,11.2764 L -12.5,12.6295 L -10.9375,12.6295 z
M -11.7188,8.57004 L -12.5,9.92321 L -10.9375,9.92321 z
M -11.7188,27.5143 L -12.5,28.8675 L -10.9375,28.8675 z
M -11.7188,-37.4376 L -12.5,-36.0844 L -10.9375,-36.0844 z
M -11.7188,-32.0249 L -12.5,-30.6717 L -10.9375,-30.6717 z
M -11.7188,-26.6122 L -12.5,-25.2591 L -10.9375,-25.2591 z
M -10.9375,26.1612 L -11.7188,27.5143 L -10.1562,27.5143 z
M -10.9375,-17.1401 L -11.7188,-15.7869 L -10.1562,-15.7869 z
M -10.9375,-27.9654 L -11.7188,-26.6122 L -10.1562,-26.6122 z
M -10.9375,-33.3781 L -11.7188,-32.0249 L -10.1562,-32.0249 z
M -10.9375,-38.7907 L -11.7188,-37.4376 L -10.1562,-37.4376 z
M -10.9375,9.92321 L -11.7188,11.2764 L -10.1562,11.2764 z
M -10.9375,15.3359 L -11.7188,16.689 L -10.1562,16.689 z
M -10.1562,-40.1439 L -10.9375,-38.7907 L -9.375,-38.7907 z
M -10.1562,-32.0249 L -10.9375,-30.6717 L -9.375,-30.6717 z
M -10.1562,-29.3186 L -10.9375,-27.9654 L -9.375,-27.9654 z
M -10.1562,-37.4376 L -10.9375,-36.0844 L -9.375,-36.0844 z
M -10.1562,-26.6122 L -10.9375,-25.2591 L -9.375,-25.2591 z
M -10.1562,-15.7869 L -10.9375,-14.4338 L -9.375,-14.4338 z
M -10.1562,-18.4933 L -10.9375,-17.1401 L -9.375,-17.1401 z
M -10.1562,24.808 L -10.9375,26.1612 L -9.375,26.1612 z
M -10.1562,27.5143 L -10.9375,28.8675 L -9.375,28.8675 z
M -10.1562,16.689 L -10.9375,18.0422 L -9.375,18.0422 z
M -10.1562,13.9827 L -10.9375,15.3359 L -9.375,15.3359 z
M -10.1562,11.2764 L -10.9375,12.6295 L -9.375,12.6295 z
M -9.375,-41.497 L -10.1562,-40.1439 L -8.59375,-40.1439 z
M -9.375,-30.6717 L -10.1562,-29.3186 L -8.59375,-29.3186 z
M -9.375,23.4549 L -10.1562,24.808 L -8.59375,24.808 z
M -9.375,12.6295 L -10.1562,13.9827 L -8.59375,13.9827 z
M -9.375,-19.8464 L -10.1562,-18.4933 L -8.59375,-18.4933 z
M -8.59375,22.1017 L -9.375,23.4549 L -7.8125,23.4549 z
M -8.59375,-21.1996 L -9.375,-19.8464 L -7.8125,-19.8464 z
M -8.59375,-29.3186 L -9.375,-27.9654 L -7.8125,-27.9654 z
M -8.59375,-26.6122 L -9.375,-25.2591 L -7.8125,-25.2591 z
M -8.59375,-15.7869 L -9.375,-14.4338 L -7.8125,-14.4338 z
M -8.59375,13.9827 L -9.375,15.3359 L -7.8125,15.3359 z
M -8.59375,-18.4933 L -9.375,-17.1401 L -7.8125,-17.1401 z
M -8.59375,-42.8502 L -9.375,-41.497 L -7.8125,-41.497 z
M -8.59375,-40.1439 L -9.375,-38.7907 L -7.8125,-38.7907 z
M -8.59375,-37.4376 L -9.375,-36.0844 L -7.8125,-36.0844 z
M -8.59375,16.689 L -9.375,18.0422 L -7.8125,18.0422 z
M -8.59375,27.5143 L -9.375,28.8675 L -7.8125,28.8675 z
M -8.59375,24.808 L -9.375,26.1612 L -7.8125,26.1612 z
M -7.8125,-22.5527 L -8.59375,-21.1996 L -7.03125,-21.1996 z
M -7.8125,-44.2034 L -8.59375,-42.8502 L -7.03125,-42.8502 z
M -7.8125,-38.7907 L -8.59375,-37.4376 L -7.03125,-37.4376 z
M -7.8125,-17.1401 L -8.59375,-15.7869 L -7.03125,-15.7869 z
M -7.8125,-27.9654 L -8.59375,-26.6122 L -7.03125,-26.6122 z
M -7.8125,15.3359 L -8.59375,16.689 L -7.03125,16.689 z
M -7.8125,26.1612 L -8.59375,27.5143 L -7.03125,27.5143 z
M -7.8125,20.7485 L -8.59375,22.1017 L -7.03125,22.1017 z
M -7.03125,16.689 L -7.8125,18.0422 L -6.25,18.0422 z
M -7.03125,27.5143 L -7.8125,28.8675 L -6.25,28.8675 z
M -7.03125,22.1017 L -7.8125,23.4549 L -6.25,23.4549 z
M -7.03125,19.3954 L -7.8125,20.7485 L -6.25,20.7485 z
M -7.03125,-42.8502 L -7.8125,-41.497 L -6.25,-41.497 z
M -7.03125,-37.4376 L -7.8125,-36.0844 L -6.25,-36.0844 z
M -7.03125,-23.9059 L -7.8125,-22.5527 L -6.25,-22.5527 z
M -7.03125,-21.1996 L -7.8125,-19.8464 L -6.25,-19.8464 z
M -7.03125,-15.7869 L -7.8125,-14.4338 L -6.25,-14.4338 z
M -7.03125,-26.6122 L -7.8125,-25.2591 L -6.25,-25.2591 z
M -7.03125,-45.5565 L -7.8125,-44.2034 L -6.25,-44.2034 z
M -6.25,18.0422 L -7.03125,19.3954 L -5.46875,19.3954 z
M -6.25,-46.9097 L -7.03125,-45.5565 L -5.46875,-45.5565 z
M -6.25,-25.2591 L -7.03125,-23.9059 L -5.46875,-23.9059 z
M -5.46875,-45.5565 L -6.25,-44.2034 L -4.6875,-44.2034 z
M -5.46875,-23.9059 L -6.25,-22.5527 L -4.6875,-22.5527 z
M -5.46875,-15.7869 L -6.25,-14.4338 L -4.6875,-14.4338 z
M -5.46875,-21.1996 L -6.25,-19.8464 L -4.6875,-19.8464 z
M -5.46875,-48.2629 L -6.25,-46.9097 L -4.6875,-46.9097 z
M -5.46875,-42.8502 L -6.25,-41.497 L -4.6875,-41.497 z
M -5.46875,-37.4376 L -6.25,-36.0844 L -4.6875,-36.0844 z
M -5.46875,27.5143 L -6.25,28.8675 L -4.6875,28.8675 z
M -5.46875,19.3954 L -6.25,20.7485 L -4.6875,20.7485 z
M -5.46875,22.1017 L -6.25,23.4549 L -4.6875,23.4549 z
M -4.6875,-44.2034 L -5.46875,-42.8502 L -3.90625,-42.8502 z
M -4.6875,26.1612 L -5.46875,27.5143 L -3.90625,27.5143 z
M -4.6875,20.7485 L -5.46875,22.1017 L -3.90625,22.1017 z
M -4.6875,-49.616 L -5.46875,-48.2629 L -3.90625,-48.2629 z
M -4.6875,-38.7907 L -5.46875,-37.4376 L -3.90625,-37.4376 z
M -4.6875,-22.5527 L -5.46875,-21.1996 L -3.90625,-21.1996 z
M -4.6875,-17.1401 L -5.46875,-15.7869 L -3.90625,-15.7869 z
M -3.90625,27.5143 L -4.6875,28.8675 L -3.125,28.8675 z
M -3.90625,24.808 L -4.6875,26.1612 L -3.125,26.1612 z
M -3.90625,22.1017 L -4.6875,23.4549 L -3.125,23.4549 z
M -3.90625,-15.7869 L -4.6875,-14.4338 L -3.125,-14.4338 z
M -3.90625,-18.4933 L -4.6875,-17.1401 L -3.125,-17.1401 z
M -3.90625,-21.1996 L -4.6875,-19.8464 L -3.125,-19.8464 z
M -3.90625,-40.1439 L -4.6875,-38.7907 L -3.125,-38.7907 z
M -3.90625,-37.4376 L -4.6875,-36.0844 L -3.125,-36.0844 z
M -3.90625,-48.2629 L -4.6875,-46.9097 L -3.125,-46.9097 z
M -3.90625,-50.9692 L -4.6875,-49.616 L -3.125,-49.616 z
M -3.90625,-42.8502 L -4.6875,-41.497 L -3.125,-41.497 z
M -3.125,-41.497 L -3.90625,-40.1439 L -2.34375,-40.1439 z
M -3.125,-52.3224 L -3.90625,-50.9692 L -2.34375,-50.9692 z
M -3.125,23.4549 L -3.90625,24.808 L -2.34375,24.808 z
M -3.125,-19.8464 L -3.90625,-18.4933 L -2.34375,-18.4933 z
M -2.34375,24.808 L -3.125,26.1612 L -1.5625,26.1612 z
M -2.34375,27.5143 L -3.125,28.8675 L -1.5625,28.8675 z
M -2.34375,-53.6755 L -3.125,-52.3224 L -1.5625,-52.3224 z
M -2.34375,-18.4933 L -3.125,-17.1401 L -1.5625,-17.1401 z
M -2.34375,-15.7869 L -3.125,-14.4338 L -1.5625,-14.4338 z
M -2.34375,-40.1439 L -3.125,-38.7907 L -1.5625,-38.7907 z
M -2.34375,-37.4376 L -3.125,-36.0844 L -1.5625,-36.0844 z
M -2.34375,-48.2629 L -3.125,-46.9097 L -1.5625,-46.9097 z
M -2.34375,-50.9692 L -3.125,-49.616 L -1.5625,-49.616 z
M -1.5625,26.1612 L -2.34375,27.5143 L -0.78125,27.5143 z
M -1.5625,-17.1401 L -2.34375,-15.7869 L -0.78125,-15.7869 z
M -1.5625,-38.7907 L -2.34375,-37.4376 L -0.78125,-37.4376 z
M -1.5625,-49.616 L -2.34375,-48.2629 L -0.78125,-48.2629 z
M -1.5625,-55.0287 L -2.34375,-53.6755 L -0.78125,-53.6755 z
M -0.78125,-37.4376 L -1.5625,-36.0844 L 0,-36.0844 z
M -0.78125,-48.2629 L -1.5625,-46.9097 L 0,-46.9097 z
M -0.78125,-53.6755 L -1.5625,-52.3224 L 0,-52.3224 z
M -0.78125,-56.3819 L -1.5625,-55.0287 L 0,-55.0287 z
M -0.78125,-15.7869 L -1.5625,-14.4338 L 0,-14.4338 z
M -0.78125,27.5143 L -1.5625,28.8675 L 0,28.8675 z
M 0,-57.735 L -0.78125,-56.3819 L 0.78125,-56.3819 z
M 0.78125,27.5143 L 0,28.8675 L 1.5625,28.8675 z
M 0.78125,-56.3819 L 0,-55.0287 L 1.5625,-55.0287 z
M 0.78125,-48.2629 L 0,-46.9097 L 1.5625,-46.9097 z
M 0.78125,-37.4376 L 0,-36.0844 L 1.5625,-36.0844 z
M 0.78125,-15.7869 L 0,-14.4338 L 1.5625,-14.4338 z
M 0.78125,-53.6755 L 0,-52.3224 L 1.5625,-52.3224 z
M 1.5625,-38.7907 L 0.78125,-37.4376 L 2.34375,-37.4376 z
M 1.5625,-49.616 L 0.78125,-48.2629 L 2.34375,-48.2629 z
M 1.5625,-55.0287 L 0.78125,-53.6755 L 2.34375,-53.6755 z
M 1.5625,-17.1401 L 0.78125,-15.7869 L 2.34375,-15.7869 z
M 1.5625,26.1612 L 0.78125,27.5143 L 2.34375,27.5143 z
M 2.34375,24.808 L 1.5625,26.1612 L 3.125,26.1612 z
M 2.34375,27.5143 L 1.5625,28.8675 L 3.125,28.8675 z
M 2.34375,-15.7869 L 1.5625,-14.4338 L 3.125,-14.4338 z
M 2.34375,-18.4933 L 1.5625,-17.1401 L 3.125,-17.1401 z
M 2.34375,-53.6755 L 1.5625,-52.3224 L 3.125,-52.3224 z
M 2.34375,-50.9692 L 1.5625,-49.616 L 3.125,-49.616 z
M 2.34375,-48.2629 L 1.5625,-46.9097 L 3.125,-46.9097 z
M 2.34375,-37.4376 L 1.5625,-36.0844 L 3.125,-36.0844 z
M 2.34375,-40.1439 L 1.5625,-38.7907 L 3.125,-38.7907 z
M 3.125,23.4549 L 2.34375,24.808 L 3.90625,24.808 z
M 3.125,-19.8464 L 2.34375,-18.4933 L 3.90625,-18.4933 z
M 3.125,-52.3224 L 2.34375,-50.9692 L 3.90625,-50.9692 z
M 3.125,-41.497 L 2.34375,-40.1439 L 3.90625,-40.1439 z
M 3.90625,22.1017 L 3.125,23.4549 L 4.6875,23.4549 z
M 3.90625,24.808 L 3.125,26.1612 L 4.6875,26.1612 z
M 3.90625,27.5143 L 3.125,28.8675 L 4.6875,28.8675 z
M 3.90625,-15.7869 L 3.125,-14.4338 L 4.6875,-14.4338 z
M 3.90625,-40.1439 L 3.125,-38.7907 L 4.6875,-38.7907 z
M 3.90625,-37.4376 L 3.125,-36.0844 L 4.6875,-36.0844 z
M 3.90625,-48.2629 L 3.125,-46.9097 L 4.6875,-46.9097 z
M 3.90625,-50.9692 L 3.125,-49.616 L 4.6875,-49.616 z
M 3.90625,-42.8502 L 3.125,-41.497 L 4.6875,-41.497 z
M 3.90625,-21.1996 L 3.125,-19.8464 L 4.6875,-19.8464 z
M 3.90625,-18.4933 L 3.125,-17.1401 L 4.6875,-17.1401 z
M 4.6875,20.7485 L 3.90625,22.1017 L 5.46875,22.1017 z
M 4.6875,26.1612 L 3.90625,27.5143 L 5.46875,27.5143 z
M 4.6875,-44.2034 L 3.90625,-42.8502 L 5.46875,-42.8502 z
M 4.6875,-49.616 L 3.90625,-48.2629 L 5.46875,-48.2629 z
M 4.6875,-22.5527 L 3.90625,-21.1996 L 5.46875,-21.1996 z
M 4.6875,-17.1401 L 3.90625,-15.7869 L 5.46875,-15.7869 z
M 4.6875,-38.7907 L 3.90625,-37.4376 L 5.46875,-37.4376 z
M 5.46875,-15.7869 L 4.6875,-14.4338 L 6.25,-14.4338 z
M 5.46875,19.3954 L 4.6875,20.7485 L 6.25,20.7485 z
M 5.46875,22.1017 L 4.6875,23.4549 L 6.25,23.4549 z
M 5.46875,27.5143 L 4.6875,28.8675 L 6.25,28.8675 z
M 5.46875,-48.2629 L 4.6875,-46.9097 L 6.25,-46.9097 z
M 5.46875,-37.4376 L 4.6875,-36.0844 L 6.25,-36.0844 z
M 5.46875,-42.8502 L 4.6875,-41.497 L 6.25,-41.497 z
M 5.46875,-45.5565 L 4.6875,-44.2034 L 6.25,-44.2034 z
M 5.46875,-23.9059 L 4.6875,-22.5527 L 6.25,-22.5527 z
M 5.46875,-21.1996 L 4.6875,-19.8464 L 6.25,-19.8464 z
M 6.25,18.0422 L 5.46875,19.3954 L 7.03125,19.3954 z
M 6.25,-46.9097 L 5.46875,-45.5565 L 7.03125,-45.5565 z
M 6.25,-25.2591 L 5.46875,-23.9059 L 7.03125,-23.9059 z
M 7.03125,16.689 L 6.25,18.0422 L 7.8125,18.0422 z
M 7.03125,27.5143 L 6.25,28.8675 L 7.8125,28.8675 z
M 7.03125,19.3954 L 6.25,20.7485 L 7.8125,20.7485 z
M 7.03125,22.1017 L 6.25,23.4549 L 7.8125,23.4549 z
M 7.03125,-37.4376 L 6.25,-36.0844 L 7.8125,-36.0844 z
M 7.03125,-42.8502 L 6.25,-41.497 L 7.8125,-41.497 z
M 7.03125,-45.5565 L 6.25,-44.2034 L 7.8125,-44.2034 z
M 7.03125,-26.6122 L 6.25,-25.2591 L 7.8125,-25.2591 z
M 7.03125,-15.7869 L 6.25,-14.4338 L 7.8125,-14.4338 z
M 7.03125,-23.9059 L 6.25,-22.5527 L 7.8125,-22.5527 z
M 7.03125,-21.1996 L 6.25,-19.8464 L 7.8125,-19.8464 z
M 7.8125,-44.2034 L 7.03125,-42.8502 L 8.59375,-42.8502 z
M 7.8125,-38.7907 L 7.03125,-37.4376 L 8.59375,-37.4376 z
M 7.8125,-27.9654 L 7.03125,-26.6122 L 8.59375,-26.6122 z
M 7.8125,-22.5527 L 7.03125,-21.1996 L 8.59375,-21.1996 z
M 7.8125,-17.1401 L 7.03125,-15.7869 L 8.59375,-15.7869 z
M 7.8125,15.3359 L 7.03125,16.689 L 8.59375,16.689 z
M 7.8125,20.7485 L 7.03125,22.1017 L 8.59375,22.1017 z
M 7.8125,26.1612 L 7.03125,27.5143 L 8.59375,27.5143 z
M 8.59375,-29.3186 L 7.8125,-27.9654 L 9.375,-27.9654 z
M 8.59375,-21.1996 L 7.8125,-19.8464 L 9.375,-19.8464 z
M 8.59375,-26.6122 L 7.8125,-25.2591 L 9.375,-25.2591 z
M 8.59375,-15.7869 L 7.8125,-14.4338 L 9.375,-14.4338 z
M 8.59375,-18.4933 L 7.8125,-17.1401 L 9.375,-17.1401 z
M 8.59375,-42.8502 L 7.8125,-41.497 L 9.375,-41.497 z
M 8.59375,-40.1439 L 7.8125,-38.7907 L 9.375,-38.7907 z
M 8.59375,-37.4376 L 7.8125,-36.0844 L 9.375,-36.0844 z
M 8.59375,22.1017 L 7.8125,23.4549 L 9.375,23.4549 z
M 8.59375,13.9827 L 7.8125,15.3359 L 9.375,15.3359 z
M 8.59375,16.689 L 7.8125,18.0422 L 9.375,18.0422 z
M 8.59375,27.5143 L 7.8125,28.8675 L 9.375,28.8675 z
M 8.59375,24.808 L 7.8125,26.1612 L 9.375,26.1612 z
M 9.375,23.4549 L 8.59375,24.808 L 10.1562,24.808 z
M 9.375,-41.497 L 8.59375,-40.1439 L 10.1562,-40.1439 z
M 9.375,-19.8464 L 8.59375,-18.4933 L 10.1562,-18.4933 z
M 9.375,-30.6717 L 8.59375,-29.3186 L 10.1562,-29.3186 z
M 9.375,12.6295 L 8.59375,13.9827 L 10.1562,13.9827 z
M 10.1562,-40.1439 L 9.375,-38.7907 L 10.9375,-38.7907 z
M 10.1562,-37.4376 L 9.375,-36.0844 L 10.9375,-36.0844 z
M 10.1562,24.808 L 9.375,26.1612 L 10.9375,26.1612 z
M 10.1562,27.5143 L 9.375,28.8675 L 10.9375,28.8675 z
M 10.1562,16.689 L 9.375,18.0422 L 10.9375,18.0422 z
M 10.1562,13.9827 L 9.375,15.3359 L 10.9375,15.3359 z
M 10.1562,11.2764 L 9.375,12.6295 L 10.9375,12.6295 z
M 10.1562,-15.7869 L 9.375,-14.4338 L 10.9375,-14.4338 z
M 10.1562,-18.4933 L 9.375,-17.1401 L 10.9375,-17.1401 z
M 10.1562,-29.3186 L 9.375,-27.9654 L 10.9375,-27.9654 z
M 10.1562,-32.0249 L 9.375,-30.6717 L 10.9375,-30.6717 z
M 10.1562,-26.6122 L 9.375,-25.2591 L 10.9375,-25.2591 z
M 10.9375,9.92321 L 10.1562,11.2764 L 11.7188,11.2764 z
M 10.9375,-17.1401 L 10.1562,-15.7869 L 11.7188,-15.7869 z
M 10.9375,-33.3781 L 10.1562,-32.0249 L 11.7188,-32.0249 z
M 10.9375,-38.7907 L 10.1562,-37.4376 L 11.7188,-37.4376 z
M 10.9375,-27.9654 L 10.1562,-26.6122 L 11.7188,-26.6122 z
M 10.9375,26.1612 L 10.1562,27.5143 L 11.7188,27.5143 z
M 10.9375,15.3359 L 10.1562,16.689 L 11.7188,16.689 z
M 11.7188,11.2764 L 10.9375,12.6295 L 12.5,12.6295 z
M 11.7188,8.57004 L 10.9375,9.92321 L 12.5,9.92321 z
M 11.7188,16.689 L 10.9375,18.0422 L 12.5,18.0422 z
M 11.7188,-37.4376 L 10.9375,-36.0844 L 12.5,-36.0844 z
M 11.7188,27.5143 L 10.9375,28.8675 L 12.5,28.8675 z
M 11.7188,-15.7869 L 10.9375,-14.4338 L 12.5,-14.4338 z
M 11.7188,-26.6122 L 10.9375,-25.2591 L 12.5,-25.2591 z
M 11.7188,-32.0249 L 10.9375,-30.6717 L 12.5,-30.6717 z
M 11.7188,-34.7312 L 10.9375,-33.3781 L 12.5,-33.3781 z
M 12.5,7.21688 L 11.7188,8.57004 L 13.2812,8.57004 z
M 12.5,-36.0844 L 11.7188,-34.7312 L 13.2812,-34.7312 z
M 13.2812,5.86371 L 12.5,7.21688 L 14.0625,7.21688 z
M 13.2812,8.57004 L 12.5,9.92321 L 14.0625,9.92321 z
M 13.2812,11.2764 L 12.5,12.6295 L 14.0625,12.6295 z
M 13.2812,16.689 L 12.5,18.0422 L 14.0625,18.0422 z
M 13.2812,-15.7869 L 12.5,-14.4338 L 14.0625,-14.4338 z
M 13.2812,-34.7312 L 12.5,-33.3781 L 14.0625,-33.3781 z
M 13.2812,-32.0249 L 12.5,-30.6717 L 14.0625,-30.6717 z
M 13.2812,-26.6122 L 12.5,-25.2591 L 14.0625,-25.2591 z
M 13.2812,27.5143 L 12.5,28.8675 L 14.0625,28.8675 z
M 14.0625,-27.9654 L 13.2812,-26.6122 L 14.8438,-26.6122 z
M 14.0625,-17.1401 L 13.2812,-15.7869 L 14.8438,-15.7869 z
M 14.0625,-33.3781 L 13.2812,-32.0249 L 14.8438,-32.0249 z
M 14.0625,4.51055 L 13.2812,5.86371 L 14.8438,5.86371 z
M 14.0625,9.92321 L 13.2812,11.2764 L 14.8438,11.2764 z
M 14.0625,15.3359 L 13.2812,16.689 L 14.8438,16.689 z
M 14.0625,26.1612 L 13.2812,27.5143 L 14.8438,27.5143 z
M 14.8438,-18.4933 L 14.0625,-17.1401 L 15.625,-17.1401 z
M 14.8438,-15.7869 L 14.0625,-14.4338 L 15.625,-14.4338 z
M 14.8438,-26.6122 L 14.0625,-25.2591 L 15.625,-25.2591 z
M 14.8438,-29.3186 L 14.0625,-27.9654 L 15.625,-27.9654 z
M 14.8438,-32.0249 L 14.0625,-30.6717 L 15.625,-30.6717 z
M 14.8438,3.15738 L 14.0625,4.51055 L 15.625,4.51055 z
M 14.8438,5.86371 L 14.0625,7.21688 L 15.625,7.21688 z
M 14.8438,11.2764 L 14.0625,12.6295 L 15.625,12.6295 z
M 14.8438,13.9827 L 14.0625,15.3359 L 15.625,15.3359 z
M 14.8438,16.689 L 14.0625,18.0422 L 15.625,18.0422 z
M 14.8438,27.5143 L 14.0625,28.8675 L 15.625,28.8675 z
M 14.8438,24.808 L 14.0625,26.1612 L 15.625,26.1612 z
M 15.625,-19.8464 L 14.8438,-18.4933 L 16.4062,-18.4933 z
M 15.625,-30.6717 L 14.8438,-29.3186 L 16.4062,-29.3186 z
M 15.625,1.80422 L 14.8438,3.15738 L 16.4062,3.15738 z
M 15.625,12.6295 L 14.8438,13.9827 L 16.4062,13.9827 z
M 15.625,23.4549 L 14.8438,24.808 L 16.4062,24.808 z
M 16.4062,3.15738 L 15.625,4.51055 L 17.1875,4.51055 z
M 16.4062,0.451055 L 15.625,1.80422 L 17.1875,1.80422 z
M 16.4062,-26.6122 L 15.625,-25.2591 L 17.1875,-25.2591 z
M 16.4062,-15.7869 L 15.625,-14.4338 L 17.1875,-14.4338 z
M 16.4062,-18.4933 L 15.625,-17.1401 L 17.1875,-17.1401 z
M 16.4062,5.86371 L 15.625,7.21688 L 17.1875,7.21688 z
M 16.4062,-21.1996 L 15.625,-19.8464 L 17.1875,-19.8464 z
M 16.4062,24.808 L 15.625,26.1612 L 17.1875,26.1612 z
M 16.4062,27.5143 L 15.625,28.8675 L 17.1875,28.8675 z
M 16.4062,16.689 L 15.625,18.0422 L 17.1875,18.0422 z
M 16.4062,13.9827 L 15.625,15.3359 L 17.1875,15.3359 z
M 16.4062,22.1017 L 15.625,23.4549 L 17.1875,23.4549 z
M 16.4062,-29.3186 L 15.625,-27.9654 L 17.1875,-27.9654 z
M 17.1875,20.7485 L 16.4062,22.1017 L 17.9688,22.1017 z
M 17.1875,-0.902109 L 16.4062,0.451055 L 17.9688,0.451055 z
M 17.1875,26.1612 L 16.4062,27.5143 L 17.9688,27.5143 z
M 17.1875,15.3359 L 16.4062,16.689 L 17.9688,16.689 z
M 17.1875,-17.1401 L 16.4062,-15.7869 L 17.9688,-15.7869 z
M 17.1875,-22.5527 L 16.4062,-21.1996 L 17.9688,-21.1996 z
M 17.1875,-27.9654 L 16.4062,-26.6122 L 17.9688,-26.6122 z
M 17.1875,4.51055 L 16.4062,5.86371 L 17.9688,5.86371 z
M 17.9688,22.1017 L 17.1875,23.4549 L 18.75,23.4549 z
M 17.9688,27.5143 L 17.1875,28.8675 L 18.75,28.8675 z
M 17.9688,16.689 L 17.1875,18.0422 L 18.75,18.0422 z
M 17.9688,19.3954 L 17.1875,20.7485 L 18.75,20.7485 z
M 17.9688,5.86371 L 17.1875,7.21688 L 18.75,7.21688 z
M 17.9688,0.451055 L 17.1875,1.80422 L 18.75,1.80422 z
M 17.9688,-2.25527 L 17.1875,-0.902109 L 18.75,-0.902109 z
M 17.9688,-26.6122 L 17.1875,-25.2591 L 18.75,-25.2591 z
M 17.9688,-15.7869 L 17.1875,-14.4338 L 18.75,-14.4338 z
M 17.9688,-21.1996 L 17.1875,-19.8464 L 18.75,-19.8464 z
M 17.9688,-23.9059 L 17.1875,-22.5527 L 18.75,-22.5527 z
M 18.75,18.0422 L 17.9688,19.3954 L 19.5312,19.3954 z
M 18.75,-3.60844 L 17.9688,-2.25527 L 19.5312,-2.25527 z
M 18.75,-25.2591 L 17.9688,-23.9059 L 19.5312,-23.9059 z
M 19.5312,22.1017 L 18.75,23.4549 L 20.3125,23.4549 z
M 19.5312,5.86371 L 18.75,7.21688 L 20.3125,7.21688 z
M 19.5312,0.451055 L 18.75,1.80422 L 20.3125,1.80422 z
M 19.5312,-2.25527 L 18.75,-0.902109 L 20.3125,-0.902109 z
M 19.5312,-4.9616 L 18.75,-3.60844 L 20.3125,-3.60844 z
M 19.5312,19.3954 L 18.75,20.7485 L 20.3125,20.7485 z
M 19.5312,-15.7869 L 18.75,-14.4338 L 20.3125,-14.4338 z
M 19.5312,27.5143 L 18.75,28.8675 L 20.3125,28.8675 z
M 19.5312,-21.1996 L 18.75,-19.8464 L 20.3125,-19.8464 z
M 19.5312,-23.9059 L 18.75,-22.5527 L 20.3125,-22.5527 z
M 20.3125,20.7485 L 19.5312,22.1017 L 21.0938,22.1017 z
M 20.3125,-0.902109 L 19.5312,0.451055 L 21.0938,0.451055 z
M 20.3125,4.51055 L 19.5312,5.86371 L 21.0938,5.86371 z
M 20.3125,-6.31477 L 19.5312,-4.9616 L 21.0938,-4.9616 z
M 20.3125,26.1612 L 19.5312,27.5143 L 21.0938,27.5143 z
M 20.3125,-17.1401 L 19.5312,-15.7869 L 21.0938,-15.7869 z
M 20.3125,-22.5527 L 19.5312,-21.1996 L 21.0938,-21.1996 z
M 21.0938,0.451055 L 20.3125,1.80422 L 21.875,1.80422 z
M 21.0938,-21.1996 L 20.3125,-19.8464 L 21.875,-19.8464 z
M 21.0938,-18.4933 L 20.3125,-17.1401 L 21.875,-17.1401 z
M 21.0938,-15.7869 L 20.3125,-14.4338 L 21.875,-14.4338 z
M 21.0938,-7.66793 L 20.3125,-6.31477 L 21.875,-6.31477 z
M 21.0938,-4.9616 L 20.3125,-3.60844 L 21.875,-3.60844 z
M 21.0938,5.86371 L 20.3125,7.21688 L 21.875,7.21688 z
M 21.0938,3.15738 L 20.3125,4.51055 L 21.875,4.51055 z
M 21.0938,22.1017 L 20.3125,23.4549 L 21.875,23.4549 z
M 21.0938,24.808 L 20.3125,26.1612 L 21.875,26.1612 z
M 21.0938,27.5143 L 20.3125,28.8675 L 21.875,28.8675 z
M 21.875,-19.8464 L 21.0938,-18.4933 L 22.6562,-18.4933 z
M 21.875,-9.0211 L 21.0938,-7.66793 L 22.6562,-7.66793 z
M 21.875,1.80422 L 21.0938,3.15738 L 22.6562,3.15738 z
M 21.875,23.4549 L 21.0938,24.808 L 22.6562,24.808 z
M 22.6562,-18.4933 L 21.875,-17.1401 L 23.4375,-17.1401 z
M 22.6562,-15.7869 L 21.875,-14.4338 L 23.4375,-14.4338 z
M 22.6562,-10.3743 L 21.875,-9.0211 L 23.4375,-9.0211 z
M 22.6562,-7.66793 L 21.875,-6.31477 L 23.4375,-6.31477 z
M 22.6562,-4.9616 L 21.875,-3.60844 L 23.4375,-3.60844 z
M 22.6562,5.86371 L 21.875,7.21688 L 23.4375,7.21688 z
M 22.6562,27.5143 L 21.875,28.8675 L 23.4375,28.8675 z
M 22.6562,24.808 L 21.875,26.1612 L 23.4375,26.1612 z
M 22.6562,3.15738 L 21.875,4.51055 L 23.4375,4.51055 z
M 23.4375,4.51055 L 22.6562,5.86371 L 24.2188,5.86371 z
M 23.4375,-6.31477 L 22.6562,-4.9616 L 24.2188,-4.9616 z
M 23.4375,-11.7274 L 22.6562,-10.3743 L 24.2188,-10.3743 z
M 23.4375,26.1612 L 22.6562,27.5143 L 24.2188,27.5143 z
M 23.4375,-17.1401 L 22.6562,-15.7869 L 24.2188,-15.7869 z
M 24.2188,-15.7869 L 23.4375,-14.4338 L 25,-14.4338 z
M 24.2188,5.86371 L 23.4375,7.21688 L 25,7.21688 z
M 24.2188,-4.9616 L 23.4375,-3.60844 L 25,-3.60844 z
M 24.2188,-10.3743 L 23.4375,-9.0211 L 25,-9.0211 z
M 24.2188,-13.0806 L 23.4375,-11.7274 L 25,-11.7274 z
M 24.2188,27.5143 L 23.4375,28.8675 L 25,28.8675 z
M 25,-14.4338 L 24.2188,-13.0806 L 25.7812,-13.0806 z
M 25.7812,27.5143 L 25,28.8675 L 26.5625,28.8675 z
M 25.7812,-10.3743 L 25,-9.0211 L 26.5625,-9.0211 z
M 25.7812,5.86371 L 25,7.21688 L 26.5625,7.21688 z
M 25.7812,-13.0806 L 25,-11.7274 L 26.5625,-11.7274 z
M 25.7812,-4.9616 L 25,-3.60844 L 26.5625,-3.60844 z
M 26.5625,26.1612 L 25.7812,27.5143 L 27.3438,27.5143 z
M 26.5625,-11.7274 L 25.7812,-10.3743 L 27.3438,-10.3743 z
M 26.5625,-6.31477 L 25.7812,-4.9616 L 27.3438,-4.9616 z
M 26.5625,4.51055 L 25.7812,5.86371 L 27.3438,5.86371 z
M 27.3438,27.5143 L 26.5625,28.8675 L 28.125,28.8675 z
M 27.3438,24.808 L 26.5625,26.1612 L 28.125,26.1612 z
M 27.3438,-10.3743 L 26.5625,-9.0211 L 28.125,-9.0211 z
M 27.3438,-7.66793 L 26.5625,-6.31477 L 28.125,-6.31477 z
M 27.3438,-4.9616 L 26.5625,-3.60844 L 28.125,-3.60844 z
M 27.3438,5.86371 L 26.5625,7.21688 L 28.125,7.21688 z
M 27.3438,3.15738 L 26.5625,4.51055 L 28.125,4.51055 z
M 28.125,23.4549 L 27.3438,24.808 L 28.9062,24.808 z
M 28.125,-9.0211 L 27.3438,-7.66793 L 28.9062,-7.66793 z
M 28.125,1.80422 L 27.3438,3.15738 L 28.9062,3.15738 z
M 28.9062,27.5143 L 28.125,28.8675 L 29.6875,28.8675 z
M 28.9062,3.15738 L 28.125,4.51055 L 29.6875,4.51055 z
M 28.9062,5.86371 L 28.125,7.21688 L 29.6875,7.21688 z
M 28.9062,-4.9616 L 28.125,-3.60844 L 29.6875,-3.60844 z
M 28.9062,-7.66793 L 28.125,-6.31477 L 29.6875,-6.31477 z
M 28.9062,0.451055 L 28.125,1.80422 L 29.6875,1.80422 z
M 28.9062,22.1017 L 28.125,23.4549 L 29.6875,23.4549 z
M 28.9062,24.808 L 28.125,26.1612 L 29.6875,26.1612 z
M 29.6875,-0.902109 L 28.9062,0.451055 L 30.4688,0.451055 z
M 29.6875,-6.31477 L 28.9062,-4.9616 L 30.4688,-4.9616 z
M 29.6875,20.7485 L 28.9062,22.1017 L 30.4688,22.1017 z
M 29.6875,26.1612 L 28.9062,27.5143 L 30.4688,27.5143 z
M 29.6875,4.51055 L 28.9062,5.86371 L 30.4688,5.86371 z
M 30.4688,-4.9616 L 29.6875,-3.60844 L 31.25,-3.60844 z
M 30.4688,5.86371 L 29.6875,7.21688 L 31.25,7.21688 z
M 30.4688,0.451055 L 29.6875,1.80422 L 31.25,1.80422 z
M 30.4688,-2.25527 L 29.6875,-0.902109 L 31.25,-0.902109 z
M 30.4688,19.3954 L 29.6875,20.7485 L 31.25,20.7485 z
M 30.4688,22.1017 L 29.6875,23.4549 L 31.25,23.4549 z
M 30.4688,27.5143 L 29.6875,28.8675 L 31.25,28.8675 z
M 31.25,-3.60844 L 30.4688,-2.25527 L 32.0312,-2.25527 z
M 31.25,18.0422 L 30.4688,19.3954 L 32.0312,19.3954 z
M 32.0312,5.86371 L 31.25,7.21688 L 32.8125,7.21688 z
M 32.0312,0.451055 L 31.25,1.80422 L 32.8125,1.80422 z
M 32.0312,-2.25527 L 31.25,-0.902109 L 32.8125,-0.902109 z
M 32.0312,16.689 L 31.25,18.0422 L 32.8125,18.0422 z
M 32.0312,27.5143 L 31.25,28.8675 L 32.8125,28.8675 z
M 32.0312,19.3954 L 31.25,20.7485 L 32.8125,20.7485 z
M 32.0312,22.1017 L 31.25,23.4549 L 32.8125,23.4549 z
M 32.8125,15.3359 L 32.0312,16.689 L 33.5938,16.689 z
M 32.8125,26.1612 L 32.0312,27.5143 L 33.5938,27.5143 z
M 32.8125,20.7485 L 32.0312,22.1017 L 33.5938,22.1017 z
M 32.8125,-0.902109 L 32.0312,0.451055 L 33.5938,0.451055 z
M 32.8125,4.51055 L 32.0312,5.86371 L 33.5938,5.86371 z
M 33.5938,22.1017 L 32.8125,23.4549 L 34.375,23.4549 z
M 33.5938,13.9827 L 32.8125,15.3359 L 34.375,15.3359 z
M 33.5938,16.689 L 32.8125,18.0422 L 34.375,18.0422 z
M 33.5938,27.5143 L 32.8125,28.8675 L 34.375,28.8675 z
M 33.5938,24.808 L 32.8125,26.1612 L 34.375,26.1612 z
M 33.5938,0.451055 L 32.8125,1.80422 L 34.375,1.80422 z
M 33.5938,3.15738 L 32.8125,4.51055 L 34.375,4.51055 z
M 33.5938,5.86371 L 32.8125,7.21688 L 34.375,7.21688 z
M 34.375,12.6295 L 33.5938,13.9827 L 35.1562,13.9827 z
M 34.375,23.4549 L 33.5938,24.808 L 35.1562,24.808 z
M 34.375,1.80422 L 33.5938,3.15738 L 35.1562,3.15738 z
M 35.1562,11.2764 L 34.375,12.6295 L 35.9375,12.6295 z
M 35.1562,13.9827 L 34.375,15.3359 L 35.9375,15.3359 z
M 35.1562,16.689 L 34.375,18.0422 L 35.9375,18.0422 z
M 35.1562,27.5143 L 34.375,28.8675 L 35.9375,28.8675 z
M 35.1562,24.808 L 34.375,26.1612 L 35.9375,26.1612 z
M 35.1562,3.15738 L 34.375,4.51055 L 35.9375,4.51055 z
M 35.1562,5.86371 L 34.375,7.21688 L 35.9375,7.21688 z
M 35.9375,26.1612 L 35.1562,27.5143 L 36.7188,27.5143 z
M 35.9375,9.92321 L 35.1562,11.2764 L 36.7188,11.2764 z
M 35.9375,4.51055 L 35.1562,5.86371 L 36.7188,5.86371 z
M 35.9375,15.3359 L 35.1562,16.689 L 36.7188,16.689 z
M 36.7188,5.86371 L 35.9375,7.21688 L 37.5,7.21688 z
M 36.7188,27.5143 L 35.9375,28.8675 L 37.5,28.8675 z
M 36.7188,16.689 L 35.9375,18.0422 L 37.5,18.0422 z
M 36.7188,11.2764 L 35.9375,12.6295 L 37.5,12.6295 z
M 36.7188,8.57004 L 35.9375,9.92321 L 37.5,9.92321 z
M 37.5,7.21688 L 36.7188,8.57004 L 38.2812,8.57004 z
M 38.2812,27.5143 L 37.5,28.8675 L 39.0625,28.8675 z
M 38.2812,8.57004 L 37.5,9.92321 L 39.0625,9.92321 z
M 38.2812,11.2764 L 37.5,12.6295 L 39.0625,12.6295 z
M 38.2812,16.689 L 37.5,18.0422 L 39.0625,18.0422 z
M 39.0625,9.92321 L 38.2812,11.2764 L 39.8438,11.2764 z
M 39.0625,15.3359 L 38.2812,16.689 L 39.8438,16.689 z
M 39.0625,26.1612 L 38.2812,27.5143 L 39.8438,27.5143 z
M 39.8438,11.2764 L 39.0625,12.6295 L 40.625,12.6295 z
M 39.8438,13.9827 L 39.0625,15.3359 L 40.625,15.3359 z
M 39.8438,16.689 L 39.0625,18.0422 L 40.625,18.0422 z
M 39.8438,27.5143 L 39.0625,28.8675 L 40.625,28.8675 z
M 39.8438,24.808 L 39.0625,26.1612 L 40.625,26.1612 z
M 40.625,12.6295 L 39.8438,13.9827 L 41.4062,13.9827 z
M 40.625,23.4549 L 39.8438,24.808 L 41.4062,24.808 z
M 41.4062,22.1017 L 40.625,23.4549 L 42.1875,23.4549 z
M 41.4062,13.9827 L 40.625,15.3359 L 42.1875,15.3359 z
M 41.4062,16.689 L 40.625,18.0422 L 42.1875,18.0422 z
M 41.4062,27.5143 L 40.625,28.8675 L 42.1875,28.8675 z
M 41.4062,24.808 L 40.625,26.1612 L 42.1875,26.1612 z
M 42.1875,15.3359 L 41.4062,16.689 L 42.9688,16.689 z
M 42.1875,20.7485 L 41.4062,22.1017 L 42.9688,22.1017 z
M 42.1875,26.1612 L 41.4062,27.5143 L 42.9688,27.5143 z
M 42.9688,16.689 L 42.1875,18.0422 L 43.75,18.0422 z
M 42.9688,27.5143 L 42.1875,28.8675 L 43.75,28.8675 z
M 42.9688,22.1017 L 42.1875,23.4549 L 43.75,23.4549 z
M 42.9688,19.3954 L 42.1875,20.7485 L 43.75,20.7485 z
M 43.75,18.0422 L 42.9688,19.3954 L 44.5312,19.3954 z
M 44.5312,27.5143 L 43.75,28.8675 L 45.3125,28.8675 z
M 44.5312,22.1017 L 43.75,23.4549 L 45.3125,23.4549 z
M 44.5312,19.3954 L 43.75,20.7485 L 45.3125,20.7485 z
M 45.3125,26.1612 L 44.5312,27.5143 L 46.0938,27.5143 z
M 45.3125,20.7485 L 44.5312,22.1017 L 46.0938,22.1017 z
M 46.0938,27.5143 L 45.3125,28.8675 L 46.875,28.8675 z
M 46.0938,24.808 L 45.3125,26.1612 L 46.875,26.1612 z
M 46.0938,22.1017 L 45.3125,23.4549 L 46.875,23.4549 z
M 46.875,23.4549 L 46.0938,24.808 L 47.6562,24.808 z
M 47.6562,27.5143 L 46.875,28.8675 L 48.4375,28.8675 z
M 47.6562,24.808 L 46.875,26.1612 L 48.4375,26.1612 z
M 48.4375,26.1612 L 47.6562,27.5143 L 49.2188,27.5143 z
M 49.2188,27.5143 L 48.4375,28.8675 L 50,28.8675 z
" stroke="black" fill="lightgray" stroke-width=".005"/>
</svg>
