<?xml version="1.0" standalone="no"?>
<!DOCTYPE svg PUBLIC "-//W3C//DTD SVG 1.1//EN" "http://www.w3.org/Graphics/SVG/1.1/DTD/svg11.dtd">
<svg width="100mm" height="87mm" viewBox="-50 -58 100 87" xmlns="http://www.w3.org/2000/svg" version="1.1">
<title>OpenSCAD Model</title>
<path d="
M -43.75,18.0422 L -50,28.8675 L -37.5,28.8675 z
M -37.5,7.21688 L -43.75,18.0422 L -31.25,18.0422 z
M -31.25,18.0422 L -37.5,28.8675 L -25,28.8675 z
M -31.25,-3.60844 L -37.5,7.21688 L -25,7.21688 z
M -25,-14.4338 L -31.25,-3.60844 L -18.75,-3.60844 z
M -18.75,18.0422 L -25,28.8675 L -12.5,28.8675 z
M -18.75,-3.60844 L -25,7.21688 L -12.5,7.21688 z
M -18.75,-25.2591 L -25,-14.4338 L -12.5,-14.4338 z
M -12.5,7.21688 L -18.75,18.0422 L -6.25,18.0422 z
M -12.5,-36.0844 L -18.75,-25.2591 L -6.25,-25.2591 z
M -6.25,18.0422 L -12.5,28.8675 L 0,28.8675 z
M -6.25,-25.2591 L -12.5,-14.4338 L 0,-14.4338 z
M -6.25,-46.9097 L -12.5,-36.0844 L 0,-36.0844 z
M 0,-57.735 L -6.25,-46.9097 L 6.25,-46.9097 z
M 6.25,18.0422 L 0,28.8675 L 12.5,28.8675 z
M 6.25,-25.2591 L 0,-14.4338 L 12.5,-14.4338 z
M 6.25,-46.9097 L 0,-36.0844 L 12.5,-36.0844 z
M 12.5,7.21688 L 6.25,18.0422 L 18.75,18.0422 z
M 12.5,-36.0844 L 6.25,-25.2591 L 18.75,-25.2591 z
M 18.75,18.0422 L 12.5,28.8675 L 25,28.8675 z
M 18.75,-3.60844 L 12.5,7.21688 L 25,7.21688 z
M 18.75,-25.2591 L 12.5,-14.4338 L 25,-14.4338 z
M 25,-14.4338 L 18.75,-3.60844 L 31.25,-3.60844 z
M 31.25,18.0422 L 25,28.8675 L 37.5,28.8675 z
M 31.25,-3.60844 L 25,7.21688 L 37.5,7.21688 z
M 37.5,7.21688 L 31.25,18.0422 L 43.75,18.0422 z
M 43.75,18.0422 L 37.5,28.8675 L 50,28.8675 z
" stroke="black" fill="lightgray" stroke-width="0.5"/>
</svg>
