<?xml version="1.0" standalone="no"?>
<!DOCTYPE svg PUBLIC "-//W3C//DTD SVG 1.1//EN" "http://www.w3.org/Graphics/SVG/1.1/DTD/svg11.dtd">
<svg width="100mm" height="87mm" viewBox="-50 -58 100 87" xmlns="http://www.w3.org/2000/svg" version="1.1">
<title>OpenSCAD Model</title>
<path d="
M -46.875,23.4549 L -50,28.8675 L -43.75,28.8675 z
M -43.75,18.0422 L -46.875,23.4549 L -40.625,23.4549 z
M -40.625,12.6295 L -43.75,18.0422 L -37.5,18.0422 z
M -40.625,23.4549 L -43.75,28.8675 L -37.5,28.8675 z
M -37.5,7.21688 L -40.625,12.6295 L -34.375,12.6295 z
M -34.375,1.80422 L -37.5,7.21688 L -31.25,7.21688 z
M -34.375,12.6295 L -37.5,18.0422 L -31.25,18.0422 z
M -34.375,23.4549 L -37.5,28.8675 L -31.25,28.8675 z
M -31.25,-3.60844 L -34.375,1.80422 L -28.125,1.80422 z
M -31.25,18.0422 L -34.375,23.4549 L -28.125,23.4549 z
M -28.125,-9.0211 L -31.25,-3.60844 L -25,-3.60844 z
M -28.125,1.80422 L -31.25,7.21688 L -25,7.21688 z
M -28.125,23.4549 L -31.25,28.8675 L -25,28.8675 z
M -25,-14.4338 L -28.125,-9.0211 L -21.875,-9.0211 z
M -21.875,-19.8464 L -25,-14.4338 L -18.75,-14.4338 z
M -21.875,23.4549 L -25,28.8675 L -18.75,28.8675 z
M -21.875,-9.0211 L -25,-3.60844 L -18.75,-3.60844 z
M -21.875,1.80422 L -25,7.21688 L -18.75,7.21688 z
M -18.75,-3.60844 L -21.875,1.80422 L -15.625,1.80422 z
M -18.75,18.0422 L -21.875,23.4549 L -15.625,23.4549 z
M -18.75,-25.2591 L -21.875,-19.8464 L -15.625,-19.8464 z
M -15.625,12.6295 L -18.75,18.0422 L -12.5,18.0422 z
M -15.625,23.4549 L -18.75,28.8675 L -12.5,28.8675 z
M -15.625,-19.8464 L -18.75,-14.4338 L -12.5,-14.4338 z
M -15.625,-30.6717 L -18.75,-25.2591 L -12.5,-25.2591 z
M -15.625,1.80422 L -18.75,7.21688 L -12.5,7.21688 z
M -12.5,7.21688 L -15.625,12.6295 L -9.375,12.6295 z
M -12.5,-36.0844 L -15.625,-30.6717 L -9.375,-30.6717 z
M -9.375,12.6295 L -12.5,18.0422 L -6.25,18.0422 z
M -9.375,23.4549 L -12.5,28.8675 L -6.25,28.8675 z
M -9.375,-19.8464 L -12.5,-14.4338 L -6.25,-14.4338 z
M -9.375,-30.6717 L -12.5,-25.2591 L -6.25,-25.2591 z
M -9.375,-41.497 L -12.5,-36.0844 L -6.25,-36.0844 z
M -6.25,18.0422 L -9.375,23.4549 L -3.125,23.4549 z
M -6.25,-25.2591 L -9.375,-19.8464 L -3.125,-19.8464 z
M -6.25,-46.9097 L -9.375,-41.497 L -3.125,-41.497 z
M -3.125,23.4549 L -6.25,28.8675 L 0,28.8675 z
M -3.125,-19.8464 L -6.25,-14.4338 L 0,-14.4338 z
M -3.125,-41.497 L -6.25,-36.0844 L 0,-36.0844 z
M -3.125,-52.3224 L -6.25,-46.9097 L 0,-46.9097 z
M 0,-57.735 L -3.125,-52.3224 L 3.125,-52.3224 z
M 3.125,23.4549 L 0,28.8675 L 6.25,28.8675 z
M 3.125,-52.3224 L 0,-46.9097 L 6.25,-46.9097 z
M 3.125,-41.497 L 0,-36.0844 L 6.25,-36.0844 z
M 3.125,-19.8464 L 0,-14.4338 L 6.25,-14.4338 z
M 6.25,-46.9097 L 3.125,-41.497 L 9.375,-41.497 z
M 6.25,-25.2591 L 3.125,-19.8464 L 9.375,-19.8464 z
M 6.25,18.0422 L 3.125,23.4549 L 9.375,23.4549 z
M 9.375,-41.497 L 6.25,-36.0844 L 12.5,-36.0844 z
M 9.375,-30.6717 L 6.25,-25.2591 L 12.5,-25.2591 z
M 9.375,-19.8464 L 6.25,-14.4338 L 12.5,-14.4338 z
M 9.375,23.4549 L 6.25,28.8675 L 12.5,28.8675 z
M 9.375,12.6295 L 6.25,18.0422 L 12.5,18.0422 z
M 12.5,-36.0844 L 9.375,-30.6717 L 15.625,-30.6717 z
M 12.5,7.21688 L 9.375,12.6295 L 15.625,12.6295 z
M 15.625,1.80422 L 12.5,7.21688 L 18.75,7.21688 z
M 15.625,-30.6717 L 12.5,-25.2591 L 18.75,-25.2591 z
M 15.625,-19.8464 L 12.5,-14.4338 L 18.75,-14.4338 z
M 15.625,23.4549 L 12.5,28.8675 L 18.75,28.8675 z
M 15.625,12.6295 L 12.5,18.0422 L 18.75,18.0422 z
M 18.75,-25.2591 L 15.625,-19.8464 L 21.875,-19.8464 z
M 18.75,-3.60844 L 15.625,1.80422 L 21.875,1.80422 z
M 18.75,18.0422 L 15.625,23.4549 L 21.875,23.4549 z
M 21.875,-19.8464 L 18.75,-14.4338 L 25,-14.4338 z
M 21.875,23.4549 L 18.75,28.8675 L 25,28.8675 z
M 21.875,1.80422 L 18.75,7.21688 L 25,7.21688 z
M 21.875,-9.0211 L 18.75,-3.60844 L 25,-3.60844 z
M 25,-14.4338 L 21.875,-9.0211 L 28.125,-9.0211 z
M 28.125,23.4549 L 25,28.8675 L 31.25,28.8675 z
M 28.125,1.80422 L 25,7.21688 L 31.25,7.21688 z
M 28.125,-9.0211 L 25,-3.60844 L 31.25,-3.60844 z
M 31.25,18.0422 L 28.125,23.4549 L 34.375,23.4549 z
M 31.25,-3.60844 L 28.125,1.80422 L 34.375,1.80422 z
M 34.375,23.4549 L 31.25,28.8675 L 37.5,28.8675 z
M 34.375,12.6295 L 31.25,18.0422 L 37.5,18.0422 z
M 34.375,1.80422 L 31.25,7.21688 L 37.5,7.21688 z
M 37.5,7.21688 L 34.375,12.6295 L 40.625,12.6295 z
M 40.625,23.4549 L 37.5,28.8675 L 43.75,28.8675 z
M 40.625,12.6295 L 37.5,18.0422 L 43.75,18.0422 z
M 43.75,18.0422 L 40.625,23.4549 L 46.875,23.4549 z
M 46.875,23.4549 L 43.75,28.8675 L 50,28.8675 z
" stroke="black" fill="lightgray" stroke-width="0.5"/>
</svg>
