<?xml version="1.0" standalone="no"?>
<!DOCTYPE svg PUBLIC "-//W3C//DTD SVG 1.1//EN" "http://www.w3.org/Graphics/SVG/1.1/DTD/svg11.dtd">
<svg width="100mm" height="87mm" viewBox="-50 -58 100 87" xmlns="http://www.w3.org/2000/svg" version="1.1">
<title>OpenSCAD Model</title>
<path d="
M -48.4375,26.1612 L -50,28.8675 L -46.875,28.8675 z
M -46.875,23.4549 L -48.4375,26.1612 L -45.3125,26.1612 z
M -45.3125,20.7485 L -46.875,23.4549 L -43.75,23.4549 z
M -45.3125,26.1612 L -46.875,28.8675 L -43.75,28.8675 z
M -43.75,18.0422 L -45.3125,20.7485 L -42.1875,20.7485 z
M -42.1875,15.3359 L -43.75,18.0422 L -40.625,18.0422 z
M -42.1875,20.7485 L -43.75,23.4549 L -40.625,23.4549 z
M -42.1875,26.1612 L -43.75,28.8675 L -40.625,28.8675 z
M -40.625,12.6295 L -42.1875,15.3359 L -39.0625,15.3359 z
M -40.625,23.4549 L -42.1875,26.1612 L -39.0625,26.1612 z
M -39.0625,9.92321 L -40.625,12.6295 L -37.5,12.6295 z
M -39.0625,15.3359 L -40.625,18.0422 L -37.5,18.0422 z
M -39.0625,26.1612 L -40.625,28.8675 L -37.5,28.8675 z
M -37.5,7.21688 L -39.0625,9.92321 L -35.9375,9.92321 z
M -35.9375,4.51055 L -37.5,7.21688 L -34.375,7.21688 z
M -35.9375,26.1612 L -37.5,28.8675 L -34.375,28.8675 z
M -35.9375,9.92321 L -37.5,12.6295 L -34.375,12.6295 z
M -35.9375,15.3359 L -37.5,18.0422 L -34.375,18.0422 z
M -34.375,1.80422 L -35.9375,4.51055 L -32.8125,4.51055 z
M -34.375,23.4549 L -35.9375,26.1612 L -32.8125,26.1612 z
M -34.375,12.6295 L -35.9375,15.3359 L -32.8125,15.3359 z
M -32.8125,20.7485 L -34.375,23.4549 L -31.25,23.4549 z
M -32.8125,26.1612 L -34.375,28.8675 L -31.25,28.8675 z
M -32.8125,4.51055 L -34.375,7.21688 L -31.25,7.21688 z
M -32.8125,-0.902109 L -34.375,1.80422 L -31.25,1.80422 z
M -32.8125,15.3359 L -34.375,18.0422 L -31.25,18.0422 z
M -31.25,18.0422 L -32.8125,20.7485 L -29.6875,20.7485 z
M -31.25,-3.60844 L -32.8125,-0.902109 L -29.6875,-0.902109 z
M -29.6875,20.7485 L -31.25,23.4549 L -28.125,23.4549 z
M -29.6875,26.1612 L -31.25,28.8675 L -28.125,28.8675 z
M -29.6875,4.51055 L -31.25,7.21688 L -28.125,7.21688 z
M -29.6875,-0.902109 L -31.25,1.80422 L -28.125,1.80422 z
M -29.6875,-6.31477 L -31.25,-3.60844 L -28.125,-3.60844 z
M -28.125,23.4549 L -29.6875,26.1612 L -26.5625,26.1612 z
M -28.125,1.80422 L -29.6875,4.51055 L -26.5625,4.51055 z
M -28.125,-9.0211 L -29.6875,-6.31477 L -26.5625,-6.31477 z
M -26.5625,26.1612 L -28.125,28.8675 L -25,28.8675 z
M -26.5625,4.51055 L -28.125,7.21688 L -25,7.21688 z
M -26.5625,-6.31477 L -28.125,-3.60844 L -25,-3.60844 z
M -26.5625,-11.7274 L -28.125,-9.0211 L -25,-9.0211 z
M -25,-14.4338 L -26.5625,-11.7274 L -23.4375,-11.7274 z
M -23.4375,-17.1401 L -25,-14.4338 L -21.875,-14.4338 z
M -23.4375,-11.7274 L -25,-9.0211 L -21.875,-9.0211 z
M -23.4375,-6.31477 L -25,-3.60844 L -21.875,-3.60844 z
M -23.4375,4.51055 L -25,7.21688 L -21.875,7.21688 z
M -23.4375,26.1612 L -25,28.8675 L -21.875,28.8675 z
M -21.875,-19.8464 L -23.4375,-17.1401 L -20.3125,-17.1401 z
M -21.875,-9.0211 L -23.4375,-6.31477 L -20.3125,-6.31477 z
M -21.875,1.80422 L -23.4375,4.51055 L -20.3125,4.51055 z
M -21.875,23.4549 L -23.4375,26.1612 L -20.3125,26.1612 z
M -20.3125,-22.5527 L -21.875,-19.8464 L -18.75,-19.8464 z
M -20.3125,-17.1401 L -21.875,-14.4338 L -18.75,-14.4338 z
M -20.3125,-6.31477 L -21.875,-3.60844 L -18.75,-3.60844 z
M -20.3125,-0.902109 L -21.875,1.80422 L -18.75,1.80422 z
M -20.3125,4.51055 L -21.875,7.21688 L -18.75,7.21688 z
M -20.3125,26.1612 L -21.875,28.8675 L -18.75,28.8675 z
M -20.3125,20.7485 L -21.875,23.4549 L -18.75,23.4549 z
M -18.75,-25.2591 L -20.3125,-22.5527 L -17.1875,-22.5527 z
M -18.75,-3.60844 L -20.3125,-0.902109 L -17.1875,-0.902109 z
M -18.75,18.0422 L -20.3125,20.7485 L -17.1875,20.7485 z
M -17.1875,-17.1401 L -18.75,-14.4338 L -15.625,-14.4338 z
M -17.1875,-22.5527 L -18.75,-19.8464 L -15.625,-19.8464 z
M -17.1875,-27.9654 L -18.75,-25.2591 L -15.625,-25.2591 z
M -17.1875,20.7485 L -18.75,23.4549 L -15.625,23.4549 z
M -17.1875,26.1612 L -18.75,28.8675 L -15.625,28.8675 z
M -17.1875,4.51055 L -18.75,7.21688 L -15.625,7.21688 z
M -17.1875,-0.902109 L -18.75,1.80422 L -15.625,1.80422 z
M -17.1875,15.3359 L -18.75,18.0422 L -15.625,18.0422 z
M -15.625,1.80422 L -17.1875,4.51055 L -14.0625,4.51055 z
M -15.625,23.4549 L -17.1875,26.1612 L -14.0625,26.1612 z
M -15.625,-19.8464 L -17.1875,-17.1401 L -14.0625,-17.1401 z
M -15.625,-30.6717 L -17.1875,-27.9654 L -14.0625,-27.9654 z
M -15.625,12.6295 L -17.1875,15.3359 L -14.0625,15.3359 z
M -14.0625,4.51055 L -15.625,7.21688 L -12.5,7.21688 z
M -14.0625,26.1612 L -15.625,28.8675 L -12.5,28.8675 z
M -14.0625,15.3359 L -15.625,18.0422 L -12.5,18.0422 z
M -14.0625,9.92321 L -15.625,12.6295 L -12.5,12.6295 z
M -14.0625,-17.1401 L -15.625,-14.4338 L -12.5,-14.4338 z
M -14.0625,-27.9654 L -15.625,-25.2591 L -12.5,-25.2591 z
M -14.0625,-33.3781 L -15.625,-30.6717 L -12.5,-30.6717 z
M -12.5,7.21688 L -14.0625,9.92321 L -10.9375,9.92321 z
M -12.5,-36.0844 L -14.0625,-33.3781 L -10.9375,-33.3781 z
M -10.9375,-17.1401 L -12.5,-14.4338 L -9.375,-14.4338 z
M -10.9375,-27.9654 L -12.5,-25.2591 L -9.375,-25.2591 z
M -10.9375,-33.3781 L -12.5,-30.6717 L -9.375,-30.6717 z
M -10.9375,-38.7907 L -12.5,-36.0844 L -9.375,-36.0844 z
M -10.9375,9.92321 L -12.5,12.6295 L -9.375,12.6295 z
M -10.9375,15.3359 L -12.5,18.0422 L -9.375,18.0422 z
M -10.9375,26.1612 L -12.5,28.8675 L -9.375,28.8675 z
M -9.375,-41.497 L -10.9375,-38.7907 L -7.8125,-38.7907 z
M -9.375,-19.8464 L -10.9375,-17.1401 L -7.8125,-17.1401 z
M -9.375,-30.6717 L -10.9375,-27.9654 L -7.8125,-27.9654 z
M -9.375,12.6295 L -10.9375,15.3359 L -7.8125,15.3359 z
M -9.375,23.4549 L -10.9375,26.1612 L -7.8125,26.1612 z
M -7.8125,26.1612 L -9.375,28.8675 L -6.25,28.8675 z
M -7.8125,20.7485 L -9.375,23.4549 L -6.25,23.4549 z
M -7.8125,15.3359 L -9.375,18.0422 L -6.25,18.0422 z
M -7.8125,-22.5527 L -9.375,-19.8464 L -6.25,-19.8464 z
M -7.8125,-17.1401 L -9.375,-14.4338 L -6.25,-14.4338 z
M -7.8125,-38.7907 L -9.375,-36.0844 L -6.25,-36.0844 z
M -7.8125,-44.2034 L -9.375,-41.497 L -6.25,-41.497 z
M -7.8125,-27.9654 L -9.375,-25.2591 L -6.25,-25.2591 z
M -6.25,18.0422 L -7.8125,20.7485 L -4.6875,20.7485 z
M -6.25,-25.2591 L -7.8125,-22.5527 L -4.6875,-22.5527 z
M -6.25,-46.9097 L -7.8125,-44.2034 L -4.6875,-44.2034 z
M -4.6875,20.7485 L -6.25,23.4549 L -3.125,23.4549 z
M -4.6875,26.1612 L -6.25,28.8675 L -3.125,28.8675 z
M -4.6875,-22.5527 L -6.25,-19.8464 L -3.125,-19.8464 z
M -4.6875,-17.1401 L -6.25,-14.4338 L -3.125,-14.4338 z
M -4.6875,-38.7907 L -6.25,-36.0844 L -3.125,-36.0844 z
M -4.6875,-44.2034 L -6.25,-41.497 L -3.125,-41.497 z
M -4.6875,-49.616 L -6.25,-46.9097 L -3.125,-46.9097 z
M -3.125,23.4549 L -4.6875,26.1612 L -1.5625,26.1612 z
M -3.125,-19.8464 L -4.6875,-17.1401 L -1.5625,-17.1401 z
M -3.125,-41.497 L -4.6875,-38.7907 L -1.5625,-38.7907 z
M -3.125,-52.3224 L -4.6875,-49.616 L -1.5625,-49.616 z
M -1.5625,-17.1401 L -3.125,-14.4338 L 0,-14.4338 z
M -1.5625,-38.7907 L -3.125,-36.0844 L 0,-36.0844 z
M -1.5625,-49.616 L -3.125,-46.9097 L 0,-46.9097 z
M -1.5625,-55.0287 L -3.125,-52.3224 L 0,-52.3224 z
M -1.5625,26.1612 L -3.125,28.8675 L 0,28.8675 z
M 0,-57.735 L -1.5625,-55.0287 L 1.5625,-55.0287 z
M 1.5625,26.1612 L 0,28.8675 L 3.125,28.8675 z
M 1.5625,-49.616 L 0,-46.9097 L 3.125,-46.9097 z
M 1.5625,-17.1401 L 0,-14.4338 L 3.125,-14.4338 z
M 1.5625,-55.0287 L 0,-52.3224 L 3.125,-52.3224 z
M 1.5625,-38.7907 L 0,-36.0844 L 3.125,-36.0844 z
M 3.125,23.4549 L 1.5625,26.1612 L 4.6875,26.1612 z
M 3.125,-52.3224 L 1.5625,-49.616 L 4.6875,-49.616 z
M 3.125,-41.497 L 1.5625,-38.7907 L 4.6875,-38.7907 z
M 3.125,-19.8464 L 1.5625,-17.1401 L 4.6875,-17.1401 z
M 4.6875,26.1612 L 3.125,28.8675 L 6.25,28.8675 z
M 4.6875,20.7485 L 3.125,23.4549 L 6.25,23.4549 z
M 4.6875,-49.616 L 3.125,-46.9097 L 6.25,-46.9097 z
M 4.6875,-44.2034 L 3.125,-41.497 L 6.25,-41.497 z
M 4.6875,-38.7907 L 3.125,-36.0844 L 6.25,-36.0844 z
M 4.6875,-17.1401 L 3.125,-14.4338 L 6.25,-14.4338 z
M 4.6875,-22.5527 L 3.125,-19.8464 L 6.25,-19.8464 z
M 6.25,18.0422 L 4.6875,20.7485 L 7.8125,20.7485 z
M 6.25,-46.9097 L 4.6875,-44.2034 L 7.8125,-44.2034 z
M 6.25,-25.2591 L 4.6875,-22.5527 L 7.8125,-22.5527 z
M 7.8125,26.1612 L 6.25,28.8675 L 9.375,28.8675 z
M 7.8125,-22.5527 L 6.25,-19.8464 L 9.375,-19.8464 z
M 7.8125,-17.1401 L 6.25,-14.4338 L 9.375,-14.4338 z
M 7.8125,-38.7907 L 6.25,-36.0844 L 9.375,-36.0844 z
M 7.8125,-44.2034 L 6.25,-41.497 L 9.375,-41.497 z
M 7.8125,-27.9654 L 6.25,-25.2591 L 9.375,-25.2591 z
M 7.8125,15.3359 L 6.25,18.0422 L 9.375,18.0422 z
M 7.8125,20.7485 L 6.25,23.4549 L 9.375,23.4549 z
M 9.375,-30.6717 L 7.8125,-27.9654 L 10.9375,-27.9654 z
M 9.375,-41.497 L 7.8125,-38.7907 L 10.9375,-38.7907 z
M 9.375,12.6295 L 7.8125,15.3359 L 10.9375,15.3359 z
M 9.375,23.4549 L 7.8125,26.1612 L 10.9375,26.1612 z
M 9.375,-19.8464 L 7.8125,-17.1401 L 10.9375,-17.1401 z
M 10.9375,-38.7907 L 9.375,-36.0844 L 12.5,-36.0844 z
M 10.9375,-17.1401 L 9.375,-14.4338 L 12.5,-14.4338 z
M 10.9375,-27.9654 L 9.375,-25.2591 L 12.5,-25.2591 z
M 10.9375,-33.3781 L 9.375,-30.6717 L 12.5,-30.6717 z
M 10.9375,9.92321 L 9.375,12.6295 L 12.5,12.6295 z
M 10.9375,15.3359 L 9.375,18.0422 L 12.5,18.0422 z
M 10.9375,26.1612 L 9.375,28.8675 L 12.5,28.8675 z
M 12.5,-36.0844 L 10.9375,-33.3781 L 14.0625,-33.3781 z
M 12.5,7.21688 L 10.9375,9.92321 L 14.0625,9.92321 z
M 14.0625,-17.1401 L 12.5,-14.4338 L 15.625,-14.4338 z
M 14.0625,-27.9654 L 12.5,-25.2591 L 15.625,-25.2591 z
M 14.0625,-33.3781 L 12.5,-30.6717 L 15.625,-30.6717 z
M 14.0625,4.51055 L 12.5,7.21688 L 15.625,7.21688 z
M 14.0625,26.1612 L 12.5,28.8675 L 15.625,28.8675 z
M 14.0625,9.92321 L 12.5,12.6295 L 15.625,12.6295 z
M 14.0625,15.3359 L 12.5,18.0422 L 15.625,18.0422 z
M 15.625,1.80422 L 14.0625,4.51055 L 17.1875,4.51055 z
M 15.625,23.4549 L 14.0625,26.1612 L 17.1875,26.1612 z
M 15.625,12.6295 L 14.0625,15.3359 L 17.1875,15.3359 z
M 15.625,-30.6717 L 14.0625,-27.9654 L 17.1875,-27.9654 z
M 15.625,-19.8464 L 14.0625,-17.1401 L 17.1875,-17.1401 z
M 17.1875,15.3359 L 15.625,18.0422 L 18.75,18.0422 z
M 17.1875,-0.902109 L 15.625,1.80422 L 18.75,1.80422 z
M 17.1875,4.51055 L 15.625,7.21688 L 18.75,7.21688 z
M 17.1875,26.1612 L 15.625,28.8675 L 18.75,28.8675 z
M 17.1875,20.7485 L 15.625,23.4549 L 18.75,23.4549 z
M 17.1875,-27.9654 L 15.625,-25.2591 L 18.75,-25.2591 z
M 17.1875,-22.5527 L 15.625,-19.8464 L 18.75,-19.8464 z
M 17.1875,-17.1401 L 15.625,-14.4338 L 18.75,-14.4338 z
M 18.75,-3.60844 L 17.1875,-0.902109 L 20.3125,-0.902109 z
M 18.75,18.0422 L 17.1875,20.7485 L 20.3125,20.7485 z
M 18.75,-25.2591 L 17.1875,-22.5527 L 20.3125,-22.5527 z
M 20.3125,-6.31477 L 18.75,-3.60844 L 21.875,-3.60844 z
M 20.3125,-0.902109 L 18.75,1.80422 L 21.875,1.80422 z
M 20.3125,4.51055 L 18.75,7.21688 L 21.875,7.21688 z
M 20.3125,26.1612 L 18.75,28.8675 L 21.875,28.8675 z
M 20.3125,20.7485 L 18.75,23.4549 L 21.875,23.4549 z
M 20.3125,-22.5527 L 18.75,-19.8464 L 21.875,-19.8464 z
M 20.3125,-17.1401 L 18.75,-14.4338 L 21.875,-14.4338 z
M 21.875,23.4549 L 20.3125,26.1612 L 23.4375,26.1612 z
M 21.875,-9.0211 L 20.3125,-6.31477 L 23.4375,-6.31477 z
M 21.875,-19.8464 L 20.3125,-17.1401 L 23.4375,-17.1401 z
M 21.875,1.80422 L 20.3125,4.51055 L 23.4375,4.51055 z
M 23.4375,-17.1401 L 21.875,-14.4338 L 25,-14.4338 z
M 23.4375,26.1612 L 21.875,28.8675 L 25,28.8675 z
M 23.4375,4.51055 L 21.875,7.21688 L 25,7.21688 z
M 23.4375,-6.31477 L 21.875,-3.60844 L 25,-3.60844 z
M 23.4375,-11.7274 L 21.875,-9.0211 L 25,-9.0211 z
M 25,-14.4338 L 23.4375,-11.7274 L 26.5625,-11.7274 z
M 26.5625,26.1612 L 25,28.8675 L 28.125,28.8675 z
M 26.5625,-11.7274 L 25,-9.0211 L 28.125,-9.0211 z
M 26.5625,-6.31477 L 25,-3.60844 L 28.125,-3.60844 z
M 26.5625,4.51055 L 25,7.21688 L 28.125,7.21688 z
M 28.125,-9.0211 L 26.5625,-6.31477 L 29.6875,-6.31477 z
M 28.125,1.80422 L 26.5625,4.51055 L 29.6875,4.51055 z
M 28.125,23.4549 L 26.5625,26.1612 L 29.6875,26.1612 z
M 29.6875,-6.31477 L 28.125,-3.60844 L 31.25,-3.60844 z
M 29.6875,-0.902109 L 28.125,1.80422 L 31.25,1.80422 z
M 29.6875,4.51055 L 28.125,7.21688 L 31.25,7.21688 z
M 29.6875,26.1612 L 28.125,28.8675 L 31.25,28.8675 z
M 29.6875,20.7485 L 28.125,23.4549 L 31.25,23.4549 z
M 31.25,-3.60844 L 29.6875,-0.902109 L 32.8125,-0.902109 z
M 31.25,18.0422 L 29.6875,20.7485 L 32.8125,20.7485 z
M 32.8125,15.3359 L 31.25,18.0422 L 34.375,18.0422 z
M 32.8125,-0.902109 L 31.25,1.80422 L 34.375,1.80422 z
M 32.8125,4.51055 L 31.25,7.21688 L 34.375,7.21688 z
M 32.8125,26.1612 L 31.25,28.8675 L 34.375,28.8675 z
M 32.8125,20.7485 L 31.25,23.4549 L 34.375,23.4549 z
M 34.375,1.80422 L 32.8125,4.51055 L 35.9375,4.51055 z
M 34.375,12.6295 L 32.8125,15.3359 L 35.9375,15.3359 z
M 34.375,23.4549 L 32.8125,26.1612 L 35.9375,26.1612 z
M 35.9375,4.51055 L 34.375,7.21688 L 37.5,7.21688 z
M 35.9375,26.1612 L 34.375,28.8675 L 37.5,28.8675 z
M 35.9375,15.3359 L 34.375,18.0422 L 37.5,18.0422 z
M 35.9375,9.92321 L 34.375,12.6295 L 37.5,12.6295 z
M 37.5,7.21688 L 35.9375,9.92321 L 39.0625,9.92321 z
M 39.0625,26.1612 L 37.5,28.8675 L 40.625,28.8675 z
M 39.0625,15.3359 L 37.5,18.0422 L 40.625,18.0422 z
M 39.0625,9.92321 L 37.5,12.6295 L 40.625,12.6295 z
M 40.625,23.4549 L 39.0625,26.1612 L 42.1875,26.1612 z
M 40.625,12.6295 L 39.0625,15.3359 L 42.1875,15.3359 z
M 42.1875,26.1612 L 40.625,28.8675 L 43.75,28.8675 z
M 42.1875,20.7485 L 40.625,23.4549 L 43.75,23.4549 z
M 42.1875,15.3359 L 40.625,18.0422 L 43.75,18.0422 z
M 43.75,18.0422 L 42.1875,20.7485 L 45.3125,20.7485 z
M 45.3125,26.1612 L 43.75,28.8675 L 46.875,28.8675 z
M 45.3125,20.7485 L 43.75,23.4549 L 46.875,23.4549 z
M 46.875,23.4549 L 45.3125,26.1612 L 48.4375,26.1612 z
M 48.4375,26.1612 L 46.875,28.8675 L 50,28.8675 z
" stroke="black" fill="lightgray" stroke-width="0.5"/>
</svg>
