  0
SECTION
  2
BLOCKS
  0
ENDSEC
  0
SECTION
  2
ENTITIES
  0
LINE
  8
0
 10
-43.75
 20
-18.0422
 11
-50
 21
-28.8675
  0
LINE
  8
0
 10
-50
 20
-28.8675
 11
-37.5
 21
-28.8675
  0
LINE
  8
0
 10
-37.5
 20
-28.8675
 11
-43.75
 21
-18.0422
  0
LINE
  8
0
 10
-37.5
 20
-7.21688
 11
-43.75
 21
-18.0422
  0
LINE
  8
0
 10
-43.75
 20
-18.0422
 11
-31.25
 21
-18.0422
  0
LINE
  8
0
 10
-31.25
 20
-18.0422
 11
-37.5
 21
-7.21688
  0
LINE
  8
0
 10
-31.25
 20
-18.0422
 11
-37.5
 21
-28.8675
  0
LINE
  8
0
 10
-37.5
 20
-28.8675
 11
-25
 21
-28.8675
  0
LINE
  8
0
 10
-25
 20
-28.8675
 11
-31.25
 21
-18.0422
  0
LINE
  8
0
 10
-31.25
 20
3.60844
 11
-37.5
 21
-7.21688
  0
LINE
  8
0
 10
-37.5
 20
-7.21688
 11
-25
 21
-7.21688
  0
LINE
  8
0
 10
-25
 20
-7.21688
 11
-31.25
 21
3.60844
  0
LINE
  8
0
 10
-25
 20
14.4338
 11
-31.25
 21
3.60844
  0
LINE
  8
0
 10
-31.25
 20
3.60844
 11
-18.75
 21
3.60844
  0
LINE
  8
0
 10
-18.75
 20
3.60844
 11
-25
 21
14.4338
  0
LINE
  8
0
 10
-18.75
 20
-18.0422
 11
-25
 21
-28.8675
  0
LINE
  8
0
 10
-25
 20
-28.8675
 11
-12.5
 21
-28.8675
  0
LINE
  8
0
 10
-12.5
 20
-28.8675
 11
-18.75
 21
-18.0422
  0
LINE
  8
0
 10
-18.75
 20
3.60844
 11
-25
 21
-7.21688
  0
LINE
  8
0
 10
-25
 20
-7.21688
 11
-12.5
 21
-7.21688
  0
LINE
  8
0
 10
-12.5
 20
-7.21688
 11
-18.75
 21
3.60844
  0
LINE
  8
0
 10
-18.75
 20
25.2591
 11
-25
 21
14.4338
  0
LINE
  8
0
 10
-25
 20
14.4338
 11
-12.5
 21
14.4338
  0
LINE
  8
0
 10
-12.5
 20
14.4338
 11
-18.75
 21
25.2591
  0
LINE
  8
0
 10
-12.5
 20
-7.21688
 11
-18.75
 21
-18.0422
  0
LINE
  8
0
 10
-18.75
 20
-18.0422
 11
-6.25
 21
-18.0422
  0
LINE
  8
0
 10
-6.25
 20
-18.0422
 11
-12.5
 21
-7.21688
  0
LINE
  8
0
 10
-12.5
 20
36.0844
 11
-18.75
 21
25.2591
  0
LINE
  8
0
 10
-18.75
 20
25.2591
 11
-6.25
 21
25.2591
  0
LINE
  8
0
 10
-6.25
 20
25.2591
 11
-12.5
 21
36.0844
  0
LINE
  8
0
 10
-6.25
 20
-18.0422
 11
-12.5
 21
-28.8675
  0
LINE
  8
0
 10
-12.5
 20
-28.8675
 11
0
 21
-28.8675
  0
LINE
  8
0
 10
0
 20
-28.8675
 11
-6.25
 21
-18.0422
  0
LINE
  8
0
 10
-6.25
 20
25.2591
 11
-12.5
 21
14.4338
  0
LINE
  8
0
 10
-12.5
 20
14.4338
 11
0
 21
14.4338
  0
LINE
  8
0
 10
0
 20
14.4338
 11
-6.25
 21
25.2591
  0
LINE
  8
0
 10
-6.25
 20
46.9097
 11
-12.5
 21
36.0844
  0
LINE
  8
0
 10
-12.5
 20
36.0844
 11
0
 21
36.0844
  0
LINE
  8
0
 10
0
 20
36.0844
 11
-6.25
 21
46.9097
  0
LINE
  8
0
 10
0
 20
57.735
 11
-6.25
 21
46.9097
  0
LINE
  8
0
 10
-6.25
 20
46.9097
 11
6.25
 21
46.9097
  0
LINE
  8
0
 10
6.25
 20
46.9097
 11
0
 21
57.735
  0
LINE
  8
0
 10
6.25
 20
-18.0422
 11
0
 21
-28.8675
  0
LINE
  8
0
 10
0
 20
-28.8675
 11
12.5
 21
-28.8675
  0
LINE
  8
0
 10
12.5
 20
-28.8675
 11
6.25
 21
-18.0422
  0
LINE
  8
0
 10
6.25
 20
25.2591
 11
0
 21
14.4338
  0
LINE
  8
0
 10
0
 20
14.4338
 11
12.5
 21
14.4338
  0
LINE
  8
0
 10
12.5
 20
14.4338
 11
6.25
 21
25.2591
  0
LINE
  8
0
 10
6.25
 20
46.9097
 11
0
 21
36.0844
  0
LINE
  8
0
 10
0
 20
36.0844
 11
12.5
 21
36.0844
  0
LINE
  8
0
 10
12.5
 20
36.0844
 11
6.25
 21
46.9097
  0
LINE
  8
0
 10
12.5
 20
-7.21688
 11
6.25
 21
-18.0422
  0
LINE
  8
0
 10
6.25
 20
-18.0422
 11
18.75
 21
-18.0422
  0
LINE
  8
0
 10
18.75
 20
-18.0422
 11
12.5
 21
-7.21688
  0
LINE
  8
0
 10
12.5
 20
36.0844
 11
6.25
 21
25.2591
  0
LINE
  8
0
 10
6.25
 20
25.2591
 11
18.75
 21
25.2591
  0
LINE
  8
0
 10
18.75
 20
25.2591
 11
12.5
 21
36.0844
  0
LINE
  8
0
 10
18.75
 20
-18.0422
 11
12.5
 21
-28.8675
  0
LINE
  8
0
 10
12.5
 20
-28.8675
 11
25
 21
-28.8675
  0
LINE
  8
0
 10
25
 20
-28.8675
 11
18.75
 21
-18.0422
  0
LINE
  8
0
 10
18.75
 20
3.60844
 11
12.5
 21
-7.21688
  0
LINE
  8
0
 10
12.5
 20
-7.21688
 11
25
 21
-7.21688
  0
LINE
  8
0
 10
25
 20
-7.21688
 11
18.75
 21
3.60844
  0
LINE
  8
0
 10
18.75
 20
25.2591
 11
12.5
 21
14.4338
  0
LINE
  8
0
 10
12.5
 20
14.4338
 11
25
 21
14.4338
  0
LINE
  8
0
 10
25
 20
14.4338
 11
18.75
 21
25.2591
  0
LINE
  8
0
 10
25
 20
14.4338
 11
18.75
 21
3.60844
  0
LINE
  8
0
 10
18.75
 20
3.60844
 11
31.25
 21
3.60844
  0
LINE
  8
0
 10
31.25
 20
3.60844
 11
25
 21
14.4338
  0
LINE
  8
0
 10
31.25
 20
-18.0422
 11
25
 21
-28.8675
  0
LINE
  8
0
 10
25
 20
-28.8675
 11
37.5
 21
-28.8675
  0
LINE
  8
0
 10
37.5
 20
-28.8675
 11
31.25
 21
-18.0422
  0
LINE
  8
0
 10
31.25
 20
3.60844
 11
25
 21
-7.21688
  0
LINE
  8
0
 10
25
 20
-7.21688
 11
37.5
 21
-7.21688
  0
LINE
  8
0
 10
37.5
 20
-7.21688
 11
31.25
 21
3.60844
  0
LINE
  8
0
 10
37.5
 20
-7.21688
 11
31.25
 21
-18.0422
  0
LINE
  8
0
 10
31.25
 20
-18.0422
 11
43.75
 21
-18.0422
  0
LINE
  8
0
 10
43.75
 20
-18.0422
 11
37.5
 21
-7.21688
  0
LINE
  8
0
 10
43.75
 20
-18.0422
 11
37.5
 21
-28.8675
  0
LINE
  8
0
 10
37.5
 20
-28.8675
 11
50
 21
-28.8675
  0
LINE
  8
0
 10
50
 20
-28.8675
 11
43.75
 21
-18.0422
  0
ENDSEC
  0
SECTION
  2
OBJECTS
  0
DICTIONARY
  0
ENDSEC
  0
EOF
