  0
SECTION
  2
BLOCKS
  0
ENDSEC
  0
SECTION
  2
ENTITIES
  0
LINE
  8
0
 10
-49.2188
 20
-27.5143
 11
-50
 21
-28.8675
  0
LINE
  8
0
 10
-50
 20
-28.8675
 11
-48.4375
 21
-28.8675
  0
LINE
  8
0
 10
-48.4375
 20
-28.8675
 11
-49.2188
 21
-27.5143
  0
LINE
  8
0
 10
-48.4375
 20
-26.1612
 11
-49.2188
 21
-27.5143
  0
LINE
  8
0
 10
-49.2188
 20
-27.5143
 11
-47.6562
 21
-27.5143
  0
LINE
  8
0
 10
-47.6562
 20
-27.5143
 11
-48.4375
 21
-26.1612
  0
LINE
  8
0
 10
-47.6562
 20
-24.808
 11
-48.4375
 21
-26.1612
  0
LINE
  8
0
 10
-48.4375
 20
-26.1612
 11
-46.875
 21
-26.1612
  0
LINE
  8
0
 10
-46.875
 20
-26.1612
 11
-47.6562
 21
-24.808
  0
LINE
  8
0
 10
-47.6562
 20
-27.5143
 11
-48.4375
 21
-28.8675
  0
LINE
  8
0
 10
-48.4375
 20
-28.8675
 11
-46.875
 21
-28.8675
  0
LINE
  8
0
 10
-46.875
 20
-28.8675
 11
-47.6562
 21
-27.5143
  0
LINE
  8
0
 10
-46.875
 20
-23.4549
 11
-47.6562
 21
-24.808
  0
LINE
  8
0
 10
-47.6562
 20
-24.808
 11
-46.0938
 21
-24.808
  0
LINE
  8
0
 10
-46.0938
 20
-24.808
 11
-46.875
 21
-23.4549
  0
LINE
  8
0
 10
-46.0938
 20
-22.1017
 11
-46.875
 21
-23.4549
  0
LINE
  8
0
 10
-46.875
 20
-23.4549
 11
-45.3125
 21
-23.4549
  0
LINE
  8
0
 10
-45.3125
 20
-23.4549
 11
-46.0938
 21
-22.1017
  0
LINE
  8
0
 10
-46.0938
 20
-24.808
 11
-46.875
 21
-26.1612
  0
LINE
  8
0
 10
-46.875
 20
-26.1612
 11
-45.3125
 21
-26.1612
  0
LINE
  8
0
 10
-45.3125
 20
-26.1612
 11
-46.0938
 21
-24.808
  0
LINE
  8
0
 10
-46.0938
 20
-27.5143
 11
-46.875
 21
-28.8675
  0
LINE
  8
0
 10
-46.875
 20
-28.8675
 11
-45.3125
 21
-28.8675
  0
LINE
  8
0
 10
-45.3125
 20
-28.8675
 11
-46.0938
 21
-27.5143
  0
LINE
  8
0
 10
-45.3125
 20
-20.7485
 11
-46.0938
 21
-22.1017
  0
LINE
  8
0
 10
-46.0938
 20
-22.1017
 11
-44.5312
 21
-22.1017
  0
LINE
  8
0
 10
-44.5312
 20
-22.1017
 11
-45.3125
 21
-20.7485
  0
LINE
  8
0
 10
-45.3125
 20
-26.1612
 11
-46.0938
 21
-27.5143
  0
LINE
  8
0
 10
-46.0938
 20
-27.5143
 11
-44.5312
 21
-27.5143
  0
LINE
  8
0
 10
-44.5312
 20
-27.5143
 11
-45.3125
 21
-26.1612
  0
LINE
  8
0
 10
-44.5312
 20
-19.3954
 11
-45.3125
 21
-20.7485
  0
LINE
  8
0
 10
-45.3125
 20
-20.7485
 11
-43.75
 21
-20.7485
  0
LINE
  8
0
 10
-43.75
 20
-20.7485
 11
-44.5312
 21
-19.3954
  0
LINE
  8
0
 10
-44.5312
 20
-22.1017
 11
-45.3125
 21
-23.4549
  0
LINE
  8
0
 10
-45.3125
 20
-23.4549
 11
-43.75
 21
-23.4549
  0
LINE
  8
0
 10
-43.75
 20
-23.4549
 11
-44.5312
 21
-22.1017
  0
LINE
  8
0
 10
-44.5312
 20
-27.5143
 11
-45.3125
 21
-28.8675
  0
LINE
  8
0
 10
-45.3125
 20
-28.8675
 11
-43.75
 21
-28.8675
  0
LINE
  8
0
 10
-43.75
 20
-28.8675
 11
-44.5312
 21
-27.5143
  0
LINE
  8
0
 10
-43.75
 20
-18.0422
 11
-44.5312
 21
-19.3954
  0
LINE
  8
0
 10
-44.5312
 20
-19.3954
 11
-42.9688
 21
-19.3954
  0
LINE
  8
0
 10
-42.9688
 20
-19.3954
 11
-43.75
 21
-18.0422
  0
LINE
  8
0
 10
-42.9688
 20
-16.689
 11
-43.75
 21
-18.0422
  0
LINE
  8
0
 10
-43.75
 20
-18.0422
 11
-42.1875
 21
-18.0422
  0
LINE
  8
0
 10
-42.1875
 20
-18.0422
 11
-42.9688
 21
-16.689
  0
LINE
  8
0
 10
-42.9688
 20
-27.5143
 11
-43.75
 21
-28.8675
  0
LINE
  8
0
 10
-43.75
 20
-28.8675
 11
-42.1875
 21
-28.8675
  0
LINE
  8
0
 10
-42.1875
 20
-28.8675
 11
-42.9688
 21
-27.5143
  0
LINE
  8
0
 10
-42.9688
 20
-19.3954
 11
-43.75
 21
-20.7485
  0
LINE
  8
0
 10
-43.75
 20
-20.7485
 11
-42.1875
 21
-20.7485
  0
LINE
  8
0
 10
-42.1875
 20
-20.7485
 11
-42.9688
 21
-19.3954
  0
LINE
  8
0
 10
-42.9688
 20
-22.1017
 11
-43.75
 21
-23.4549
  0
LINE
  8
0
 10
-43.75
 20
-23.4549
 11
-42.1875
 21
-23.4549
  0
LINE
  8
0
 10
-42.1875
 20
-23.4549
 11
-42.9688
 21
-22.1017
  0
LINE
  8
0
 10
-42.1875
 20
-15.3359
 11
-42.9688
 21
-16.689
  0
LINE
  8
0
 10
-42.9688
 20
-16.689
 11
-41.4062
 21
-16.689
  0
LINE
  8
0
 10
-41.4062
 20
-16.689
 11
-42.1875
 21
-15.3359
  0
LINE
  8
0
 10
-42.1875
 20
-26.1612
 11
-42.9688
 21
-27.5143
  0
LINE
  8
0
 10
-42.9688
 20
-27.5143
 11
-41.4062
 21
-27.5143
  0
LINE
  8
0
 10
-41.4062
 20
-27.5143
 11
-42.1875
 21
-26.1612
  0
LINE
  8
0
 10
-42.1875
 20
-20.7485
 11
-42.9688
 21
-22.1017
  0
LINE
  8
0
 10
-42.9688
 20
-22.1017
 11
-41.4062
 21
-22.1017
  0
LINE
  8
0
 10
-41.4062
 20
-22.1017
 11
-42.1875
 21
-20.7485
  0
LINE
  8
0
 10
-41.4062
 20
-24.808
 11
-42.1875
 21
-26.1612
  0
LINE
  8
0
 10
-42.1875
 20
-26.1612
 11
-40.625
 21
-26.1612
  0
LINE
  8
0
 10
-40.625
 20
-26.1612
 11
-41.4062
 21
-24.808
  0
LINE
  8
0
 10
-41.4062
 20
-27.5143
 11
-42.1875
 21
-28.8675
  0
LINE
  8
0
 10
-42.1875
 20
-28.8675
 11
-40.625
 21
-28.8675
  0
LINE
  8
0
 10
-40.625
 20
-28.8675
 11
-41.4062
 21
-27.5143
  0
LINE
  8
0
 10
-41.4062
 20
-16.689
 11
-42.1875
 21
-18.0422
  0
LINE
  8
0
 10
-42.1875
 20
-18.0422
 11
-40.625
 21
-18.0422
  0
LINE
  8
0
 10
-40.625
 20
-18.0422
 11
-41.4062
 21
-16.689
  0
LINE
  8
0
 10
-41.4062
 20
-13.9827
 11
-42.1875
 21
-15.3359
  0
LINE
  8
0
 10
-42.1875
 20
-15.3359
 11
-40.625
 21
-15.3359
  0
LINE
  8
0
 10
-40.625
 20
-15.3359
 11
-41.4062
 21
-13.9827
  0
LINE
  8
0
 10
-41.4062
 20
-22.1017
 11
-42.1875
 21
-23.4549
  0
LINE
  8
0
 10
-42.1875
 20
-23.4549
 11
-40.625
 21
-23.4549
  0
LINE
  8
0
 10
-40.625
 20
-23.4549
 11
-41.4062
 21
-22.1017
  0
LINE
  8
0
 10
-40.625
 20
-23.4549
 11
-41.4062
 21
-24.808
  0
LINE
  8
0
 10
-41.4062
 20
-24.808
 11
-39.8438
 21
-24.808
  0
LINE
  8
0
 10
-39.8438
 20
-24.808
 11
-40.625
 21
-23.4549
  0
LINE
  8
0
 10
-40.625
 20
-12.6295
 11
-41.4062
 21
-13.9827
  0
LINE
  8
0
 10
-41.4062
 20
-13.9827
 11
-39.8438
 21
-13.9827
  0
LINE
  8
0
 10
-39.8438
 20
-13.9827
 11
-40.625
 21
-12.6295
  0
LINE
  8
0
 10
-39.8438
 20
-24.808
 11
-40.625
 21
-26.1612
  0
LINE
  8
0
 10
-40.625
 20
-26.1612
 11
-39.0625
 21
-26.1612
  0
LINE
  8
0
 10
-39.0625
 20
-26.1612
 11
-39.8438
 21
-24.808
  0
LINE
  8
0
 10
-39.8438
 20
-27.5143
 11
-40.625
 21
-28.8675
  0
LINE
  8
0
 10
-40.625
 20
-28.8675
 11
-39.0625
 21
-28.8675
  0
LINE
  8
0
 10
-39.0625
 20
-28.8675
 11
-39.8438
 21
-27.5143
  0
LINE
  8
0
 10
-39.8438
 20
-16.689
 11
-40.625
 21
-18.0422
  0
LINE
  8
0
 10
-40.625
 20
-18.0422
 11
-39.0625
 21
-18.0422
  0
LINE
  8
0
 10
-39.0625
 20
-18.0422
 11
-39.8438
 21
-16.689
  0
LINE
  8
0
 10
-39.8438
 20
-13.9827
 11
-40.625
 21
-15.3359
  0
LINE
  8
0
 10
-40.625
 20
-15.3359
 11
-39.0625
 21
-15.3359
  0
LINE
  8
0
 10
-39.0625
 20
-15.3359
 11
-39.8438
 21
-13.9827
  0
LINE
  8
0
 10
-39.8438
 20
-11.2764
 11
-40.625
 21
-12.6295
  0
LINE
  8
0
 10
-40.625
 20
-12.6295
 11
-39.0625
 21
-12.6295
  0
LINE
  8
0
 10
-39.0625
 20
-12.6295
 11
-39.8438
 21
-11.2764
  0
LINE
  8
0
 10
-39.0625
 20
-26.1612
 11
-39.8438
 21
-27.5143
  0
LINE
  8
0
 10
-39.8438
 20
-27.5143
 11
-38.2812
 21
-27.5143
  0
LINE
  8
0
 10
-38.2812
 20
-27.5143
 11
-39.0625
 21
-26.1612
  0
LINE
  8
0
 10
-39.0625
 20
-15.3359
 11
-39.8438
 21
-16.689
  0
LINE
  8
0
 10
-39.8438
 20
-16.689
 11
-38.2812
 21
-16.689
  0
LINE
  8
0
 10
-38.2812
 20
-16.689
 11
-39.0625
 21
-15.3359
  0
LINE
  8
0
 10
-39.0625
 20
-9.92321
 11
-39.8438
 21
-11.2764
  0
LINE
  8
0
 10
-39.8438
 20
-11.2764
 11
-38.2812
 21
-11.2764
  0
LINE
  8
0
 10
-38.2812
 20
-11.2764
 11
-39.0625
 21
-9.92321
  0
LINE
  8
0
 10
-38.2812
 20
-27.5143
 11
-39.0625
 21
-28.8675
  0
LINE
  8
0
 10
-39.0625
 20
-28.8675
 11
-37.5
 21
-28.8675
  0
LINE
  8
0
 10
-37.5
 20
-28.8675
 11
-38.2812
 21
-27.5143
  0
LINE
  8
0
 10
-38.2812
 20
-16.689
 11
-39.0625
 21
-18.0422
  0
LINE
  8
0
 10
-39.0625
 20
-18.0422
 11
-37.5
 21
-18.0422
  0
LINE
  8
0
 10
-37.5
 20
-18.0422
 11
-38.2812
 21
-16.689
  0
LINE
  8
0
 10
-38.2812
 20
-11.2764
 11
-39.0625
 21
-12.6295
  0
LINE
  8
0
 10
-39.0625
 20
-12.6295
 11
-37.5
 21
-12.6295
  0
LINE
  8
0
 10
-37.5
 20
-12.6295
 11
-38.2812
 21
-11.2764
  0
LINE
  8
0
 10
-38.2812
 20
-8.57004
 11
-39.0625
 21
-9.92321
  0
LINE
  8
0
 10
-39.0625
 20
-9.92321
 11
-37.5
 21
-9.92321
  0
LINE
  8
0
 10
-37.5
 20
-9.92321
 11
-38.2812
 21
-8.57004
  0
LINE
  8
0
 10
-37.5
 20
-7.21688
 11
-38.2812
 21
-8.57004
  0
LINE
  8
0
 10
-38.2812
 20
-8.57004
 11
-36.7188
 21
-8.57004
  0
LINE
  8
0
 10
-36.7188
 20
-8.57004
 11
-37.5
 21
-7.21688
  0
LINE
  8
0
 10
-36.7188
 20
-5.86371
 11
-37.5
 21
-7.21688
  0
LINE
  8
0
 10
-37.5
 20
-7.21688
 11
-35.9375
 21
-7.21688
  0
LINE
  8
0
 10
-35.9375
 20
-7.21688
 11
-36.7188
 21
-5.86371
  0
LINE
  8
0
 10
-36.7188
 20
-8.57004
 11
-37.5
 21
-9.92321
  0
LINE
  8
0
 10
-37.5
 20
-9.92321
 11
-35.9375
 21
-9.92321
  0
LINE
  8
0
 10
-35.9375
 20
-9.92321
 11
-36.7188
 21
-8.57004
  0
LINE
  8
0
 10
-36.7188
 20
-11.2764
 11
-37.5
 21
-12.6295
  0
LINE
  8
0
 10
-37.5
 20
-12.6295
 11
-35.9375
 21
-12.6295
  0
LINE
  8
0
 10
-35.9375
 20
-12.6295
 11
-36.7188
 21
-11.2764
  0
LINE
  8
0
 10
-36.7188
 20
-16.689
 11
-37.5
 21
-18.0422
  0
LINE
  8
0
 10
-37.5
 20
-18.0422
 11
-35.9375
 21
-18.0422
  0
LINE
  8
0
 10
-35.9375
 20
-18.0422
 11
-36.7188
 21
-16.689
  0
LINE
  8
0
 10
-36.7188
 20
-27.5143
 11
-37.5
 21
-28.8675
  0
LINE
  8
0
 10
-37.5
 20
-28.8675
 11
-35.9375
 21
-28.8675
  0
LINE
  8
0
 10
-35.9375
 20
-28.8675
 11
-36.7188
 21
-27.5143
  0
LINE
  8
0
 10
-35.9375
 20
-4.51055
 11
-36.7188
 21
-5.86371
  0
LINE
  8
0
 10
-36.7188
 20
-5.86371
 11
-35.1562
 21
-5.86371
  0
LINE
  8
0
 10
-35.1562
 20
-5.86371
 11
-35.9375
 21
-4.51055
  0
LINE
  8
0
 10
-35.9375
 20
-9.92321
 11
-36.7188
 21
-11.2764
  0
LINE
  8
0
 10
-36.7188
 20
-11.2764
 11
-35.1562
 21
-11.2764
  0
LINE
  8
0
 10
-35.1562
 20
-11.2764
 11
-35.9375
 21
-9.92321
  0
LINE
  8
0
 10
-35.9375
 20
-15.3359
 11
-36.7188
 21
-16.689
  0
LINE
  8
0
 10
-36.7188
 20
-16.689
 11
-35.1562
 21
-16.689
  0
LINE
  8
0
 10
-35.1562
 20
-16.689
 11
-35.9375
 21
-15.3359
  0
LINE
  8
0
 10
-35.9375
 20
-26.1612
 11
-36.7188
 21
-27.5143
  0
LINE
  8
0
 10
-36.7188
 20
-27.5143
 11
-35.1562
 21
-27.5143
  0
LINE
  8
0
 10
-35.1562
 20
-27.5143
 11
-35.9375
 21
-26.1612
  0
LINE
  8
0
 10
-35.1562
 20
-3.15738
 11
-35.9375
 21
-4.51055
  0
LINE
  8
0
 10
-35.9375
 20
-4.51055
 11
-34.375
 21
-4.51055
  0
LINE
  8
0
 10
-34.375
 20
-4.51055
 11
-35.1562
 21
-3.15738
  0
LINE
  8
0
 10
-35.1562
 20
-5.86371
 11
-35.9375
 21
-7.21688
  0
LINE
  8
0
 10
-35.9375
 20
-7.21688
 11
-34.375
 21
-7.21688
  0
LINE
  8
0
 10
-34.375
 20
-7.21688
 11
-35.1562
 21
-5.86371
  0
LINE
  8
0
 10
-35.1562
 20
-11.2764
 11
-35.9375
 21
-12.6295
  0
LINE
  8
0
 10
-35.9375
 20
-12.6295
 11
-34.375
 21
-12.6295
  0
LINE
  8
0
 10
-34.375
 20
-12.6295
 11
-35.1562
 21
-11.2764
  0
LINE
  8
0
 10
-35.1562
 20
-13.9827
 11
-35.9375
 21
-15.3359
  0
LINE
  8
0
 10
-35.9375
 20
-15.3359
 11
-34.375
 21
-15.3359
  0
LINE
  8
0
 10
-34.375
 20
-15.3359
 11
-35.1562
 21
-13.9827
  0
LINE
  8
0
 10
-35.1562
 20
-16.689
 11
-35.9375
 21
-18.0422
  0
LINE
  8
0
 10
-35.9375
 20
-18.0422
 11
-34.375
 21
-18.0422
  0
LINE
  8
0
 10
-34.375
 20
-18.0422
 11
-35.1562
 21
-16.689
  0
LINE
  8
0
 10
-35.1562
 20
-27.5143
 11
-35.9375
 21
-28.8675
  0
LINE
  8
0
 10
-35.9375
 20
-28.8675
 11
-34.375
 21
-28.8675
  0
LINE
  8
0
 10
-34.375
 20
-28.8675
 11
-35.1562
 21
-27.5143
  0
LINE
  8
0
 10
-35.1562
 20
-24.808
 11
-35.9375
 21
-26.1612
  0
LINE
  8
0
 10
-35.9375
 20
-26.1612
 11
-34.375
 21
-26.1612
  0
LINE
  8
0
 10
-34.375
 20
-26.1612
 11
-35.1562
 21
-24.808
  0
LINE
  8
0
 10
-34.375
 20
-1.80422
 11
-35.1562
 21
-3.15738
  0
LINE
  8
0
 10
-35.1562
 20
-3.15738
 11
-33.5938
 21
-3.15738
  0
LINE
  8
0
 10
-33.5938
 20
-3.15738
 11
-34.375
 21
-1.80422
  0
LINE
  8
0
 10
-34.375
 20
-12.6295
 11
-35.1562
 21
-13.9827
  0
LINE
  8
0
 10
-35.1562
 20
-13.9827
 11
-33.5938
 21
-13.9827
  0
LINE
  8
0
 10
-33.5938
 20
-13.9827
 11
-34.375
 21
-12.6295
  0
LINE
  8
0
 10
-34.375
 20
-23.4549
 11
-35.1562
 21
-24.808
  0
LINE
  8
0
 10
-35.1562
 20
-24.808
 11
-33.5938
 21
-24.808
  0
LINE
  8
0
 10
-33.5938
 20
-24.808
 11
-34.375
 21
-23.4549
  0
LINE
  8
0
 10
-33.5938
 20
-3.15738
 11
-34.375
 21
-4.51055
  0
LINE
  8
0
 10
-34.375
 20
-4.51055
 11
-32.8125
 21
-4.51055
  0
LINE
  8
0
 10
-32.8125
 20
-4.51055
 11
-33.5938
 21
-3.15738
  0
LINE
  8
0
 10
-33.5938
 20
-5.86371
 11
-34.375
 21
-7.21688
  0
LINE
  8
0
 10
-34.375
 20
-7.21688
 11
-32.8125
 21
-7.21688
  0
LINE
  8
0
 10
-32.8125
 20
-7.21688
 11
-33.5938
 21
-5.86371
  0
LINE
  8
0
 10
-33.5938
 20
-0.451055
 11
-34.375
 21
-1.80422
  0
LINE
  8
0
 10
-34.375
 20
-1.80422
 11
-32.8125
 21
-1.80422
  0
LINE
  8
0
 10
-32.8125
 20
-1.80422
 11
-33.5938
 21
-0.451055
  0
LINE
  8
0
 10
-33.5938
 20
-24.808
 11
-34.375
 21
-26.1612
  0
LINE
  8
0
 10
-34.375
 20
-26.1612
 11
-32.8125
 21
-26.1612
  0
LINE
  8
0
 10
-32.8125
 20
-26.1612
 11
-33.5938
 21
-24.808
  0
LINE
  8
0
 10
-33.5938
 20
-27.5143
 11
-34.375
 21
-28.8675
  0
LINE
  8
0
 10
-34.375
 20
-28.8675
 11
-32.8125
 21
-28.8675
  0
LINE
  8
0
 10
-32.8125
 20
-28.8675
 11
-33.5938
 21
-27.5143
  0
LINE
  8
0
 10
-33.5938
 20
-16.689
 11
-34.375
 21
-18.0422
  0
LINE
  8
0
 10
-34.375
 20
-18.0422
 11
-32.8125
 21
-18.0422
  0
LINE
  8
0
 10
-32.8125
 20
-18.0422
 11
-33.5938
 21
-16.689
  0
LINE
  8
0
 10
-33.5938
 20
-13.9827
 11
-34.375
 21
-15.3359
  0
LINE
  8
0
 10
-34.375
 20
-15.3359
 11
-32.8125
 21
-15.3359
  0
LINE
  8
0
 10
-32.8125
 20
-15.3359
 11
-33.5938
 21
-13.9827
  0
LINE
  8
0
 10
-33.5938
 20
-22.1017
 11
-34.375
 21
-23.4549
  0
LINE
  8
0
 10
-34.375
 20
-23.4549
 11
-32.8125
 21
-23.4549
  0
LINE
  8
0
 10
-32.8125
 20
-23.4549
 11
-33.5938
 21
-22.1017
  0
LINE
  8
0
 10
-32.8125
 20
-15.3359
 11
-33.5938
 21
-16.689
  0
LINE
  8
0
 10
-33.5938
 20
-16.689
 11
-32.0312
 21
-16.689
  0
LINE
  8
0
 10
-32.0312
 20
-16.689
 11
-32.8125
 21
-15.3359
  0
LINE
  8
0
 10
-32.8125
 20
-26.1612
 11
-33.5938
 21
-27.5143
  0
LINE
  8
0
 10
-33.5938
 20
-27.5143
 11
-32.0312
 21
-27.5143
  0
LINE
  8
0
 10
-32.0312
 20
-27.5143
 11
-32.8125
 21
-26.1612
  0
LINE
  8
0
 10
-32.8125
 20
-4.51055
 11
-33.5938
 21
-5.86371
  0
LINE
  8
0
 10
-33.5938
 20
-5.86371
 11
-32.0312
 21
-5.86371
  0
LINE
  8
0
 10
-32.0312
 20
-5.86371
 11
-32.8125
 21
-4.51055
  0
LINE
  8
0
 10
-32.8125
 20
0.902109
 11
-33.5938
 21
-0.451055
  0
LINE
  8
0
 10
-33.5938
 20
-0.451055
 11
-32.0312
 21
-0.451055
  0
LINE
  8
0
 10
-32.0312
 20
-0.451055
 11
-32.8125
 21
0.902109
  0
LINE
  8
0
 10
-32.8125
 20
-20.7485
 11
-33.5938
 21
-22.1017
  0
LINE
  8
0
 10
-33.5938
 20
-22.1017
 11
-32.0312
 21
-22.1017
  0
LINE
  8
0
 10
-32.0312
 20
-22.1017
 11
-32.8125
 21
-20.7485
  0
LINE
  8
0
 10
-32.0312
 20
-16.689
 11
-32.8125
 21
-18.0422
  0
LINE
  8
0
 10
-32.8125
 20
-18.0422
 11
-31.25
 21
-18.0422
  0
LINE
  8
0
 10
-31.25
 20
-18.0422
 11
-32.0312
 21
-16.689
  0
LINE
  8
0
 10
-32.0312
 20
-27.5143
 11
-32.8125
 21
-28.8675
  0
LINE
  8
0
 10
-32.8125
 20
-28.8675
 11
-31.25
 21
-28.8675
  0
LINE
  8
0
 10
-31.25
 20
-28.8675
 11
-32.0312
 21
-27.5143
  0
LINE
  8
0
 10
-32.0312
 20
-22.1017
 11
-32.8125
 21
-23.4549
  0
LINE
  8
0
 10
-32.8125
 20
-23.4549
 11
-31.25
 21
-23.4549
  0
LINE
  8
0
 10
-31.25
 20
-23.4549
 11
-32.0312
 21
-22.1017
  0
LINE
  8
0
 10
-32.0312
 20
-19.3954
 11
-32.8125
 21
-20.7485
  0
LINE
  8
0
 10
-32.8125
 20
-20.7485
 11
-31.25
 21
-20.7485
  0
LINE
  8
0
 10
-31.25
 20
-20.7485
 11
-32.0312
 21
-19.3954
  0
LINE
  8
0
 10
-32.0312
 20
-5.86371
 11
-32.8125
 21
-7.21688
  0
LINE
  8
0
 10
-32.8125
 20
-7.21688
 11
-31.25
 21
-7.21688
  0
LINE
  8
0
 10
-31.25
 20
-7.21688
 11
-32.0312
 21
-5.86371
  0
LINE
  8
0
 10
-32.0312
 20
-0.451055
 11
-32.8125
 21
-1.80422
  0
LINE
  8
0
 10
-32.8125
 20
-1.80422
 11
-31.25
 21
-1.80422
  0
LINE
  8
0
 10
-31.25
 20
-1.80422
 11
-32.0312
 21
-0.451055
  0
LINE
  8
0
 10
-32.0312
 20
2.25527
 11
-32.8125
 21
0.902109
  0
LINE
  8
0
 10
-32.8125
 20
0.902109
 11
-31.25
 21
0.902109
  0
LINE
  8
0
 10
-31.25
 20
0.902109
 11
-32.0312
 21
2.25527
  0
LINE
  8
0
 10
-31.25
 20
-18.0422
 11
-32.0312
 21
-19.3954
  0
LINE
  8
0
 10
-32.0312
 20
-19.3954
 11
-30.4688
 21
-19.3954
  0
LINE
  8
0
 10
-30.4688
 20
-19.3954
 11
-31.25
 21
-18.0422
  0
LINE
  8
0
 10
-31.25
 20
3.60844
 11
-32.0312
 21
2.25527
  0
LINE
  8
0
 10
-32.0312
 20
2.25527
 11
-30.4688
 21
2.25527
  0
LINE
  8
0
 10
-30.4688
 20
2.25527
 11
-31.25
 21
3.60844
  0
LINE
  8
0
 10
-30.4688
 20
-5.86371
 11
-31.25
 21
-7.21688
  0
LINE
  8
0
 10
-31.25
 20
-7.21688
 11
-29.6875
 21
-7.21688
  0
LINE
  8
0
 10
-29.6875
 20
-7.21688
 11
-30.4688
 21
-5.86371
  0
LINE
  8
0
 10
-30.4688
 20
-0.451055
 11
-31.25
 21
-1.80422
  0
LINE
  8
0
 10
-31.25
 20
-1.80422
 11
-29.6875
 21
-1.80422
  0
LINE
  8
0
 10
-29.6875
 20
-1.80422
 11
-30.4688
 21
-0.451055
  0
LINE
  8
0
 10
-30.4688
 20
2.25527
 11
-31.25
 21
0.902109
  0
LINE
  8
0
 10
-31.25
 20
0.902109
 11
-29.6875
 21
0.902109
  0
LINE
  8
0
 10
-29.6875
 20
0.902109
 11
-30.4688
 21
2.25527
  0
LINE
  8
0
 10
-30.4688
 20
4.9616
 11
-31.25
 21
3.60844
  0
LINE
  8
0
 10
-31.25
 20
3.60844
 11
-29.6875
 21
3.60844
  0
LINE
  8
0
 10
-29.6875
 20
3.60844
 11
-30.4688
 21
4.9616
  0
LINE
  8
0
 10
-30.4688
 20
-19.3954
 11
-31.25
 21
-20.7485
  0
LINE
  8
0
 10
-31.25
 20
-20.7485
 11
-29.6875
 21
-20.7485
  0
LINE
  8
0
 10
-29.6875
 20
-20.7485
 11
-30.4688
 21
-19.3954
  0
LINE
  8
0
 10
-30.4688
 20
-22.1017
 11
-31.25
 21
-23.4549
  0
LINE
  8
0
 10
-31.25
 20
-23.4549
 11
-29.6875
 21
-23.4549
  0
LINE
  8
0
 10
-29.6875
 20
-23.4549
 11
-30.4688
 21
-22.1017
  0
LINE
  8
0
 10
-30.4688
 20
-27.5143
 11
-31.25
 21
-28.8675
  0
LINE
  8
0
 10
-31.25
 20
-28.8675
 11
-29.6875
 21
-28.8675
  0
LINE
  8
0
 10
-29.6875
 20
-28.8675
 11
-30.4688
 21
-27.5143
  0
LINE
  8
0
 10
-29.6875
 20
6.31477
 11
-30.4688
 21
4.9616
  0
LINE
  8
0
 10
-30.4688
 20
4.9616
 11
-28.9062
 21
4.9616
  0
LINE
  8
0
 10
-28.9062
 20
4.9616
 11
-29.6875
 21
6.31477
  0
LINE
  8
0
 10
-29.6875
 20
-4.51055
 11
-30.4688
 21
-5.86371
  0
LINE
  8
0
 10
-30.4688
 20
-5.86371
 11
-28.9062
 21
-5.86371
  0
LINE
  8
0
 10
-28.9062
 20
-5.86371
 11
-29.6875
 21
-4.51055
  0
LINE
  8
0
 10
-29.6875
 20
0.902109
 11
-30.4688
 21
-0.451055
  0
LINE
  8
0
 10
-30.4688
 20
-0.451055
 11
-28.9062
 21
-0.451055
  0
LINE
  8
0
 10
-28.9062
 20
-0.451055
 11
-29.6875
 21
0.902109
  0
LINE
  8
0
 10
-29.6875
 20
-20.7485
 11
-30.4688
 21
-22.1017
  0
LINE
  8
0
 10
-30.4688
 20
-22.1017
 11
-28.9062
 21
-22.1017
  0
LINE
  8
0
 10
-28.9062
 20
-22.1017
 11
-29.6875
 21
-20.7485
  0
LINE
  8
0
 10
-29.6875
 20
-26.1612
 11
-30.4688
 21
-27.5143
  0
LINE
  8
0
 10
-30.4688
 20
-27.5143
 11
-28.9062
 21
-27.5143
  0
LINE
  8
0
 10
-28.9062
 20
-27.5143
 11
-29.6875
 21
-26.1612
  0
LINE
  8
0
 10
-28.9062
 20
-27.5143
 11
-29.6875
 21
-28.8675
  0
LINE
  8
0
 10
-29.6875
 20
-28.8675
 11
-28.125
 21
-28.8675
  0
LINE
  8
0
 10
-28.125
 20
-28.8675
 11
-28.9062
 21
-27.5143
  0
LINE
  8
0
 10
-28.9062
 20
-24.808
 11
-29.6875
 21
-26.1612
  0
LINE
  8
0
 10
-29.6875
 20
-26.1612
 11
-28.125
 21
-26.1612
  0
LINE
  8
0
 10
-28.125
 20
-26.1612
 11
-28.9062
 21
-24.808
  0
LINE
  8
0
 10
-28.9062
 20
-22.1017
 11
-29.6875
 21
-23.4549
  0
LINE
  8
0
 10
-29.6875
 20
-23.4549
 11
-28.125
 21
-23.4549
  0
LINE
  8
0
 10
-28.125
 20
-23.4549
 11
-28.9062
 21
-22.1017
  0
LINE
  8
0
 10
-28.9062
 20
-3.15738
 11
-29.6875
 21
-4.51055
  0
LINE
  8
0
 10
-29.6875
 20
-4.51055
 11
-28.125
 21
-4.51055
  0
LINE
  8
0
 10
-28.125
 20
-4.51055
 11
-28.9062
 21
-3.15738
  0
LINE
  8
0
 10
-28.9062
 20
-5.86371
 11
-29.6875
 21
-7.21688
  0
LINE
  8
0
 10
-29.6875
 20
-7.21688
 11
-28.125
 21
-7.21688
  0
LINE
  8
0
 10
-28.125
 20
-7.21688
 11
-28.9062
 21
-5.86371
  0
LINE
  8
0
 10
-28.9062
 20
4.9616
 11
-29.6875
 21
3.60844
  0
LINE
  8
0
 10
-29.6875
 20
3.60844
 11
-28.125
 21
3.60844
  0
LINE
  8
0
 10
-28.125
 20
3.60844
 11
-28.9062
 21
4.9616
  0
LINE
  8
0
 10
-28.9062
 20
7.66793
 11
-29.6875
 21
6.31477
  0
LINE
  8
0
 10
-29.6875
 20
6.31477
 11
-28.125
 21
6.31477
  0
LINE
  8
0
 10
-28.125
 20
6.31477
 11
-28.9062
 21
7.66793
  0
LINE
  8
0
 10
-28.9062
 20
-0.451055
 11
-29.6875
 21
-1.80422
  0
LINE
  8
0
 10
-29.6875
 20
-1.80422
 11
-28.125
 21
-1.80422
  0
LINE
  8
0
 10
-28.125
 20
-1.80422
 11
-28.9062
 21
-0.451055
  0
LINE
  8
0
 10
-28.125
 20
-23.4549
 11
-28.9062
 21
-24.808
  0
LINE
  8
0
 10
-28.9062
 20
-24.808
 11
-27.3438
 21
-24.808
  0
LINE
  8
0
 10
-27.3438
 20
-24.808
 11
-28.125
 21
-23.4549
  0
LINE
  8
0
 10
-28.125
 20
-1.80422
 11
-28.9062
 21
-3.15738
  0
LINE
  8
0
 10
-28.9062
 20
-3.15738
 11
-27.3438
 21
-3.15738
  0
LINE
  8
0
 10
-27.3438
 20
-3.15738
 11
-28.125
 21
-1.80422
  0
LINE
  8
0
 10
-28.125
 20
9.0211
 11
-28.9062
 21
7.66793
  0
LINE
  8
0
 10
-28.9062
 20
7.66793
 11
-27.3438
 21
7.66793
  0
LINE
  8
0
 10
-27.3438
 20
7.66793
 11
-28.125
 21
9.0211
  0
LINE
  8
0
 10
-27.3438
 20
-24.808
 11
-28.125
 21
-26.1612
  0
LINE
  8
0
 10
-28.125
 20
-26.1612
 11
-26.5625
 21
-26.1612
  0
LINE
  8
0
 10
-26.5625
 20
-26.1612
 11
-27.3438
 21
-24.808
  0
LINE
  8
0
 10
-27.3438
 20
-27.5143
 11
-28.125
 21
-28.8675
  0
LINE
  8
0
 10
-28.125
 20
-28.8675
 11
-26.5625
 21
-28.8675
  0
LINE
  8
0
 10
-26.5625
 20
-28.8675
 11
-27.3438
 21
-27.5143
  0
LINE
  8
0
 10
-27.3438
 20
-3.15738
 11
-28.125
 21
-4.51055
  0
LINE
  8
0
 10
-28.125
 20
-4.51055
 11
-26.5625
 21
-4.51055
  0
LINE
  8
0
 10
-26.5625
 20
-4.51055
 11
-27.3438
 21
-3.15738
  0
LINE
  8
0
 10
-27.3438
 20
-5.86371
 11
-28.125
 21
-7.21688
  0
LINE
  8
0
 10
-28.125
 20
-7.21688
 11
-26.5625
 21
-7.21688
  0
LINE
  8
0
 10
-26.5625
 20
-7.21688
 11
-27.3438
 21
-5.86371
  0
LINE
  8
0
 10
-27.3438
 20
4.9616
 11
-28.125
 21
3.60844
  0
LINE
  8
0
 10
-28.125
 20
3.60844
 11
-26.5625
 21
3.60844
  0
LINE
  8
0
 10
-26.5625
 20
3.60844
 11
-27.3438
 21
4.9616
  0
LINE
  8
0
 10
-27.3438
 20
7.66793
 11
-28.125
 21
6.31477
  0
LINE
  8
0
 10
-28.125
 20
6.31477
 11
-26.5625
 21
6.31477
  0
LINE
  8
0
 10
-26.5625
 20
6.31477
 11
-27.3438
 21
7.66793
  0
LINE
  8
0
 10
-27.3438
 20
10.3743
 11
-28.125
 21
9.0211
  0
LINE
  8
0
 10
-28.125
 20
9.0211
 11
-26.5625
 21
9.0211
  0
LINE
  8
0
 10
-26.5625
 20
9.0211
 11
-27.3438
 21
10.3743
  0
LINE
  8
0
 10
-26.5625
 20
-26.1612
 11
-27.3438
 21
-27.5143
  0
LINE
  8
0
 10
-27.3438
 20
-27.5143
 11
-25.7812
 21
-27.5143
  0
LINE
  8
0
 10
-25.7812
 20
-27.5143
 11
-26.5625
 21
-26.1612
  0
LINE
  8
0
 10
-26.5625
 20
-4.51055
 11
-27.3438
 21
-5.86371
  0
LINE
  8
0
 10
-27.3438
 20
-5.86371
 11
-25.7812
 21
-5.86371
  0
LINE
  8
0
 10
-25.7812
 20
-5.86371
 11
-26.5625
 21
-4.51055
  0
LINE
  8
0
 10
-26.5625
 20
6.31477
 11
-27.3438
 21
4.9616
  0
LINE
  8
0
 10
-27.3438
 20
4.9616
 11
-25.7812
 21
4.9616
  0
LINE
  8
0
 10
-25.7812
 20
4.9616
 11
-26.5625
 21
6.31477
  0
LINE
  8
0
 10
-26.5625
 20
11.7274
 11
-27.3438
 21
10.3743
  0
LINE
  8
0
 10
-27.3438
 20
10.3743
 11
-25.7812
 21
10.3743
  0
LINE
  8
0
 10
-25.7812
 20
10.3743
 11
-26.5625
 21
11.7274
  0
LINE
  8
0
 10
-25.7812
 20
-5.86371
 11
-26.5625
 21
-7.21688
  0
LINE
  8
0
 10
-26.5625
 20
-7.21688
 11
-25
 21
-7.21688
  0
LINE
  8
0
 10
-25
 20
-7.21688
 11
-25.7812
 21
-5.86371
  0
LINE
  8
0
 10
-25.7812
 20
4.9616
 11
-26.5625
 21
3.60844
  0
LINE
  8
0
 10
-26.5625
 20
3.60844
 11
-25
 21
3.60844
  0
LINE
  8
0
 10
-25
 20
3.60844
 11
-25.7812
 21
4.9616
  0
LINE
  8
0
 10
-25.7812
 20
10.3743
 11
-26.5625
 21
9.0211
  0
LINE
  8
0
 10
-26.5625
 20
9.0211
 11
-25
 21
9.0211
  0
LINE
  8
0
 10
-25
 20
9.0211
 11
-25.7812
 21
10.3743
  0
LINE
  8
0
 10
-25.7812
 20
13.0806
 11
-26.5625
 21
11.7274
  0
LINE
  8
0
 10
-26.5625
 20
11.7274
 11
-25
 21
11.7274
  0
LINE
  8
0
 10
-25
 20
11.7274
 11
-25.7812
 21
13.0806
  0
LINE
  8
0
 10
-25.7812
 20
-27.5143
 11
-26.5625
 21
-28.8675
  0
LINE
  8
0
 10
-26.5625
 20
-28.8675
 11
-25
 21
-28.8675
  0
LINE
  8
0
 10
-25
 20
-28.8675
 11
-25.7812
 21
-27.5143
  0
LINE
  8
0
 10
-25
 20
14.4338
 11
-25.7812
 21
13.0806
  0
LINE
  8
0
 10
-25.7812
 20
13.0806
 11
-24.2188
 21
13.0806
  0
LINE
  8
0
 10
-24.2188
 20
13.0806
 11
-25
 21
14.4338
  0
LINE
  8
0
 10
-24.2188
 20
15.7869
 11
-25
 21
14.4338
  0
LINE
  8
0
 10
-25
 20
14.4338
 11
-23.4375
 21
14.4338
  0
LINE
  8
0
 10
-23.4375
 20
14.4338
 11
-24.2188
 21
15.7869
  0
LINE
  8
0
 10
-24.2188
 20
-27.5143
 11
-25
 21
-28.8675
  0
LINE
  8
0
 10
-25
 20
-28.8675
 11
-23.4375
 21
-28.8675
  0
LINE
  8
0
 10
-23.4375
 20
-28.8675
 11
-24.2188
 21
-27.5143
  0
LINE
  8
0
 10
-24.2188
 20
4.9616
 11
-25
 21
3.60844
  0
LINE
  8
0
 10
-25
 20
3.60844
 11
-23.4375
 21
3.60844
  0
LINE
  8
0
 10
-23.4375
 20
3.60844
 11
-24.2188
 21
4.9616
  0
LINE
  8
0
 10
-24.2188
 20
13.0806
 11
-25
 21
11.7274
  0
LINE
  8
0
 10
-25
 20
11.7274
 11
-23.4375
 21
11.7274
  0
LINE
  8
0
 10
-23.4375
 20
11.7274
 11
-24.2188
 21
13.0806
  0
LINE
  8
0
 10
-24.2188
 20
-5.86371
 11
-25
 21
-7.21688
  0
LINE
  8
0
 10
-25
 20
-7.21688
 11
-23.4375
 21
-7.21688
  0
LINE
  8
0
 10
-23.4375
 20
-7.21688
 11
-24.2188
 21
-5.86371
  0
LINE
  8
0
 10
-24.2188
 20
10.3743
 11
-25
 21
9.0211
  0
LINE
  8
0
 10
-25
 20
9.0211
 11
-23.4375
 21
9.0211
  0
LINE
  8
0
 10
-23.4375
 20
9.0211
 11
-24.2188
 21
10.3743
  0
LINE
  8
0
 10
-23.4375
 20
-4.51055
 11
-24.2188
 21
-5.86371
  0
LINE
  8
0
 10
-24.2188
 20
-5.86371
 11
-22.6562
 21
-5.86371
  0
LINE
  8
0
 10
-22.6562
 20
-5.86371
 11
-23.4375
 21
-4.51055
  0
LINE
  8
0
 10
-23.4375
 20
6.31477
 11
-24.2188
 21
4.9616
  0
LINE
  8
0
 10
-24.2188
 20
4.9616
 11
-22.6562
 21
4.9616
  0
LINE
  8
0
 10
-22.6562
 20
4.9616
 11
-23.4375
 21
6.31477
  0
LINE
  8
0
 10
-23.4375
 20
11.7274
 11
-24.2188
 21
10.3743
  0
LINE
  8
0
 10
-24.2188
 20
10.3743
 11
-22.6562
 21
10.3743
  0
LINE
  8
0
 10
-22.6562
 20
10.3743
 11
-23.4375
 21
11.7274
  0
LINE
  8
0
 10
-23.4375
 20
-26.1612
 11
-24.2188
 21
-27.5143
  0
LINE
  8
0
 10
-24.2188
 20
-27.5143
 11
-22.6562
 21
-27.5143
  0
LINE
  8
0
 10
-22.6562
 20
-27.5143
 11
-23.4375
 21
-26.1612
  0
LINE
  8
0
 10
-23.4375
 20
17.1401
 11
-24.2188
 21
15.7869
  0
LINE
  8
0
 10
-24.2188
 20
15.7869
 11
-22.6562
 21
15.7869
  0
LINE
  8
0
 10
-22.6562
 20
15.7869
 11
-23.4375
 21
17.1401
  0
LINE
  8
0
 10
-22.6562
 20
18.4933
 11
-23.4375
 21
17.1401
  0
LINE
  8
0
 10
-23.4375
 20
17.1401
 11
-21.875
 21
17.1401
  0
LINE
  8
0
 10
-21.875
 20
17.1401
 11
-22.6562
 21
18.4933
  0
LINE
  8
0
 10
-22.6562
 20
-3.15738
 11
-23.4375
 21
-4.51055
  0
LINE
  8
0
 10
-23.4375
 20
-4.51055
 11
-21.875
 21
-4.51055
  0
LINE
  8
0
 10
-21.875
 20
-4.51055
 11
-22.6562
 21
-3.15738
  0
LINE
  8
0
 10
-22.6562
 20
-5.86371
 11
-23.4375
 21
-7.21688
  0
LINE
  8
0
 10
-23.4375
 20
-7.21688
 11
-21.875
 21
-7.21688
  0
LINE
  8
0
 10
-21.875
 20
-7.21688
 11
-22.6562
 21
-5.86371
  0
LINE
  8
0
 10
-22.6562
 20
4.9616
 11
-23.4375
 21
3.60844
  0
LINE
  8
0
 10
-23.4375
 20
3.60844
 11
-21.875
 21
3.60844
  0
LINE
  8
0
 10
-21.875
 20
3.60844
 11
-22.6562
 21
4.9616
  0
LINE
  8
0
 10
-22.6562
 20
7.66793
 11
-23.4375
 21
6.31477
  0
LINE
  8
0
 10
-23.4375
 20
6.31477
 11
-21.875
 21
6.31477
  0
LINE
  8
0
 10
-21.875
 20
6.31477
 11
-22.6562
 21
7.66793
  0
LINE
  8
0
 10
-22.6562
 20
10.3743
 11
-23.4375
 21
9.0211
  0
LINE
  8
0
 10
-23.4375
 20
9.0211
 11
-21.875
 21
9.0211
  0
LINE
  8
0
 10
-21.875
 20
9.0211
 11
-22.6562
 21
10.3743
  0
LINE
  8
0
 10
-22.6562
 20
-24.808
 11
-23.4375
 21
-26.1612
  0
LINE
  8
0
 10
-23.4375
 20
-26.1612
 11
-21.875
 21
-26.1612
  0
LINE
  8
0
 10
-21.875
 20
-26.1612
 11
-22.6562
 21
-24.808
  0
LINE
  8
0
 10
-22.6562
 20
-27.5143
 11
-23.4375
 21
-28.8675
  0
LINE
  8
0
 10
-23.4375
 20
-28.8675
 11
-21.875
 21
-28.8675
  0
LINE
  8
0
 10
-21.875
 20
-28.8675
 11
-22.6562
 21
-27.5143
  0
LINE
  8
0
 10
-22.6562
 20
15.7869
 11
-23.4375
 21
14.4338
  0
LINE
  8
0
 10
-23.4375
 20
14.4338
 11
-21.875
 21
14.4338
  0
LINE
  8
0
 10
-21.875
 20
14.4338
 11
-22.6562
 21
15.7869
  0
LINE
  8
0
 10
-21.875
 20
-1.80422
 11
-22.6562
 21
-3.15738
  0
LINE
  8
0
 10
-22.6562
 20
-3.15738
 11
-21.0938
 21
-3.15738
  0
LINE
  8
0
 10
-21.0938
 20
-3.15738
 11
-21.875
 21
-1.80422
  0
LINE
  8
0
 10
-21.875
 20
9.0211
 11
-22.6562
 21
7.66793
  0
LINE
  8
0
 10
-22.6562
 20
7.66793
 11
-21.0938
 21
7.66793
  0
LINE
  8
0
 10
-21.0938
 20
7.66793
 11
-21.875
 21
9.0211
  0
LINE
  8
0
 10
-21.875
 20
-23.4549
 11
-22.6562
 21
-24.808
  0
LINE
  8
0
 10
-22.6562
 20
-24.808
 11
-21.0938
 21
-24.808
  0
LINE
  8
0
 10
-21.0938
 20
-24.808
 11
-21.875
 21
-23.4549
  0
LINE
  8
0
 10
-21.875
 20
19.8464
 11
-22.6562
 21
18.4933
  0
LINE
  8
0
 10
-22.6562
 20
18.4933
 11
-21.0938
 21
18.4933
  0
LINE
  8
0
 10
-21.0938
 20
18.4933
 11
-21.875
 21
19.8464
  0
LINE
  8
0
 10
-21.0938
 20
21.1996
 11
-21.875
 21
19.8464
  0
LINE
  8
0
 10
-21.875
 20
19.8464
 11
-20.3125
 21
19.8464
  0
LINE
  8
0
 10
-20.3125
 20
19.8464
 11
-21.0938
 21
21.1996
  0
LINE
  8
0
 10
-21.0938
 20
18.4933
 11
-21.875
 21
17.1401
  0
LINE
  8
0
 10
-21.875
 20
17.1401
 11
-20.3125
 21
17.1401
  0
LINE
  8
0
 10
-20.3125
 20
17.1401
 11
-21.0938
 21
18.4933
  0
LINE
  8
0
 10
-21.0938
 20
15.7869
 11
-21.875
 21
14.4338
  0
LINE
  8
0
 10
-21.875
 20
14.4338
 11
-20.3125
 21
14.4338
  0
LINE
  8
0
 10
-20.3125
 20
14.4338
 11
-21.0938
 21
15.7869
  0
LINE
  8
0
 10
-21.0938
 20
-24.808
 11
-21.875
 21
-26.1612
  0
LINE
  8
0
 10
-21.875
 20
-26.1612
 11
-20.3125
 21
-26.1612
  0
LINE
  8
0
 10
-20.3125
 20
-26.1612
 11
-21.0938
 21
-24.808
  0
LINE
  8
0
 10
-21.0938
 20
-22.1017
 11
-21.875
 21
-23.4549
  0
LINE
  8
0
 10
-21.875
 20
-23.4549
 11
-20.3125
 21
-23.4549
  0
LINE
  8
0
 10
-20.3125
 20
-23.4549
 11
-21.0938
 21
-22.1017
  0
LINE
  8
0
 10
-21.0938
 20
-0.451055
 11
-21.875
 21
-1.80422
  0
LINE
  8
0
 10
-21.875
 20
-1.80422
 11
-20.3125
 21
-1.80422
  0
LINE
  8
0
 10
-20.3125
 20
-1.80422
 11
-21.0938
 21
-0.451055
  0
LINE
  8
0
 10
-21.0938
 20
7.66793
 11
-21.875
 21
6.31477
  0
LINE
  8
0
 10
-21.875
 20
6.31477
 11
-20.3125
 21
6.31477
  0
LINE
  8
0
 10
-20.3125
 20
6.31477
 11
-21.0938
 21
7.66793
  0
LINE
  8
0
 10
-21.0938
 20
4.9616
 11
-21.875
 21
3.60844
  0
LINE
  8
0
 10
-21.875
 20
3.60844
 11
-20.3125
 21
3.60844
  0
LINE
  8
0
 10
-20.3125
 20
3.60844
 11
-21.0938
 21
4.9616
  0
LINE
  8
0
 10
-21.0938
 20
-5.86371
 11
-21.875
 21
-7.21688
  0
LINE
  8
0
 10
-21.875
 20
-7.21688
 11
-20.3125
 21
-7.21688
  0
LINE
  8
0
 10
-20.3125
 20
-7.21688
 11
-21.0938
 21
-5.86371
  0
LINE
  8
0
 10
-21.0938
 20
-3.15738
 11
-21.875
 21
-4.51055
  0
LINE
  8
0
 10
-21.875
 20
-4.51055
 11
-20.3125
 21
-4.51055
  0
LINE
  8
0
 10
-20.3125
 20
-4.51055
 11
-21.0938
 21
-3.15738
  0
LINE
  8
0
 10
-21.0938
 20
-27.5143
 11
-21.875
 21
-28.8675
  0
LINE
  8
0
 10
-21.875
 20
-28.8675
 11
-20.3125
 21
-28.8675
  0
LINE
  8
0
 10
-20.3125
 20
-28.8675
 11
-21.0938
 21
-27.5143
  0
LINE
  8
0
 10
-20.3125
 20
-4.51055
 11
-21.0938
 21
-5.86371
  0
LINE
  8
0
 10
-21.0938
 20
-5.86371
 11
-19.5312
 21
-5.86371
  0
LINE
  8
0
 10
-19.5312
 20
-5.86371
 11
-20.3125
 21
-4.51055
  0
LINE
  8
0
 10
-20.3125
 20
-26.1612
 11
-21.0938
 21
-27.5143
  0
LINE
  8
0
 10
-21.0938
 20
-27.5143
 11
-19.5312
 21
-27.5143
  0
LINE
  8
0
 10
-19.5312
 20
-27.5143
 11
-20.3125
 21
-26.1612
  0
LINE
  8
0
 10
-20.3125
 20
17.1401
 11
-21.0938
 21
15.7869
  0
LINE
  8
0
 10
-21.0938
 20
15.7869
 11
-19.5312
 21
15.7869
  0
LINE
  8
0
 10
-19.5312
 20
15.7869
 11
-20.3125
 21
17.1401
  0
LINE
  8
0
 10
-20.3125
 20
22.5527
 11
-21.0938
 21
21.1996
  0
LINE
  8
0
 10
-21.0938
 20
21.1996
 11
-19.5312
 21
21.1996
  0
LINE
  8
0
 10
-19.5312
 20
21.1996
 11
-20.3125
 21
22.5527
  0
LINE
  8
0
 10
-20.3125
 20
0.902109
 11
-21.0938
 21
-0.451055
  0
LINE
  8
0
 10
-21.0938
 20
-0.451055
 11
-19.5312
 21
-0.451055
  0
LINE
  8
0
 10
-19.5312
 20
-0.451055
 11
-20.3125
 21
0.902109
  0
LINE
  8
0
 10
-20.3125
 20
6.31477
 11
-21.0938
 21
4.9616
  0
LINE
  8
0
 10
-21.0938
 20
4.9616
 11
-19.5312
 21
4.9616
  0
LINE
  8
0
 10
-19.5312
 20
4.9616
 11
-20.3125
 21
6.31477
  0
LINE
  8
0
 10
-20.3125
 20
-20.7485
 11
-21.0938
 21
-22.1017
  0
LINE
  8
0
 10
-21.0938
 20
-22.1017
 11
-19.5312
 21
-22.1017
  0
LINE
  8
0
 10
-19.5312
 20
-22.1017
 11
-20.3125
 21
-20.7485
  0
LINE
  8
0
 10
-19.5312
 20
2.25527
 11
-20.3125
 21
0.902109
  0
LINE
  8
0
 10
-20.3125
 20
0.902109
 11
-18.75
 21
0.902109
  0
LINE
  8
0
 10
-18.75
 20
0.902109
 11
-19.5312
 21
2.25527
  0
LINE
  8
0
 10
-19.5312
 20
-19.3954
 11
-20.3125
 21
-20.7485
  0
LINE
  8
0
 10
-20.3125
 20
-20.7485
 11
-18.75
 21
-20.7485
  0
LINE
  8
0
 10
-18.75
 20
-20.7485
 11
-19.5312
 21
-19.3954
  0
LINE
  8
0
 10
-19.5312
 20
-22.1017
 11
-20.3125
 21
-23.4549
  0
LINE
  8
0
 10
-20.3125
 20
-23.4549
 11
-18.75
 21
-23.4549
  0
LINE
  8
0
 10
-18.75
 20
-23.4549
 11
-19.5312
 21
-22.1017
  0
LINE
  8
0
 10
-19.5312
 20
-27.5143
 11
-20.3125
 21
-28.8675
  0
LINE
  8
0
 10
-20.3125
 20
-28.8675
 11
-18.75
 21
-28.8675
  0
LINE
  8
0
 10
-18.75
 20
-28.8675
 11
-19.5312
 21
-27.5143
  0
LINE
  8
0
 10
-19.5312
 20
-0.451055
 11
-20.3125
 21
-1.80422
  0
LINE
  8
0
 10
-20.3125
 20
-1.80422
 11
-18.75
 21
-1.80422
  0
LINE
  8
0
 10
-18.75
 20
-1.80422
 11
-19.5312
 21
-0.451055
  0
LINE
  8
0
 10
-19.5312
 20
-5.86371
 11
-20.3125
 21
-7.21688
  0
LINE
  8
0
 10
-20.3125
 20
-7.21688
 11
-18.75
 21
-7.21688
  0
LINE
  8
0
 10
-18.75
 20
-7.21688
 11
-19.5312
 21
-5.86371
  0
LINE
  8
0
 10
-19.5312
 20
4.9616
 11
-20.3125
 21
3.60844
  0
LINE
  8
0
 10
-20.3125
 20
3.60844
 11
-18.75
 21
3.60844
  0
LINE
  8
0
 10
-18.75
 20
3.60844
 11
-19.5312
 21
4.9616
  0
LINE
  8
0
 10
-19.5312
 20
15.7869
 11
-20.3125
 21
14.4338
  0
LINE
  8
0
 10
-20.3125
 20
14.4338
 11
-18.75
 21
14.4338
  0
LINE
  8
0
 10
-18.75
 20
14.4338
 11
-19.5312
 21
15.7869
  0
LINE
  8
0
 10
-19.5312
 20
21.1996
 11
-20.3125
 21
19.8464
  0
LINE
  8
0
 10
-20.3125
 20
19.8464
 11
-18.75
 21
19.8464
  0
LINE
  8
0
 10
-18.75
 20
19.8464
 11
-19.5312
 21
21.1996
  0
LINE
  8
0
 10
-19.5312
 20
23.9059
 11
-20.3125
 21
22.5527
  0
LINE
  8
0
 10
-20.3125
 20
22.5527
 11
-18.75
 21
22.5527
  0
LINE
  8
0
 10
-18.75
 20
22.5527
 11
-19.5312
 21
23.9059
  0
LINE
  8
0
 10
-18.75
 20
3.60844
 11
-19.5312
 21
2.25527
  0
LINE
  8
0
 10
-19.5312
 20
2.25527
 11
-17.9688
 21
2.25527
  0
LINE
  8
0
 10
-17.9688
 20
2.25527
 11
-18.75
 21
3.60844
  0
LINE
  8
0
 10
-18.75
 20
-18.0422
 11
-19.5312
 21
-19.3954
  0
LINE
  8
0
 10
-19.5312
 20
-19.3954
 11
-17.9688
 21
-19.3954
  0
LINE
  8
0
 10
-17.9688
 20
-19.3954
 11
-18.75
 21
-18.0422
  0
LINE
  8
0
 10
-18.75
 20
25.2591
 11
-19.5312
 21
23.9059
  0
LINE
  8
0
 10
-19.5312
 20
23.9059
 11
-17.9688
 21
23.9059
  0
LINE
  8
0
 10
-17.9688
 20
23.9059
 11
-18.75
 21
25.2591
  0
LINE
  8
0
 10
-17.9688
 20
26.6122
 11
-18.75
 21
25.2591
  0
LINE
  8
0
 10
-18.75
 20
25.2591
 11
-17.1875
 21
25.2591
  0
LINE
  8
0
 10
-17.1875
 20
25.2591
 11
-17.9688
 21
26.6122
  0
LINE
  8
0
 10
-17.9688
 20
23.9059
 11
-18.75
 21
22.5527
  0
LINE
  8
0
 10
-18.75
 20
22.5527
 11
-17.1875
 21
22.5527
  0
LINE
  8
0
 10
-17.1875
 20
22.5527
 11
-17.9688
 21
23.9059
  0
LINE
  8
0
 10
-17.9688
 20
15.7869
 11
-18.75
 21
14.4338
  0
LINE
  8
0
 10
-18.75
 20
14.4338
 11
-17.1875
 21
14.4338
  0
LINE
  8
0
 10
-17.1875
 20
14.4338
 11
-17.9688
 21
15.7869
  0
LINE
  8
0
 10
-17.9688
 20
-5.86371
 11
-18.75
 21
-7.21688
  0
LINE
  8
0
 10
-18.75
 20
-7.21688
 11
-17.1875
 21
-7.21688
  0
LINE
  8
0
 10
-17.1875
 20
-7.21688
 11
-17.9688
 21
-5.86371
  0
LINE
  8
0
 10
-17.9688
 20
-0.451055
 11
-18.75
 21
-1.80422
  0
LINE
  8
0
 10
-18.75
 20
-1.80422
 11
-17.1875
 21
-1.80422
  0
LINE
  8
0
 10
-17.1875
 20
-1.80422
 11
-17.9688
 21
-0.451055
  0
LINE
  8
0
 10
-17.9688
 20
2.25527
 11
-18.75
 21
0.902109
  0
LINE
  8
0
 10
-18.75
 20
0.902109
 11
-17.1875
 21
0.902109
  0
LINE
  8
0
 10
-17.1875
 20
0.902109
 11
-17.9688
 21
2.25527
  0
LINE
  8
0
 10
-17.9688
 20
21.1996
 11
-18.75
 21
19.8464
  0
LINE
  8
0
 10
-18.75
 20
19.8464
 11
-17.1875
 21
19.8464
  0
LINE
  8
0
 10
-17.1875
 20
19.8464
 11
-17.9688
 21
21.1996
  0
LINE
  8
0
 10
-17.9688
 20
-16.689
 11
-18.75
 21
-18.0422
  0
LINE
  8
0
 10
-18.75
 20
-18.0422
 11
-17.1875
 21
-18.0422
  0
LINE
  8
0
 10
-17.1875
 20
-18.0422
 11
-17.9688
 21
-16.689
  0
LINE
  8
0
 10
-17.9688
 20
-27.5143
 11
-18.75
 21
-28.8675
  0
LINE
  8
0
 10
-18.75
 20
-28.8675
 11
-17.1875
 21
-28.8675
  0
LINE
  8
0
 10
-17.1875
 20
-28.8675
 11
-17.9688
 21
-27.5143
  0
LINE
  8
0
 10
-17.9688
 20
-19.3954
 11
-18.75
 21
-20.7485
  0
LINE
  8
0
 10
-18.75
 20
-20.7485
 11
-17.1875
 21
-20.7485
  0
LINE
  8
0
 10
-17.1875
 20
-20.7485
 11
-17.9688
 21
-19.3954
  0
LINE
  8
0
 10
-17.9688
 20
-22.1017
 11
-18.75
 21
-23.4549
  0
LINE
  8
0
 10
-18.75
 20
-23.4549
 11
-17.1875
 21
-23.4549
  0
LINE
  8
0
 10
-17.1875
 20
-23.4549
 11
-17.9688
 21
-22.1017
  0
LINE
  8
0
 10
-17.1875
 20
-20.7485
 11
-17.9688
 21
-22.1017
  0
LINE
  8
0
 10
-17.9688
 20
-22.1017
 11
-16.4062
 21
-22.1017
  0
LINE
  8
0
 10
-16.4062
 20
-22.1017
 11
-17.1875
 21
-20.7485
  0
LINE
  8
0
 10
-17.1875
 20
-4.51055
 11
-17.9688
 21
-5.86371
  0
LINE
  8
0
 10
-17.9688
 20
-5.86371
 11
-16.4062
 21
-5.86371
  0
LINE
  8
0
 10
-16.4062
 20
-5.86371
 11
-17.1875
 21
-4.51055
  0
LINE
  8
0
 10
-17.1875
 20
0.902109
 11
-17.9688
 21
-0.451055
  0
LINE
  8
0
 10
-17.9688
 20
-0.451055
 11
-16.4062
 21
-0.451055
  0
LINE
  8
0
 10
-16.4062
 20
-0.451055
 11
-17.1875
 21
0.902109
  0
LINE
  8
0
 10
-17.1875
 20
-26.1612
 11
-17.9688
 21
-27.5143
  0
LINE
  8
0
 10
-17.9688
 20
-27.5143
 11
-16.4062
 21
-27.5143
  0
LINE
  8
0
 10
-16.4062
 20
-27.5143
 11
-17.1875
 21
-26.1612
  0
LINE
  8
0
 10
-17.1875
 20
-15.3359
 11
-17.9688
 21
-16.689
  0
LINE
  8
0
 10
-17.9688
 20
-16.689
 11
-16.4062
 21
-16.689
  0
LINE
  8
0
 10
-16.4062
 20
-16.689
 11
-17.1875
 21
-15.3359
  0
LINE
  8
0
 10
-17.1875
 20
22.5527
 11
-17.9688
 21
21.1996
  0
LINE
  8
0
 10
-17.9688
 20
21.1996
 11
-16.4062
 21
21.1996
  0
LINE
  8
0
 10
-16.4062
 20
21.1996
 11
-17.1875
 21
22.5527
  0
LINE
  8
0
 10
-17.1875
 20
17.1401
 11
-17.9688
 21
15.7869
  0
LINE
  8
0
 10
-17.9688
 20
15.7869
 11
-16.4062
 21
15.7869
  0
LINE
  8
0
 10
-16.4062
 20
15.7869
 11
-17.1875
 21
17.1401
  0
LINE
  8
0
 10
-17.1875
 20
27.9654
 11
-17.9688
 21
26.6122
  0
LINE
  8
0
 10
-17.9688
 20
26.6122
 11
-16.4062
 21
26.6122
  0
LINE
  8
0
 10
-16.4062
 20
26.6122
 11
-17.1875
 21
27.9654
  0
LINE
  8
0
 10
-16.4062
 20
-13.9827
 11
-17.1875
 21
-15.3359
  0
LINE
  8
0
 10
-17.1875
 20
-15.3359
 11
-15.625
 21
-15.3359
  0
LINE
  8
0
 10
-15.625
 20
-15.3359
 11
-16.4062
 21
-13.9827
  0
LINE
  8
0
 10
-16.4062
 20
-22.1017
 11
-17.1875
 21
-23.4549
  0
LINE
  8
0
 10
-17.1875
 20
-23.4549
 11
-15.625
 21
-23.4549
  0
LINE
  8
0
 10
-15.625
 20
-23.4549
 11
-16.4062
 21
-22.1017
  0
LINE
  8
0
 10
-16.4062
 20
-16.689
 11
-17.1875
 21
-18.0422
  0
LINE
  8
0
 10
-17.1875
 20
-18.0422
 11
-15.625
 21
-18.0422
  0
LINE
  8
0
 10
-15.625
 20
-18.0422
 11
-16.4062
 21
-16.689
  0
LINE
  8
0
 10
-16.4062
 20
-27.5143
 11
-17.1875
 21
-28.8675
  0
LINE
  8
0
 10
-17.1875
 20
-28.8675
 11
-15.625
 21
-28.8675
  0
LINE
  8
0
 10
-15.625
 20
-28.8675
 11
-16.4062
 21
-27.5143
  0
LINE
  8
0
 10
-16.4062
 20
-24.808
 11
-17.1875
 21
-26.1612
  0
LINE
  8
0
 10
-17.1875
 20
-26.1612
 11
-15.625
 21
-26.1612
  0
LINE
  8
0
 10
-15.625
 20
-26.1612
 11
-16.4062
 21
-24.808
  0
LINE
  8
0
 10
-16.4062
 20
-0.451055
 11
-17.1875
 21
-1.80422
  0
LINE
  8
0
 10
-17.1875
 20
-1.80422
 11
-15.625
 21
-1.80422
  0
LINE
  8
0
 10
-15.625
 20
-1.80422
 11
-16.4062
 21
-0.451055
  0
LINE
  8
0
 10
-16.4062
 20
-3.15738
 11
-17.1875
 21
-4.51055
  0
LINE
  8
0
 10
-17.1875
 20
-4.51055
 11
-15.625
 21
-4.51055
  0
LINE
  8
0
 10
-15.625
 20
-4.51055
 11
-16.4062
 21
-3.15738
  0
LINE
  8
0
 10
-16.4062
 20
21.1996
 11
-17.1875
 21
19.8464
  0
LINE
  8
0
 10
-17.1875
 20
19.8464
 11
-15.625
 21
19.8464
  0
LINE
  8
0
 10
-15.625
 20
19.8464
 11
-16.4062
 21
21.1996
  0
LINE
  8
0
 10
-16.4062
 20
26.6122
 11
-17.1875
 21
25.2591
  0
LINE
  8
0
 10
-17.1875
 20
25.2591
 11
-15.625
 21
25.2591
  0
LINE
  8
0
 10
-15.625
 20
25.2591
 11
-16.4062
 21
26.6122
  0
LINE
  8
0
 10
-16.4062
 20
29.3186
 11
-17.1875
 21
27.9654
  0
LINE
  8
0
 10
-17.1875
 20
27.9654
 11
-15.625
 21
27.9654
  0
LINE
  8
0
 10
-15.625
 20
27.9654
 11
-16.4062
 21
29.3186
  0
LINE
  8
0
 10
-16.4062
 20
15.7869
 11
-17.1875
 21
14.4338
  0
LINE
  8
0
 10
-17.1875
 20
14.4338
 11
-15.625
 21
14.4338
  0
LINE
  8
0
 10
-15.625
 20
14.4338
 11
-16.4062
 21
15.7869
  0
LINE
  8
0
 10
-16.4062
 20
18.4933
 11
-17.1875
 21
17.1401
  0
LINE
  8
0
 10
-17.1875
 20
17.1401
 11
-15.625
 21
17.1401
  0
LINE
  8
0
 10
-15.625
 20
17.1401
 11
-16.4062
 21
18.4933
  0
LINE
  8
0
 10
-16.4062
 20
-5.86371
 11
-17.1875
 21
-7.21688
  0
LINE
  8
0
 10
-17.1875
 20
-7.21688
 11
-15.625
 21
-7.21688
  0
LINE
  8
0
 10
-15.625
 20
-7.21688
 11
-16.4062
 21
-5.86371
  0
LINE
  8
0
 10
-15.625
 20
-23.4549
 11
-16.4062
 21
-24.808
  0
LINE
  8
0
 10
-16.4062
 20
-24.808
 11
-14.8438
 21
-24.808
  0
LINE
  8
0
 10
-14.8438
 20
-24.808
 11
-15.625
 21
-23.4549
  0
LINE
  8
0
 10
-15.625
 20
-1.80422
 11
-16.4062
 21
-3.15738
  0
LINE
  8
0
 10
-16.4062
 20
-3.15738
 11
-14.8438
 21
-3.15738
  0
LINE
  8
0
 10
-14.8438
 20
-3.15738
 11
-15.625
 21
-1.80422
  0
LINE
  8
0
 10
-15.625
 20
19.8464
 11
-16.4062
 21
18.4933
  0
LINE
  8
0
 10
-16.4062
 20
18.4933
 11
-14.8438
 21
18.4933
  0
LINE
  8
0
 10
-14.8438
 20
18.4933
 11
-15.625
 21
19.8464
  0
LINE
  8
0
 10
-15.625
 20
30.6717
 11
-16.4062
 21
29.3186
  0
LINE
  8
0
 10
-16.4062
 20
29.3186
 11
-14.8438
 21
29.3186
  0
LINE
  8
0
 10
-14.8438
 20
29.3186
 11
-15.625
 21
30.6717
  0
LINE
  8
0
 10
-15.625
 20
-12.6295
 11
-16.4062
 21
-13.9827
  0
LINE
  8
0
 10
-16.4062
 20
-13.9827
 11
-14.8438
 21
-13.9827
  0
LINE
  8
0
 10
-14.8438
 20
-13.9827
 11
-15.625
 21
-12.6295
  0
LINE
  8
0
 10
-14.8438
 20
-27.5143
 11
-15.625
 21
-28.8675
  0
LINE
  8
0
 10
-15.625
 20
-28.8675
 11
-14.0625
 21
-28.8675
  0
LINE
  8
0
 10
-14.0625
 20
-28.8675
 11
-14.8438
 21
-27.5143
  0
LINE
  8
0
 10
-14.8438
 20
-24.808
 11
-15.625
 21
-26.1612
  0
LINE
  8
0
 10
-15.625
 20
-26.1612
 11
-14.0625
 21
-26.1612
  0
LINE
  8
0
 10
-14.0625
 20
-26.1612
 11
-14.8438
 21
-24.808
  0
LINE
  8
0
 10
-14.8438
 20
-3.15738
 11
-15.625
 21
-4.51055
  0
LINE
  8
0
 10
-15.625
 20
-4.51055
 11
-14.0625
 21
-4.51055
  0
LINE
  8
0
 10
-14.0625
 20
-4.51055
 11
-14.8438
 21
-3.15738
  0
LINE
  8
0
 10
-14.8438
 20
-5.86371
 11
-15.625
 21
-7.21688
  0
LINE
  8
0
 10
-15.625
 20
-7.21688
 11
-14.0625
 21
-7.21688
  0
LINE
  8
0
 10
-14.0625
 20
-7.21688
 11
-14.8438
 21
-5.86371
  0
LINE
  8
0
 10
-14.8438
 20
-16.689
 11
-15.625
 21
-18.0422
  0
LINE
  8
0
 10
-15.625
 20
-18.0422
 11
-14.0625
 21
-18.0422
  0
LINE
  8
0
 10
-14.0625
 20
-18.0422
 11
-14.8438
 21
-16.689
  0
LINE
  8
0
 10
-14.8438
 20
32.0249
 11
-15.625
 21
30.6717
  0
LINE
  8
0
 10
-15.625
 20
30.6717
 11
-14.0625
 21
30.6717
  0
LINE
  8
0
 10
-14.0625
 20
30.6717
 11
-14.8438
 21
32.0249
  0
LINE
  8
0
 10
-14.8438
 20
29.3186
 11
-15.625
 21
27.9654
  0
LINE
  8
0
 10
-15.625
 20
27.9654
 11
-14.0625
 21
27.9654
  0
LINE
  8
0
 10
-14.0625
 20
27.9654
 11
-14.8438
 21
29.3186
  0
LINE
  8
0
 10
-14.8438
 20
26.6122
 11
-15.625
 21
25.2591
  0
LINE
  8
0
 10
-15.625
 20
25.2591
 11
-14.0625
 21
25.2591
  0
LINE
  8
0
 10
-14.0625
 20
25.2591
 11
-14.8438
 21
26.6122
  0
LINE
  8
0
 10
-14.8438
 20
15.7869
 11
-15.625
 21
14.4338
  0
LINE
  8
0
 10
-15.625
 20
14.4338
 11
-14.0625
 21
14.4338
  0
LINE
  8
0
 10
-14.0625
 20
14.4338
 11
-14.8438
 21
15.7869
  0
LINE
  8
0
 10
-14.8438
 20
18.4933
 11
-15.625
 21
17.1401
  0
LINE
  8
0
 10
-15.625
 20
17.1401
 11
-14.0625
 21
17.1401
  0
LINE
  8
0
 10
-14.0625
 20
17.1401
 11
-14.8438
 21
18.4933
  0
LINE
  8
0
 10
-14.8438
 20
-13.9827
 11
-15.625
 21
-15.3359
  0
LINE
  8
0
 10
-15.625
 20
-15.3359
 11
-14.0625
 21
-15.3359
  0
LINE
  8
0
 10
-14.0625
 20
-15.3359
 11
-14.8438
 21
-13.9827
  0
LINE
  8
0
 10
-14.8438
 20
-11.2764
 11
-15.625
 21
-12.6295
  0
LINE
  8
0
 10
-15.625
 20
-12.6295
 11
-14.0625
 21
-12.6295
  0
LINE
  8
0
 10
-14.0625
 20
-12.6295
 11
-14.8438
 21
-11.2764
  0
LINE
  8
0
 10
-14.0625
 20
-26.1612
 11
-14.8438
 21
-27.5143
  0
LINE
  8
0
 10
-14.8438
 20
-27.5143
 11
-13.2812
 21
-27.5143
  0
LINE
  8
0
 10
-13.2812
 20
-27.5143
 11
-14.0625
 21
-26.1612
  0
LINE
  8
0
 10
-14.0625
 20
-9.92321
 11
-14.8438
 21
-11.2764
  0
LINE
  8
0
 10
-14.8438
 20
-11.2764
 11
-13.2812
 21
-11.2764
  0
LINE
  8
0
 10
-13.2812
 20
-11.2764
 11
-14.0625
 21
-9.92321
  0
LINE
  8
0
 10
-14.0625
 20
-4.51055
 11
-14.8438
 21
-5.86371
  0
LINE
  8
0
 10
-14.8438
 20
-5.86371
 11
-13.2812
 21
-5.86371
  0
LINE
  8
0
 10
-13.2812
 20
-5.86371
 11
-14.0625
 21
-4.51055
  0
LINE
  8
0
 10
-14.0625
 20
-15.3359
 11
-14.8438
 21
-16.689
  0
LINE
  8
0
 10
-14.8438
 20
-16.689
 11
-13.2812
 21
-16.689
  0
LINE
  8
0
 10
-13.2812
 20
-16.689
 11
-14.0625
 21
-15.3359
  0
LINE
  8
0
 10
-14.0625
 20
33.3781
 11
-14.8438
 21
32.0249
  0
LINE
  8
0
 10
-14.8438
 20
32.0249
 11
-13.2812
 21
32.0249
  0
LINE
  8
0
 10
-13.2812
 20
32.0249
 11
-14.0625
 21
33.3781
  0
LINE
  8
0
 10
-14.0625
 20
27.9654
 11
-14.8438
 21
26.6122
  0
LINE
  8
0
 10
-14.8438
 20
26.6122
 11
-13.2812
 21
26.6122
  0
LINE
  8
0
 10
-13.2812
 20
26.6122
 11
-14.0625
 21
27.9654
  0
LINE
  8
0
 10
-14.0625
 20
17.1401
 11
-14.8438
 21
15.7869
  0
LINE
  8
0
 10
-14.8438
 20
15.7869
 11
-13.2812
 21
15.7869
  0
LINE
  8
0
 10
-13.2812
 20
15.7869
 11
-14.0625
 21
17.1401
  0
LINE
  8
0
 10
-13.2812
 20
-5.86371
 11
-14.0625
 21
-7.21688
  0
LINE
  8
0
 10
-14.0625
 20
-7.21688
 11
-12.5
 21
-7.21688
  0
LINE
  8
0
 10
-12.5
 20
-7.21688
 11
-13.2812
 21
-5.86371
  0
LINE
  8
0
 10
-13.2812
 20
-27.5143
 11
-14.0625
 21
-28.8675
  0
LINE
  8
0
 10
-14.0625
 20
-28.8675
 11
-12.5
 21
-28.8675
  0
LINE
  8
0
 10
-12.5
 20
-28.8675
 11
-13.2812
 21
-27.5143
  0
LINE
  8
0
 10
-13.2812
 20
-16.689
 11
-14.0625
 21
-18.0422
  0
LINE
  8
0
 10
-14.0625
 20
-18.0422
 11
-12.5
 21
-18.0422
  0
LINE
  8
0
 10
-12.5
 20
-18.0422
 11
-13.2812
 21
-16.689
  0
LINE
  8
0
 10
-13.2812
 20
-11.2764
 11
-14.0625
 21
-12.6295
  0
LINE
  8
0
 10
-14.0625
 20
-12.6295
 11
-12.5
 21
-12.6295
  0
LINE
  8
0
 10
-12.5
 20
-12.6295
 11
-13.2812
 21
-11.2764
  0
LINE
  8
0
 10
-13.2812
 20
-8.57004
 11
-14.0625
 21
-9.92321
  0
LINE
  8
0
 10
-14.0625
 20
-9.92321
 11
-12.5
 21
-9.92321
  0
LINE
  8
0
 10
-12.5
 20
-9.92321
 11
-13.2812
 21
-8.57004
  0
LINE
  8
0
 10
-13.2812
 20
34.7312
 11
-14.0625
 21
33.3781
  0
LINE
  8
0
 10
-14.0625
 20
33.3781
 11
-12.5
 21
33.3781
  0
LINE
  8
0
 10
-12.5
 20
33.3781
 11
-13.2812
 21
34.7312
  0
LINE
  8
0
 10
-13.2812
 20
32.0249
 11
-14.0625
 21
30.6717
  0
LINE
  8
0
 10
-14.0625
 20
30.6717
 11
-12.5
 21
30.6717
  0
LINE
  8
0
 10
-12.5
 20
30.6717
 11
-13.2812
 21
32.0249
  0
LINE
  8
0
 10
-13.2812
 20
26.6122
 11
-14.0625
 21
25.2591
  0
LINE
  8
0
 10
-14.0625
 20
25.2591
 11
-12.5
 21
25.2591
  0
LINE
  8
0
 10
-12.5
 20
25.2591
 11
-13.2812
 21
26.6122
  0
LINE
  8
0
 10
-13.2812
 20
15.7869
 11
-14.0625
 21
14.4338
  0
LINE
  8
0
 10
-14.0625
 20
14.4338
 11
-12.5
 21
14.4338
  0
LINE
  8
0
 10
-12.5
 20
14.4338
 11
-13.2812
 21
15.7869
  0
LINE
  8
0
 10
-12.5
 20
36.0844
 11
-13.2812
 21
34.7312
  0
LINE
  8
0
 10
-13.2812
 20
34.7312
 11
-11.7188
 21
34.7312
  0
LINE
  8
0
 10
-11.7188
 20
34.7312
 11
-12.5
 21
36.0844
  0
LINE
  8
0
 10
-12.5
 20
-7.21688
 11
-13.2812
 21
-8.57004
  0
LINE
  8
0
 10
-13.2812
 20
-8.57004
 11
-11.7188
 21
-8.57004
  0
LINE
  8
0
 10
-11.7188
 20
-8.57004
 11
-12.5
 21
-7.21688
  0
LINE
  8
0
 10
-11.7188
 20
15.7869
 11
-12.5
 21
14.4338
  0
LINE
  8
0
 10
-12.5
 20
14.4338
 11
-10.9375
 21
14.4338
  0
LINE
  8
0
 10
-10.9375
 20
14.4338
 11
-11.7188
 21
15.7869
  0
LINE
  8
0
 10
-11.7188
 20
34.7312
 11
-12.5
 21
33.3781
  0
LINE
  8
0
 10
-12.5
 20
33.3781
 11
-10.9375
 21
33.3781
  0
LINE
  8
0
 10
-10.9375
 20
33.3781
 11
-11.7188
 21
34.7312
  0
LINE
  8
0
 10
-11.7188
 20
-16.689
 11
-12.5
 21
-18.0422
  0
LINE
  8
0
 10
-12.5
 20
-18.0422
 11
-10.9375
 21
-18.0422
  0
LINE
  8
0
 10
-10.9375
 20
-18.0422
 11
-11.7188
 21
-16.689
  0
LINE
  8
0
 10
-11.7188
 20
-11.2764
 11
-12.5
 21
-12.6295
  0
LINE
  8
0
 10
-12.5
 20
-12.6295
 11
-10.9375
 21
-12.6295
  0
LINE
  8
0
 10
-10.9375
 20
-12.6295
 11
-11.7188
 21
-11.2764
  0
LINE
  8
0
 10
-11.7188
 20
-8.57004
 11
-12.5
 21
-9.92321
  0
LINE
  8
0
 10
-12.5
 20
-9.92321
 11
-10.9375
 21
-9.92321
  0
LINE
  8
0
 10
-10.9375
 20
-9.92321
 11
-11.7188
 21
-8.57004
  0
LINE
  8
0
 10
-11.7188
 20
-27.5143
 11
-12.5
 21
-28.8675
  0
LINE
  8
0
 10
-12.5
 20
-28.8675
 11
-10.9375
 21
-28.8675
  0
LINE
  8
0
 10
-10.9375
 20
-28.8675
 11
-11.7188
 21
-27.5143
  0
LINE
  8
0
 10
-11.7188
 20
37.4376
 11
-12.5
 21
36.0844
  0
LINE
  8
0
 10
-12.5
 20
36.0844
 11
-10.9375
 21
36.0844
  0
LINE
  8
0
 10
-10.9375
 20
36.0844
 11
-11.7188
 21
37.4376
  0
LINE
  8
0
 10
-11.7188
 20
32.0249
 11
-12.5
 21
30.6717
  0
LINE
  8
0
 10
-12.5
 20
30.6717
 11
-10.9375
 21
30.6717
  0
LINE
  8
0
 10
-10.9375
 20
30.6717
 11
-11.7188
 21
32.0249
  0
LINE
  8
0
 10
-11.7188
 20
26.6122
 11
-12.5
 21
25.2591
  0
LINE
  8
0
 10
-12.5
 20
25.2591
 11
-10.9375
 21
25.2591
  0
LINE
  8
0
 10
-10.9375
 20
25.2591
 11
-11.7188
 21
26.6122
  0
LINE
  8
0
 10
-10.9375
 20
-26.1612
 11
-11.7188
 21
-27.5143
  0
LINE
  8
0
 10
-11.7188
 20
-27.5143
 11
-10.1562
 21
-27.5143
  0
LINE
  8
0
 10
-10.1562
 20
-27.5143
 11
-10.9375
 21
-26.1612
  0
LINE
  8
0
 10
-10.9375
 20
17.1401
 11
-11.7188
 21
15.7869
  0
LINE
  8
0
 10
-11.7188
 20
15.7869
 11
-10.1562
 21
15.7869
  0
LINE
  8
0
 10
-10.1562
 20
15.7869
 11
-10.9375
 21
17.1401
  0
LINE
  8
0
 10
-10.9375
 20
27.9654
 11
-11.7188
 21
26.6122
  0
LINE
  8
0
 10
-11.7188
 20
26.6122
 11
-10.1562
 21
26.6122
  0
LINE
  8
0
 10
-10.1562
 20
26.6122
 11
-10.9375
 21
27.9654
  0
LINE
  8
0
 10
-10.9375
 20
33.3781
 11
-11.7188
 21
32.0249
  0
LINE
  8
0
 10
-11.7188
 20
32.0249
 11
-10.1562
 21
32.0249
  0
LINE
  8
0
 10
-10.1562
 20
32.0249
 11
-10.9375
 21
33.3781
  0
LINE
  8
0
 10
-10.9375
 20
38.7907
 11
-11.7188
 21
37.4376
  0
LINE
  8
0
 10
-11.7188
 20
37.4376
 11
-10.1562
 21
37.4376
  0
LINE
  8
0
 10
-10.1562
 20
37.4376
 11
-10.9375
 21
38.7907
  0
LINE
  8
0
 10
-10.9375
 20
-9.92321
 11
-11.7188
 21
-11.2764
  0
LINE
  8
0
 10
-11.7188
 20
-11.2764
 11
-10.1562
 21
-11.2764
  0
LINE
  8
0
 10
-10.1562
 20
-11.2764
 11
-10.9375
 21
-9.92321
  0
LINE
  8
0
 10
-10.9375
 20
-15.3359
 11
-11.7188
 21
-16.689
  0
LINE
  8
0
 10
-11.7188
 20
-16.689
 11
-10.1562
 21
-16.689
  0
LINE
  8
0
 10
-10.1562
 20
-16.689
 11
-10.9375
 21
-15.3359
  0
LINE
  8
0
 10
-10.1562
 20
40.1439
 11
-10.9375
 21
38.7907
  0
LINE
  8
0
 10
-10.9375
 20
38.7907
 11
-9.375
 21
38.7907
  0
LINE
  8
0
 10
-9.375
 20
38.7907
 11
-10.1562
 21
40.1439
  0
LINE
  8
0
 10
-10.1562
 20
32.0249
 11
-10.9375
 21
30.6717
  0
LINE
  8
0
 10
-10.9375
 20
30.6717
 11
-9.375
 21
30.6717
  0
LINE
  8
0
 10
-9.375
 20
30.6717
 11
-10.1562
 21
32.0249
  0
LINE
  8
0
 10
-10.1562
 20
29.3186
 11
-10.9375
 21
27.9654
  0
LINE
  8
0
 10
-10.9375
 20
27.9654
 11
-9.375
 21
27.9654
  0
LINE
  8
0
 10
-9.375
 20
27.9654
 11
-10.1562
 21
29.3186
  0
LINE
  8
0
 10
-10.1562
 20
37.4376
 11
-10.9375
 21
36.0844
  0
LINE
  8
0
 10
-10.9375
 20
36.0844
 11
-9.375
 21
36.0844
  0
LINE
  8
0
 10
-9.375
 20
36.0844
 11
-10.1562
 21
37.4376
  0
LINE
  8
0
 10
-10.1562
 20
26.6122
 11
-10.9375
 21
25.2591
  0
LINE
  8
0
 10
-10.9375
 20
25.2591
 11
-9.375
 21
25.2591
  0
LINE
  8
0
 10
-9.375
 20
25.2591
 11
-10.1562
 21
26.6122
  0
LINE
  8
0
 10
-10.1562
 20
15.7869
 11
-10.9375
 21
14.4338
  0
LINE
  8
0
 10
-10.9375
 20
14.4338
 11
-9.375
 21
14.4338
  0
LINE
  8
0
 10
-9.375
 20
14.4338
 11
-10.1562
 21
15.7869
  0
LINE
  8
0
 10
-10.1562
 20
18.4933
 11
-10.9375
 21
17.1401
  0
LINE
  8
0
 10
-10.9375
 20
17.1401
 11
-9.375
 21
17.1401
  0
LINE
  8
0
 10
-9.375
 20
17.1401
 11
-10.1562
 21
18.4933
  0
LINE
  8
0
 10
-10.1562
 20
-24.808
 11
-10.9375
 21
-26.1612
  0
LINE
  8
0
 10
-10.9375
 20
-26.1612
 11
-9.375
 21
-26.1612
  0
LINE
  8
0
 10
-9.375
 20
-26.1612
 11
-10.1562
 21
-24.808
  0
LINE
  8
0
 10
-10.1562
 20
-27.5143
 11
-10.9375
 21
-28.8675
  0
LINE
  8
0
 10
-10.9375
 20
-28.8675
 11
-9.375
 21
-28.8675
  0
LINE
  8
0
 10
-9.375
 20
-28.8675
 11
-10.1562
 21
-27.5143
  0
LINE
  8
0
 10
-10.1562
 20
-16.689
 11
-10.9375
 21
-18.0422
  0
LINE
  8
0
 10
-10.9375
 20
-18.0422
 11
-9.375
 21
-18.0422
  0
LINE
  8
0
 10
-9.375
 20
-18.0422
 11
-10.1562
 21
-16.689
  0
LINE
  8
0
 10
-10.1562
 20
-13.9827
 11
-10.9375
 21
-15.3359
  0
LINE
  8
0
 10
-10.9375
 20
-15.3359
 11
-9.375
 21
-15.3359
  0
LINE
  8
0
 10
-9.375
 20
-15.3359
 11
-10.1562
 21
-13.9827
  0
LINE
  8
0
 10
-10.1562
 20
-11.2764
 11
-10.9375
 21
-12.6295
  0
LINE
  8
0
 10
-10.9375
 20
-12.6295
 11
-9.375
 21
-12.6295
  0
LINE
  8
0
 10
-9.375
 20
-12.6295
 11
-10.1562
 21
-11.2764
  0
LINE
  8
0
 10
-9.375
 20
41.497
 11
-10.1562
 21
40.1439
  0
LINE
  8
0
 10
-10.1562
 20
40.1439
 11
-8.59375
 21
40.1439
  0
LINE
  8
0
 10
-8.59375
 20
40.1439
 11
-9.375
 21
41.497
  0
LINE
  8
0
 10
-9.375
 20
30.6717
 11
-10.1562
 21
29.3186
  0
LINE
  8
0
 10
-10.1562
 20
29.3186
 11
-8.59375
 21
29.3186
  0
LINE
  8
0
 10
-8.59375
 20
29.3186
 11
-9.375
 21
30.6717
  0
LINE
  8
0
 10
-9.375
 20
-23.4549
 11
-10.1562
 21
-24.808
  0
LINE
  8
0
 10
-10.1562
 20
-24.808
 11
-8.59375
 21
-24.808
  0
LINE
  8
0
 10
-8.59375
 20
-24.808
 11
-9.375
 21
-23.4549
  0
LINE
  8
0
 10
-9.375
 20
-12.6295
 11
-10.1562
 21
-13.9827
  0
LINE
  8
0
 10
-10.1562
 20
-13.9827
 11
-8.59375
 21
-13.9827
  0
LINE
  8
0
 10
-8.59375
 20
-13.9827
 11
-9.375
 21
-12.6295
  0
LINE
  8
0
 10
-9.375
 20
19.8464
 11
-10.1562
 21
18.4933
  0
LINE
  8
0
 10
-10.1562
 20
18.4933
 11
-8.59375
 21
18.4933
  0
LINE
  8
0
 10
-8.59375
 20
18.4933
 11
-9.375
 21
19.8464
  0
LINE
  8
0
 10
-8.59375
 20
-22.1017
 11
-9.375
 21
-23.4549
  0
LINE
  8
0
 10
-9.375
 20
-23.4549
 11
-7.8125
 21
-23.4549
  0
LINE
  8
0
 10
-7.8125
 20
-23.4549
 11
-8.59375
 21
-22.1017
  0
LINE
  8
0
 10
-8.59375
 20
21.1996
 11
-9.375
 21
19.8464
  0
LINE
  8
0
 10
-9.375
 20
19.8464
 11
-7.8125
 21
19.8464
  0
LINE
  8
0
 10
-7.8125
 20
19.8464
 11
-8.59375
 21
21.1996
  0
LINE
  8
0
 10
-8.59375
 20
29.3186
 11
-9.375
 21
27.9654
  0
LINE
  8
0
 10
-9.375
 20
27.9654
 11
-7.8125
 21
27.9654
  0
LINE
  8
0
 10
-7.8125
 20
27.9654
 11
-8.59375
 21
29.3186
  0
LINE
  8
0
 10
-8.59375
 20
26.6122
 11
-9.375
 21
25.2591
  0
LINE
  8
0
 10
-9.375
 20
25.2591
 11
-7.8125
 21
25.2591
  0
LINE
  8
0
 10
-7.8125
 20
25.2591
 11
-8.59375
 21
26.6122
  0
LINE
  8
0
 10
-8.59375
 20
15.7869
 11
-9.375
 21
14.4338
  0
LINE
  8
0
 10
-9.375
 20
14.4338
 11
-7.8125
 21
14.4338
  0
LINE
  8
0
 10
-7.8125
 20
14.4338
 11
-8.59375
 21
15.7869
  0
LINE
  8
0
 10
-8.59375
 20
-13.9827
 11
-9.375
 21
-15.3359
  0
LINE
  8
0
 10
-9.375
 20
-15.3359
 11
-7.8125
 21
-15.3359
  0
LINE
  8
0
 10
-7.8125
 20
-15.3359
 11
-8.59375
 21
-13.9827
  0
LINE
  8
0
 10
-8.59375
 20
18.4933
 11
-9.375
 21
17.1401
  0
LINE
  8
0
 10
-9.375
 20
17.1401
 11
-7.8125
 21
17.1401
  0
LINE
  8
0
 10
-7.8125
 20
17.1401
 11
-8.59375
 21
18.4933
  0
LINE
  8
0
 10
-8.59375
 20
42.8502
 11
-9.375
 21
41.497
  0
LINE
  8
0
 10
-9.375
 20
41.497
 11
-7.8125
 21
41.497
  0
LINE
  8
0
 10
-7.8125
 20
41.497
 11
-8.59375
 21
42.8502
  0
LINE
  8
0
 10
-8.59375
 20
40.1439
 11
-9.375
 21
38.7907
  0
LINE
  8
0
 10
-9.375
 20
38.7907
 11
-7.8125
 21
38.7907
  0
LINE
  8
0
 10
-7.8125
 20
38.7907
 11
-8.59375
 21
40.1439
  0
LINE
  8
0
 10
-8.59375
 20
37.4376
 11
-9.375
 21
36.0844
  0
LINE
  8
0
 10
-9.375
 20
36.0844
 11
-7.8125
 21
36.0844
  0
LINE
  8
0
 10
-7.8125
 20
36.0844
 11
-8.59375
 21
37.4376
  0
LINE
  8
0
 10
-8.59375
 20
-16.689
 11
-9.375
 21
-18.0422
  0
LINE
  8
0
 10
-9.375
 20
-18.0422
 11
-7.8125
 21
-18.0422
  0
LINE
  8
0
 10
-7.8125
 20
-18.0422
 11
-8.59375
 21
-16.689
  0
LINE
  8
0
 10
-8.59375
 20
-27.5143
 11
-9.375
 21
-28.8675
  0
LINE
  8
0
 10
-9.375
 20
-28.8675
 11
-7.8125
 21
-28.8675
  0
LINE
  8
0
 10
-7.8125
 20
-28.8675
 11
-8.59375
 21
-27.5143
  0
LINE
  8
0
 10
-8.59375
 20
-24.808
 11
-9.375
 21
-26.1612
  0
LINE
  8
0
 10
-9.375
 20
-26.1612
 11
-7.8125
 21
-26.1612
  0
LINE
  8
0
 10
-7.8125
 20
-26.1612
 11
-8.59375
 21
-24.808
  0
LINE
  8
0
 10
-7.8125
 20
22.5527
 11
-8.59375
 21
21.1996
  0
LINE
  8
0
 10
-8.59375
 20
21.1996
 11
-7.03125
 21
21.1996
  0
LINE
  8
0
 10
-7.03125
 20
21.1996
 11
-7.8125
 21
22.5527
  0
LINE
  8
0
 10
-7.8125
 20
44.2034
 11
-8.59375
 21
42.8502
  0
LINE
  8
0
 10
-8.59375
 20
42.8502
 11
-7.03125
 21
42.8502
  0
LINE
  8
0
 10
-7.03125
 20
42.8502
 11
-7.8125
 21
44.2034
  0
LINE
  8
0
 10
-7.8125
 20
38.7907
 11
-8.59375
 21
37.4376
  0
LINE
  8
0
 10
-8.59375
 20
37.4376
 11
-7.03125
 21
37.4376
  0
LINE
  8
0
 10
-7.03125
 20
37.4376
 11
-7.8125
 21
38.7907
  0
LINE
  8
0
 10
-7.8125
 20
17.1401
 11
-8.59375
 21
15.7869
  0
LINE
  8
0
 10
-8.59375
 20
15.7869
 11
-7.03125
 21
15.7869
  0
LINE
  8
0
 10
-7.03125
 20
15.7869
 11
-7.8125
 21
17.1401
  0
LINE
  8
0
 10
-7.8125
 20
27.9654
 11
-8.59375
 21
26.6122
  0
LINE
  8
0
 10
-8.59375
 20
26.6122
 11
-7.03125
 21
26.6122
  0
LINE
  8
0
 10
-7.03125
 20
26.6122
 11
-7.8125
 21
27.9654
  0
LINE
  8
0
 10
-7.8125
 20
-15.3359
 11
-8.59375
 21
-16.689
  0
LINE
  8
0
 10
-8.59375
 20
-16.689
 11
-7.03125
 21
-16.689
  0
LINE
  8
0
 10
-7.03125
 20
-16.689
 11
-7.8125
 21
-15.3359
  0
LINE
  8
0
 10
-7.8125
 20
-26.1612
 11
-8.59375
 21
-27.5143
  0
LINE
  8
0
 10
-8.59375
 20
-27.5143
 11
-7.03125
 21
-27.5143
  0
LINE
  8
0
 10
-7.03125
 20
-27.5143
 11
-7.8125
 21
-26.1612
  0
LINE
  8
0
 10
-7.8125
 20
-20.7485
 11
-8.59375
 21
-22.1017
  0
LINE
  8
0
 10
-8.59375
 20
-22.1017
 11
-7.03125
 21
-22.1017
  0
LINE
  8
0
 10
-7.03125
 20
-22.1017
 11
-7.8125
 21
-20.7485
  0
LINE
  8
0
 10
-7.03125
 20
-16.689
 11
-7.8125
 21
-18.0422
  0
LINE
  8
0
 10
-7.8125
 20
-18.0422
 11
-6.25
 21
-18.0422
  0
LINE
  8
0
 10
-6.25
 20
-18.0422
 11
-7.03125
 21
-16.689
  0
LINE
  8
0
 10
-7.03125
 20
-27.5143
 11
-7.8125
 21
-28.8675
  0
LINE
  8
0
 10
-7.8125
 20
-28.8675
 11
-6.25
 21
-28.8675
  0
LINE
  8
0
 10
-6.25
 20
-28.8675
 11
-7.03125
 21
-27.5143
  0
LINE
  8
0
 10
-7.03125
 20
-22.1017
 11
-7.8125
 21
-23.4549
  0
LINE
  8
0
 10
-7.8125
 20
-23.4549
 11
-6.25
 21
-23.4549
  0
LINE
  8
0
 10
-6.25
 20
-23.4549
 11
-7.03125
 21
-22.1017
  0
LINE
  8
0
 10
-7.03125
 20
-19.3954
 11
-7.8125
 21
-20.7485
  0
LINE
  8
0
 10
-7.8125
 20
-20.7485
 11
-6.25
 21
-20.7485
  0
LINE
  8
0
 10
-6.25
 20
-20.7485
 11
-7.03125
 21
-19.3954
  0
LINE
  8
0
 10
-7.03125
 20
42.8502
 11
-7.8125
 21
41.497
  0
LINE
  8
0
 10
-7.8125
 20
41.497
 11
-6.25
 21
41.497
  0
LINE
  8
0
 10
-6.25
 20
41.497
 11
-7.03125
 21
42.8502
  0
LINE
  8
0
 10
-7.03125
 20
37.4376
 11
-7.8125
 21
36.0844
  0
LINE
  8
0
 10
-7.8125
 20
36.0844
 11
-6.25
 21
36.0844
  0
LINE
  8
0
 10
-6.25
 20
36.0844
 11
-7.03125
 21
37.4376
  0
LINE
  8
0
 10
-7.03125
 20
23.9059
 11
-7.8125
 21
22.5527
  0
LINE
  8
0
 10
-7.8125
 20
22.5527
 11
-6.25
 21
22.5527
  0
LINE
  8
0
 10
-6.25
 20
22.5527
 11
-7.03125
 21
23.9059
  0
LINE
  8
0
 10
-7.03125
 20
21.1996
 11
-7.8125
 21
19.8464
  0
LINE
  8
0
 10
-7.8125
 20
19.8464
 11
-6.25
 21
19.8464
  0
LINE
  8
0
 10
-6.25
 20
19.8464
 11
-7.03125
 21
21.1996
  0
LINE
  8
0
 10
-7.03125
 20
15.7869
 11
-7.8125
 21
14.4338
  0
LINE
  8
0
 10
-7.8125
 20
14.4338
 11
-6.25
 21
14.4338
  0
LINE
  8
0
 10
-6.25
 20
14.4338
 11
-7.03125
 21
15.7869
  0
LINE
  8
0
 10
-7.03125
 20
26.6122
 11
-7.8125
 21
25.2591
  0
LINE
  8
0
 10
-7.8125
 20
25.2591
 11
-6.25
 21
25.2591
  0
LINE
  8
0
 10
-6.25
 20
25.2591
 11
-7.03125
 21
26.6122
  0
LINE
  8
0
 10
-7.03125
 20
45.5565
 11
-7.8125
 21
44.2034
  0
LINE
  8
0
 10
-7.8125
 20
44.2034
 11
-6.25
 21
44.2034
  0
LINE
  8
0
 10
-6.25
 20
44.2034
 11
-7.03125
 21
45.5565
  0
LINE
  8
0
 10
-6.25
 20
-18.0422
 11
-7.03125
 21
-19.3954
  0
LINE
  8
0
 10
-7.03125
 20
-19.3954
 11
-5.46875
 21
-19.3954
  0
LINE
  8
0
 10
-5.46875
 20
-19.3954
 11
-6.25
 21
-18.0422
  0
LINE
  8
0
 10
-6.25
 20
46.9097
 11
-7.03125
 21
45.5565
  0
LINE
  8
0
 10
-7.03125
 20
45.5565
 11
-5.46875
 21
45.5565
  0
LINE
  8
0
 10
-5.46875
 20
45.5565
 11
-6.25
 21
46.9097
  0
LINE
  8
0
 10
-6.25
 20
25.2591
 11
-7.03125
 21
23.9059
  0
LINE
  8
0
 10
-7.03125
 20
23.9059
 11
-5.46875
 21
23.9059
  0
LINE
  8
0
 10
-5.46875
 20
23.9059
 11
-6.25
 21
25.2591
  0
LINE
  8
0
 10
-5.46875
 20
45.5565
 11
-6.25
 21
44.2034
  0
LINE
  8
0
 10
-6.25
 20
44.2034
 11
-4.6875
 21
44.2034
  0
LINE
  8
0
 10
-4.6875
 20
44.2034
 11
-5.46875
 21
45.5565
  0
LINE
  8
0
 10
-5.46875
 20
23.9059
 11
-6.25
 21
22.5527
  0
LINE
  8
0
 10
-6.25
 20
22.5527
 11
-4.6875
 21
22.5527
  0
LINE
  8
0
 10
-4.6875
 20
22.5527
 11
-5.46875
 21
23.9059
  0
LINE
  8
0
 10
-5.46875
 20
15.7869
 11
-6.25
 21
14.4338
  0
LINE
  8
0
 10
-6.25
 20
14.4338
 11
-4.6875
 21
14.4338
  0
LINE
  8
0
 10
-4.6875
 20
14.4338
 11
-5.46875
 21
15.7869
  0
LINE
  8
0
 10
-5.46875
 20
21.1996
 11
-6.25
 21
19.8464
  0
LINE
  8
0
 10
-6.25
 20
19.8464
 11
-4.6875
 21
19.8464
  0
LINE
  8
0
 10
-4.6875
 20
19.8464
 11
-5.46875
 21
21.1996
  0
LINE
  8
0
 10
-5.46875
 20
48.2629
 11
-6.25
 21
46.9097
  0
LINE
  8
0
 10
-6.25
 20
46.9097
 11
-4.6875
 21
46.9097
  0
LINE
  8
0
 10
-4.6875
 20
46.9097
 11
-5.46875
 21
48.2629
  0
LINE
  8
0
 10
-5.46875
 20
42.8502
 11
-6.25
 21
41.497
  0
LINE
  8
0
 10
-6.25
 20
41.497
 11
-4.6875
 21
41.497
  0
LINE
  8
0
 10
-4.6875
 20
41.497
 11
-5.46875
 21
42.8502
  0
LINE
  8
0
 10
-5.46875
 20
37.4376
 11
-6.25
 21
36.0844
  0
LINE
  8
0
 10
-6.25
 20
36.0844
 11
-4.6875
 21
36.0844
  0
LINE
  8
0
 10
-4.6875
 20
36.0844
 11
-5.46875
 21
37.4376
  0
LINE
  8
0
 10
-5.46875
 20
-27.5143
 11
-6.25
 21
-28.8675
  0
LINE
  8
0
 10
-6.25
 20
-28.8675
 11
-4.6875
 21
-28.8675
  0
LINE
  8
0
 10
-4.6875
 20
-28.8675
 11
-5.46875
 21
-27.5143
  0
LINE
  8
0
 10
-5.46875
 20
-19.3954
 11
-6.25
 21
-20.7485
  0
LINE
  8
0
 10
-6.25
 20
-20.7485
 11
-4.6875
 21
-20.7485
  0
LINE
  8
0
 10
-4.6875
 20
-20.7485
 11
-5.46875
 21
-19.3954
  0
LINE
  8
0
 10
-5.46875
 20
-22.1017
 11
-6.25
 21
-23.4549
  0
LINE
  8
0
 10
-6.25
 20
-23.4549
 11
-4.6875
 21
-23.4549
  0
LINE
  8
0
 10
-4.6875
 20
-23.4549
 11
-5.46875
 21
-22.1017
  0
LINE
  8
0
 10
-4.6875
 20
44.2034
 11
-5.46875
 21
42.8502
  0
LINE
  8
0
 10
-5.46875
 20
42.8502
 11
-3.90625
 21
42.8502
  0
LINE
  8
0
 10
-3.90625
 20
42.8502
 11
-4.6875
 21
44.2034
  0
LINE
  8
0
 10
-4.6875
 20
-26.1612
 11
-5.46875
 21
-27.5143
  0
LINE
  8
0
 10
-5.46875
 20
-27.5143
 11
-3.90625
 21
-27.5143
  0
LINE
  8
0
 10
-3.90625
 20
-27.5143
 11
-4.6875
 21
-26.1612
  0
LINE
  8
0
 10
-4.6875
 20
-20.7485
 11
-5.46875
 21
-22.1017
  0
LINE
  8
0
 10
-5.46875
 20
-22.1017
 11
-3.90625
 21
-22.1017
  0
LINE
  8
0
 10
-3.90625
 20
-22.1017
 11
-4.6875
 21
-20.7485
  0
LINE
  8
0
 10
-4.6875
 20
49.616
 11
-5.46875
 21
48.2629
  0
LINE
  8
0
 10
-5.46875
 20
48.2629
 11
-3.90625
 21
48.2629
  0
LINE
  8
0
 10
-3.90625
 20
48.2629
 11
-4.6875
 21
49.616
  0
LINE
  8
0
 10
-4.6875
 20
38.7907
 11
-5.46875
 21
37.4376
  0
LINE
  8
0
 10
-5.46875
 20
37.4376
 11
-3.90625
 21
37.4376
  0
LINE
  8
0
 10
-3.90625
 20
37.4376
 11
-4.6875
 21
38.7907
  0
LINE
  8
0
 10
-4.6875
 20
22.5527
 11
-5.46875
 21
21.1996
  0
LINE
  8
0
 10
-5.46875
 20
21.1996
 11
-3.90625
 21
21.1996
  0
LINE
  8
0
 10
-3.90625
 20
21.1996
 11
-4.6875
 21
22.5527
  0
LINE
  8
0
 10
-4.6875
 20
17.1401
 11
-5.46875
 21
15.7869
  0
LINE
  8
0
 10
-5.46875
 20
15.7869
 11
-3.90625
 21
15.7869
  0
LINE
  8
0
 10
-3.90625
 20
15.7869
 11
-4.6875
 21
17.1401
  0
LINE
  8
0
 10
-3.90625
 20
-27.5143
 11
-4.6875
 21
-28.8675
  0
LINE
  8
0
 10
-4.6875
 20
-28.8675
 11
-3.125
 21
-28.8675
  0
LINE
  8
0
 10
-3.125
 20
-28.8675
 11
-3.90625
 21
-27.5143
  0
LINE
  8
0
 10
-3.90625
 20
-24.808
 11
-4.6875
 21
-26.1612
  0
LINE
  8
0
 10
-4.6875
 20
-26.1612
 11
-3.125
 21
-26.1612
  0
LINE
  8
0
 10
-3.125
 20
-26.1612
 11
-3.90625
 21
-24.808
  0
LINE
  8
0
 10
-3.90625
 20
-22.1017
 11
-4.6875
 21
-23.4549
  0
LINE
  8
0
 10
-4.6875
 20
-23.4549
 11
-3.125
 21
-23.4549
  0
LINE
  8
0
 10
-3.125
 20
-23.4549
 11
-3.90625
 21
-22.1017
  0
LINE
  8
0
 10
-3.90625
 20
15.7869
 11
-4.6875
 21
14.4338
  0
LINE
  8
0
 10
-4.6875
 20
14.4338
 11
-3.125
 21
14.4338
  0
LINE
  8
0
 10
-3.125
 20
14.4338
 11
-3.90625
 21
15.7869
  0
LINE
  8
0
 10
-3.90625
 20
18.4933
 11
-4.6875
 21
17.1401
  0
LINE
  8
0
 10
-4.6875
 20
17.1401
 11
-3.125
 21
17.1401
  0
LINE
  8
0
 10
-3.125
 20
17.1401
 11
-3.90625
 21
18.4933
  0
LINE
  8
0
 10
-3.90625
 20
21.1996
 11
-4.6875
 21
19.8464
  0
LINE
  8
0
 10
-4.6875
 20
19.8464
 11
-3.125
 21
19.8464
  0
LINE
  8
0
 10
-3.125
 20
19.8464
 11
-3.90625
 21
21.1996
  0
LINE
  8
0
 10
-3.90625
 20
40.1439
 11
-4.6875
 21
38.7907
  0
LINE
  8
0
 10
-4.6875
 20
38.7907
 11
-3.125
 21
38.7907
  0
LINE
  8
0
 10
-3.125
 20
38.7907
 11
-3.90625
 21
40.1439
  0
LINE
  8
0
 10
-3.90625
 20
37.4376
 11
-4.6875
 21
36.0844
  0
LINE
  8
0
 10
-4.6875
 20
36.0844
 11
-3.125
 21
36.0844
  0
LINE
  8
0
 10
-3.125
 20
36.0844
 11
-3.90625
 21
37.4376
  0
LINE
  8
0
 10
-3.90625
 20
48.2629
 11
-4.6875
 21
46.9097
  0
LINE
  8
0
 10
-4.6875
 20
46.9097
 11
-3.125
 21
46.9097
  0
LINE
  8
0
 10
-3.125
 20
46.9097
 11
-3.90625
 21
48.2629
  0
LINE
  8
0
 10
-3.90625
 20
50.9692
 11
-4.6875
 21
49.616
  0
LINE
  8
0
 10
-4.6875
 20
49.616
 11
-3.125
 21
49.616
  0
LINE
  8
0
 10
-3.125
 20
49.616
 11
-3.90625
 21
50.9692
  0
LINE
  8
0
 10
-3.90625
 20
42.8502
 11
-4.6875
 21
41.497
  0
LINE
  8
0
 10
-4.6875
 20
41.497
 11
-3.125
 21
41.497
  0
LINE
  8
0
 10
-3.125
 20
41.497
 11
-3.90625
 21
42.8502
  0
LINE
  8
0
 10
-3.125
 20
41.497
 11
-3.90625
 21
40.1439
  0
LINE
  8
0
 10
-3.90625
 20
40.1439
 11
-2.34375
 21
40.1439
  0
LINE
  8
0
 10
-2.34375
 20
40.1439
 11
-3.125
 21
41.497
  0
LINE
  8
0
 10
-3.125
 20
52.3224
 11
-3.90625
 21
50.9692
  0
LINE
  8
0
 10
-3.90625
 20
50.9692
 11
-2.34375
 21
50.9692
  0
LINE
  8
0
 10
-2.34375
 20
50.9692
 11
-3.125
 21
52.3224
  0
LINE
  8
0
 10
-3.125
 20
-23.4549
 11
-3.90625
 21
-24.808
  0
LINE
  8
0
 10
-3.90625
 20
-24.808
 11
-2.34375
 21
-24.808
  0
LINE
  8
0
 10
-2.34375
 20
-24.808
 11
-3.125
 21
-23.4549
  0
LINE
  8
0
 10
-3.125
 20
19.8464
 11
-3.90625
 21
18.4933
  0
LINE
  8
0
 10
-3.90625
 20
18.4933
 11
-2.34375
 21
18.4933
  0
LINE
  8
0
 10
-2.34375
 20
18.4933
 11
-3.125
 21
19.8464
  0
LINE
  8
0
 10
-2.34375
 20
-24.808
 11
-3.125
 21
-26.1612
  0
LINE
  8
0
 10
-3.125
 20
-26.1612
 11
-1.5625
 21
-26.1612
  0
LINE
  8
0
 10
-1.5625
 20
-26.1612
 11
-2.34375
 21
-24.808
  0
LINE
  8
0
 10
-2.34375
 20
-27.5143
 11
-3.125
 21
-28.8675
  0
LINE
  8
0
 10
-3.125
 20
-28.8675
 11
-1.5625
 21
-28.8675
  0
LINE
  8
0
 10
-1.5625
 20
-28.8675
 11
-2.34375
 21
-27.5143
  0
LINE
  8
0
 10
-2.34375
 20
53.6755
 11
-3.125
 21
52.3224
  0
LINE
  8
0
 10
-3.125
 20
52.3224
 11
-1.5625
 21
52.3224
  0
LINE
  8
0
 10
-1.5625
 20
52.3224
 11
-2.34375
 21
53.6755
  0
LINE
  8
0
 10
-2.34375
 20
18.4933
 11
-3.125
 21
17.1401
  0
LINE
  8
0
 10
-3.125
 20
17.1401
 11
-1.5625
 21
17.1401
  0
LINE
  8
0
 10
-1.5625
 20
17.1401
 11
-2.34375
 21
18.4933
  0
LINE
  8
0
 10
-2.34375
 20
15.7869
 11
-3.125
 21
14.4338
  0
LINE
  8
0
 10
-3.125
 20
14.4338
 11
-1.5625
 21
14.4338
  0
LINE
  8
0
 10
-1.5625
 20
14.4338
 11
-2.34375
 21
15.7869
  0
LINE
  8
0
 10
-2.34375
 20
40.1439
 11
-3.125
 21
38.7907
  0
LINE
  8
0
 10
-3.125
 20
38.7907
 11
-1.5625
 21
38.7907
  0
LINE
  8
0
 10
-1.5625
 20
38.7907
 11
-2.34375
 21
40.1439
  0
LINE
  8
0
 10
-2.34375
 20
37.4376
 11
-3.125
 21
36.0844
  0
LINE
  8
0
 10
-3.125
 20
36.0844
 11
-1.5625
 21
36.0844
  0
LINE
  8
0
 10
-1.5625
 20
36.0844
 11
-2.34375
 21
37.4376
  0
LINE
  8
0
 10
-2.34375
 20
48.2629
 11
-3.125
 21
46.9097
  0
LINE
  8
0
 10
-3.125
 20
46.9097
 11
-1.5625
 21
46.9097
  0
LINE
  8
0
 10
-1.5625
 20
46.9097
 11
-2.34375
 21
48.2629
  0
LINE
  8
0
 10
-2.34375
 20
50.9692
 11
-3.125
 21
49.616
  0
LINE
  8
0
 10
-3.125
 20
49.616
 11
-1.5625
 21
49.616
  0
LINE
  8
0
 10
-1.5625
 20
49.616
 11
-2.34375
 21
50.9692
  0
LINE
  8
0
 10
-1.5625
 20
-26.1612
 11
-2.34375
 21
-27.5143
  0
LINE
  8
0
 10
-2.34375
 20
-27.5143
 11
-0.78125
 21
-27.5143
  0
LINE
  8
0
 10
-0.78125
 20
-27.5143
 11
-1.5625
 21
-26.1612
  0
LINE
  8
0
 10
-1.5625
 20
17.1401
 11
-2.34375
 21
15.7869
  0
LINE
  8
0
 10
-2.34375
 20
15.7869
 11
-0.78125
 21
15.7869
  0
LINE
  8
0
 10
-0.78125
 20
15.7869
 11
-1.5625
 21
17.1401
  0
LINE
  8
0
 10
-1.5625
 20
38.7907
 11
-2.34375
 21
37.4376
  0
LINE
  8
0
 10
-2.34375
 20
37.4376
 11
-0.78125
 21
37.4376
  0
LINE
  8
0
 10
-0.78125
 20
37.4376
 11
-1.5625
 21
38.7907
  0
LINE
  8
0
 10
-1.5625
 20
49.616
 11
-2.34375
 21
48.2629
  0
LINE
  8
0
 10
-2.34375
 20
48.2629
 11
-0.78125
 21
48.2629
  0
LINE
  8
0
 10
-0.78125
 20
48.2629
 11
-1.5625
 21
49.616
  0
LINE
  8
0
 10
-1.5625
 20
55.0287
 11
-2.34375
 21
53.6755
  0
LINE
  8
0
 10
-2.34375
 20
53.6755
 11
-0.78125
 21
53.6755
  0
LINE
  8
0
 10
-0.78125
 20
53.6755
 11
-1.5625
 21
55.0287
  0
LINE
  8
0
 10
-0.78125
 20
37.4376
 11
-1.5625
 21
36.0844
  0
LINE
  8
0
 10
-1.5625
 20
36.0844
 11
0
 21
36.0844
  0
LINE
  8
0
 10
0
 20
36.0844
 11
-0.78125
 21
37.4376
  0
LINE
  8
0
 10
-0.78125
 20
48.2629
 11
-1.5625
 21
46.9097
  0
LINE
  8
0
 10
-1.5625
 20
46.9097
 11
0
 21
46.9097
  0
LINE
  8
0
 10
0
 20
46.9097
 11
-0.78125
 21
48.2629
  0
LINE
  8
0
 10
-0.78125
 20
53.6755
 11
-1.5625
 21
52.3224
  0
LINE
  8
0
 10
-1.5625
 20
52.3224
 11
0
 21
52.3224
  0
LINE
  8
0
 10
0
 20
52.3224
 11
-0.78125
 21
53.6755
  0
LINE
  8
0
 10
-0.78125
 20
56.3819
 11
-1.5625
 21
55.0287
  0
LINE
  8
0
 10
-1.5625
 20
55.0287
 11
0
 21
55.0287
  0
LINE
  8
0
 10
0
 20
55.0287
 11
-0.78125
 21
56.3819
  0
LINE
  8
0
 10
-0.78125
 20
15.7869
 11
-1.5625
 21
14.4338
  0
LINE
  8
0
 10
-1.5625
 20
14.4338
 11
0
 21
14.4338
  0
LINE
  8
0
 10
0
 20
14.4338
 11
-0.78125
 21
15.7869
  0
LINE
  8
0
 10
-0.78125
 20
-27.5143
 11
-1.5625
 21
-28.8675
  0
LINE
  8
0
 10
-1.5625
 20
-28.8675
 11
0
 21
-28.8675
  0
LINE
  8
0
 10
0
 20
-28.8675
 11
-0.78125
 21
-27.5143
  0
LINE
  8
0
 10
0
 20
57.735
 11
-0.78125
 21
56.3819
  0
LINE
  8
0
 10
-0.78125
 20
56.3819
 11
0.78125
 21
56.3819
  0
LINE
  8
0
 10
0.78125
 20
56.3819
 11
0
 21
57.735
  0
LINE
  8
0
 10
0.78125
 20
-27.5143
 11
0
 21
-28.8675
  0
LINE
  8
0
 10
0
 20
-28.8675
 11
1.5625
 21
-28.8675
  0
LINE
  8
0
 10
1.5625
 20
-28.8675
 11
0.78125
 21
-27.5143
  0
LINE
  8
0
 10
0.78125
 20
56.3819
 11
0
 21
55.0287
  0
LINE
  8
0
 10
0
 20
55.0287
 11
1.5625
 21
55.0287
  0
LINE
  8
0
 10
1.5625
 20
55.0287
 11
0.78125
 21
56.3819
  0
LINE
  8
0
 10
0.78125
 20
48.2629
 11
0
 21
46.9097
  0
LINE
  8
0
 10
0
 20
46.9097
 11
1.5625
 21
46.9097
  0
LINE
  8
0
 10
1.5625
 20
46.9097
 11
0.78125
 21
48.2629
  0
LINE
  8
0
 10
0.78125
 20
37.4376
 11
0
 21
36.0844
  0
LINE
  8
0
 10
0
 20
36.0844
 11
1.5625
 21
36.0844
  0
LINE
  8
0
 10
1.5625
 20
36.0844
 11
0.78125
 21
37.4376
  0
LINE
  8
0
 10
0.78125
 20
15.7869
 11
0
 21
14.4338
  0
LINE
  8
0
 10
0
 20
14.4338
 11
1.5625
 21
14.4338
  0
LINE
  8
0
 10
1.5625
 20
14.4338
 11
0.78125
 21
15.7869
  0
LINE
  8
0
 10
0.78125
 20
53.6755
 11
0
 21
52.3224
  0
LINE
  8
0
 10
0
 20
52.3224
 11
1.5625
 21
52.3224
  0
LINE
  8
0
 10
1.5625
 20
52.3224
 11
0.78125
 21
53.6755
  0
LINE
  8
0
 10
1.5625
 20
38.7907
 11
0.78125
 21
37.4376
  0
LINE
  8
0
 10
0.78125
 20
37.4376
 11
2.34375
 21
37.4376
  0
LINE
  8
0
 10
2.34375
 20
37.4376
 11
1.5625
 21
38.7907
  0
LINE
  8
0
 10
1.5625
 20
49.616
 11
0.78125
 21
48.2629
  0
LINE
  8
0
 10
0.78125
 20
48.2629
 11
2.34375
 21
48.2629
  0
LINE
  8
0
 10
2.34375
 20
48.2629
 11
1.5625
 21
49.616
  0
LINE
  8
0
 10
1.5625
 20
55.0287
 11
0.78125
 21
53.6755
  0
LINE
  8
0
 10
0.78125
 20
53.6755
 11
2.34375
 21
53.6755
  0
LINE
  8
0
 10
2.34375
 20
53.6755
 11
1.5625
 21
55.0287
  0
LINE
  8
0
 10
1.5625
 20
17.1401
 11
0.78125
 21
15.7869
  0
LINE
  8
0
 10
0.78125
 20
15.7869
 11
2.34375
 21
15.7869
  0
LINE
  8
0
 10
2.34375
 20
15.7869
 11
1.5625
 21
17.1401
  0
LINE
  8
0
 10
1.5625
 20
-26.1612
 11
0.78125
 21
-27.5143
  0
LINE
  8
0
 10
0.78125
 20
-27.5143
 11
2.34375
 21
-27.5143
  0
LINE
  8
0
 10
2.34375
 20
-27.5143
 11
1.5625
 21
-26.1612
  0
LINE
  8
0
 10
2.34375
 20
-24.808
 11
1.5625
 21
-26.1612
  0
LINE
  8
0
 10
1.5625
 20
-26.1612
 11
3.125
 21
-26.1612
  0
LINE
  8
0
 10
3.125
 20
-26.1612
 11
2.34375
 21
-24.808
  0
LINE
  8
0
 10
2.34375
 20
-27.5143
 11
1.5625
 21
-28.8675
  0
LINE
  8
0
 10
1.5625
 20
-28.8675
 11
3.125
 21
-28.8675
  0
LINE
  8
0
 10
3.125
 20
-28.8675
 11
2.34375
 21
-27.5143
  0
LINE
  8
0
 10
2.34375
 20
15.7869
 11
1.5625
 21
14.4338
  0
LINE
  8
0
 10
1.5625
 20
14.4338
 11
3.125
 21
14.4338
  0
LINE
  8
0
 10
3.125
 20
14.4338
 11
2.34375
 21
15.7869
  0
LINE
  8
0
 10
2.34375
 20
18.4933
 11
1.5625
 21
17.1401
  0
LINE
  8
0
 10
1.5625
 20
17.1401
 11
3.125
 21
17.1401
  0
LINE
  8
0
 10
3.125
 20
17.1401
 11
2.34375
 21
18.4933
  0
LINE
  8
0
 10
2.34375
 20
53.6755
 11
1.5625
 21
52.3224
  0
LINE
  8
0
 10
1.5625
 20
52.3224
 11
3.125
 21
52.3224
  0
LINE
  8
0
 10
3.125
 20
52.3224
 11
2.34375
 21
53.6755
  0
LINE
  8
0
 10
2.34375
 20
50.9692
 11
1.5625
 21
49.616
  0
LINE
  8
0
 10
1.5625
 20
49.616
 11
3.125
 21
49.616
  0
LINE
  8
0
 10
3.125
 20
49.616
 11
2.34375
 21
50.9692
  0
LINE
  8
0
 10
2.34375
 20
48.2629
 11
1.5625
 21
46.9097
  0
LINE
  8
0
 10
1.5625
 20
46.9097
 11
3.125
 21
46.9097
  0
LINE
  8
0
 10
3.125
 20
46.9097
 11
2.34375
 21
48.2629
  0
LINE
  8
0
 10
2.34375
 20
37.4376
 11
1.5625
 21
36.0844
  0
LINE
  8
0
 10
1.5625
 20
36.0844
 11
3.125
 21
36.0844
  0
LINE
  8
0
 10
3.125
 20
36.0844
 11
2.34375
 21
37.4376
  0
LINE
  8
0
 10
2.34375
 20
40.1439
 11
1.5625
 21
38.7907
  0
LINE
  8
0
 10
1.5625
 20
38.7907
 11
3.125
 21
38.7907
  0
LINE
  8
0
 10
3.125
 20
38.7907
 11
2.34375
 21
40.1439
  0
LINE
  8
0
 10
3.125
 20
-23.4549
 11
2.34375
 21
-24.808
  0
LINE
  8
0
 10
2.34375
 20
-24.808
 11
3.90625
 21
-24.808
  0
LINE
  8
0
 10
3.90625
 20
-24.808
 11
3.125
 21
-23.4549
  0
LINE
  8
0
 10
3.125
 20
19.8464
 11
2.34375
 21
18.4933
  0
LINE
  8
0
 10
2.34375
 20
18.4933
 11
3.90625
 21
18.4933
  0
LINE
  8
0
 10
3.90625
 20
18.4933
 11
3.125
 21
19.8464
  0
LINE
  8
0
 10
3.125
 20
52.3224
 11
2.34375
 21
50.9692
  0
LINE
  8
0
 10
2.34375
 20
50.9692
 11
3.90625
 21
50.9692
  0
LINE
  8
0
 10
3.90625
 20
50.9692
 11
3.125
 21
52.3224
  0
LINE
  8
0
 10
3.125
 20
41.497
 11
2.34375
 21
40.1439
  0
LINE
  8
0
 10
2.34375
 20
40.1439
 11
3.90625
 21
40.1439
  0
LINE
  8
0
 10
3.90625
 20
40.1439
 11
3.125
 21
41.497
  0
LINE
  8
0
 10
3.90625
 20
-22.1017
 11
3.125
 21
-23.4549
  0
LINE
  8
0
 10
3.125
 20
-23.4549
 11
4.6875
 21
-23.4549
  0
LINE
  8
0
 10
4.6875
 20
-23.4549
 11
3.90625
 21
-22.1017
  0
LINE
  8
0
 10
3.90625
 20
-24.808
 11
3.125
 21
-26.1612
  0
LINE
  8
0
 10
3.125
 20
-26.1612
 11
4.6875
 21
-26.1612
  0
LINE
  8
0
 10
4.6875
 20
-26.1612
 11
3.90625
 21
-24.808
  0
LINE
  8
0
 10
3.90625
 20
-27.5143
 11
3.125
 21
-28.8675
  0
LINE
  8
0
 10
3.125
 20
-28.8675
 11
4.6875
 21
-28.8675
  0
LINE
  8
0
 10
4.6875
 20
-28.8675
 11
3.90625
 21
-27.5143
  0
LINE
  8
0
 10
3.90625
 20
15.7869
 11
3.125
 21
14.4338
  0
LINE
  8
0
 10
3.125
 20
14.4338
 11
4.6875
 21
14.4338
  0
LINE
  8
0
 10
4.6875
 20
14.4338
 11
3.90625
 21
15.7869
  0
LINE
  8
0
 10
3.90625
 20
40.1439
 11
3.125
 21
38.7907
  0
LINE
  8
0
 10
3.125
 20
38.7907
 11
4.6875
 21
38.7907
  0
LINE
  8
0
 10
4.6875
 20
38.7907
 11
3.90625
 21
40.1439
  0
LINE
  8
0
 10
3.90625
 20
37.4376
 11
3.125
 21
36.0844
  0
LINE
  8
0
 10
3.125
 20
36.0844
 11
4.6875
 21
36.0844
  0
LINE
  8
0
 10
4.6875
 20
36.0844
 11
3.90625
 21
37.4376
  0
LINE
  8
0
 10
3.90625
 20
48.2629
 11
3.125
 21
46.9097
  0
LINE
  8
0
 10
3.125
 20
46.9097
 11
4.6875
 21
46.9097
  0
LINE
  8
0
 10
4.6875
 20
46.9097
 11
3.90625
 21
48.2629
  0
LINE
  8
0
 10
3.90625
 20
50.9692
 11
3.125
 21
49.616
  0
LINE
  8
0
 10
3.125
 20
49.616
 11
4.6875
 21
49.616
  0
LINE
  8
0
 10
4.6875
 20
49.616
 11
3.90625
 21
50.9692
  0
LINE
  8
0
 10
3.90625
 20
42.8502
 11
3.125
 21
41.497
  0
LINE
  8
0
 10
3.125
 20
41.497
 11
4.6875
 21
41.497
  0
LINE
  8
0
 10
4.6875
 20
41.497
 11
3.90625
 21
42.8502
  0
LINE
  8
0
 10
3.90625
 20
21.1996
 11
3.125
 21
19.8464
  0
LINE
  8
0
 10
3.125
 20
19.8464
 11
4.6875
 21
19.8464
  0
LINE
  8
0
 10
4.6875
 20
19.8464
 11
3.90625
 21
21.1996
  0
LINE
  8
0
 10
3.90625
 20
18.4933
 11
3.125
 21
17.1401
  0
LINE
  8
0
 10
3.125
 20
17.1401
 11
4.6875
 21
17.1401
  0
LINE
  8
0
 10
4.6875
 20
17.1401
 11
3.90625
 21
18.4933
  0
LINE
  8
0
 10
4.6875
 20
-20.7485
 11
3.90625
 21
-22.1017
  0
LINE
  8
0
 10
3.90625
 20
-22.1017
 11
5.46875
 21
-22.1017
  0
LINE
  8
0
 10
5.46875
 20
-22.1017
 11
4.6875
 21
-20.7485
  0
LINE
  8
0
 10
4.6875
 20
-26.1612
 11
3.90625
 21
-27.5143
  0
LINE
  8
0
 10
3.90625
 20
-27.5143
 11
5.46875
 21
-27.5143
  0
LINE
  8
0
 10
5.46875
 20
-27.5143
 11
4.6875
 21
-26.1612
  0
LINE
  8
0
 10
4.6875
 20
44.2034
 11
3.90625
 21
42.8502
  0
LINE
  8
0
 10
3.90625
 20
42.8502
 11
5.46875
 21
42.8502
  0
LINE
  8
0
 10
5.46875
 20
42.8502
 11
4.6875
 21
44.2034
  0
LINE
  8
0
 10
4.6875
 20
49.616
 11
3.90625
 21
48.2629
  0
LINE
  8
0
 10
3.90625
 20
48.2629
 11
5.46875
 21
48.2629
  0
LINE
  8
0
 10
5.46875
 20
48.2629
 11
4.6875
 21
49.616
  0
LINE
  8
0
 10
4.6875
 20
22.5527
 11
3.90625
 21
21.1996
  0
LINE
  8
0
 10
3.90625
 20
21.1996
 11
5.46875
 21
21.1996
  0
LINE
  8
0
 10
5.46875
 20
21.1996
 11
4.6875
 21
22.5527
  0
LINE
  8
0
 10
4.6875
 20
17.1401
 11
3.90625
 21
15.7869
  0
LINE
  8
0
 10
3.90625
 20
15.7869
 11
5.46875
 21
15.7869
  0
LINE
  8
0
 10
5.46875
 20
15.7869
 11
4.6875
 21
17.1401
  0
LINE
  8
0
 10
4.6875
 20
38.7907
 11
3.90625
 21
37.4376
  0
LINE
  8
0
 10
3.90625
 20
37.4376
 11
5.46875
 21
37.4376
  0
LINE
  8
0
 10
5.46875
 20
37.4376
 11
4.6875
 21
38.7907
  0
LINE
  8
0
 10
5.46875
 20
15.7869
 11
4.6875
 21
14.4338
  0
LINE
  8
0
 10
4.6875
 20
14.4338
 11
6.25
 21
14.4338
  0
LINE
  8
0
 10
6.25
 20
14.4338
 11
5.46875
 21
15.7869
  0
LINE
  8
0
 10
5.46875
 20
-19.3954
 11
4.6875
 21
-20.7485
  0
LINE
  8
0
 10
4.6875
 20
-20.7485
 11
6.25
 21
-20.7485
  0
LINE
  8
0
 10
6.25
 20
-20.7485
 11
5.46875
 21
-19.3954
  0
LINE
  8
0
 10
5.46875
 20
-22.1017
 11
4.6875
 21
-23.4549
  0
LINE
  8
0
 10
4.6875
 20
-23.4549
 11
6.25
 21
-23.4549
  0
LINE
  8
0
 10
6.25
 20
-23.4549
 11
5.46875
 21
-22.1017
  0
LINE
  8
0
 10
5.46875
 20
-27.5143
 11
4.6875
 21
-28.8675
  0
LINE
  8
0
 10
4.6875
 20
-28.8675
 11
6.25
 21
-28.8675
  0
LINE
  8
0
 10
6.25
 20
-28.8675
 11
5.46875
 21
-27.5143
  0
LINE
  8
0
 10
5.46875
 20
48.2629
 11
4.6875
 21
46.9097
  0
LINE
  8
0
 10
4.6875
 20
46.9097
 11
6.25
 21
46.9097
  0
LINE
  8
0
 10
6.25
 20
46.9097
 11
5.46875
 21
48.2629
  0
LINE
  8
0
 10
5.46875
 20
37.4376
 11
4.6875
 21
36.0844
  0
LINE
  8
0
 10
4.6875
 20
36.0844
 11
6.25
 21
36.0844
  0
LINE
  8
0
 10
6.25
 20
36.0844
 11
5.46875
 21
37.4376
  0
LINE
  8
0
 10
5.46875
 20
42.8502
 11
4.6875
 21
41.497
  0
LINE
  8
0
 10
4.6875
 20
41.497
 11
6.25
 21
41.497
  0
LINE
  8
0
 10
6.25
 20
41.497
 11
5.46875
 21
42.8502
  0
LINE
  8
0
 10
5.46875
 20
45.5565
 11
4.6875
 21
44.2034
  0
LINE
  8
0
 10
4.6875
 20
44.2034
 11
6.25
 21
44.2034
  0
LINE
  8
0
 10
6.25
 20
44.2034
 11
5.46875
 21
45.5565
  0
LINE
  8
0
 10
5.46875
 20
23.9059
 11
4.6875
 21
22.5527
  0
LINE
  8
0
 10
4.6875
 20
22.5527
 11
6.25
 21
22.5527
  0
LINE
  8
0
 10
6.25
 20
22.5527
 11
5.46875
 21
23.9059
  0
LINE
  8
0
 10
5.46875
 20
21.1996
 11
4.6875
 21
19.8464
  0
LINE
  8
0
 10
4.6875
 20
19.8464
 11
6.25
 21
19.8464
  0
LINE
  8
0
 10
6.25
 20
19.8464
 11
5.46875
 21
21.1996
  0
LINE
  8
0
 10
6.25
 20
-18.0422
 11
5.46875
 21
-19.3954
  0
LINE
  8
0
 10
5.46875
 20
-19.3954
 11
7.03125
 21
-19.3954
  0
LINE
  8
0
 10
7.03125
 20
-19.3954
 11
6.25
 21
-18.0422
  0
LINE
  8
0
 10
6.25
 20
46.9097
 11
5.46875
 21
45.5565
  0
LINE
  8
0
 10
5.46875
 20
45.5565
 11
7.03125
 21
45.5565
  0
LINE
  8
0
 10
7.03125
 20
45.5565
 11
6.25
 21
46.9097
  0
LINE
  8
0
 10
6.25
 20
25.2591
 11
5.46875
 21
23.9059
  0
LINE
  8
0
 10
5.46875
 20
23.9059
 11
7.03125
 21
23.9059
  0
LINE
  8
0
 10
7.03125
 20
23.9059
 11
6.25
 21
25.2591
  0
LINE
  8
0
 10
7.03125
 20
-16.689
 11
6.25
 21
-18.0422
  0
LINE
  8
0
 10
6.25
 20
-18.0422
 11
7.8125
 21
-18.0422
  0
LINE
  8
0
 10
7.8125
 20
-18.0422
 11
7.03125
 21
-16.689
  0
LINE
  8
0
 10
7.03125
 20
-27.5143
 11
6.25
 21
-28.8675
  0
LINE
  8
0
 10
6.25
 20
-28.8675
 11
7.8125
 21
-28.8675
  0
LINE
  8
0
 10
7.8125
 20
-28.8675
 11
7.03125
 21
-27.5143
  0
LINE
  8
0
 10
7.03125
 20
-19.3954
 11
6.25
 21
-20.7485
  0
LINE
  8
0
 10
6.25
 20
-20.7485
 11
7.8125
 21
-20.7485
  0
LINE
  8
0
 10
7.8125
 20
-20.7485
 11
7.03125
 21
-19.3954
  0
LINE
  8
0
 10
7.03125
 20
-22.1017
 11
6.25
 21
-23.4549
  0
LINE
  8
0
 10
6.25
 20
-23.4549
 11
7.8125
 21
-23.4549
  0
LINE
  8
0
 10
7.8125
 20
-23.4549
 11
7.03125
 21
-22.1017
  0
LINE
  8
0
 10
7.03125
 20
37.4376
 11
6.25
 21
36.0844
  0
LINE
  8
0
 10
6.25
 20
36.0844
 11
7.8125
 21
36.0844
  0
LINE
  8
0
 10
7.8125
 20
36.0844
 11
7.03125
 21
37.4376
  0
LINE
  8
0
 10
7.03125
 20
42.8502
 11
6.25
 21
41.497
  0
LINE
  8
0
 10
6.25
 20
41.497
 11
7.8125
 21
41.497
  0
LINE
  8
0
 10
7.8125
 20
41.497
 11
7.03125
 21
42.8502
  0
LINE
  8
0
 10
7.03125
 20
45.5565
 11
6.25
 21
44.2034
  0
LINE
  8
0
 10
6.25
 20
44.2034
 11
7.8125
 21
44.2034
  0
LINE
  8
0
 10
7.8125
 20
44.2034
 11
7.03125
 21
45.5565
  0
LINE
  8
0
 10
7.03125
 20
26.6122
 11
6.25
 21
25.2591
  0
LINE
  8
0
 10
6.25
 20
25.2591
 11
7.8125
 21
25.2591
  0
LINE
  8
0
 10
7.8125
 20
25.2591
 11
7.03125
 21
26.6122
  0
LINE
  8
0
 10
7.03125
 20
15.7869
 11
6.25
 21
14.4338
  0
LINE
  8
0
 10
6.25
 20
14.4338
 11
7.8125
 21
14.4338
  0
LINE
  8
0
 10
7.8125
 20
14.4338
 11
7.03125
 21
15.7869
  0
LINE
  8
0
 10
7.03125
 20
23.9059
 11
6.25
 21
22.5527
  0
LINE
  8
0
 10
6.25
 20
22.5527
 11
7.8125
 21
22.5527
  0
LINE
  8
0
 10
7.8125
 20
22.5527
 11
7.03125
 21
23.9059
  0
LINE
  8
0
 10
7.03125
 20
21.1996
 11
6.25
 21
19.8464
  0
LINE
  8
0
 10
6.25
 20
19.8464
 11
7.8125
 21
19.8464
  0
LINE
  8
0
 10
7.8125
 20
19.8464
 11
7.03125
 21
21.1996
  0
LINE
  8
0
 10
7.8125
 20
44.2034
 11
7.03125
 21
42.8502
  0
LINE
  8
0
 10
7.03125
 20
42.8502
 11
8.59375
 21
42.8502
  0
LINE
  8
0
 10
8.59375
 20
42.8502
 11
7.8125
 21
44.2034
  0
LINE
  8
0
 10
7.8125
 20
38.7907
 11
7.03125
 21
37.4376
  0
LINE
  8
0
 10
7.03125
 20
37.4376
 11
8.59375
 21
37.4376
  0
LINE
  8
0
 10
8.59375
 20
37.4376
 11
7.8125
 21
38.7907
  0
LINE
  8
0
 10
7.8125
 20
27.9654
 11
7.03125
 21
26.6122
  0
LINE
  8
0
 10
7.03125
 20
26.6122
 11
8.59375
 21
26.6122
  0
LINE
  8
0
 10
8.59375
 20
26.6122
 11
7.8125
 21
27.9654
  0
LINE
  8
0
 10
7.8125
 20
22.5527
 11
7.03125
 21
21.1996
  0
LINE
  8
0
 10
7.03125
 20
21.1996
 11
8.59375
 21
21.1996
  0
LINE
  8
0
 10
8.59375
 20
21.1996
 11
7.8125
 21
22.5527
  0
LINE
  8
0
 10
7.8125
 20
17.1401
 11
7.03125
 21
15.7869
  0
LINE
  8
0
 10
7.03125
 20
15.7869
 11
8.59375
 21
15.7869
  0
LINE
  8
0
 10
8.59375
 20
15.7869
 11
7.8125
 21
17.1401
  0
LINE
  8
0
 10
7.8125
 20
-15.3359
 11
7.03125
 21
-16.689
  0
LINE
  8
0
 10
7.03125
 20
-16.689
 11
8.59375
 21
-16.689
  0
LINE
  8
0
 10
8.59375
 20
-16.689
 11
7.8125
 21
-15.3359
  0
LINE
  8
0
 10
7.8125
 20
-20.7485
 11
7.03125
 21
-22.1017
  0
LINE
  8
0
 10
7.03125
 20
-22.1017
 11
8.59375
 21
-22.1017
  0
LINE
  8
0
 10
8.59375
 20
-22.1017
 11
7.8125
 21
-20.7485
  0
LINE
  8
0
 10
7.8125
 20
-26.1612
 11
7.03125
 21
-27.5143
  0
LINE
  8
0
 10
7.03125
 20
-27.5143
 11
8.59375
 21
-27.5143
  0
LINE
  8
0
 10
8.59375
 20
-27.5143
 11
7.8125
 21
-26.1612
  0
LINE
  8
0
 10
8.59375
 20
29.3186
 11
7.8125
 21
27.9654
  0
LINE
  8
0
 10
7.8125
 20
27.9654
 11
9.375
 21
27.9654
  0
LINE
  8
0
 10
9.375
 20
27.9654
 11
8.59375
 21
29.3186
  0
LINE
  8
0
 10
8.59375
 20
21.1996
 11
7.8125
 21
19.8464
  0
LINE
  8
0
 10
7.8125
 20
19.8464
 11
9.375
 21
19.8464
  0
LINE
  8
0
 10
9.375
 20
19.8464
 11
8.59375
 21
21.1996
  0
LINE
  8
0
 10
8.59375
 20
26.6122
 11
7.8125
 21
25.2591
  0
LINE
  8
0
 10
7.8125
 20
25.2591
 11
9.375
 21
25.2591
  0
LINE
  8
0
 10
9.375
 20
25.2591
 11
8.59375
 21
26.6122
  0
LINE
  8
0
 10
8.59375
 20
15.7869
 11
7.8125
 21
14.4338
  0
LINE
  8
0
 10
7.8125
 20
14.4338
 11
9.375
 21
14.4338
  0
LINE
  8
0
 10
9.375
 20
14.4338
 11
8.59375
 21
15.7869
  0
LINE
  8
0
 10
8.59375
 20
18.4933
 11
7.8125
 21
17.1401
  0
LINE
  8
0
 10
7.8125
 20
17.1401
 11
9.375
 21
17.1401
  0
LINE
  8
0
 10
9.375
 20
17.1401
 11
8.59375
 21
18.4933
  0
LINE
  8
0
 10
8.59375
 20
42.8502
 11
7.8125
 21
41.497
  0
LINE
  8
0
 10
7.8125
 20
41.497
 11
9.375
 21
41.497
  0
LINE
  8
0
 10
9.375
 20
41.497
 11
8.59375
 21
42.8502
  0
LINE
  8
0
 10
8.59375
 20
40.1439
 11
7.8125
 21
38.7907
  0
LINE
  8
0
 10
7.8125
 20
38.7907
 11
9.375
 21
38.7907
  0
LINE
  8
0
 10
9.375
 20
38.7907
 11
8.59375
 21
40.1439
  0
LINE
  8
0
 10
8.59375
 20
37.4376
 11
7.8125
 21
36.0844
  0
LINE
  8
0
 10
7.8125
 20
36.0844
 11
9.375
 21
36.0844
  0
LINE
  8
0
 10
9.375
 20
36.0844
 11
8.59375
 21
37.4376
  0
LINE
  8
0
 10
8.59375
 20
-22.1017
 11
7.8125
 21
-23.4549
  0
LINE
  8
0
 10
7.8125
 20
-23.4549
 11
9.375
 21
-23.4549
  0
LINE
  8
0
 10
9.375
 20
-23.4549
 11
8.59375
 21
-22.1017
  0
LINE
  8
0
 10
8.59375
 20
-13.9827
 11
7.8125
 21
-15.3359
  0
LINE
  8
0
 10
7.8125
 20
-15.3359
 11
9.375
 21
-15.3359
  0
LINE
  8
0
 10
9.375
 20
-15.3359
 11
8.59375
 21
-13.9827
  0
LINE
  8
0
 10
8.59375
 20
-16.689
 11
7.8125
 21
-18.0422
  0
LINE
  8
0
 10
7.8125
 20
-18.0422
 11
9.375
 21
-18.0422
  0
LINE
  8
0
 10
9.375
 20
-18.0422
 11
8.59375
 21
-16.689
  0
LINE
  8
0
 10
8.59375
 20
-27.5143
 11
7.8125
 21
-28.8675
  0
LINE
  8
0
 10
7.8125
 20
-28.8675
 11
9.375
 21
-28.8675
  0
LINE
  8
0
 10
9.375
 20
-28.8675
 11
8.59375
 21
-27.5143
  0
LINE
  8
0
 10
8.59375
 20
-24.808
 11
7.8125
 21
-26.1612
  0
LINE
  8
0
 10
7.8125
 20
-26.1612
 11
9.375
 21
-26.1612
  0
LINE
  8
0
 10
9.375
 20
-26.1612
 11
8.59375
 21
-24.808
  0
LINE
  8
0
 10
9.375
 20
-23.4549
 11
8.59375
 21
-24.808
  0
LINE
  8
0
 10
8.59375
 20
-24.808
 11
10.1562
 21
-24.808
  0
LINE
  8
0
 10
10.1562
 20
-24.808
 11
9.375
 21
-23.4549
  0
LINE
  8
0
 10
9.375
 20
41.497
 11
8.59375
 21
40.1439
  0
LINE
  8
0
 10
8.59375
 20
40.1439
 11
10.1562
 21
40.1439
  0
LINE
  8
0
 10
10.1562
 20
40.1439
 11
9.375
 21
41.497
  0
LINE
  8
0
 10
9.375
 20
19.8464
 11
8.59375
 21
18.4933
  0
LINE
  8
0
 10
8.59375
 20
18.4933
 11
10.1562
 21
18.4933
  0
LINE
  8
0
 10
10.1562
 20
18.4933
 11
9.375
 21
19.8464
  0
LINE
  8
0
 10
9.375
 20
30.6717
 11
8.59375
 21
29.3186
  0
LINE
  8
0
 10
8.59375
 20
29.3186
 11
10.1562
 21
29.3186
  0
LINE
  8
0
 10
10.1562
 20
29.3186
 11
9.375
 21
30.6717
  0
LINE
  8
0
 10
9.375
 20
-12.6295
 11
8.59375
 21
-13.9827
  0
LINE
  8
0
 10
8.59375
 20
-13.9827
 11
10.1562
 21
-13.9827
  0
LINE
  8
0
 10
10.1562
 20
-13.9827
 11
9.375
 21
-12.6295
  0
LINE
  8
0
 10
10.1562
 20
40.1439
 11
9.375
 21
38.7907
  0
LINE
  8
0
 10
9.375
 20
38.7907
 11
10.9375
 21
38.7907
  0
LINE
  8
0
 10
10.9375
 20
38.7907
 11
10.1562
 21
40.1439
  0
LINE
  8
0
 10
10.1562
 20
37.4376
 11
9.375
 21
36.0844
  0
LINE
  8
0
 10
9.375
 20
36.0844
 11
10.9375
 21
36.0844
  0
LINE
  8
0
 10
10.9375
 20
36.0844
 11
10.1562
 21
37.4376
  0
LINE
  8
0
 10
10.1562
 20
-24.808
 11
9.375
 21
-26.1612
  0
LINE
  8
0
 10
9.375
 20
-26.1612
 11
10.9375
 21
-26.1612
  0
LINE
  8
0
 10
10.9375
 20
-26.1612
 11
10.1562
 21
-24.808
  0
LINE
  8
0
 10
10.1562
 20
-27.5143
 11
9.375
 21
-28.8675
  0
LINE
  8
0
 10
9.375
 20
-28.8675
 11
10.9375
 21
-28.8675
  0
LINE
  8
0
 10
10.9375
 20
-28.8675
 11
10.1562
 21
-27.5143
  0
LINE
  8
0
 10
10.1562
 20
-16.689
 11
9.375
 21
-18.0422
  0
LINE
  8
0
 10
9.375
 20
-18.0422
 11
10.9375
 21
-18.0422
  0
LINE
  8
0
 10
10.9375
 20
-18.0422
 11
10.1562
 21
-16.689
  0
LINE
  8
0
 10
10.1562
 20
-13.9827
 11
9.375
 21
-15.3359
  0
LINE
  8
0
 10
9.375
 20
-15.3359
 11
10.9375
 21
-15.3359
  0
LINE
  8
0
 10
10.9375
 20
-15.3359
 11
10.1562
 21
-13.9827
  0
LINE
  8
0
 10
10.1562
 20
-11.2764
 11
9.375
 21
-12.6295
  0
LINE
  8
0
 10
9.375
 20
-12.6295
 11
10.9375
 21
-12.6295
  0
LINE
  8
0
 10
10.9375
 20
-12.6295
 11
10.1562
 21
-11.2764
  0
LINE
  8
0
 10
10.1562
 20
15.7869
 11
9.375
 21
14.4338
  0
LINE
  8
0
 10
9.375
 20
14.4338
 11
10.9375
 21
14.4338
  0
LINE
  8
0
 10
10.9375
 20
14.4338
 11
10.1562
 21
15.7869
  0
LINE
  8
0
 10
10.1562
 20
18.4933
 11
9.375
 21
17.1401
  0
LINE
  8
0
 10
9.375
 20
17.1401
 11
10.9375
 21
17.1401
  0
LINE
  8
0
 10
10.9375
 20
17.1401
 11
10.1562
 21
18.4933
  0
LINE
  8
0
 10
10.1562
 20
29.3186
 11
9.375
 21
27.9654
  0
LINE
  8
0
 10
9.375
 20
27.9654
 11
10.9375
 21
27.9654
  0
LINE
  8
0
 10
10.9375
 20
27.9654
 11
10.1562
 21
29.3186
  0
LINE
  8
0
 10
10.1562
 20
32.0249
 11
9.375
 21
30.6717
  0
LINE
  8
0
 10
9.375
 20
30.6717
 11
10.9375
 21
30.6717
  0
LINE
  8
0
 10
10.9375
 20
30.6717
 11
10.1562
 21
32.0249
  0
LINE
  8
0
 10
10.1562
 20
26.6122
 11
9.375
 21
25.2591
  0
LINE
  8
0
 10
9.375
 20
25.2591
 11
10.9375
 21
25.2591
  0
LINE
  8
0
 10
10.9375
 20
25.2591
 11
10.1562
 21
26.6122
  0
LINE
  8
0
 10
10.9375
 20
-9.92321
 11
10.1562
 21
-11.2764
  0
LINE
  8
0
 10
10.1562
 20
-11.2764
 11
11.7188
 21
-11.2764
  0
LINE
  8
0
 10
11.7188
 20
-11.2764
 11
10.9375
 21
-9.92321
  0
LINE
  8
0
 10
10.9375
 20
17.1401
 11
10.1562
 21
15.7869
  0
LINE
  8
0
 10
10.1562
 20
15.7869
 11
11.7188
 21
15.7869
  0
LINE
  8
0
 10
11.7188
 20
15.7869
 11
10.9375
 21
17.1401
  0
LINE
  8
0
 10
10.9375
 20
33.3781
 11
10.1562
 21
32.0249
  0
LINE
  8
0
 10
10.1562
 20
32.0249
 11
11.7188
 21
32.0249
  0
LINE
  8
0
 10
11.7188
 20
32.0249
 11
10.9375
 21
33.3781
  0
LINE
  8
0
 10
10.9375
 20
38.7907
 11
10.1562
 21
37.4376
  0
LINE
  8
0
 10
10.1562
 20
37.4376
 11
11.7188
 21
37.4376
  0
LINE
  8
0
 10
11.7188
 20
37.4376
 11
10.9375
 21
38.7907
  0
LINE
  8
0
 10
10.9375
 20
27.9654
 11
10.1562
 21
26.6122
  0
LINE
  8
0
 10
10.1562
 20
26.6122
 11
11.7188
 21
26.6122
  0
LINE
  8
0
 10
11.7188
 20
26.6122
 11
10.9375
 21
27.9654
  0
LINE
  8
0
 10
10.9375
 20
-26.1612
 11
10.1562
 21
-27.5143
  0
LINE
  8
0
 10
10.1562
 20
-27.5143
 11
11.7188
 21
-27.5143
  0
LINE
  8
0
 10
11.7188
 20
-27.5143
 11
10.9375
 21
-26.1612
  0
LINE
  8
0
 10
10.9375
 20
-15.3359
 11
10.1562
 21
-16.689
  0
LINE
  8
0
 10
10.1562
 20
-16.689
 11
11.7188
 21
-16.689
  0
LINE
  8
0
 10
11.7188
 20
-16.689
 11
10.9375
 21
-15.3359
  0
LINE
  8
0
 10
11.7188
 20
-11.2764
 11
10.9375
 21
-12.6295
  0
LINE
  8
0
 10
10.9375
 20
-12.6295
 11
12.5
 21
-12.6295
  0
LINE
  8
0
 10
12.5
 20
-12.6295
 11
11.7188
 21
-11.2764
  0
LINE
  8
0
 10
11.7188
 20
-8.57004
 11
10.9375
 21
-9.92321
  0
LINE
  8
0
 10
10.9375
 20
-9.92321
 11
12.5
 21
-9.92321
  0
LINE
  8
0
 10
12.5
 20
-9.92321
 11
11.7188
 21
-8.57004
  0
LINE
  8
0
 10
11.7188
 20
-16.689
 11
10.9375
 21
-18.0422
  0
LINE
  8
0
 10
10.9375
 20
-18.0422
 11
12.5
 21
-18.0422
  0
LINE
  8
0
 10
12.5
 20
-18.0422
 11
11.7188
 21
-16.689
  0
LINE
  8
0
 10
11.7188
 20
37.4376
 11
10.9375
 21
36.0844
  0
LINE
  8
0
 10
10.9375
 20
36.0844
 11
12.5
 21
36.0844
  0
LINE
  8
0
 10
12.5
 20
36.0844
 11
11.7188
 21
37.4376
  0
LINE
  8
0
 10
11.7188
 20
-27.5143
 11
10.9375
 21
-28.8675
  0
LINE
  8
0
 10
10.9375
 20
-28.8675
 11
12.5
 21
-28.8675
  0
LINE
  8
0
 10
12.5
 20
-28.8675
 11
11.7188
 21
-27.5143
  0
LINE
  8
0
 10
11.7188
 20
15.7869
 11
10.9375
 21
14.4338
  0
LINE
  8
0
 10
10.9375
 20
14.4338
 11
12.5
 21
14.4338
  0
LINE
  8
0
 10
12.5
 20
14.4338
 11
11.7188
 21
15.7869
  0
LINE
  8
0
 10
11.7188
 20
26.6122
 11
10.9375
 21
25.2591
  0
LINE
  8
0
 10
10.9375
 20
25.2591
 11
12.5
 21
25.2591
  0
LINE
  8
0
 10
12.5
 20
25.2591
 11
11.7188
 21
26.6122
  0
LINE
  8
0
 10
11.7188
 20
32.0249
 11
10.9375
 21
30.6717
  0
LINE
  8
0
 10
10.9375
 20
30.6717
 11
12.5
 21
30.6717
  0
LINE
  8
0
 10
12.5
 20
30.6717
 11
11.7188
 21
32.0249
  0
LINE
  8
0
 10
11.7188
 20
34.7312
 11
10.9375
 21
33.3781
  0
LINE
  8
0
 10
10.9375
 20
33.3781
 11
12.5
 21
33.3781
  0
LINE
  8
0
 10
12.5
 20
33.3781
 11
11.7188
 21
34.7312
  0
LINE
  8
0
 10
12.5
 20
-7.21688
 11
11.7188
 21
-8.57004
  0
LINE
  8
0
 10
11.7188
 20
-8.57004
 11
13.2812
 21
-8.57004
  0
LINE
  8
0
 10
13.2812
 20
-8.57004
 11
12.5
 21
-7.21688
  0
LINE
  8
0
 10
12.5
 20
36.0844
 11
11.7188
 21
34.7312
  0
LINE
  8
0
 10
11.7188
 20
34.7312
 11
13.2812
 21
34.7312
  0
LINE
  8
0
 10
13.2812
 20
34.7312
 11
12.5
 21
36.0844
  0
LINE
  8
0
 10
13.2812
 20
-5.86371
 11
12.5
 21
-7.21688
  0
LINE
  8
0
 10
12.5
 20
-7.21688
 11
14.0625
 21
-7.21688
  0
LINE
  8
0
 10
14.0625
 20
-7.21688
 11
13.2812
 21
-5.86371
  0
LINE
  8
0
 10
13.2812
 20
-8.57004
 11
12.5
 21
-9.92321
  0
LINE
  8
0
 10
12.5
 20
-9.92321
 11
14.0625
 21
-9.92321
  0
LINE
  8
0
 10
14.0625
 20
-9.92321
 11
13.2812
 21
-8.57004
  0
LINE
  8
0
 10
13.2812
 20
-11.2764
 11
12.5
 21
-12.6295
  0
LINE
  8
0
 10
12.5
 20
-12.6295
 11
14.0625
 21
-12.6295
  0
LINE
  8
0
 10
14.0625
 20
-12.6295
 11
13.2812
 21
-11.2764
  0
LINE
  8
0
 10
13.2812
 20
-16.689
 11
12.5
 21
-18.0422
  0
LINE
  8
0
 10
12.5
 20
-18.0422
 11
14.0625
 21
-18.0422
  0
LINE
  8
0
 10
14.0625
 20
-18.0422
 11
13.2812
 21
-16.689
  0
LINE
  8
0
 10
13.2812
 20
15.7869
 11
12.5
 21
14.4338
  0
LINE
  8
0
 10
12.5
 20
14.4338
 11
14.0625
 21
14.4338
  0
LINE
  8
0
 10
14.0625
 20
14.4338
 11
13.2812
 21
15.7869
  0
LINE
  8
0
 10
13.2812
 20
34.7312
 11
12.5
 21
33.3781
  0
LINE
  8
0
 10
12.5
 20
33.3781
 11
14.0625
 21
33.3781
  0
LINE
  8
0
 10
14.0625
 20
33.3781
 11
13.2812
 21
34.7312
  0
LINE
  8
0
 10
13.2812
 20
32.0249
 11
12.5
 21
30.6717
  0
LINE
  8
0
 10
12.5
 20
30.6717
 11
14.0625
 21
30.6717
  0
LINE
  8
0
 10
14.0625
 20
30.6717
 11
13.2812
 21
32.0249
  0
LINE
  8
0
 10
13.2812
 20
26.6122
 11
12.5
 21
25.2591
  0
LINE
  8
0
 10
12.5
 20
25.2591
 11
14.0625
 21
25.2591
  0
LINE
  8
0
 10
14.0625
 20
25.2591
 11
13.2812
 21
26.6122
  0
LINE
  8
0
 10
13.2812
 20
-27.5143
 11
12.5
 21
-28.8675
  0
LINE
  8
0
 10
12.5
 20
-28.8675
 11
14.0625
 21
-28.8675
  0
LINE
  8
0
 10
14.0625
 20
-28.8675
 11
13.2812
 21
-27.5143
  0
LINE
  8
0
 10
14.0625
 20
27.9654
 11
13.2812
 21
26.6122
  0
LINE
  8
0
 10
13.2812
 20
26.6122
 11
14.8438
 21
26.6122
  0
LINE
  8
0
 10
14.8438
 20
26.6122
 11
14.0625
 21
27.9654
  0
LINE
  8
0
 10
14.0625
 20
17.1401
 11
13.2812
 21
15.7869
  0
LINE
  8
0
 10
13.2812
 20
15.7869
 11
14.8438
 21
15.7869
  0
LINE
  8
0
 10
14.8438
 20
15.7869
 11
14.0625
 21
17.1401
  0
LINE
  8
0
 10
14.0625
 20
33.3781
 11
13.2812
 21
32.0249
  0
LINE
  8
0
 10
13.2812
 20
32.0249
 11
14.8438
 21
32.0249
  0
LINE
  8
0
 10
14.8438
 20
32.0249
 11
14.0625
 21
33.3781
  0
LINE
  8
0
 10
14.0625
 20
-4.51055
 11
13.2812
 21
-5.86371
  0
LINE
  8
0
 10
13.2812
 20
-5.86371
 11
14.8438
 21
-5.86371
  0
LINE
  8
0
 10
14.8438
 20
-5.86371
 11
14.0625
 21
-4.51055
  0
LINE
  8
0
 10
14.0625
 20
-9.92321
 11
13.2812
 21
-11.2764
  0
LINE
  8
0
 10
13.2812
 20
-11.2764
 11
14.8438
 21
-11.2764
  0
LINE
  8
0
 10
14.8438
 20
-11.2764
 11
14.0625
 21
-9.92321
  0
LINE
  8
0
 10
14.0625
 20
-15.3359
 11
13.2812
 21
-16.689
  0
LINE
  8
0
 10
13.2812
 20
-16.689
 11
14.8438
 21
-16.689
  0
LINE
  8
0
 10
14.8438
 20
-16.689
 11
14.0625
 21
-15.3359
  0
LINE
  8
0
 10
14.0625
 20
-26.1612
 11
13.2812
 21
-27.5143
  0
LINE
  8
0
 10
13.2812
 20
-27.5143
 11
14.8438
 21
-27.5143
  0
LINE
  8
0
 10
14.8438
 20
-27.5143
 11
14.0625
 21
-26.1612
  0
LINE
  8
0
 10
14.8438
 20
18.4933
 11
14.0625
 21
17.1401
  0
LINE
  8
0
 10
14.0625
 20
17.1401
 11
15.625
 21
17.1401
  0
LINE
  8
0
 10
15.625
 20
17.1401
 11
14.8438
 21
18.4933
  0
LINE
  8
0
 10
14.8438
 20
15.7869
 11
14.0625
 21
14.4338
  0
LINE
  8
0
 10
14.0625
 20
14.4338
 11
15.625
 21
14.4338
  0
LINE
  8
0
 10
15.625
 20
14.4338
 11
14.8438
 21
15.7869
  0
LINE
  8
0
 10
14.8438
 20
26.6122
 11
14.0625
 21
25.2591
  0
LINE
  8
0
 10
14.0625
 20
25.2591
 11
15.625
 21
25.2591
  0
LINE
  8
0
 10
15.625
 20
25.2591
 11
14.8438
 21
26.6122
  0
LINE
  8
0
 10
14.8438
 20
29.3186
 11
14.0625
 21
27.9654
  0
LINE
  8
0
 10
14.0625
 20
27.9654
 11
15.625
 21
27.9654
  0
LINE
  8
0
 10
15.625
 20
27.9654
 11
14.8438
 21
29.3186
  0
LINE
  8
0
 10
14.8438
 20
32.0249
 11
14.0625
 21
30.6717
  0
LINE
  8
0
 10
14.0625
 20
30.6717
 11
15.625
 21
30.6717
  0
LINE
  8
0
 10
15.625
 20
30.6717
 11
14.8438
 21
32.0249
  0
LINE
  8
0
 10
14.8438
 20
-3.15738
 11
14.0625
 21
-4.51055
  0
LINE
  8
0
 10
14.0625
 20
-4.51055
 11
15.625
 21
-4.51055
  0
LINE
  8
0
 10
15.625
 20
-4.51055
 11
14.8438
 21
-3.15738
  0
LINE
  8
0
 10
14.8438
 20
-5.86371
 11
14.0625
 21
-7.21688
  0
LINE
  8
0
 10
14.0625
 20
-7.21688
 11
15.625
 21
-7.21688
  0
LINE
  8
0
 10
15.625
 20
-7.21688
 11
14.8438
 21
-5.86371
  0
LINE
  8
0
 10
14.8438
 20
-11.2764
 11
14.0625
 21
-12.6295
  0
LINE
  8
0
 10
14.0625
 20
-12.6295
 11
15.625
 21
-12.6295
  0
LINE
  8
0
 10
15.625
 20
-12.6295
 11
14.8438
 21
-11.2764
  0
LINE
  8
0
 10
14.8438
 20
-13.9827
 11
14.0625
 21
-15.3359
  0
LINE
  8
0
 10
14.0625
 20
-15.3359
 11
15.625
 21
-15.3359
  0
LINE
  8
0
 10
15.625
 20
-15.3359
 11
14.8438
 21
-13.9827
  0
LINE
  8
0
 10
14.8438
 20
-16.689
 11
14.0625
 21
-18.0422
  0
LINE
  8
0
 10
14.0625
 20
-18.0422
 11
15.625
 21
-18.0422
  0
LINE
  8
0
 10
15.625
 20
-18.0422
 11
14.8438
 21
-16.689
  0
LINE
  8
0
 10
14.8438
 20
-27.5143
 11
14.0625
 21
-28.8675
  0
LINE
  8
0
 10
14.0625
 20
-28.8675
 11
15.625
 21
-28.8675
  0
LINE
  8
0
 10
15.625
 20
-28.8675
 11
14.8438
 21
-27.5143
  0
LINE
  8
0
 10
14.8438
 20
-24.808
 11
14.0625
 21
-26.1612
  0
LINE
  8
0
 10
14.0625
 20
-26.1612
 11
15.625
 21
-26.1612
  0
LINE
  8
0
 10
15.625
 20
-26.1612
 11
14.8438
 21
-24.808
  0
LINE
  8
0
 10
15.625
 20
19.8464
 11
14.8438
 21
18.4933
  0
LINE
  8
0
 10
14.8438
 20
18.4933
 11
16.4062
 21
18.4933
  0
LINE
  8
0
 10
16.4062
 20
18.4933
 11
15.625
 21
19.8464
  0
LINE
  8
0
 10
15.625
 20
30.6717
 11
14.8438
 21
29.3186
  0
LINE
  8
0
 10
14.8438
 20
29.3186
 11
16.4062
 21
29.3186
  0
LINE
  8
0
 10
16.4062
 20
29.3186
 11
15.625
 21
30.6717
  0
LINE
  8
0
 10
15.625
 20
-1.80422
 11
14.8438
 21
-3.15738
  0
LINE
  8
0
 10
14.8438
 20
-3.15738
 11
16.4062
 21
-3.15738
  0
LINE
  8
0
 10
16.4062
 20
-3.15738
 11
15.625
 21
-1.80422
  0
LINE
  8
0
 10
15.625
 20
-12.6295
 11
14.8438
 21
-13.9827
  0
LINE
  8
0
 10
14.8438
 20
-13.9827
 11
16.4062
 21
-13.9827
  0
LINE
  8
0
 10
16.4062
 20
-13.9827
 11
15.625
 21
-12.6295
  0
LINE
  8
0
 10
15.625
 20
-23.4549
 11
14.8438
 21
-24.808
  0
LINE
  8
0
 10
14.8438
 20
-24.808
 11
16.4062
 21
-24.808
  0
LINE
  8
0
 10
16.4062
 20
-24.808
 11
15.625
 21
-23.4549
  0
LINE
  8
0
 10
16.4062
 20
-3.15738
 11
15.625
 21
-4.51055
  0
LINE
  8
0
 10
15.625
 20
-4.51055
 11
17.1875
 21
-4.51055
  0
LINE
  8
0
 10
17.1875
 20
-4.51055
 11
16.4062
 21
-3.15738
  0
LINE
  8
0
 10
16.4062
 20
-0.451055
 11
15.625
 21
-1.80422
  0
LINE
  8
0
 10
15.625
 20
-1.80422
 11
17.1875
 21
-1.80422
  0
LINE
  8
0
 10
17.1875
 20
-1.80422
 11
16.4062
 21
-0.451055
  0
LINE
  8
0
 10
16.4062
 20
26.6122
 11
15.625
 21
25.2591
  0
LINE
  8
0
 10
15.625
 20
25.2591
 11
17.1875
 21
25.2591
  0
LINE
  8
0
 10
17.1875
 20
25.2591
 11
16.4062
 21
26.6122
  0
LINE
  8
0
 10
16.4062
 20
15.7869
 11
15.625
 21
14.4338
  0
LINE
  8
0
 10
15.625
 20
14.4338
 11
17.1875
 21
14.4338
  0
LINE
  8
0
 10
17.1875
 20
14.4338
 11
16.4062
 21
15.7869
  0
LINE
  8
0
 10
16.4062
 20
18.4933
 11
15.625
 21
17.1401
  0
LINE
  8
0
 10
15.625
 20
17.1401
 11
17.1875
 21
17.1401
  0
LINE
  8
0
 10
17.1875
 20
17.1401
 11
16.4062
 21
18.4933
  0
LINE
  8
0
 10
16.4062
 20
-5.86371
 11
15.625
 21
-7.21688
  0
LINE
  8
0
 10
15.625
 20
-7.21688
 11
17.1875
 21
-7.21688
  0
LINE
  8
0
 10
17.1875
 20
-7.21688
 11
16.4062
 21
-5.86371
  0
LINE
  8
0
 10
16.4062
 20
21.1996
 11
15.625
 21
19.8464
  0
LINE
  8
0
 10
15.625
 20
19.8464
 11
17.1875
 21
19.8464
  0
LINE
  8
0
 10
17.1875
 20
19.8464
 11
16.4062
 21
21.1996
  0
LINE
  8
0
 10
16.4062
 20
-24.808
 11
15.625
 21
-26.1612
  0
LINE
  8
0
 10
15.625
 20
-26.1612
 11
17.1875
 21
-26.1612
  0
LINE
  8
0
 10
17.1875
 20
-26.1612
 11
16.4062
 21
-24.808
  0
LINE
  8
0
 10
16.4062
 20
-27.5143
 11
15.625
 21
-28.8675
  0
LINE
  8
0
 10
15.625
 20
-28.8675
 11
17.1875
 21
-28.8675
  0
LINE
  8
0
 10
17.1875
 20
-28.8675
 11
16.4062
 21
-27.5143
  0
LINE
  8
0
 10
16.4062
 20
-16.689
 11
15.625
 21
-18.0422
  0
LINE
  8
0
 10
15.625
 20
-18.0422
 11
17.1875
 21
-18.0422
  0
LINE
  8
0
 10
17.1875
 20
-18.0422
 11
16.4062
 21
-16.689
  0
LINE
  8
0
 10
16.4062
 20
-13.9827
 11
15.625
 21
-15.3359
  0
LINE
  8
0
 10
15.625
 20
-15.3359
 11
17.1875
 21
-15.3359
  0
LINE
  8
0
 10
17.1875
 20
-15.3359
 11
16.4062
 21
-13.9827
  0
LINE
  8
0
 10
16.4062
 20
-22.1017
 11
15.625
 21
-23.4549
  0
LINE
  8
0
 10
15.625
 20
-23.4549
 11
17.1875
 21
-23.4549
  0
LINE
  8
0
 10
17.1875
 20
-23.4549
 11
16.4062
 21
-22.1017
  0
LINE
  8
0
 10
16.4062
 20
29.3186
 11
15.625
 21
27.9654
  0
LINE
  8
0
 10
15.625
 20
27.9654
 11
17.1875
 21
27.9654
  0
LINE
  8
0
 10
17.1875
 20
27.9654
 11
16.4062
 21
29.3186
  0
LINE
  8
0
 10
17.1875
 20
-20.7485
 11
16.4062
 21
-22.1017
  0
LINE
  8
0
 10
16.4062
 20
-22.1017
 11
17.9688
 21
-22.1017
  0
LINE
  8
0
 10
17.9688
 20
-22.1017
 11
17.1875
 21
-20.7485
  0
LINE
  8
0
 10
17.1875
 20
0.902109
 11
16.4062
 21
-0.451055
  0
LINE
  8
0
 10
16.4062
 20
-0.451055
 11
17.9688
 21
-0.451055
  0
LINE
  8
0
 10
17.9688
 20
-0.451055
 11
17.1875
 21
0.902109
  0
LINE
  8
0
 10
17.1875
 20
-26.1612
 11
16.4062
 21
-27.5143
  0
LINE
  8
0
 10
16.4062
 20
-27.5143
 11
17.9688
 21
-27.5143
  0
LINE
  8
0
 10
17.9688
 20
-27.5143
 11
17.1875
 21
-26.1612
  0
LINE
  8
0
 10
17.1875
 20
-15.3359
 11
16.4062
 21
-16.689
  0
LINE
  8
0
 10
16.4062
 20
-16.689
 11
17.9688
 21
-16.689
  0
LINE
  8
0
 10
17.9688
 20
-16.689
 11
17.1875
 21
-15.3359
  0
LINE
  8
0
 10
17.1875
 20
17.1401
 11
16.4062
 21
15.7869
  0
LINE
  8
0
 10
16.4062
 20
15.7869
 11
17.9688
 21
15.7869
  0
LINE
  8
0
 10
17.9688
 20
15.7869
 11
17.1875
 21
17.1401
  0
LINE
  8
0
 10
17.1875
 20
22.5527
 11
16.4062
 21
21.1996
  0
LINE
  8
0
 10
16.4062
 20
21.1996
 11
17.9688
 21
21.1996
  0
LINE
  8
0
 10
17.9688
 20
21.1996
 11
17.1875
 21
22.5527
  0
LINE
  8
0
 10
17.1875
 20
27.9654
 11
16.4062
 21
26.6122
  0
LINE
  8
0
 10
16.4062
 20
26.6122
 11
17.9688
 21
26.6122
  0
LINE
  8
0
 10
17.9688
 20
26.6122
 11
17.1875
 21
27.9654
  0
LINE
  8
0
 10
17.1875
 20
-4.51055
 11
16.4062
 21
-5.86371
  0
LINE
  8
0
 10
16.4062
 20
-5.86371
 11
17.9688
 21
-5.86371
  0
LINE
  8
0
 10
17.9688
 20
-5.86371
 11
17.1875
 21
-4.51055
  0
LINE
  8
0
 10
17.9688
 20
-22.1017
 11
17.1875
 21
-23.4549
  0
LINE
  8
0
 10
17.1875
 20
-23.4549
 11
18.75
 21
-23.4549
  0
LINE
  8
0
 10
18.75
 20
-23.4549
 11
17.9688
 21
-22.1017
  0
LINE
  8
0
 10
17.9688
 20
-27.5143
 11
17.1875
 21
-28.8675
  0
LINE
  8
0
 10
17.1875
 20
-28.8675
 11
18.75
 21
-28.8675
  0
LINE
  8
0
 10
18.75
 20
-28.8675
 11
17.9688
 21
-27.5143
  0
LINE
  8
0
 10
17.9688
 20
-16.689
 11
17.1875
 21
-18.0422
  0
LINE
  8
0
 10
17.1875
 20
-18.0422
 11
18.75
 21
-18.0422
  0
LINE
  8
0
 10
18.75
 20
-18.0422
 11
17.9688
 21
-16.689
  0
LINE
  8
0
 10
17.9688
 20
-19.3954
 11
17.1875
 21
-20.7485
  0
LINE
  8
0
 10
17.1875
 20
-20.7485
 11
18.75
 21
-20.7485
  0
LINE
  8
0
 10
18.75
 20
-20.7485
 11
17.9688
 21
-19.3954
  0
LINE
  8
0
 10
17.9688
 20
-5.86371
 11
17.1875
 21
-7.21688
  0
LINE
  8
0
 10
17.1875
 20
-7.21688
 11
18.75
 21
-7.21688
  0
LINE
  8
0
 10
18.75
 20
-7.21688
 11
17.9688
 21
-5.86371
  0
LINE
  8
0
 10
17.9688
 20
-0.451055
 11
17.1875
 21
-1.80422
  0
LINE
  8
0
 10
17.1875
 20
-1.80422
 11
18.75
 21
-1.80422
  0
LINE
  8
0
 10
18.75
 20
-1.80422
 11
17.9688
 21
-0.451055
  0
LINE
  8
0
 10
17.9688
 20
2.25527
 11
17.1875
 21
0.902109
  0
LINE
  8
0
 10
17.1875
 20
0.902109
 11
18.75
 21
0.902109
  0
LINE
  8
0
 10
18.75
 20
0.902109
 11
17.9688
 21
2.25527
  0
LINE
  8
0
 10
17.9688
 20
26.6122
 11
17.1875
 21
25.2591
  0
LINE
  8
0
 10
17.1875
 20
25.2591
 11
18.75
 21
25.2591
  0
LINE
  8
0
 10
18.75
 20
25.2591
 11
17.9688
 21
26.6122
  0
LINE
  8
0
 10
17.9688
 20
15.7869
 11
17.1875
 21
14.4338
  0
LINE
  8
0
 10
17.1875
 20
14.4338
 11
18.75
 21
14.4338
  0
LINE
  8
0
 10
18.75
 20
14.4338
 11
17.9688
 21
15.7869
  0
LINE
  8
0
 10
17.9688
 20
21.1996
 11
17.1875
 21
19.8464
  0
LINE
  8
0
 10
17.1875
 20
19.8464
 11
18.75
 21
19.8464
  0
LINE
  8
0
 10
18.75
 20
19.8464
 11
17.9688
 21
21.1996
  0
LINE
  8
0
 10
17.9688
 20
23.9059
 11
17.1875
 21
22.5527
  0
LINE
  8
0
 10
17.1875
 20
22.5527
 11
18.75
 21
22.5527
  0
LINE
  8
0
 10
18.75
 20
22.5527
 11
17.9688
 21
23.9059
  0
LINE
  8
0
 10
18.75
 20
-18.0422
 11
17.9688
 21
-19.3954
  0
LINE
  8
0
 10
17.9688
 20
-19.3954
 11
19.5312
 21
-19.3954
  0
LINE
  8
0
 10
19.5312
 20
-19.3954
 11
18.75
 21
-18.0422
  0
LINE
  8
0
 10
18.75
 20
3.60844
 11
17.9688
 21
2.25527
  0
LINE
  8
0
 10
17.9688
 20
2.25527
 11
19.5312
 21
2.25527
  0
LINE
  8
0
 10
19.5312
 20
2.25527
 11
18.75
 21
3.60844
  0
LINE
  8
0
 10
18.75
 20
25.2591
 11
17.9688
 21
23.9059
  0
LINE
  8
0
 10
17.9688
 20
23.9059
 11
19.5312
 21
23.9059
  0
LINE
  8
0
 10
19.5312
 20
23.9059
 11
18.75
 21
25.2591
  0
LINE
  8
0
 10
19.5312
 20
-22.1017
 11
18.75
 21
-23.4549
  0
LINE
  8
0
 10
18.75
 20
-23.4549
 11
20.3125
 21
-23.4549
  0
LINE
  8
0
 10
20.3125
 20
-23.4549
 11
19.5312
 21
-22.1017
  0
LINE
  8
0
 10
19.5312
 20
-5.86371
 11
18.75
 21
-7.21688
  0
LINE
  8
0
 10
18.75
 20
-7.21688
 11
20.3125
 21
-7.21688
  0
LINE
  8
0
 10
20.3125
 20
-7.21688
 11
19.5312
 21
-5.86371
  0
LINE
  8
0
 10
19.5312
 20
-0.451055
 11
18.75
 21
-1.80422
  0
LINE
  8
0
 10
18.75
 20
-1.80422
 11
20.3125
 21
-1.80422
  0
LINE
  8
0
 10
20.3125
 20
-1.80422
 11
19.5312
 21
-0.451055
  0
LINE
  8
0
 10
19.5312
 20
2.25527
 11
18.75
 21
0.902109
  0
LINE
  8
0
 10
18.75
 20
0.902109
 11
20.3125
 21
0.902109
  0
LINE
  8
0
 10
20.3125
 20
0.902109
 11
19.5312
 21
2.25527
  0
LINE
  8
0
 10
19.5312
 20
4.9616
 11
18.75
 21
3.60844
  0
LINE
  8
0
 10
18.75
 20
3.60844
 11
20.3125
 21
3.60844
  0
LINE
  8
0
 10
20.3125
 20
3.60844
 11
19.5312
 21
4.9616
  0
LINE
  8
0
 10
19.5312
 20
-19.3954
 11
18.75
 21
-20.7485
  0
LINE
  8
0
 10
18.75
 20
-20.7485
 11
20.3125
 21
-20.7485
  0
LINE
  8
0
 10
20.3125
 20
-20.7485
 11
19.5312
 21
-19.3954
  0
LINE
  8
0
 10
19.5312
 20
15.7869
 11
18.75
 21
14.4338
  0
LINE
  8
0
 10
18.75
 20
14.4338
 11
20.3125
 21
14.4338
  0
LINE
  8
0
 10
20.3125
 20
14.4338
 11
19.5312
 21
15.7869
  0
LINE
  8
0
 10
19.5312
 20
-27.5143
 11
18.75
 21
-28.8675
  0
LINE
  8
0
 10
18.75
 20
-28.8675
 11
20.3125
 21
-28.8675
  0
LINE
  8
0
 10
20.3125
 20
-28.8675
 11
19.5312
 21
-27.5143
  0
LINE
  8
0
 10
19.5312
 20
21.1996
 11
18.75
 21
19.8464
  0
LINE
  8
0
 10
18.75
 20
19.8464
 11
20.3125
 21
19.8464
  0
LINE
  8
0
 10
20.3125
 20
19.8464
 11
19.5312
 21
21.1996
  0
LINE
  8
0
 10
19.5312
 20
23.9059
 11
18.75
 21
22.5527
  0
LINE
  8
0
 10
18.75
 20
22.5527
 11
20.3125
 21
22.5527
  0
LINE
  8
0
 10
20.3125
 20
22.5527
 11
19.5312
 21
23.9059
  0
LINE
  8
0
 10
20.3125
 20
-20.7485
 11
19.5312
 21
-22.1017
  0
LINE
  8
0
 10
19.5312
 20
-22.1017
 11
21.0938
 21
-22.1017
  0
LINE
  8
0
 10
21.0938
 20
-22.1017
 11
20.3125
 21
-20.7485
  0
LINE
  8
0
 10
20.3125
 20
0.902109
 11
19.5312
 21
-0.451055
  0
LINE
  8
0
 10
19.5312
 20
-0.451055
 11
21.0938
 21
-0.451055
  0
LINE
  8
0
 10
21.0938
 20
-0.451055
 11
20.3125
 21
0.902109
  0
LINE
  8
0
 10
20.3125
 20
-4.51055
 11
19.5312
 21
-5.86371
  0
LINE
  8
0
 10
19.5312
 20
-5.86371
 11
21.0938
 21
-5.86371
  0
LINE
  8
0
 10
21.0938
 20
-5.86371
 11
20.3125
 21
-4.51055
  0
LINE
  8
0
 10
20.3125
 20
6.31477
 11
19.5312
 21
4.9616
  0
LINE
  8
0
 10
19.5312
 20
4.9616
 11
21.0938
 21
4.9616
  0
LINE
  8
0
 10
21.0938
 20
4.9616
 11
20.3125
 21
6.31477
  0
LINE
  8
0
 10
20.3125
 20
-26.1612
 11
19.5312
 21
-27.5143
  0
LINE
  8
0
 10
19.5312
 20
-27.5143
 11
21.0938
 21
-27.5143
  0
LINE
  8
0
 10
21.0938
 20
-27.5143
 11
20.3125
 21
-26.1612
  0
LINE
  8
0
 10
20.3125
 20
17.1401
 11
19.5312
 21
15.7869
  0
LINE
  8
0
 10
19.5312
 20
15.7869
 11
21.0938
 21
15.7869
  0
LINE
  8
0
 10
21.0938
 20
15.7869
 11
20.3125
 21
17.1401
  0
LINE
  8
0
 10
20.3125
 20
22.5527
 11
19.5312
 21
21.1996
  0
LINE
  8
0
 10
19.5312
 20
21.1996
 11
21.0938
 21
21.1996
  0
LINE
  8
0
 10
21.0938
 20
21.1996
 11
20.3125
 21
22.5527
  0
LINE
  8
0
 10
21.0938
 20
-0.451055
 11
20.3125
 21
-1.80422
  0
LINE
  8
0
 10
20.3125
 20
-1.80422
 11
21.875
 21
-1.80422
  0
LINE
  8
0
 10
21.875
 20
-1.80422
 11
21.0938
 21
-0.451055
  0
LINE
  8
0
 10
21.0938
 20
21.1996
 11
20.3125
 21
19.8464
  0
LINE
  8
0
 10
20.3125
 20
19.8464
 11
21.875
 21
19.8464
  0
LINE
  8
0
 10
21.875
 20
19.8464
 11
21.0938
 21
21.1996
  0
LINE
  8
0
 10
21.0938
 20
18.4933
 11
20.3125
 21
17.1401
  0
LINE
  8
0
 10
20.3125
 20
17.1401
 11
21.875
 21
17.1401
  0
LINE
  8
0
 10
21.875
 20
17.1401
 11
21.0938
 21
18.4933
  0
LINE
  8
0
 10
21.0938
 20
15.7869
 11
20.3125
 21
14.4338
  0
LINE
  8
0
 10
20.3125
 20
14.4338
 11
21.875
 21
14.4338
  0
LINE
  8
0
 10
21.875
 20
14.4338
 11
21.0938
 21
15.7869
  0
LINE
  8
0
 10
21.0938
 20
7.66793
 11
20.3125
 21
6.31477
  0
LINE
  8
0
 10
20.3125
 20
6.31477
 11
21.875
 21
6.31477
  0
LINE
  8
0
 10
21.875
 20
6.31477
 11
21.0938
 21
7.66793
  0
LINE
  8
0
 10
21.0938
 20
4.9616
 11
20.3125
 21
3.60844
  0
LINE
  8
0
 10
20.3125
 20
3.60844
 11
21.875
 21
3.60844
  0
LINE
  8
0
 10
21.875
 20
3.60844
 11
21.0938
 21
4.9616
  0
LINE
  8
0
 10
21.0938
 20
-5.86371
 11
20.3125
 21
-7.21688
  0
LINE
  8
0
 10
20.3125
 20
-7.21688
 11
21.875
 21
-7.21688
  0
LINE
  8
0
 10
21.875
 20
-7.21688
 11
21.0938
 21
-5.86371
  0
LINE
  8
0
 10
21.0938
 20
-3.15738
 11
20.3125
 21
-4.51055
  0
LINE
  8
0
 10
20.3125
 20
-4.51055
 11
21.875
 21
-4.51055
  0
LINE
  8
0
 10
21.875
 20
-4.51055
 11
21.0938
 21
-3.15738
  0
LINE
  8
0
 10
21.0938
 20
-22.1017
 11
20.3125
 21
-23.4549
  0
LINE
  8
0
 10
20.3125
 20
-23.4549
 11
21.875
 21
-23.4549
  0
LINE
  8
0
 10
21.875
 20
-23.4549
 11
21.0938
 21
-22.1017
  0
LINE
  8
0
 10
21.0938
 20
-24.808
 11
20.3125
 21
-26.1612
  0
LINE
  8
0
 10
20.3125
 20
-26.1612
 11
21.875
 21
-26.1612
  0
LINE
  8
0
 10
21.875
 20
-26.1612
 11
21.0938
 21
-24.808
  0
LINE
  8
0
 10
21.0938
 20
-27.5143
 11
20.3125
 21
-28.8675
  0
LINE
  8
0
 10
20.3125
 20
-28.8675
 11
21.875
 21
-28.8675
  0
LINE
  8
0
 10
21.875
 20
-28.8675
 11
21.0938
 21
-27.5143
  0
LINE
  8
0
 10
21.875
 20
19.8464
 11
21.0938
 21
18.4933
  0
LINE
  8
0
 10
21.0938
 20
18.4933
 11
22.6562
 21
18.4933
  0
LINE
  8
0
 10
22.6562
 20
18.4933
 11
21.875
 21
19.8464
  0
LINE
  8
0
 10
21.875
 20
9.0211
 11
21.0938
 21
7.66793
  0
LINE
  8
0
 10
21.0938
 20
7.66793
 11
22.6562
 21
7.66793
  0
LINE
  8
0
 10
22.6562
 20
7.66793
 11
21.875
 21
9.0211
  0
LINE
  8
0
 10
21.875
 20
-1.80422
 11
21.0938
 21
-3.15738
  0
LINE
  8
0
 10
21.0938
 20
-3.15738
 11
22.6562
 21
-3.15738
  0
LINE
  8
0
 10
22.6562
 20
-3.15738
 11
21.875
 21
-1.80422
  0
LINE
  8
0
 10
21.875
 20
-23.4549
 11
21.0938
 21
-24.808
  0
LINE
  8
0
 10
21.0938
 20
-24.808
 11
22.6562
 21
-24.808
  0
LINE
  8
0
 10
22.6562
 20
-24.808
 11
21.875
 21
-23.4549
  0
LINE
  8
0
 10
22.6562
 20
18.4933
 11
21.875
 21
17.1401
  0
LINE
  8
0
 10
21.875
 20
17.1401
 11
23.4375
 21
17.1401
  0
LINE
  8
0
 10
23.4375
 20
17.1401
 11
22.6562
 21
18.4933
  0
LINE
  8
0
 10
22.6562
 20
15.7869
 11
21.875
 21
14.4338
  0
LINE
  8
0
 10
21.875
 20
14.4338
 11
23.4375
 21
14.4338
  0
LINE
  8
0
 10
23.4375
 20
14.4338
 11
22.6562
 21
15.7869
  0
LINE
  8
0
 10
22.6562
 20
10.3743
 11
21.875
 21
9.0211
  0
LINE
  8
0
 10
21.875
 20
9.0211
 11
23.4375
 21
9.0211
  0
LINE
  8
0
 10
23.4375
 20
9.0211
 11
22.6562
 21
10.3743
  0
LINE
  8
0
 10
22.6562
 20
7.66793
 11
21.875
 21
6.31477
  0
LINE
  8
0
 10
21.875
 20
6.31477
 11
23.4375
 21
6.31477
  0
LINE
  8
0
 10
23.4375
 20
6.31477
 11
22.6562
 21
7.66793
  0
LINE
  8
0
 10
22.6562
 20
4.9616
 11
21.875
 21
3.60844
  0
LINE
  8
0
 10
21.875
 20
3.60844
 11
23.4375
 21
3.60844
  0
LINE
  8
0
 10
23.4375
 20
3.60844
 11
22.6562
 21
4.9616
  0
LINE
  8
0
 10
22.6562
 20
-5.86371
 11
21.875
 21
-7.21688
  0
LINE
  8
0
 10
21.875
 20
-7.21688
 11
23.4375
 21
-7.21688
  0
LINE
  8
0
 10
23.4375
 20
-7.21688
 11
22.6562
 21
-5.86371
  0
LINE
  8
0
 10
22.6562
 20
-27.5143
 11
21.875
 21
-28.8675
  0
LINE
  8
0
 10
21.875
 20
-28.8675
 11
23.4375
 21
-28.8675
  0
LINE
  8
0
 10
23.4375
 20
-28.8675
 11
22.6562
 21
-27.5143
  0
LINE
  8
0
 10
22.6562
 20
-24.808
 11
21.875
 21
-26.1612
  0
LINE
  8
0
 10
21.875
 20
-26.1612
 11
23.4375
 21
-26.1612
  0
LINE
  8
0
 10
23.4375
 20
-26.1612
 11
22.6562
 21
-24.808
  0
LINE
  8
0
 10
22.6562
 20
-3.15738
 11
21.875
 21
-4.51055
  0
LINE
  8
0
 10
21.875
 20
-4.51055
 11
23.4375
 21
-4.51055
  0
LINE
  8
0
 10
23.4375
 20
-4.51055
 11
22.6562
 21
-3.15738
  0
LINE
  8
0
 10
23.4375
 20
-4.51055
 11
22.6562
 21
-5.86371
  0
LINE
  8
0
 10
22.6562
 20
-5.86371
 11
24.2188
 21
-5.86371
  0
LINE
  8
0
 10
24.2188
 20
-5.86371
 11
23.4375
 21
-4.51055
  0
LINE
  8
0
 10
23.4375
 20
6.31477
 11
22.6562
 21
4.9616
  0
LINE
  8
0
 10
22.6562
 20
4.9616
 11
24.2188
 21
4.9616
  0
LINE
  8
0
 10
24.2188
 20
4.9616
 11
23.4375
 21
6.31477
  0
LINE
  8
0
 10
23.4375
 20
11.7274
 11
22.6562
 21
10.3743
  0
LINE
  8
0
 10
22.6562
 20
10.3743
 11
24.2188
 21
10.3743
  0
LINE
  8
0
 10
24.2188
 20
10.3743
 11
23.4375
 21
11.7274
  0
LINE
  8
0
 10
23.4375
 20
-26.1612
 11
22.6562
 21
-27.5143
  0
LINE
  8
0
 10
22.6562
 20
-27.5143
 11
24.2188
 21
-27.5143
  0
LINE
  8
0
 10
24.2188
 20
-27.5143
 11
23.4375
 21
-26.1612
  0
LINE
  8
0
 10
23.4375
 20
17.1401
 11
22.6562
 21
15.7869
  0
LINE
  8
0
 10
22.6562
 20
15.7869
 11
24.2188
 21
15.7869
  0
LINE
  8
0
 10
24.2188
 20
15.7869
 11
23.4375
 21
17.1401
  0
LINE
  8
0
 10
24.2188
 20
15.7869
 11
23.4375
 21
14.4338
  0
LINE
  8
0
 10
23.4375
 20
14.4338
 11
25
 21
14.4338
  0
LINE
  8
0
 10
25
 20
14.4338
 11
24.2188
 21
15.7869
  0
LINE
  8
0
 10
24.2188
 20
-5.86371
 11
23.4375
 21
-7.21688
  0
LINE
  8
0
 10
23.4375
 20
-7.21688
 11
25
 21
-7.21688
  0
LINE
  8
0
 10
25
 20
-7.21688
 11
24.2188
 21
-5.86371
  0
LINE
  8
0
 10
24.2188
 20
4.9616
 11
23.4375
 21
3.60844
  0
LINE
  8
0
 10
23.4375
 20
3.60844
 11
25
 21
3.60844
  0
LINE
  8
0
 10
25
 20
3.60844
 11
24.2188
 21
4.9616
  0
LINE
  8
0
 10
24.2188
 20
10.3743
 11
23.4375
 21
9.0211
  0
LINE
  8
0
 10
23.4375
 20
9.0211
 11
25
 21
9.0211
  0
LINE
  8
0
 10
25
 20
9.0211
 11
24.2188
 21
10.3743
  0
LINE
  8
0
 10
24.2188
 20
13.0806
 11
23.4375
 21
11.7274
  0
LINE
  8
0
 10
23.4375
 20
11.7274
 11
25
 21
11.7274
  0
LINE
  8
0
 10
25
 20
11.7274
 11
24.2188
 21
13.0806
  0
LINE
  8
0
 10
24.2188
 20
-27.5143
 11
23.4375
 21
-28.8675
  0
LINE
  8
0
 10
23.4375
 20
-28.8675
 11
25
 21
-28.8675
  0
LINE
  8
0
 10
25
 20
-28.8675
 11
24.2188
 21
-27.5143
  0
LINE
  8
0
 10
25
 20
14.4338
 11
24.2188
 21
13.0806
  0
LINE
  8
0
 10
24.2188
 20
13.0806
 11
25.7812
 21
13.0806
  0
LINE
  8
0
 10
25.7812
 20
13.0806
 11
25
 21
14.4338
  0
LINE
  8
0
 10
25.7812
 20
-27.5143
 11
25
 21
-28.8675
  0
LINE
  8
0
 10
25
 20
-28.8675
 11
26.5625
 21
-28.8675
  0
LINE
  8
0
 10
26.5625
 20
-28.8675
 11
25.7812
 21
-27.5143
  0
LINE
  8
0
 10
25.7812
 20
10.3743
 11
25
 21
9.0211
  0
LINE
  8
0
 10
25
 20
9.0211
 11
26.5625
 21
9.0211
  0
LINE
  8
0
 10
26.5625
 20
9.0211
 11
25.7812
 21
10.3743
  0
LINE
  8
0
 10
25.7812
 20
-5.86371
 11
25
 21
-7.21688
  0
LINE
  8
0
 10
25
 20
-7.21688
 11
26.5625
 21
-7.21688
  0
LINE
  8
0
 10
26.5625
 20
-7.21688
 11
25.7812
 21
-5.86371
  0
LINE
  8
0
 10
25.7812
 20
13.0806
 11
25
 21
11.7274
  0
LINE
  8
0
 10
25
 20
11.7274
 11
26.5625
 21
11.7274
  0
LINE
  8
0
 10
26.5625
 20
11.7274
 11
25.7812
 21
13.0806
  0
LINE
  8
0
 10
25.7812
 20
4.9616
 11
25
 21
3.60844
  0
LINE
  8
0
 10
25
 20
3.60844
 11
26.5625
 21
3.60844
  0
LINE
  8
0
 10
26.5625
 20
3.60844
 11
25.7812
 21
4.9616
  0
LINE
  8
0
 10
26.5625
 20
-26.1612
 11
25.7812
 21
-27.5143
  0
LINE
  8
0
 10
25.7812
 20
-27.5143
 11
27.3438
 21
-27.5143
  0
LINE
  8
0
 10
27.3438
 20
-27.5143
 11
26.5625
 21
-26.1612
  0
LINE
  8
0
 10
26.5625
 20
11.7274
 11
25.7812
 21
10.3743
  0
LINE
  8
0
 10
25.7812
 20
10.3743
 11
27.3438
 21
10.3743
  0
LINE
  8
0
 10
27.3438
 20
10.3743
 11
26.5625
 21
11.7274
  0
LINE
  8
0
 10
26.5625
 20
6.31477
 11
25.7812
 21
4.9616
  0
LINE
  8
0
 10
25.7812
 20
4.9616
 11
27.3438
 21
4.9616
  0
LINE
  8
0
 10
27.3438
 20
4.9616
 11
26.5625
 21
6.31477
  0
LINE
  8
0
 10
26.5625
 20
-4.51055
 11
25.7812
 21
-5.86371
  0
LINE
  8
0
 10
25.7812
 20
-5.86371
 11
27.3438
 21
-5.86371
  0
LINE
  8
0
 10
27.3438
 20
-5.86371
 11
26.5625
 21
-4.51055
  0
LINE
  8
0
 10
27.3438
 20
-27.5143
 11
26.5625
 21
-28.8675
  0
LINE
  8
0
 10
26.5625
 20
-28.8675
 11
28.125
 21
-28.8675
  0
LINE
  8
0
 10
28.125
 20
-28.8675
 11
27.3438
 21
-27.5143
  0
LINE
  8
0
 10
27.3438
 20
-24.808
 11
26.5625
 21
-26.1612
  0
LINE
  8
0
 10
26.5625
 20
-26.1612
 11
28.125
 21
-26.1612
  0
LINE
  8
0
 10
28.125
 20
-26.1612
 11
27.3438
 21
-24.808
  0
LINE
  8
0
 10
27.3438
 20
10.3743
 11
26.5625
 21
9.0211
  0
LINE
  8
0
 10
26.5625
 20
9.0211
 11
28.125
 21
9.0211
  0
LINE
  8
0
 10
28.125
 20
9.0211
 11
27.3438
 21
10.3743
  0
LINE
  8
0
 10
27.3438
 20
7.66793
 11
26.5625
 21
6.31477
  0
LINE
  8
0
 10
26.5625
 20
6.31477
 11
28.125
 21
6.31477
  0
LINE
  8
0
 10
28.125
 20
6.31477
 11
27.3438
 21
7.66793
  0
LINE
  8
0
 10
27.3438
 20
4.9616
 11
26.5625
 21
3.60844
  0
LINE
  8
0
 10
26.5625
 20
3.60844
 11
28.125
 21
3.60844
  0
LINE
  8
0
 10
28.125
 20
3.60844
 11
27.3438
 21
4.9616
  0
LINE
  8
0
 10
27.3438
 20
-5.86371
 11
26.5625
 21
-7.21688
  0
LINE
  8
0
 10
26.5625
 20
-7.21688
 11
28.125
 21
-7.21688
  0
LINE
  8
0
 10
28.125
 20
-7.21688
 11
27.3438
 21
-5.86371
  0
LINE
  8
0
 10
27.3438
 20
-3.15738
 11
26.5625
 21
-4.51055
  0
LINE
  8
0
 10
26.5625
 20
-4.51055
 11
28.125
 21
-4.51055
  0
LINE
  8
0
 10
28.125
 20
-4.51055
 11
27.3438
 21
-3.15738
  0
LINE
  8
0
 10
28.125
 20
-23.4549
 11
27.3438
 21
-24.808
  0
LINE
  8
0
 10
27.3438
 20
-24.808
 11
28.9062
 21
-24.808
  0
LINE
  8
0
 10
28.9062
 20
-24.808
 11
28.125
 21
-23.4549
  0
LINE
  8
0
 10
28.125
 20
9.0211
 11
27.3438
 21
7.66793
  0
LINE
  8
0
 10
27.3438
 20
7.66793
 11
28.9062
 21
7.66793
  0
LINE
  8
0
 10
28.9062
 20
7.66793
 11
28.125
 21
9.0211
  0
LINE
  8
0
 10
28.125
 20
-1.80422
 11
27.3438
 21
-3.15738
  0
LINE
  8
0
 10
27.3438
 20
-3.15738
 11
28.9062
 21
-3.15738
  0
LINE
  8
0
 10
28.9062
 20
-3.15738
 11
28.125
 21
-1.80422
  0
LINE
  8
0
 10
28.9062
 20
-27.5143
 11
28.125
 21
-28.8675
  0
LINE
  8
0
 10
28.125
 20
-28.8675
 11
29.6875
 21
-28.8675
  0
LINE
  8
0
 10
29.6875
 20
-28.8675
 11
28.9062
 21
-27.5143
  0
LINE
  8
0
 10
28.9062
 20
-3.15738
 11
28.125
 21
-4.51055
  0
LINE
  8
0
 10
28.125
 20
-4.51055
 11
29.6875
 21
-4.51055
  0
LINE
  8
0
 10
29.6875
 20
-4.51055
 11
28.9062
 21
-3.15738
  0
LINE
  8
0
 10
28.9062
 20
-5.86371
 11
28.125
 21
-7.21688
  0
LINE
  8
0
 10
28.125
 20
-7.21688
 11
29.6875
 21
-7.21688
  0
LINE
  8
0
 10
29.6875
 20
-7.21688
 11
28.9062
 21
-5.86371
  0
LINE
  8
0
 10
28.9062
 20
4.9616
 11
28.125
 21
3.60844
  0
LINE
  8
0
 10
28.125
 20
3.60844
 11
29.6875
 21
3.60844
  0
LINE
  8
0
 10
29.6875
 20
3.60844
 11
28.9062
 21
4.9616
  0
LINE
  8
0
 10
28.9062
 20
7.66793
 11
28.125
 21
6.31477
  0
LINE
  8
0
 10
28.125
 20
6.31477
 11
29.6875
 21
6.31477
  0
LINE
  8
0
 10
29.6875
 20
6.31477
 11
28.9062
 21
7.66793
  0
LINE
  8
0
 10
28.9062
 20
-0.451055
 11
28.125
 21
-1.80422
  0
LINE
  8
0
 10
28.125
 20
-1.80422
 11
29.6875
 21
-1.80422
  0
LINE
  8
0
 10
29.6875
 20
-1.80422
 11
28.9062
 21
-0.451055
  0
LINE
  8
0
 10
28.9062
 20
-22.1017
 11
28.125
 21
-23.4549
  0
LINE
  8
0
 10
28.125
 20
-23.4549
 11
29.6875
 21
-23.4549
  0
LINE
  8
0
 10
29.6875
 20
-23.4549
 11
28.9062
 21
-22.1017
  0
LINE
  8
0
 10
28.9062
 20
-24.808
 11
28.125
 21
-26.1612
  0
LINE
  8
0
 10
28.125
 20
-26.1612
 11
29.6875
 21
-26.1612
  0
LINE
  8
0
 10
29.6875
 20
-26.1612
 11
28.9062
 21
-24.808
  0
LINE
  8
0
 10
29.6875
 20
0.902109
 11
28.9062
 21
-0.451055
  0
LINE
  8
0
 10
28.9062
 20
-0.451055
 11
30.4688
 21
-0.451055
  0
LINE
  8
0
 10
30.4688
 20
-0.451055
 11
29.6875
 21
0.902109
  0
LINE
  8
0
 10
29.6875
 20
6.31477
 11
28.9062
 21
4.9616
  0
LINE
  8
0
 10
28.9062
 20
4.9616
 11
30.4688
 21
4.9616
  0
LINE
  8
0
 10
30.4688
 20
4.9616
 11
29.6875
 21
6.31477
  0
LINE
  8
0
 10
29.6875
 20
-20.7485
 11
28.9062
 21
-22.1017
  0
LINE
  8
0
 10
28.9062
 20
-22.1017
 11
30.4688
 21
-22.1017
  0
LINE
  8
0
 10
30.4688
 20
-22.1017
 11
29.6875
 21
-20.7485
  0
LINE
  8
0
 10
29.6875
 20
-26.1612
 11
28.9062
 21
-27.5143
  0
LINE
  8
0
 10
28.9062
 20
-27.5143
 11
30.4688
 21
-27.5143
  0
LINE
  8
0
 10
30.4688
 20
-27.5143
 11
29.6875
 21
-26.1612
  0
LINE
  8
0
 10
29.6875
 20
-4.51055
 11
28.9062
 21
-5.86371
  0
LINE
  8
0
 10
28.9062
 20
-5.86371
 11
30.4688
 21
-5.86371
  0
LINE
  8
0
 10
30.4688
 20
-5.86371
 11
29.6875
 21
-4.51055
  0
LINE
  8
0
 10
30.4688
 20
4.9616
 11
29.6875
 21
3.60844
  0
LINE
  8
0
 10
29.6875
 20
3.60844
 11
31.25
 21
3.60844
  0
LINE
  8
0
 10
31.25
 20
3.60844
 11
30.4688
 21
4.9616
  0
LINE
  8
0
 10
30.4688
 20
-5.86371
 11
29.6875
 21
-7.21688
  0
LINE
  8
0
 10
29.6875
 20
-7.21688
 11
31.25
 21
-7.21688
  0
LINE
  8
0
 10
31.25
 20
-7.21688
 11
30.4688
 21
-5.86371
  0
LINE
  8
0
 10
30.4688
 20
-0.451055
 11
29.6875
 21
-1.80422
  0
LINE
  8
0
 10
29.6875
 20
-1.80422
 11
31.25
 21
-1.80422
  0
LINE
  8
0
 10
31.25
 20
-1.80422
 11
30.4688
 21
-0.451055
  0
LINE
  8
0
 10
30.4688
 20
2.25527
 11
29.6875
 21
0.902109
  0
LINE
  8
0
 10
29.6875
 20
0.902109
 11
31.25
 21
0.902109
  0
LINE
  8
0
 10
31.25
 20
0.902109
 11
30.4688
 21
2.25527
  0
LINE
  8
0
 10
30.4688
 20
-19.3954
 11
29.6875
 21
-20.7485
  0
LINE
  8
0
 10
29.6875
 20
-20.7485
 11
31.25
 21
-20.7485
  0
LINE
  8
0
 10
31.25
 20
-20.7485
 11
30.4688
 21
-19.3954
  0
LINE
  8
0
 10
30.4688
 20
-22.1017
 11
29.6875
 21
-23.4549
  0
LINE
  8
0
 10
29.6875
 20
-23.4549
 11
31.25
 21
-23.4549
  0
LINE
  8
0
 10
31.25
 20
-23.4549
 11
30.4688
 21
-22.1017
  0
LINE
  8
0
 10
30.4688
 20
-27.5143
 11
29.6875
 21
-28.8675
  0
LINE
  8
0
 10
29.6875
 20
-28.8675
 11
31.25
 21
-28.8675
  0
LINE
  8
0
 10
31.25
 20
-28.8675
 11
30.4688
 21
-27.5143
  0
LINE
  8
0
 10
31.25
 20
3.60844
 11
30.4688
 21
2.25527
  0
LINE
  8
0
 10
30.4688
 20
2.25527
 11
32.0312
 21
2.25527
  0
LINE
  8
0
 10
32.0312
 20
2.25527
 11
31.25
 21
3.60844
  0
LINE
  8
0
 10
31.25
 20
-18.0422
 11
30.4688
 21
-19.3954
  0
LINE
  8
0
 10
30.4688
 20
-19.3954
 11
32.0312
 21
-19.3954
  0
LINE
  8
0
 10
32.0312
 20
-19.3954
 11
31.25
 21
-18.0422
  0
LINE
  8
0
 10
32.0312
 20
-5.86371
 11
31.25
 21
-7.21688
  0
LINE
  8
0
 10
31.25
 20
-7.21688
 11
32.8125
 21
-7.21688
  0
LINE
  8
0
 10
32.8125
 20
-7.21688
 11
32.0312
 21
-5.86371
  0
LINE
  8
0
 10
32.0312
 20
-0.451055
 11
31.25
 21
-1.80422
  0
LINE
  8
0
 10
31.25
 20
-1.80422
 11
32.8125
 21
-1.80422
  0
LINE
  8
0
 10
32.8125
 20
-1.80422
 11
32.0312
 21
-0.451055
  0
LINE
  8
0
 10
32.0312
 20
2.25527
 11
31.25
 21
0.902109
  0
LINE
  8
0
 10
31.25
 20
0.902109
 11
32.8125
 21
0.902109
  0
LINE
  8
0
 10
32.8125
 20
0.902109
 11
32.0312
 21
2.25527
  0
LINE
  8
0
 10
32.0312
 20
-16.689
 11
31.25
 21
-18.0422
  0
LINE
  8
0
 10
31.25
 20
-18.0422
 11
32.8125
 21
-18.0422
  0
LINE
  8
0
 10
32.8125
 20
-18.0422
 11
32.0312
 21
-16.689
  0
LINE
  8
0
 10
32.0312
 20
-27.5143
 11
31.25
 21
-28.8675
  0
LINE
  8
0
 10
31.25
 20
-28.8675
 11
32.8125
 21
-28.8675
  0
LINE
  8
0
 10
32.8125
 20
-28.8675
 11
32.0312
 21
-27.5143
  0
LINE
  8
0
 10
32.0312
 20
-19.3954
 11
31.25
 21
-20.7485
  0
LINE
  8
0
 10
31.25
 20
-20.7485
 11
32.8125
 21
-20.7485
  0
LINE
  8
0
 10
32.8125
 20
-20.7485
 11
32.0312
 21
-19.3954
  0
LINE
  8
0
 10
32.0312
 20
-22.1017
 11
31.25
 21
-23.4549
  0
LINE
  8
0
 10
31.25
 20
-23.4549
 11
32.8125
 21
-23.4549
  0
LINE
  8
0
 10
32.8125
 20
-23.4549
 11
32.0312
 21
-22.1017
  0
LINE
  8
0
 10
32.8125
 20
-15.3359
 11
32.0312
 21
-16.689
  0
LINE
  8
0
 10
32.0312
 20
-16.689
 11
33.5938
 21
-16.689
  0
LINE
  8
0
 10
33.5938
 20
-16.689
 11
32.8125
 21
-15.3359
  0
LINE
  8
0
 10
32.8125
 20
-26.1612
 11
32.0312
 21
-27.5143
  0
LINE
  8
0
 10
32.0312
 20
-27.5143
 11
33.5938
 21
-27.5143
  0
LINE
  8
0
 10
33.5938
 20
-27.5143
 11
32.8125
 21
-26.1612
  0
LINE
  8
0
 10
32.8125
 20
-20.7485
 11
32.0312
 21
-22.1017
  0
LINE
  8
0
 10
32.0312
 20
-22.1017
 11
33.5938
 21
-22.1017
  0
LINE
  8
0
 10
33.5938
 20
-22.1017
 11
32.8125
 21
-20.7485
  0
LINE
  8
0
 10
32.8125
 20
0.902109
 11
32.0312
 21
-0.451055
  0
LINE
  8
0
 10
32.0312
 20
-0.451055
 11
33.5938
 21
-0.451055
  0
LINE
  8
0
 10
33.5938
 20
-0.451055
 11
32.8125
 21
0.902109
  0
LINE
  8
0
 10
32.8125
 20
-4.51055
 11
32.0312
 21
-5.86371
  0
LINE
  8
0
 10
32.0312
 20
-5.86371
 11
33.5938
 21
-5.86371
  0
LINE
  8
0
 10
33.5938
 20
-5.86371
 11
32.8125
 21
-4.51055
  0
LINE
  8
0
 10
33.5938
 20
-22.1017
 11
32.8125
 21
-23.4549
  0
LINE
  8
0
 10
32.8125
 20
-23.4549
 11
34.375
 21
-23.4549
  0
LINE
  8
0
 10
34.375
 20
-23.4549
 11
33.5938
 21
-22.1017
  0
LINE
  8
0
 10
33.5938
 20
-13.9827
 11
32.8125
 21
-15.3359
  0
LINE
  8
0
 10
32.8125
 20
-15.3359
 11
34.375
 21
-15.3359
  0
LINE
  8
0
 10
34.375
 20
-15.3359
 11
33.5938
 21
-13.9827
  0
LINE
  8
0
 10
33.5938
 20
-16.689
 11
32.8125
 21
-18.0422
  0
LINE
  8
0
 10
32.8125
 20
-18.0422
 11
34.375
 21
-18.0422
  0
LINE
  8
0
 10
34.375
 20
-18.0422
 11
33.5938
 21
-16.689
  0
LINE
  8
0
 10
33.5938
 20
-27.5143
 11
32.8125
 21
-28.8675
  0
LINE
  8
0
 10
32.8125
 20
-28.8675
 11
34.375
 21
-28.8675
  0
LINE
  8
0
 10
34.375
 20
-28.8675
 11
33.5938
 21
-27.5143
  0
LINE
  8
0
 10
33.5938
 20
-24.808
 11
32.8125
 21
-26.1612
  0
LINE
  8
0
 10
32.8125
 20
-26.1612
 11
34.375
 21
-26.1612
  0
LINE
  8
0
 10
34.375
 20
-26.1612
 11
33.5938
 21
-24.808
  0
LINE
  8
0
 10
33.5938
 20
-0.451055
 11
32.8125
 21
-1.80422
  0
LINE
  8
0
 10
32.8125
 20
-1.80422
 11
34.375
 21
-1.80422
  0
LINE
  8
0
 10
34.375
 20
-1.80422
 11
33.5938
 21
-0.451055
  0
LINE
  8
0
 10
33.5938
 20
-3.15738
 11
32.8125
 21
-4.51055
  0
LINE
  8
0
 10
32.8125
 20
-4.51055
 11
34.375
 21
-4.51055
  0
LINE
  8
0
 10
34.375
 20
-4.51055
 11
33.5938
 21
-3.15738
  0
LINE
  8
0
 10
33.5938
 20
-5.86371
 11
32.8125
 21
-7.21688
  0
LINE
  8
0
 10
32.8125
 20
-7.21688
 11
34.375
 21
-7.21688
  0
LINE
  8
0
 10
34.375
 20
-7.21688
 11
33.5938
 21
-5.86371
  0
LINE
  8
0
 10
34.375
 20
-12.6295
 11
33.5938
 21
-13.9827
  0
LINE
  8
0
 10
33.5938
 20
-13.9827
 11
35.1562
 21
-13.9827
  0
LINE
  8
0
 10
35.1562
 20
-13.9827
 11
34.375
 21
-12.6295
  0
LINE
  8
0
 10
34.375
 20
-23.4549
 11
33.5938
 21
-24.808
  0
LINE
  8
0
 10
33.5938
 20
-24.808
 11
35.1562
 21
-24.808
  0
LINE
  8
0
 10
35.1562
 20
-24.808
 11
34.375
 21
-23.4549
  0
LINE
  8
0
 10
34.375
 20
-1.80422
 11
33.5938
 21
-3.15738
  0
LINE
  8
0
 10
33.5938
 20
-3.15738
 11
35.1562
 21
-3.15738
  0
LINE
  8
0
 10
35.1562
 20
-3.15738
 11
34.375
 21
-1.80422
  0
LINE
  8
0
 10
35.1562
 20
-11.2764
 11
34.375
 21
-12.6295
  0
LINE
  8
0
 10
34.375
 20
-12.6295
 11
35.9375
 21
-12.6295
  0
LINE
  8
0
 10
35.9375
 20
-12.6295
 11
35.1562
 21
-11.2764
  0
LINE
  8
0
 10
35.1562
 20
-13.9827
 11
34.375
 21
-15.3359
  0
LINE
  8
0
 10
34.375
 20
-15.3359
 11
35.9375
 21
-15.3359
  0
LINE
  8
0
 10
35.9375
 20
-15.3359
 11
35.1562
 21
-13.9827
  0
LINE
  8
0
 10
35.1562
 20
-16.689
 11
34.375
 21
-18.0422
  0
LINE
  8
0
 10
34.375
 20
-18.0422
 11
35.9375
 21
-18.0422
  0
LINE
  8
0
 10
35.9375
 20
-18.0422
 11
35.1562
 21
-16.689
  0
LINE
  8
0
 10
35.1562
 20
-27.5143
 11
34.375
 21
-28.8675
  0
LINE
  8
0
 10
34.375
 20
-28.8675
 11
35.9375
 21
-28.8675
  0
LINE
  8
0
 10
35.9375
 20
-28.8675
 11
35.1562
 21
-27.5143
  0
LINE
  8
0
 10
35.1562
 20
-24.808
 11
34.375
 21
-26.1612
  0
LINE
  8
0
 10
34.375
 20
-26.1612
 11
35.9375
 21
-26.1612
  0
LINE
  8
0
 10
35.9375
 20
-26.1612
 11
35.1562
 21
-24.808
  0
LINE
  8
0
 10
35.1562
 20
-3.15738
 11
34.375
 21
-4.51055
  0
LINE
  8
0
 10
34.375
 20
-4.51055
 11
35.9375
 21
-4.51055
  0
LINE
  8
0
 10
35.9375
 20
-4.51055
 11
35.1562
 21
-3.15738
  0
LINE
  8
0
 10
35.1562
 20
-5.86371
 11
34.375
 21
-7.21688
  0
LINE
  8
0
 10
34.375
 20
-7.21688
 11
35.9375
 21
-7.21688
  0
LINE
  8
0
 10
35.9375
 20
-7.21688
 11
35.1562
 21
-5.86371
  0
LINE
  8
0
 10
35.9375
 20
-26.1612
 11
35.1562
 21
-27.5143
  0
LINE
  8
0
 10
35.1562
 20
-27.5143
 11
36.7188
 21
-27.5143
  0
LINE
  8
0
 10
36.7188
 20
-27.5143
 11
35.9375
 21
-26.1612
  0
LINE
  8
0
 10
35.9375
 20
-9.92321
 11
35.1562
 21
-11.2764
  0
LINE
  8
0
 10
35.1562
 20
-11.2764
 11
36.7188
 21
-11.2764
  0
LINE
  8
0
 10
36.7188
 20
-11.2764
 11
35.9375
 21
-9.92321
  0
LINE
  8
0
 10
35.9375
 20
-4.51055
 11
35.1562
 21
-5.86371
  0
LINE
  8
0
 10
35.1562
 20
-5.86371
 11
36.7188
 21
-5.86371
  0
LINE
  8
0
 10
36.7188
 20
-5.86371
 11
35.9375
 21
-4.51055
  0
LINE
  8
0
 10
35.9375
 20
-15.3359
 11
35.1562
 21
-16.689
  0
LINE
  8
0
 10
35.1562
 20
-16.689
 11
36.7188
 21
-16.689
  0
LINE
  8
0
 10
36.7188
 20
-16.689
 11
35.9375
 21
-15.3359
  0
LINE
  8
0
 10
36.7188
 20
-5.86371
 11
35.9375
 21
-7.21688
  0
LINE
  8
0
 10
35.9375
 20
-7.21688
 11
37.5
 21
-7.21688
  0
LINE
  8
0
 10
37.5
 20
-7.21688
 11
36.7188
 21
-5.86371
  0
LINE
  8
0
 10
36.7188
 20
-27.5143
 11
35.9375
 21
-28.8675
  0
LINE
  8
0
 10
35.9375
 20
-28.8675
 11
37.5
 21
-28.8675
  0
LINE
  8
0
 10
37.5
 20
-28.8675
 11
36.7188
 21
-27.5143
  0
LINE
  8
0
 10
36.7188
 20
-16.689
 11
35.9375
 21
-18.0422
  0
LINE
  8
0
 10
35.9375
 20
-18.0422
 11
37.5
 21
-18.0422
  0
LINE
  8
0
 10
37.5
 20
-18.0422
 11
36.7188
 21
-16.689
  0
LINE
  8
0
 10
36.7188
 20
-11.2764
 11
35.9375
 21
-12.6295
  0
LINE
  8
0
 10
35.9375
 20
-12.6295
 11
37.5
 21
-12.6295
  0
LINE
  8
0
 10
37.5
 20
-12.6295
 11
36.7188
 21
-11.2764
  0
LINE
  8
0
 10
36.7188
 20
-8.57004
 11
35.9375
 21
-9.92321
  0
LINE
  8
0
 10
35.9375
 20
-9.92321
 11
37.5
 21
-9.92321
  0
LINE
  8
0
 10
37.5
 20
-9.92321
 11
36.7188
 21
-8.57004
  0
LINE
  8
0
 10
37.5
 20
-7.21688
 11
36.7188
 21
-8.57004
  0
LINE
  8
0
 10
36.7188
 20
-8.57004
 11
38.2812
 21
-8.57004
  0
LINE
  8
0
 10
38.2812
 20
-8.57004
 11
37.5
 21
-7.21688
  0
LINE
  8
0
 10
38.2812
 20
-27.5143
 11
37.5
 21
-28.8675
  0
LINE
  8
0
 10
37.5
 20
-28.8675
 11
39.0625
 21
-28.8675
  0
LINE
  8
0
 10
39.0625
 20
-28.8675
 11
38.2812
 21
-27.5143
  0
LINE
  8
0
 10
38.2812
 20
-8.57004
 11
37.5
 21
-9.92321
  0
LINE
  8
0
 10
37.5
 20
-9.92321
 11
39.0625
 21
-9.92321
  0
LINE
  8
0
 10
39.0625
 20
-9.92321
 11
38.2812
 21
-8.57004
  0
LINE
  8
0
 10
38.2812
 20
-11.2764
 11
37.5
 21
-12.6295
  0
LINE
  8
0
 10
37.5
 20
-12.6295
 11
39.0625
 21
-12.6295
  0
LINE
  8
0
 10
39.0625
 20
-12.6295
 11
38.2812
 21
-11.2764
  0
LINE
  8
0
 10
38.2812
 20
-16.689
 11
37.5
 21
-18.0422
  0
LINE
  8
0
 10
37.5
 20
-18.0422
 11
39.0625
 21
-18.0422
  0
LINE
  8
0
 10
39.0625
 20
-18.0422
 11
38.2812
 21
-16.689
  0
LINE
  8
0
 10
39.0625
 20
-9.92321
 11
38.2812
 21
-11.2764
  0
LINE
  8
0
 10
38.2812
 20
-11.2764
 11
39.8438
 21
-11.2764
  0
LINE
  8
0
 10
39.8438
 20
-11.2764
 11
39.0625
 21
-9.92321
  0
LINE
  8
0
 10
39.0625
 20
-15.3359
 11
38.2812
 21
-16.689
  0
LINE
  8
0
 10
38.2812
 20
-16.689
 11
39.8438
 21
-16.689
  0
LINE
  8
0
 10
39.8438
 20
-16.689
 11
39.0625
 21
-15.3359
  0
LINE
  8
0
 10
39.0625
 20
-26.1612
 11
38.2812
 21
-27.5143
  0
LINE
  8
0
 10
38.2812
 20
-27.5143
 11
39.8438
 21
-27.5143
  0
LINE
  8
0
 10
39.8438
 20
-27.5143
 11
39.0625
 21
-26.1612
  0
LINE
  8
0
 10
39.8438
 20
-11.2764
 11
39.0625
 21
-12.6295
  0
LINE
  8
0
 10
39.0625
 20
-12.6295
 11
40.625
 21
-12.6295
  0
LINE
  8
0
 10
40.625
 20
-12.6295
 11
39.8438
 21
-11.2764
  0
LINE
  8
0
 10
39.8438
 20
-13.9827
 11
39.0625
 21
-15.3359
  0
LINE
  8
0
 10
39.0625
 20
-15.3359
 11
40.625
 21
-15.3359
  0
LINE
  8
0
 10
40.625
 20
-15.3359
 11
39.8438
 21
-13.9827
  0
LINE
  8
0
 10
39.8438
 20
-16.689
 11
39.0625
 21
-18.0422
  0
LINE
  8
0
 10
39.0625
 20
-18.0422
 11
40.625
 21
-18.0422
  0
LINE
  8
0
 10
40.625
 20
-18.0422
 11
39.8438
 21
-16.689
  0
LINE
  8
0
 10
39.8438
 20
-27.5143
 11
39.0625
 21
-28.8675
  0
LINE
  8
0
 10
39.0625
 20
-28.8675
 11
40.625
 21
-28.8675
  0
LINE
  8
0
 10
40.625
 20
-28.8675
 11
39.8438
 21
-27.5143
  0
LINE
  8
0
 10
39.8438
 20
-24.808
 11
39.0625
 21
-26.1612
  0
LINE
  8
0
 10
39.0625
 20
-26.1612
 11
40.625
 21
-26.1612
  0
LINE
  8
0
 10
40.625
 20
-26.1612
 11
39.8438
 21
-24.808
  0
LINE
  8
0
 10
40.625
 20
-12.6295
 11
39.8438
 21
-13.9827
  0
LINE
  8
0
 10
39.8438
 20
-13.9827
 11
41.4062
 21
-13.9827
  0
LINE
  8
0
 10
41.4062
 20
-13.9827
 11
40.625
 21
-12.6295
  0
LINE
  8
0
 10
40.625
 20
-23.4549
 11
39.8438
 21
-24.808
  0
LINE
  8
0
 10
39.8438
 20
-24.808
 11
41.4062
 21
-24.808
  0
LINE
  8
0
 10
41.4062
 20
-24.808
 11
40.625
 21
-23.4549
  0
LINE
  8
0
 10
41.4062
 20
-22.1017
 11
40.625
 21
-23.4549
  0
LINE
  8
0
 10
40.625
 20
-23.4549
 11
42.1875
 21
-23.4549
  0
LINE
  8
0
 10
42.1875
 20
-23.4549
 11
41.4062
 21
-22.1017
  0
LINE
  8
0
 10
41.4062
 20
-13.9827
 11
40.625
 21
-15.3359
  0
LINE
  8
0
 10
40.625
 20
-15.3359
 11
42.1875
 21
-15.3359
  0
LINE
  8
0
 10
42.1875
 20
-15.3359
 11
41.4062
 21
-13.9827
  0
LINE
  8
0
 10
41.4062
 20
-16.689
 11
40.625
 21
-18.0422
  0
LINE
  8
0
 10
40.625
 20
-18.0422
 11
42.1875
 21
-18.0422
  0
LINE
  8
0
 10
42.1875
 20
-18.0422
 11
41.4062
 21
-16.689
  0
LINE
  8
0
 10
41.4062
 20
-27.5143
 11
40.625
 21
-28.8675
  0
LINE
  8
0
 10
40.625
 20
-28.8675
 11
42.1875
 21
-28.8675
  0
LINE
  8
0
 10
42.1875
 20
-28.8675
 11
41.4062
 21
-27.5143
  0
LINE
  8
0
 10
41.4062
 20
-24.808
 11
40.625
 21
-26.1612
  0
LINE
  8
0
 10
40.625
 20
-26.1612
 11
42.1875
 21
-26.1612
  0
LINE
  8
0
 10
42.1875
 20
-26.1612
 11
41.4062
 21
-24.808
  0
LINE
  8
0
 10
42.1875
 20
-15.3359
 11
41.4062
 21
-16.689
  0
LINE
  8
0
 10
41.4062
 20
-16.689
 11
42.9688
 21
-16.689
  0
LINE
  8
0
 10
42.9688
 20
-16.689
 11
42.1875
 21
-15.3359
  0
LINE
  8
0
 10
42.1875
 20
-20.7485
 11
41.4062
 21
-22.1017
  0
LINE
  8
0
 10
41.4062
 20
-22.1017
 11
42.9688
 21
-22.1017
  0
LINE
  8
0
 10
42.9688
 20
-22.1017
 11
42.1875
 21
-20.7485
  0
LINE
  8
0
 10
42.1875
 20
-26.1612
 11
41.4062
 21
-27.5143
  0
LINE
  8
0
 10
41.4062
 20
-27.5143
 11
42.9688
 21
-27.5143
  0
LINE
  8
0
 10
42.9688
 20
-27.5143
 11
42.1875
 21
-26.1612
  0
LINE
  8
0
 10
42.9688
 20
-16.689
 11
42.1875
 21
-18.0422
  0
LINE
  8
0
 10
42.1875
 20
-18.0422
 11
43.75
 21
-18.0422
  0
LINE
  8
0
 10
43.75
 20
-18.0422
 11
42.9688
 21
-16.689
  0
LINE
  8
0
 10
42.9688
 20
-27.5143
 11
42.1875
 21
-28.8675
  0
LINE
  8
0
 10
42.1875
 20
-28.8675
 11
43.75
 21
-28.8675
  0
LINE
  8
0
 10
43.75
 20
-28.8675
 11
42.9688
 21
-27.5143
  0
LINE
  8
0
 10
42.9688
 20
-22.1017
 11
42.1875
 21
-23.4549
  0
LINE
  8
0
 10
42.1875
 20
-23.4549
 11
43.75
 21
-23.4549
  0
LINE
  8
0
 10
43.75
 20
-23.4549
 11
42.9688
 21
-22.1017
  0
LINE
  8
0
 10
42.9688
 20
-19.3954
 11
42.1875
 21
-20.7485
  0
LINE
  8
0
 10
42.1875
 20
-20.7485
 11
43.75
 21
-20.7485
  0
LINE
  8
0
 10
43.75
 20
-20.7485
 11
42.9688
 21
-19.3954
  0
LINE
  8
0
 10
43.75
 20
-18.0422
 11
42.9688
 21
-19.3954
  0
LINE
  8
0
 10
42.9688
 20
-19.3954
 11
44.5312
 21
-19.3954
  0
LINE
  8
0
 10
44.5312
 20
-19.3954
 11
43.75
 21
-18.0422
  0
LINE
  8
0
 10
44.5312
 20
-27.5143
 11
43.75
 21
-28.8675
  0
LINE
  8
0
 10
43.75
 20
-28.8675
 11
45.3125
 21
-28.8675
  0
LINE
  8
0
 10
45.3125
 20
-28.8675
 11
44.5312
 21
-27.5143
  0
LINE
  8
0
 10
44.5312
 20
-22.1017
 11
43.75
 21
-23.4549
  0
LINE
  8
0
 10
43.75
 20
-23.4549
 11
45.3125
 21
-23.4549
  0
LINE
  8
0
 10
45.3125
 20
-23.4549
 11
44.5312
 21
-22.1017
  0
LINE
  8
0
 10
44.5312
 20
-19.3954
 11
43.75
 21
-20.7485
  0
LINE
  8
0
 10
43.75
 20
-20.7485
 11
45.3125
 21
-20.7485
  0
LINE
  8
0
 10
45.3125
 20
-20.7485
 11
44.5312
 21
-19.3954
  0
LINE
  8
0
 10
45.3125
 20
-26.1612
 11
44.5312
 21
-27.5143
  0
LINE
  8
0
 10
44.5312
 20
-27.5143
 11
46.0938
 21
-27.5143
  0
LINE
  8
0
 10
46.0938
 20
-27.5143
 11
45.3125
 21
-26.1612
  0
LINE
  8
0
 10
45.3125
 20
-20.7485
 11
44.5312
 21
-22.1017
  0
LINE
  8
0
 10
44.5312
 20
-22.1017
 11
46.0938
 21
-22.1017
  0
LINE
  8
0
 10
46.0938
 20
-22.1017
 11
45.3125
 21
-20.7485
  0
LINE
  8
0
 10
46.0938
 20
-27.5143
 11
45.3125
 21
-28.8675
  0
LINE
  8
0
 10
45.3125
 20
-28.8675
 11
46.875
 21
-28.8675
  0
LINE
  8
0
 10
46.875
 20
-28.8675
 11
46.0938
 21
-27.5143
  0
LINE
  8
0
 10
46.0938
 20
-24.808
 11
45.3125
 21
-26.1612
  0
LINE
  8
0
 10
45.3125
 20
-26.1612
 11
46.875
 21
-26.1612
  0
LINE
  8
0
 10
46.875
 20
-26.1612
 11
46.0938
 21
-24.808
  0
LINE
  8
0
 10
46.0938
 20
-22.1017
 11
45.3125
 21
-23.4549
  0
LINE
  8
0
 10
45.3125
 20
-23.4549
 11
46.875
 21
-23.4549
  0
LINE
  8
0
 10
46.875
 20
-23.4549
 11
46.0938
 21
-22.1017
  0
LINE
  8
0
 10
46.875
 20
-23.4549
 11
46.0938
 21
-24.808
  0
LINE
  8
0
 10
46.0938
 20
-24.808
 11
47.6562
 21
-24.808
  0
LINE
  8
0
 10
47.6562
 20
-24.808
 11
46.875
 21
-23.4549
  0
LINE
  8
0
 10
47.6562
 20
-27.5143
 11
46.875
 21
-28.8675
  0
LINE
  8
0
 10
46.875
 20
-28.8675
 11
48.4375
 21
-28.8675
  0
LINE
  8
0
 10
48.4375
 20
-28.8675
 11
47.6562
 21
-27.5143
  0
LINE
  8
0
 10
47.6562
 20
-24.808
 11
46.875
 21
-26.1612
  0
LINE
  8
0
 10
46.875
 20
-26.1612
 11
48.4375
 21
-26.1612
  0
LINE
  8
0
 10
48.4375
 20
-26.1612
 11
47.6562
 21
-24.808
  0
LINE
  8
0
 10
48.4375
 20
-26.1612
 11
47.6562
 21
-27.5143
  0
LINE
  8
0
 10
47.6562
 20
-27.5143
 11
49.2188
 21
-27.5143
  0
LINE
  8
0
 10
49.2188
 20
-27.5143
 11
48.4375
 21
-26.1612
  0
LINE
  8
0
 10
49.2188
 20
-27.5143
 11
48.4375
 21
-28.8675
  0
LINE
  8
0
 10
48.4375
 20
-28.8675
 11
50
 21
-28.8675
  0
LINE
  8
0
 10
50
 20
-28.8675
 11
49.2188
 21
-27.5143
  0
ENDSEC
  0
SECTION
  2
OBJECTS
  0
DICTIONARY
  0
ENDSEC
  0
EOF
