  0
SECTION
  2
BLOCKS
  0
ENDSEC
  0
SECTION
  2
ENTITIES
  0
LINE
  8
0
 10
-48.4375
 20
-26.1612
 11
-50
 21
-28.8675
  0
LINE
  8
0
 10
-50
 20
-28.8675
 11
-46.875
 21
-28.8675
  0
LINE
  8
0
 10
-46.875
 20
-28.8675
 11
-48.4375
 21
-26.1612
  0
LINE
  8
0
 10
-46.875
 20
-23.4549
 11
-48.4375
 21
-26.1612
  0
LINE
  8
0
 10
-48.4375
 20
-26.1612
 11
-45.3125
 21
-26.1612
  0
LINE
  8
0
 10
-45.3125
 20
-26.1612
 11
-46.875
 21
-23.4549
  0
LINE
  8
0
 10
-45.3125
 20
-20.7485
 11
-46.875
 21
-23.4549
  0
LINE
  8
0
 10
-46.875
 20
-23.4549
 11
-43.75
 21
-23.4549
  0
LINE
  8
0
 10
-43.75
 20
-23.4549
 11
-45.3125
 21
-20.7485
  0
LINE
  8
0
 10
-45.3125
 20
-26.1612
 11
-46.875
 21
-28.8675
  0
LINE
  8
0
 10
-46.875
 20
-28.8675
 11
-43.75
 21
-28.8675
  0
LINE
  8
0
 10
-43.75
 20
-28.8675
 11
-45.3125
 21
-26.1612
  0
LINE
  8
0
 10
-43.75
 20
-18.0422
 11
-45.3125
 21
-20.7485
  0
LINE
  8
0
 10
-45.3125
 20
-20.7485
 11
-42.1875
 21
-20.7485
  0
LINE
  8
0
 10
-42.1875
 20
-20.7485
 11
-43.75
 21
-18.0422
  0
LINE
  8
0
 10
-42.1875
 20
-15.3359
 11
-43.75
 21
-18.0422
  0
LINE
  8
0
 10
-43.75
 20
-18.0422
 11
-40.625
 21
-18.0422
  0
LINE
  8
0
 10
-40.625
 20
-18.0422
 11
-42.1875
 21
-15.3359
  0
LINE
  8
0
 10
-42.1875
 20
-20.7485
 11
-43.75
 21
-23.4549
  0
LINE
  8
0
 10
-43.75
 20
-23.4549
 11
-40.625
 21
-23.4549
  0
LINE
  8
0
 10
-40.625
 20
-23.4549
 11
-42.1875
 21
-20.7485
  0
LINE
  8
0
 10
-42.1875
 20
-26.1612
 11
-43.75
 21
-28.8675
  0
LINE
  8
0
 10
-43.75
 20
-28.8675
 11
-40.625
 21
-28.8675
  0
LINE
  8
0
 10
-40.625
 20
-28.8675
 11
-42.1875
 21
-26.1612
  0
LINE
  8
0
 10
-40.625
 20
-12.6295
 11
-42.1875
 21
-15.3359
  0
LINE
  8
0
 10
-42.1875
 20
-15.3359
 11
-39.0625
 21
-15.3359
  0
LINE
  8
0
 10
-39.0625
 20
-15.3359
 11
-40.625
 21
-12.6295
  0
LINE
  8
0
 10
-40.625
 20
-23.4549
 11
-42.1875
 21
-26.1612
  0
LINE
  8
0
 10
-42.1875
 20
-26.1612
 11
-39.0625
 21
-26.1612
  0
LINE
  8
0
 10
-39.0625
 20
-26.1612
 11
-40.625
 21
-23.4549
  0
LINE
  8
0
 10
-39.0625
 20
-9.92321
 11
-40.625
 21
-12.6295
  0
LINE
  8
0
 10
-40.625
 20
-12.6295
 11
-37.5
 21
-12.6295
  0
LINE
  8
0
 10
-37.5
 20
-12.6295
 11
-39.0625
 21
-9.92321
  0
LINE
  8
0
 10
-39.0625
 20
-15.3359
 11
-40.625
 21
-18.0422
  0
LINE
  8
0
 10
-40.625
 20
-18.0422
 11
-37.5
 21
-18.0422
  0
LINE
  8
0
 10
-37.5
 20
-18.0422
 11
-39.0625
 21
-15.3359
  0
LINE
  8
0
 10
-39.0625
 20
-26.1612
 11
-40.625
 21
-28.8675
  0
LINE
  8
0
 10
-40.625
 20
-28.8675
 11
-37.5
 21
-28.8675
  0
LINE
  8
0
 10
-37.5
 20
-28.8675
 11
-39.0625
 21
-26.1612
  0
LINE
  8
0
 10
-37.5
 20
-7.21688
 11
-39.0625
 21
-9.92321
  0
LINE
  8
0
 10
-39.0625
 20
-9.92321
 11
-35.9375
 21
-9.92321
  0
LINE
  8
0
 10
-35.9375
 20
-9.92321
 11
-37.5
 21
-7.21688
  0
LINE
  8
0
 10
-35.9375
 20
-4.51055
 11
-37.5
 21
-7.21688
  0
LINE
  8
0
 10
-37.5
 20
-7.21688
 11
-34.375
 21
-7.21688
  0
LINE
  8
0
 10
-34.375
 20
-7.21688
 11
-35.9375
 21
-4.51055
  0
LINE
  8
0
 10
-35.9375
 20
-26.1612
 11
-37.5
 21
-28.8675
  0
LINE
  8
0
 10
-37.5
 20
-28.8675
 11
-34.375
 21
-28.8675
  0
LINE
  8
0
 10
-34.375
 20
-28.8675
 11
-35.9375
 21
-26.1612
  0
LINE
  8
0
 10
-35.9375
 20
-9.92321
 11
-37.5
 21
-12.6295
  0
LINE
  8
0
 10
-37.5
 20
-12.6295
 11
-34.375
 21
-12.6295
  0
LINE
  8
0
 10
-34.375
 20
-12.6295
 11
-35.9375
 21
-9.92321
  0
LINE
  8
0
 10
-35.9375
 20
-15.3359
 11
-37.5
 21
-18.0422
  0
LINE
  8
0
 10
-37.5
 20
-18.0422
 11
-34.375
 21
-18.0422
  0
LINE
  8
0
 10
-34.375
 20
-18.0422
 11
-35.9375
 21
-15.3359
  0
LINE
  8
0
 10
-34.375
 20
-1.80422
 11
-35.9375
 21
-4.51055
  0
LINE
  8
0
 10
-35.9375
 20
-4.51055
 11
-32.8125
 21
-4.51055
  0
LINE
  8
0
 10
-32.8125
 20
-4.51055
 11
-34.375
 21
-1.80422
  0
LINE
  8
0
 10
-34.375
 20
-23.4549
 11
-35.9375
 21
-26.1612
  0
LINE
  8
0
 10
-35.9375
 20
-26.1612
 11
-32.8125
 21
-26.1612
  0
LINE
  8
0
 10
-32.8125
 20
-26.1612
 11
-34.375
 21
-23.4549
  0
LINE
  8
0
 10
-34.375
 20
-12.6295
 11
-35.9375
 21
-15.3359
  0
LINE
  8
0
 10
-35.9375
 20
-15.3359
 11
-32.8125
 21
-15.3359
  0
LINE
  8
0
 10
-32.8125
 20
-15.3359
 11
-34.375
 21
-12.6295
  0
LINE
  8
0
 10
-32.8125
 20
-20.7485
 11
-34.375
 21
-23.4549
  0
LINE
  8
0
 10
-34.375
 20
-23.4549
 11
-31.25
 21
-23.4549
  0
LINE
  8
0
 10
-31.25
 20
-23.4549
 11
-32.8125
 21
-20.7485
  0
LINE
  8
0
 10
-32.8125
 20
-26.1612
 11
-34.375
 21
-28.8675
  0
LINE
  8
0
 10
-34.375
 20
-28.8675
 11
-31.25
 21
-28.8675
  0
LINE
  8
0
 10
-31.25
 20
-28.8675
 11
-32.8125
 21
-26.1612
  0
LINE
  8
0
 10
-32.8125
 20
-4.51055
 11
-34.375
 21
-7.21688
  0
LINE
  8
0
 10
-34.375
 20
-7.21688
 11
-31.25
 21
-7.21688
  0
LINE
  8
0
 10
-31.25
 20
-7.21688
 11
-32.8125
 21
-4.51055
  0
LINE
  8
0
 10
-32.8125
 20
0.902109
 11
-34.375
 21
-1.80422
  0
LINE
  8
0
 10
-34.375
 20
-1.80422
 11
-31.25
 21
-1.80422
  0
LINE
  8
0
 10
-31.25
 20
-1.80422
 11
-32.8125
 21
0.902109
  0
LINE
  8
0
 10
-32.8125
 20
-15.3359
 11
-34.375
 21
-18.0422
  0
LINE
  8
0
 10
-34.375
 20
-18.0422
 11
-31.25
 21
-18.0422
  0
LINE
  8
0
 10
-31.25
 20
-18.0422
 11
-32.8125
 21
-15.3359
  0
LINE
  8
0
 10
-31.25
 20
-18.0422
 11
-32.8125
 21
-20.7485
  0
LINE
  8
0
 10
-32.8125
 20
-20.7485
 11
-29.6875
 21
-20.7485
  0
LINE
  8
0
 10
-29.6875
 20
-20.7485
 11
-31.25
 21
-18.0422
  0
LINE
  8
0
 10
-31.25
 20
3.60844
 11
-32.8125
 21
0.902109
  0
LINE
  8
0
 10
-32.8125
 20
0.902109
 11
-29.6875
 21
0.902109
  0
LINE
  8
0
 10
-29.6875
 20
0.902109
 11
-31.25
 21
3.60844
  0
LINE
  8
0
 10
-29.6875
 20
-20.7485
 11
-31.25
 21
-23.4549
  0
LINE
  8
0
 10
-31.25
 20
-23.4549
 11
-28.125
 21
-23.4549
  0
LINE
  8
0
 10
-28.125
 20
-23.4549
 11
-29.6875
 21
-20.7485
  0
LINE
  8
0
 10
-29.6875
 20
-26.1612
 11
-31.25
 21
-28.8675
  0
LINE
  8
0
 10
-31.25
 20
-28.8675
 11
-28.125
 21
-28.8675
  0
LINE
  8
0
 10
-28.125
 20
-28.8675
 11
-29.6875
 21
-26.1612
  0
LINE
  8
0
 10
-29.6875
 20
-4.51055
 11
-31.25
 21
-7.21688
  0
LINE
  8
0
 10
-31.25
 20
-7.21688
 11
-28.125
 21
-7.21688
  0
LINE
  8
0
 10
-28.125
 20
-7.21688
 11
-29.6875
 21
-4.51055
  0
LINE
  8
0
 10
-29.6875
 20
0.902109
 11
-31.25
 21
-1.80422
  0
LINE
  8
0
 10
-31.25
 20
-1.80422
 11
-28.125
 21
-1.80422
  0
LINE
  8
0
 10
-28.125
 20
-1.80422
 11
-29.6875
 21
0.902109
  0
LINE
  8
0
 10
-29.6875
 20
6.31477
 11
-31.25
 21
3.60844
  0
LINE
  8
0
 10
-31.25
 20
3.60844
 11
-28.125
 21
3.60844
  0
LINE
  8
0
 10
-28.125
 20
3.60844
 11
-29.6875
 21
6.31477
  0
LINE
  8
0
 10
-28.125
 20
-23.4549
 11
-29.6875
 21
-26.1612
  0
LINE
  8
0
 10
-29.6875
 20
-26.1612
 11
-26.5625
 21
-26.1612
  0
LINE
  8
0
 10
-26.5625
 20
-26.1612
 11
-28.125
 21
-23.4549
  0
LINE
  8
0
 10
-28.125
 20
-1.80422
 11
-29.6875
 21
-4.51055
  0
LINE
  8
0
 10
-29.6875
 20
-4.51055
 11
-26.5625
 21
-4.51055
  0
LINE
  8
0
 10
-26.5625
 20
-4.51055
 11
-28.125
 21
-1.80422
  0
LINE
  8
0
 10
-28.125
 20
9.0211
 11
-29.6875
 21
6.31477
  0
LINE
  8
0
 10
-29.6875
 20
6.31477
 11
-26.5625
 21
6.31477
  0
LINE
  8
0
 10
-26.5625
 20
6.31477
 11
-28.125
 21
9.0211
  0
LINE
  8
0
 10
-26.5625
 20
-26.1612
 11
-28.125
 21
-28.8675
  0
LINE
  8
0
 10
-28.125
 20
-28.8675
 11
-25
 21
-28.8675
  0
LINE
  8
0
 10
-25
 20
-28.8675
 11
-26.5625
 21
-26.1612
  0
LINE
  8
0
 10
-26.5625
 20
-4.51055
 11
-28.125
 21
-7.21688
  0
LINE
  8
0
 10
-28.125
 20
-7.21688
 11
-25
 21
-7.21688
  0
LINE
  8
0
 10
-25
 20
-7.21688
 11
-26.5625
 21
-4.51055
  0
LINE
  8
0
 10
-26.5625
 20
6.31477
 11
-28.125
 21
3.60844
  0
LINE
  8
0
 10
-28.125
 20
3.60844
 11
-25
 21
3.60844
  0
LINE
  8
0
 10
-25
 20
3.60844
 11
-26.5625
 21
6.31477
  0
LINE
  8
0
 10
-26.5625
 20
11.7274
 11
-28.125
 21
9.0211
  0
LINE
  8
0
 10
-28.125
 20
9.0211
 11
-25
 21
9.0211
  0
LINE
  8
0
 10
-25
 20
9.0211
 11
-26.5625
 21
11.7274
  0
LINE
  8
0
 10
-25
 20
14.4338
 11
-26.5625
 21
11.7274
  0
LINE
  8
0
 10
-26.5625
 20
11.7274
 11
-23.4375
 21
11.7274
  0
LINE
  8
0
 10
-23.4375
 20
11.7274
 11
-25
 21
14.4338
  0
LINE
  8
0
 10
-23.4375
 20
17.1401
 11
-25
 21
14.4338
  0
LINE
  8
0
 10
-25
 20
14.4338
 11
-21.875
 21
14.4338
  0
LINE
  8
0
 10
-21.875
 20
14.4338
 11
-23.4375
 21
17.1401
  0
LINE
  8
0
 10
-23.4375
 20
11.7274
 11
-25
 21
9.0211
  0
LINE
  8
0
 10
-25
 20
9.0211
 11
-21.875
 21
9.0211
  0
LINE
  8
0
 10
-21.875
 20
9.0211
 11
-23.4375
 21
11.7274
  0
LINE
  8
0
 10
-23.4375
 20
6.31477
 11
-25
 21
3.60844
  0
LINE
  8
0
 10
-25
 20
3.60844
 11
-21.875
 21
3.60844
  0
LINE
  8
0
 10
-21.875
 20
3.60844
 11
-23.4375
 21
6.31477
  0
LINE
  8
0
 10
-23.4375
 20
-4.51055
 11
-25
 21
-7.21688
  0
LINE
  8
0
 10
-25
 20
-7.21688
 11
-21.875
 21
-7.21688
  0
LINE
  8
0
 10
-21.875
 20
-7.21688
 11
-23.4375
 21
-4.51055
  0
LINE
  8
0
 10
-23.4375
 20
-26.1612
 11
-25
 21
-28.8675
  0
LINE
  8
0
 10
-25
 20
-28.8675
 11
-21.875
 21
-28.8675
  0
LINE
  8
0
 10
-21.875
 20
-28.8675
 11
-23.4375
 21
-26.1612
  0
LINE
  8
0
 10
-21.875
 20
19.8464
 11
-23.4375
 21
17.1401
  0
LINE
  8
0
 10
-23.4375
 20
17.1401
 11
-20.3125
 21
17.1401
  0
LINE
  8
0
 10
-20.3125
 20
17.1401
 11
-21.875
 21
19.8464
  0
LINE
  8
0
 10
-21.875
 20
9.0211
 11
-23.4375
 21
6.31477
  0
LINE
  8
0
 10
-23.4375
 20
6.31477
 11
-20.3125
 21
6.31477
  0
LINE
  8
0
 10
-20.3125
 20
6.31477
 11
-21.875
 21
9.0211
  0
LINE
  8
0
 10
-21.875
 20
-1.80422
 11
-23.4375
 21
-4.51055
  0
LINE
  8
0
 10
-23.4375
 20
-4.51055
 11
-20.3125
 21
-4.51055
  0
LINE
  8
0
 10
-20.3125
 20
-4.51055
 11
-21.875
 21
-1.80422
  0
LINE
  8
0
 10
-21.875
 20
-23.4549
 11
-23.4375
 21
-26.1612
  0
LINE
  8
0
 10
-23.4375
 20
-26.1612
 11
-20.3125
 21
-26.1612
  0
LINE
  8
0
 10
-20.3125
 20
-26.1612
 11
-21.875
 21
-23.4549
  0
LINE
  8
0
 10
-20.3125
 20
22.5527
 11
-21.875
 21
19.8464
  0
LINE
  8
0
 10
-21.875
 20
19.8464
 11
-18.75
 21
19.8464
  0
LINE
  8
0
 10
-18.75
 20
19.8464
 11
-20.3125
 21
22.5527
  0
LINE
  8
0
 10
-20.3125
 20
17.1401
 11
-21.875
 21
14.4338
  0
LINE
  8
0
 10
-21.875
 20
14.4338
 11
-18.75
 21
14.4338
  0
LINE
  8
0
 10
-18.75
 20
14.4338
 11
-20.3125
 21
17.1401
  0
LINE
  8
0
 10
-20.3125
 20
6.31477
 11
-21.875
 21
3.60844
  0
LINE
  8
0
 10
-21.875
 20
3.60844
 11
-18.75
 21
3.60844
  0
LINE
  8
0
 10
-18.75
 20
3.60844
 11
-20.3125
 21
6.31477
  0
LINE
  8
0
 10
-20.3125
 20
0.902109
 11
-21.875
 21
-1.80422
  0
LINE
  8
0
 10
-21.875
 20
-1.80422
 11
-18.75
 21
-1.80422
  0
LINE
  8
0
 10
-18.75
 20
-1.80422
 11
-20.3125
 21
0.902109
  0
LINE
  8
0
 10
-20.3125
 20
-4.51055
 11
-21.875
 21
-7.21688
  0
LINE
  8
0
 10
-21.875
 20
-7.21688
 11
-18.75
 21
-7.21688
  0
LINE
  8
0
 10
-18.75
 20
-7.21688
 11
-20.3125
 21
-4.51055
  0
LINE
  8
0
 10
-20.3125
 20
-26.1612
 11
-21.875
 21
-28.8675
  0
LINE
  8
0
 10
-21.875
 20
-28.8675
 11
-18.75
 21
-28.8675
  0
LINE
  8
0
 10
-18.75
 20
-28.8675
 11
-20.3125
 21
-26.1612
  0
LINE
  8
0
 10
-20.3125
 20
-20.7485
 11
-21.875
 21
-23.4549
  0
LINE
  8
0
 10
-21.875
 20
-23.4549
 11
-18.75
 21
-23.4549
  0
LINE
  8
0
 10
-18.75
 20
-23.4549
 11
-20.3125
 21
-20.7485
  0
LINE
  8
0
 10
-18.75
 20
25.2591
 11
-20.3125
 21
22.5527
  0
LINE
  8
0
 10
-20.3125
 20
22.5527
 11
-17.1875
 21
22.5527
  0
LINE
  8
0
 10
-17.1875
 20
22.5527
 11
-18.75
 21
25.2591
  0
LINE
  8
0
 10
-18.75
 20
3.60844
 11
-20.3125
 21
0.902109
  0
LINE
  8
0
 10
-20.3125
 20
0.902109
 11
-17.1875
 21
0.902109
  0
LINE
  8
0
 10
-17.1875
 20
0.902109
 11
-18.75
 21
3.60844
  0
LINE
  8
0
 10
-18.75
 20
-18.0422
 11
-20.3125
 21
-20.7485
  0
LINE
  8
0
 10
-20.3125
 20
-20.7485
 11
-17.1875
 21
-20.7485
  0
LINE
  8
0
 10
-17.1875
 20
-20.7485
 11
-18.75
 21
-18.0422
  0
LINE
  8
0
 10
-17.1875
 20
17.1401
 11
-18.75
 21
14.4338
  0
LINE
  8
0
 10
-18.75
 20
14.4338
 11
-15.625
 21
14.4338
  0
LINE
  8
0
 10
-15.625
 20
14.4338
 11
-17.1875
 21
17.1401
  0
LINE
  8
0
 10
-17.1875
 20
22.5527
 11
-18.75
 21
19.8464
  0
LINE
  8
0
 10
-18.75
 20
19.8464
 11
-15.625
 21
19.8464
  0
LINE
  8
0
 10
-15.625
 20
19.8464
 11
-17.1875
 21
22.5527
  0
LINE
  8
0
 10
-17.1875
 20
27.9654
 11
-18.75
 21
25.2591
  0
LINE
  8
0
 10
-18.75
 20
25.2591
 11
-15.625
 21
25.2591
  0
LINE
  8
0
 10
-15.625
 20
25.2591
 11
-17.1875
 21
27.9654
  0
LINE
  8
0
 10
-17.1875
 20
-20.7485
 11
-18.75
 21
-23.4549
  0
LINE
  8
0
 10
-18.75
 20
-23.4549
 11
-15.625
 21
-23.4549
  0
LINE
  8
0
 10
-15.625
 20
-23.4549
 11
-17.1875
 21
-20.7485
  0
LINE
  8
0
 10
-17.1875
 20
-26.1612
 11
-18.75
 21
-28.8675
  0
LINE
  8
0
 10
-18.75
 20
-28.8675
 11
-15.625
 21
-28.8675
  0
LINE
  8
0
 10
-15.625
 20
-28.8675
 11
-17.1875
 21
-26.1612
  0
LINE
  8
0
 10
-17.1875
 20
-4.51055
 11
-18.75
 21
-7.21688
  0
LINE
  8
0
 10
-18.75
 20
-7.21688
 11
-15.625
 21
-7.21688
  0
LINE
  8
0
 10
-15.625
 20
-7.21688
 11
-17.1875
 21
-4.51055
  0
LINE
  8
0
 10
-17.1875
 20
0.902109
 11
-18.75
 21
-1.80422
  0
LINE
  8
0
 10
-18.75
 20
-1.80422
 11
-15.625
 21
-1.80422
  0
LINE
  8
0
 10
-15.625
 20
-1.80422
 11
-17.1875
 21
0.902109
  0
LINE
  8
0
 10
-17.1875
 20
-15.3359
 11
-18.75
 21
-18.0422
  0
LINE
  8
0
 10
-18.75
 20
-18.0422
 11
-15.625
 21
-18.0422
  0
LINE
  8
0
 10
-15.625
 20
-18.0422
 11
-17.1875
 21
-15.3359
  0
LINE
  8
0
 10
-15.625
 20
-1.80422
 11
-17.1875
 21
-4.51055
  0
LINE
  8
0
 10
-17.1875
 20
-4.51055
 11
-14.0625
 21
-4.51055
  0
LINE
  8
0
 10
-14.0625
 20
-4.51055
 11
-15.625
 21
-1.80422
  0
LINE
  8
0
 10
-15.625
 20
-23.4549
 11
-17.1875
 21
-26.1612
  0
LINE
  8
0
 10
-17.1875
 20
-26.1612
 11
-14.0625
 21
-26.1612
  0
LINE
  8
0
 10
-14.0625
 20
-26.1612
 11
-15.625
 21
-23.4549
  0
LINE
  8
0
 10
-15.625
 20
19.8464
 11
-17.1875
 21
17.1401
  0
LINE
  8
0
 10
-17.1875
 20
17.1401
 11
-14.0625
 21
17.1401
  0
LINE
  8
0
 10
-14.0625
 20
17.1401
 11
-15.625
 21
19.8464
  0
LINE
  8
0
 10
-15.625
 20
30.6717
 11
-17.1875
 21
27.9654
  0
LINE
  8
0
 10
-17.1875
 20
27.9654
 11
-14.0625
 21
27.9654
  0
LINE
  8
0
 10
-14.0625
 20
27.9654
 11
-15.625
 21
30.6717
  0
LINE
  8
0
 10
-15.625
 20
-12.6295
 11
-17.1875
 21
-15.3359
  0
LINE
  8
0
 10
-17.1875
 20
-15.3359
 11
-14.0625
 21
-15.3359
  0
LINE
  8
0
 10
-14.0625
 20
-15.3359
 11
-15.625
 21
-12.6295
  0
LINE
  8
0
 10
-14.0625
 20
-4.51055
 11
-15.625
 21
-7.21688
  0
LINE
  8
0
 10
-15.625
 20
-7.21688
 11
-12.5
 21
-7.21688
  0
LINE
  8
0
 10
-12.5
 20
-7.21688
 11
-14.0625
 21
-4.51055
  0
LINE
  8
0
 10
-14.0625
 20
-26.1612
 11
-15.625
 21
-28.8675
  0
LINE
  8
0
 10
-15.625
 20
-28.8675
 11
-12.5
 21
-28.8675
  0
LINE
  8
0
 10
-12.5
 20
-28.8675
 11
-14.0625
 21
-26.1612
  0
LINE
  8
0
 10
-14.0625
 20
-15.3359
 11
-15.625
 21
-18.0422
  0
LINE
  8
0
 10
-15.625
 20
-18.0422
 11
-12.5
 21
-18.0422
  0
LINE
  8
0
 10
-12.5
 20
-18.0422
 11
-14.0625
 21
-15.3359
  0
LINE
  8
0
 10
-14.0625
 20
-9.92321
 11
-15.625
 21
-12.6295
  0
LINE
  8
0
 10
-15.625
 20
-12.6295
 11
-12.5
 21
-12.6295
  0
LINE
  8
0
 10
-12.5
 20
-12.6295
 11
-14.0625
 21
-9.92321
  0
LINE
  8
0
 10
-14.0625
 20
17.1401
 11
-15.625
 21
14.4338
  0
LINE
  8
0
 10
-15.625
 20
14.4338
 11
-12.5
 21
14.4338
  0
LINE
  8
0
 10
-12.5
 20
14.4338
 11
-14.0625
 21
17.1401
  0
LINE
  8
0
 10
-14.0625
 20
27.9654
 11
-15.625
 21
25.2591
  0
LINE
  8
0
 10
-15.625
 20
25.2591
 11
-12.5
 21
25.2591
  0
LINE
  8
0
 10
-12.5
 20
25.2591
 11
-14.0625
 21
27.9654
  0
LINE
  8
0
 10
-14.0625
 20
33.3781
 11
-15.625
 21
30.6717
  0
LINE
  8
0
 10
-15.625
 20
30.6717
 11
-12.5
 21
30.6717
  0
LINE
  8
0
 10
-12.5
 20
30.6717
 11
-14.0625
 21
33.3781
  0
LINE
  8
0
 10
-12.5
 20
-7.21688
 11
-14.0625
 21
-9.92321
  0
LINE
  8
0
 10
-14.0625
 20
-9.92321
 11
-10.9375
 21
-9.92321
  0
LINE
  8
0
 10
-10.9375
 20
-9.92321
 11
-12.5
 21
-7.21688
  0
LINE
  8
0
 10
-12.5
 20
36.0844
 11
-14.0625
 21
33.3781
  0
LINE
  8
0
 10
-14.0625
 20
33.3781
 11
-10.9375
 21
33.3781
  0
LINE
  8
0
 10
-10.9375
 20
33.3781
 11
-12.5
 21
36.0844
  0
LINE
  8
0
 10
-10.9375
 20
17.1401
 11
-12.5
 21
14.4338
  0
LINE
  8
0
 10
-12.5
 20
14.4338
 11
-9.375
 21
14.4338
  0
LINE
  8
0
 10
-9.375
 20
14.4338
 11
-10.9375
 21
17.1401
  0
LINE
  8
0
 10
-10.9375
 20
27.9654
 11
-12.5
 21
25.2591
  0
LINE
  8
0
 10
-12.5
 20
25.2591
 11
-9.375
 21
25.2591
  0
LINE
  8
0
 10
-9.375
 20
25.2591
 11
-10.9375
 21
27.9654
  0
LINE
  8
0
 10
-10.9375
 20
33.3781
 11
-12.5
 21
30.6717
  0
LINE
  8
0
 10
-12.5
 20
30.6717
 11
-9.375
 21
30.6717
  0
LINE
  8
0
 10
-9.375
 20
30.6717
 11
-10.9375
 21
33.3781
  0
LINE
  8
0
 10
-10.9375
 20
38.7907
 11
-12.5
 21
36.0844
  0
LINE
  8
0
 10
-12.5
 20
36.0844
 11
-9.375
 21
36.0844
  0
LINE
  8
0
 10
-9.375
 20
36.0844
 11
-10.9375
 21
38.7907
  0
LINE
  8
0
 10
-10.9375
 20
-9.92321
 11
-12.5
 21
-12.6295
  0
LINE
  8
0
 10
-12.5
 20
-12.6295
 11
-9.375
 21
-12.6295
  0
LINE
  8
0
 10
-9.375
 20
-12.6295
 11
-10.9375
 21
-9.92321
  0
LINE
  8
0
 10
-10.9375
 20
-15.3359
 11
-12.5
 21
-18.0422
  0
LINE
  8
0
 10
-12.5
 20
-18.0422
 11
-9.375
 21
-18.0422
  0
LINE
  8
0
 10
-9.375
 20
-18.0422
 11
-10.9375
 21
-15.3359
  0
LINE
  8
0
 10
-10.9375
 20
-26.1612
 11
-12.5
 21
-28.8675
  0
LINE
  8
0
 10
-12.5
 20
-28.8675
 11
-9.375
 21
-28.8675
  0
LINE
  8
0
 10
-9.375
 20
-28.8675
 11
-10.9375
 21
-26.1612
  0
LINE
  8
0
 10
-9.375
 20
41.497
 11
-10.9375
 21
38.7907
  0
LINE
  8
0
 10
-10.9375
 20
38.7907
 11
-7.8125
 21
38.7907
  0
LINE
  8
0
 10
-7.8125
 20
38.7907
 11
-9.375
 21
41.497
  0
LINE
  8
0
 10
-9.375
 20
19.8464
 11
-10.9375
 21
17.1401
  0
LINE
  8
0
 10
-10.9375
 20
17.1401
 11
-7.8125
 21
17.1401
  0
LINE
  8
0
 10
-7.8125
 20
17.1401
 11
-9.375
 21
19.8464
  0
LINE
  8
0
 10
-9.375
 20
30.6717
 11
-10.9375
 21
27.9654
  0
LINE
  8
0
 10
-10.9375
 20
27.9654
 11
-7.8125
 21
27.9654
  0
LINE
  8
0
 10
-7.8125
 20
27.9654
 11
-9.375
 21
30.6717
  0
LINE
  8
0
 10
-9.375
 20
-12.6295
 11
-10.9375
 21
-15.3359
  0
LINE
  8
0
 10
-10.9375
 20
-15.3359
 11
-7.8125
 21
-15.3359
  0
LINE
  8
0
 10
-7.8125
 20
-15.3359
 11
-9.375
 21
-12.6295
  0
LINE
  8
0
 10
-9.375
 20
-23.4549
 11
-10.9375
 21
-26.1612
  0
LINE
  8
0
 10
-10.9375
 20
-26.1612
 11
-7.8125
 21
-26.1612
  0
LINE
  8
0
 10
-7.8125
 20
-26.1612
 11
-9.375
 21
-23.4549
  0
LINE
  8
0
 10
-7.8125
 20
-26.1612
 11
-9.375
 21
-28.8675
  0
LINE
  8
0
 10
-9.375
 20
-28.8675
 11
-6.25
 21
-28.8675
  0
LINE
  8
0
 10
-6.25
 20
-28.8675
 11
-7.8125
 21
-26.1612
  0
LINE
  8
0
 10
-7.8125
 20
-20.7485
 11
-9.375
 21
-23.4549
  0
LINE
  8
0
 10
-9.375
 20
-23.4549
 11
-6.25
 21
-23.4549
  0
LINE
  8
0
 10
-6.25
 20
-23.4549
 11
-7.8125
 21
-20.7485
  0
LINE
  8
0
 10
-7.8125
 20
-15.3359
 11
-9.375
 21
-18.0422
  0
LINE
  8
0
 10
-9.375
 20
-18.0422
 11
-6.25
 21
-18.0422
  0
LINE
  8
0
 10
-6.25
 20
-18.0422
 11
-7.8125
 21
-15.3359
  0
LINE
  8
0
 10
-7.8125
 20
22.5527
 11
-9.375
 21
19.8464
  0
LINE
  8
0
 10
-9.375
 20
19.8464
 11
-6.25
 21
19.8464
  0
LINE
  8
0
 10
-6.25
 20
19.8464
 11
-7.8125
 21
22.5527
  0
LINE
  8
0
 10
-7.8125
 20
17.1401
 11
-9.375
 21
14.4338
  0
LINE
  8
0
 10
-9.375
 20
14.4338
 11
-6.25
 21
14.4338
  0
LINE
  8
0
 10
-6.25
 20
14.4338
 11
-7.8125
 21
17.1401
  0
LINE
  8
0
 10
-7.8125
 20
38.7907
 11
-9.375
 21
36.0844
  0
LINE
  8
0
 10
-9.375
 20
36.0844
 11
-6.25
 21
36.0844
  0
LINE
  8
0
 10
-6.25
 20
36.0844
 11
-7.8125
 21
38.7907
  0
LINE
  8
0
 10
-7.8125
 20
44.2034
 11
-9.375
 21
41.497
  0
LINE
  8
0
 10
-9.375
 20
41.497
 11
-6.25
 21
41.497
  0
LINE
  8
0
 10
-6.25
 20
41.497
 11
-7.8125
 21
44.2034
  0
LINE
  8
0
 10
-7.8125
 20
27.9654
 11
-9.375
 21
25.2591
  0
LINE
  8
0
 10
-9.375
 20
25.2591
 11
-6.25
 21
25.2591
  0
LINE
  8
0
 10
-6.25
 20
25.2591
 11
-7.8125
 21
27.9654
  0
LINE
  8
0
 10
-6.25
 20
-18.0422
 11
-7.8125
 21
-20.7485
  0
LINE
  8
0
 10
-7.8125
 20
-20.7485
 11
-4.6875
 21
-20.7485
  0
LINE
  8
0
 10
-4.6875
 20
-20.7485
 11
-6.25
 21
-18.0422
  0
LINE
  8
0
 10
-6.25
 20
25.2591
 11
-7.8125
 21
22.5527
  0
LINE
  8
0
 10
-7.8125
 20
22.5527
 11
-4.6875
 21
22.5527
  0
LINE
  8
0
 10
-4.6875
 20
22.5527
 11
-6.25
 21
25.2591
  0
LINE
  8
0
 10
-6.25
 20
46.9097
 11
-7.8125
 21
44.2034
  0
LINE
  8
0
 10
-7.8125
 20
44.2034
 11
-4.6875
 21
44.2034
  0
LINE
  8
0
 10
-4.6875
 20
44.2034
 11
-6.25
 21
46.9097
  0
LINE
  8
0
 10
-4.6875
 20
-20.7485
 11
-6.25
 21
-23.4549
  0
LINE
  8
0
 10
-6.25
 20
-23.4549
 11
-3.125
 21
-23.4549
  0
LINE
  8
0
 10
-3.125
 20
-23.4549
 11
-4.6875
 21
-20.7485
  0
LINE
  8
0
 10
-4.6875
 20
-26.1612
 11
-6.25
 21
-28.8675
  0
LINE
  8
0
 10
-6.25
 20
-28.8675
 11
-3.125
 21
-28.8675
  0
LINE
  8
0
 10
-3.125
 20
-28.8675
 11
-4.6875
 21
-26.1612
  0
LINE
  8
0
 10
-4.6875
 20
22.5527
 11
-6.25
 21
19.8464
  0
LINE
  8
0
 10
-6.25
 20
19.8464
 11
-3.125
 21
19.8464
  0
LINE
  8
0
 10
-3.125
 20
19.8464
 11
-4.6875
 21
22.5527
  0
LINE
  8
0
 10
-4.6875
 20
17.1401
 11
-6.25
 21
14.4338
  0
LINE
  8
0
 10
-6.25
 20
14.4338
 11
-3.125
 21
14.4338
  0
LINE
  8
0
 10
-3.125
 20
14.4338
 11
-4.6875
 21
17.1401
  0
LINE
  8
0
 10
-4.6875
 20
38.7907
 11
-6.25
 21
36.0844
  0
LINE
  8
0
 10
-6.25
 20
36.0844
 11
-3.125
 21
36.0844
  0
LINE
  8
0
 10
-3.125
 20
36.0844
 11
-4.6875
 21
38.7907
  0
LINE
  8
0
 10
-4.6875
 20
44.2034
 11
-6.25
 21
41.497
  0
LINE
  8
0
 10
-6.25
 20
41.497
 11
-3.125
 21
41.497
  0
LINE
  8
0
 10
-3.125
 20
41.497
 11
-4.6875
 21
44.2034
  0
LINE
  8
0
 10
-4.6875
 20
49.616
 11
-6.25
 21
46.9097
  0
LINE
  8
0
 10
-6.25
 20
46.9097
 11
-3.125
 21
46.9097
  0
LINE
  8
0
 10
-3.125
 20
46.9097
 11
-4.6875
 21
49.616
  0
LINE
  8
0
 10
-3.125
 20
-23.4549
 11
-4.6875
 21
-26.1612
  0
LINE
  8
0
 10
-4.6875
 20
-26.1612
 11
-1.5625
 21
-26.1612
  0
LINE
  8
0
 10
-1.5625
 20
-26.1612
 11
-3.125
 21
-23.4549
  0
LINE
  8
0
 10
-3.125
 20
19.8464
 11
-4.6875
 21
17.1401
  0
LINE
  8
0
 10
-4.6875
 20
17.1401
 11
-1.5625
 21
17.1401
  0
LINE
  8
0
 10
-1.5625
 20
17.1401
 11
-3.125
 21
19.8464
  0
LINE
  8
0
 10
-3.125
 20
41.497
 11
-4.6875
 21
38.7907
  0
LINE
  8
0
 10
-4.6875
 20
38.7907
 11
-1.5625
 21
38.7907
  0
LINE
  8
0
 10
-1.5625
 20
38.7907
 11
-3.125
 21
41.497
  0
LINE
  8
0
 10
-3.125
 20
52.3224
 11
-4.6875
 21
49.616
  0
LINE
  8
0
 10
-4.6875
 20
49.616
 11
-1.5625
 21
49.616
  0
LINE
  8
0
 10
-1.5625
 20
49.616
 11
-3.125
 21
52.3224
  0
LINE
  8
0
 10
-1.5625
 20
17.1401
 11
-3.125
 21
14.4338
  0
LINE
  8
0
 10
-3.125
 20
14.4338
 11
0
 21
14.4338
  0
LINE
  8
0
 10
0
 20
14.4338
 11
-1.5625
 21
17.1401
  0
LINE
  8
0
 10
-1.5625
 20
38.7907
 11
-3.125
 21
36.0844
  0
LINE
  8
0
 10
-3.125
 20
36.0844
 11
0
 21
36.0844
  0
LINE
  8
0
 10
0
 20
36.0844
 11
-1.5625
 21
38.7907
  0
LINE
  8
0
 10
-1.5625
 20
49.616
 11
-3.125
 21
46.9097
  0
LINE
  8
0
 10
-3.125
 20
46.9097
 11
0
 21
46.9097
  0
LINE
  8
0
 10
0
 20
46.9097
 11
-1.5625
 21
49.616
  0
LINE
  8
0
 10
-1.5625
 20
55.0287
 11
-3.125
 21
52.3224
  0
LINE
  8
0
 10
-3.125
 20
52.3224
 11
0
 21
52.3224
  0
LINE
  8
0
 10
0
 20
52.3224
 11
-1.5625
 21
55.0287
  0
LINE
  8
0
 10
-1.5625
 20
-26.1612
 11
-3.125
 21
-28.8675
  0
LINE
  8
0
 10
-3.125
 20
-28.8675
 11
0
 21
-28.8675
  0
LINE
  8
0
 10
0
 20
-28.8675
 11
-1.5625
 21
-26.1612
  0
LINE
  8
0
 10
0
 20
57.735
 11
-1.5625
 21
55.0287
  0
LINE
  8
0
 10
-1.5625
 20
55.0287
 11
1.5625
 21
55.0287
  0
LINE
  8
0
 10
1.5625
 20
55.0287
 11
0
 21
57.735
  0
LINE
  8
0
 10
1.5625
 20
-26.1612
 11
0
 21
-28.8675
  0
LINE
  8
0
 10
0
 20
-28.8675
 11
3.125
 21
-28.8675
  0
LINE
  8
0
 10
3.125
 20
-28.8675
 11
1.5625
 21
-26.1612
  0
LINE
  8
0
 10
1.5625
 20
49.616
 11
0
 21
46.9097
  0
LINE
  8
0
 10
0
 20
46.9097
 11
3.125
 21
46.9097
  0
LINE
  8
0
 10
3.125
 20
46.9097
 11
1.5625
 21
49.616
  0
LINE
  8
0
 10
1.5625
 20
17.1401
 11
0
 21
14.4338
  0
LINE
  8
0
 10
0
 20
14.4338
 11
3.125
 21
14.4338
  0
LINE
  8
0
 10
3.125
 20
14.4338
 11
1.5625
 21
17.1401
  0
LINE
  8
0
 10
1.5625
 20
55.0287
 11
0
 21
52.3224
  0
LINE
  8
0
 10
0
 20
52.3224
 11
3.125
 21
52.3224
  0
LINE
  8
0
 10
3.125
 20
52.3224
 11
1.5625
 21
55.0287
  0
LINE
  8
0
 10
1.5625
 20
38.7907
 11
0
 21
36.0844
  0
LINE
  8
0
 10
0
 20
36.0844
 11
3.125
 21
36.0844
  0
LINE
  8
0
 10
3.125
 20
36.0844
 11
1.5625
 21
38.7907
  0
LINE
  8
0
 10
3.125
 20
-23.4549
 11
1.5625
 21
-26.1612
  0
LINE
  8
0
 10
1.5625
 20
-26.1612
 11
4.6875
 21
-26.1612
  0
LINE
  8
0
 10
4.6875
 20
-26.1612
 11
3.125
 21
-23.4549
  0
LINE
  8
0
 10
3.125
 20
52.3224
 11
1.5625
 21
49.616
  0
LINE
  8
0
 10
1.5625
 20
49.616
 11
4.6875
 21
49.616
  0
LINE
  8
0
 10
4.6875
 20
49.616
 11
3.125
 21
52.3224
  0
LINE
  8
0
 10
3.125
 20
41.497
 11
1.5625
 21
38.7907
  0
LINE
  8
0
 10
1.5625
 20
38.7907
 11
4.6875
 21
38.7907
  0
LINE
  8
0
 10
4.6875
 20
38.7907
 11
3.125
 21
41.497
  0
LINE
  8
0
 10
3.125
 20
19.8464
 11
1.5625
 21
17.1401
  0
LINE
  8
0
 10
1.5625
 20
17.1401
 11
4.6875
 21
17.1401
  0
LINE
  8
0
 10
4.6875
 20
17.1401
 11
3.125
 21
19.8464
  0
LINE
  8
0
 10
4.6875
 20
-26.1612
 11
3.125
 21
-28.8675
  0
LINE
  8
0
 10
3.125
 20
-28.8675
 11
6.25
 21
-28.8675
  0
LINE
  8
0
 10
6.25
 20
-28.8675
 11
4.6875
 21
-26.1612
  0
LINE
  8
0
 10
4.6875
 20
-20.7485
 11
3.125
 21
-23.4549
  0
LINE
  8
0
 10
3.125
 20
-23.4549
 11
6.25
 21
-23.4549
  0
LINE
  8
0
 10
6.25
 20
-23.4549
 11
4.6875
 21
-20.7485
  0
LINE
  8
0
 10
4.6875
 20
49.616
 11
3.125
 21
46.9097
  0
LINE
  8
0
 10
3.125
 20
46.9097
 11
6.25
 21
46.9097
  0
LINE
  8
0
 10
6.25
 20
46.9097
 11
4.6875
 21
49.616
  0
LINE
  8
0
 10
4.6875
 20
44.2034
 11
3.125
 21
41.497
  0
LINE
  8
0
 10
3.125
 20
41.497
 11
6.25
 21
41.497
  0
LINE
  8
0
 10
6.25
 20
41.497
 11
4.6875
 21
44.2034
  0
LINE
  8
0
 10
4.6875
 20
38.7907
 11
3.125
 21
36.0844
  0
LINE
  8
0
 10
3.125
 20
36.0844
 11
6.25
 21
36.0844
  0
LINE
  8
0
 10
6.25
 20
36.0844
 11
4.6875
 21
38.7907
  0
LINE
  8
0
 10
4.6875
 20
17.1401
 11
3.125
 21
14.4338
  0
LINE
  8
0
 10
3.125
 20
14.4338
 11
6.25
 21
14.4338
  0
LINE
  8
0
 10
6.25
 20
14.4338
 11
4.6875
 21
17.1401
  0
LINE
  8
0
 10
4.6875
 20
22.5527
 11
3.125
 21
19.8464
  0
LINE
  8
0
 10
3.125
 20
19.8464
 11
6.25
 21
19.8464
  0
LINE
  8
0
 10
6.25
 20
19.8464
 11
4.6875
 21
22.5527
  0
LINE
  8
0
 10
6.25
 20
-18.0422
 11
4.6875
 21
-20.7485
  0
LINE
  8
0
 10
4.6875
 20
-20.7485
 11
7.8125
 21
-20.7485
  0
LINE
  8
0
 10
7.8125
 20
-20.7485
 11
6.25
 21
-18.0422
  0
LINE
  8
0
 10
6.25
 20
46.9097
 11
4.6875
 21
44.2034
  0
LINE
  8
0
 10
4.6875
 20
44.2034
 11
7.8125
 21
44.2034
  0
LINE
  8
0
 10
7.8125
 20
44.2034
 11
6.25
 21
46.9097
  0
LINE
  8
0
 10
6.25
 20
25.2591
 11
4.6875
 21
22.5527
  0
LINE
  8
0
 10
4.6875
 20
22.5527
 11
7.8125
 21
22.5527
  0
LINE
  8
0
 10
7.8125
 20
22.5527
 11
6.25
 21
25.2591
  0
LINE
  8
0
 10
7.8125
 20
-26.1612
 11
6.25
 21
-28.8675
  0
LINE
  8
0
 10
6.25
 20
-28.8675
 11
9.375
 21
-28.8675
  0
LINE
  8
0
 10
9.375
 20
-28.8675
 11
7.8125
 21
-26.1612
  0
LINE
  8
0
 10
7.8125
 20
22.5527
 11
6.25
 21
19.8464
  0
LINE
  8
0
 10
6.25
 20
19.8464
 11
9.375
 21
19.8464
  0
LINE
  8
0
 10
9.375
 20
19.8464
 11
7.8125
 21
22.5527
  0
LINE
  8
0
 10
7.8125
 20
17.1401
 11
6.25
 21
14.4338
  0
LINE
  8
0
 10
6.25
 20
14.4338
 11
9.375
 21
14.4338
  0
LINE
  8
0
 10
9.375
 20
14.4338
 11
7.8125
 21
17.1401
  0
LINE
  8
0
 10
7.8125
 20
38.7907
 11
6.25
 21
36.0844
  0
LINE
  8
0
 10
6.25
 20
36.0844
 11
9.375
 21
36.0844
  0
LINE
  8
0
 10
9.375
 20
36.0844
 11
7.8125
 21
38.7907
  0
LINE
  8
0
 10
7.8125
 20
44.2034
 11
6.25
 21
41.497
  0
LINE
  8
0
 10
6.25
 20
41.497
 11
9.375
 21
41.497
  0
LINE
  8
0
 10
9.375
 20
41.497
 11
7.8125
 21
44.2034
  0
LINE
  8
0
 10
7.8125
 20
27.9654
 11
6.25
 21
25.2591
  0
LINE
  8
0
 10
6.25
 20
25.2591
 11
9.375
 21
25.2591
  0
LINE
  8
0
 10
9.375
 20
25.2591
 11
7.8125
 21
27.9654
  0
LINE
  8
0
 10
7.8125
 20
-15.3359
 11
6.25
 21
-18.0422
  0
LINE
  8
0
 10
6.25
 20
-18.0422
 11
9.375
 21
-18.0422
  0
LINE
  8
0
 10
9.375
 20
-18.0422
 11
7.8125
 21
-15.3359
  0
LINE
  8
0
 10
7.8125
 20
-20.7485
 11
6.25
 21
-23.4549
  0
LINE
  8
0
 10
6.25
 20
-23.4549
 11
9.375
 21
-23.4549
  0
LINE
  8
0
 10
9.375
 20
-23.4549
 11
7.8125
 21
-20.7485
  0
LINE
  8
0
 10
9.375
 20
30.6717
 11
7.8125
 21
27.9654
  0
LINE
  8
0
 10
7.8125
 20
27.9654
 11
10.9375
 21
27.9654
  0
LINE
  8
0
 10
10.9375
 20
27.9654
 11
9.375
 21
30.6717
  0
LINE
  8
0
 10
9.375
 20
41.497
 11
7.8125
 21
38.7907
  0
LINE
  8
0
 10
7.8125
 20
38.7907
 11
10.9375
 21
38.7907
  0
LINE
  8
0
 10
10.9375
 20
38.7907
 11
9.375
 21
41.497
  0
LINE
  8
0
 10
9.375
 20
-12.6295
 11
7.8125
 21
-15.3359
  0
LINE
  8
0
 10
7.8125
 20
-15.3359
 11
10.9375
 21
-15.3359
  0
LINE
  8
0
 10
10.9375
 20
-15.3359
 11
9.375
 21
-12.6295
  0
LINE
  8
0
 10
9.375
 20
-23.4549
 11
7.8125
 21
-26.1612
  0
LINE
  8
0
 10
7.8125
 20
-26.1612
 11
10.9375
 21
-26.1612
  0
LINE
  8
0
 10
10.9375
 20
-26.1612
 11
9.375
 21
-23.4549
  0
LINE
  8
0
 10
9.375
 20
19.8464
 11
7.8125
 21
17.1401
  0
LINE
  8
0
 10
7.8125
 20
17.1401
 11
10.9375
 21
17.1401
  0
LINE
  8
0
 10
10.9375
 20
17.1401
 11
9.375
 21
19.8464
  0
LINE
  8
0
 10
10.9375
 20
38.7907
 11
9.375
 21
36.0844
  0
LINE
  8
0
 10
9.375
 20
36.0844
 11
12.5
 21
36.0844
  0
LINE
  8
0
 10
12.5
 20
36.0844
 11
10.9375
 21
38.7907
  0
LINE
  8
0
 10
10.9375
 20
17.1401
 11
9.375
 21
14.4338
  0
LINE
  8
0
 10
9.375
 20
14.4338
 11
12.5
 21
14.4338
  0
LINE
  8
0
 10
12.5
 20
14.4338
 11
10.9375
 21
17.1401
  0
LINE
  8
0
 10
10.9375
 20
27.9654
 11
9.375
 21
25.2591
  0
LINE
  8
0
 10
9.375
 20
25.2591
 11
12.5
 21
25.2591
  0
LINE
  8
0
 10
12.5
 20
25.2591
 11
10.9375
 21
27.9654
  0
LINE
  8
0
 10
10.9375
 20
33.3781
 11
9.375
 21
30.6717
  0
LINE
  8
0
 10
9.375
 20
30.6717
 11
12.5
 21
30.6717
  0
LINE
  8
0
 10
12.5
 20
30.6717
 11
10.9375
 21
33.3781
  0
LINE
  8
0
 10
10.9375
 20
-9.92321
 11
9.375
 21
-12.6295
  0
LINE
  8
0
 10
9.375
 20
-12.6295
 11
12.5
 21
-12.6295
  0
LINE
  8
0
 10
12.5
 20
-12.6295
 11
10.9375
 21
-9.92321
  0
LINE
  8
0
 10
10.9375
 20
-15.3359
 11
9.375
 21
-18.0422
  0
LINE
  8
0
 10
9.375
 20
-18.0422
 11
12.5
 21
-18.0422
  0
LINE
  8
0
 10
12.5
 20
-18.0422
 11
10.9375
 21
-15.3359
  0
LINE
  8
0
 10
10.9375
 20
-26.1612
 11
9.375
 21
-28.8675
  0
LINE
  8
0
 10
9.375
 20
-28.8675
 11
12.5
 21
-28.8675
  0
LINE
  8
0
 10
12.5
 20
-28.8675
 11
10.9375
 21
-26.1612
  0
LINE
  8
0
 10
12.5
 20
36.0844
 11
10.9375
 21
33.3781
  0
LINE
  8
0
 10
10.9375
 20
33.3781
 11
14.0625
 21
33.3781
  0
LINE
  8
0
 10
14.0625
 20
33.3781
 11
12.5
 21
36.0844
  0
LINE
  8
0
 10
12.5
 20
-7.21688
 11
10.9375
 21
-9.92321
  0
LINE
  8
0
 10
10.9375
 20
-9.92321
 11
14.0625
 21
-9.92321
  0
LINE
  8
0
 10
14.0625
 20
-9.92321
 11
12.5
 21
-7.21688
  0
LINE
  8
0
 10
14.0625
 20
17.1401
 11
12.5
 21
14.4338
  0
LINE
  8
0
 10
12.5
 20
14.4338
 11
15.625
 21
14.4338
  0
LINE
  8
0
 10
15.625
 20
14.4338
 11
14.0625
 21
17.1401
  0
LINE
  8
0
 10
14.0625
 20
27.9654
 11
12.5
 21
25.2591
  0
LINE
  8
0
 10
12.5
 20
25.2591
 11
15.625
 21
25.2591
  0
LINE
  8
0
 10
15.625
 20
25.2591
 11
14.0625
 21
27.9654
  0
LINE
  8
0
 10
14.0625
 20
33.3781
 11
12.5
 21
30.6717
  0
LINE
  8
0
 10
12.5
 20
30.6717
 11
15.625
 21
30.6717
  0
LINE
  8
0
 10
15.625
 20
30.6717
 11
14.0625
 21
33.3781
  0
LINE
  8
0
 10
14.0625
 20
-4.51055
 11
12.5
 21
-7.21688
  0
LINE
  8
0
 10
12.5
 20
-7.21688
 11
15.625
 21
-7.21688
  0
LINE
  8
0
 10
15.625
 20
-7.21688
 11
14.0625
 21
-4.51055
  0
LINE
  8
0
 10
14.0625
 20
-26.1612
 11
12.5
 21
-28.8675
  0
LINE
  8
0
 10
12.5
 20
-28.8675
 11
15.625
 21
-28.8675
  0
LINE
  8
0
 10
15.625
 20
-28.8675
 11
14.0625
 21
-26.1612
  0
LINE
  8
0
 10
14.0625
 20
-9.92321
 11
12.5
 21
-12.6295
  0
LINE
  8
0
 10
12.5
 20
-12.6295
 11
15.625
 21
-12.6295
  0
LINE
  8
0
 10
15.625
 20
-12.6295
 11
14.0625
 21
-9.92321
  0
LINE
  8
0
 10
14.0625
 20
-15.3359
 11
12.5
 21
-18.0422
  0
LINE
  8
0
 10
12.5
 20
-18.0422
 11
15.625
 21
-18.0422
  0
LINE
  8
0
 10
15.625
 20
-18.0422
 11
14.0625
 21
-15.3359
  0
LINE
  8
0
 10
15.625
 20
-1.80422
 11
14.0625
 21
-4.51055
  0
LINE
  8
0
 10
14.0625
 20
-4.51055
 11
17.1875
 21
-4.51055
  0
LINE
  8
0
 10
17.1875
 20
-4.51055
 11
15.625
 21
-1.80422
  0
LINE
  8
0
 10
15.625
 20
-23.4549
 11
14.0625
 21
-26.1612
  0
LINE
  8
0
 10
14.0625
 20
-26.1612
 11
17.1875
 21
-26.1612
  0
LINE
  8
0
 10
17.1875
 20
-26.1612
 11
15.625
 21
-23.4549
  0
LINE
  8
0
 10
15.625
 20
-12.6295
 11
14.0625
 21
-15.3359
  0
LINE
  8
0
 10
14.0625
 20
-15.3359
 11
17.1875
 21
-15.3359
  0
LINE
  8
0
 10
17.1875
 20
-15.3359
 11
15.625
 21
-12.6295
  0
LINE
  8
0
 10
15.625
 20
30.6717
 11
14.0625
 21
27.9654
  0
LINE
  8
0
 10
14.0625
 20
27.9654
 11
17.1875
 21
27.9654
  0
LINE
  8
0
 10
17.1875
 20
27.9654
 11
15.625
 21
30.6717
  0
LINE
  8
0
 10
15.625
 20
19.8464
 11
14.0625
 21
17.1401
  0
LINE
  8
0
 10
14.0625
 20
17.1401
 11
17.1875
 21
17.1401
  0
LINE
  8
0
 10
17.1875
 20
17.1401
 11
15.625
 21
19.8464
  0
LINE
  8
0
 10
17.1875
 20
-15.3359
 11
15.625
 21
-18.0422
  0
LINE
  8
0
 10
15.625
 20
-18.0422
 11
18.75
 21
-18.0422
  0
LINE
  8
0
 10
18.75
 20
-18.0422
 11
17.1875
 21
-15.3359
  0
LINE
  8
0
 10
17.1875
 20
0.902109
 11
15.625
 21
-1.80422
  0
LINE
  8
0
 10
15.625
 20
-1.80422
 11
18.75
 21
-1.80422
  0
LINE
  8
0
 10
18.75
 20
-1.80422
 11
17.1875
 21
0.902109
  0
LINE
  8
0
 10
17.1875
 20
-4.51055
 11
15.625
 21
-7.21688
  0
LINE
  8
0
 10
15.625
 20
-7.21688
 11
18.75
 21
-7.21688
  0
LINE
  8
0
 10
18.75
 20
-7.21688
 11
17.1875
 21
-4.51055
  0
LINE
  8
0
 10
17.1875
 20
-26.1612
 11
15.625
 21
-28.8675
  0
LINE
  8
0
 10
15.625
 20
-28.8675
 11
18.75
 21
-28.8675
  0
LINE
  8
0
 10
18.75
 20
-28.8675
 11
17.1875
 21
-26.1612
  0
LINE
  8
0
 10
17.1875
 20
-20.7485
 11
15.625
 21
-23.4549
  0
LINE
  8
0
 10
15.625
 20
-23.4549
 11
18.75
 21
-23.4549
  0
LINE
  8
0
 10
18.75
 20
-23.4549
 11
17.1875
 21
-20.7485
  0
LINE
  8
0
 10
17.1875
 20
27.9654
 11
15.625
 21
25.2591
  0
LINE
  8
0
 10
15.625
 20
25.2591
 11
18.75
 21
25.2591
  0
LINE
  8
0
 10
18.75
 20
25.2591
 11
17.1875
 21
27.9654
  0
LINE
  8
0
 10
17.1875
 20
22.5527
 11
15.625
 21
19.8464
  0
LINE
  8
0
 10
15.625
 20
19.8464
 11
18.75
 21
19.8464
  0
LINE
  8
0
 10
18.75
 20
19.8464
 11
17.1875
 21
22.5527
  0
LINE
  8
0
 10
17.1875
 20
17.1401
 11
15.625
 21
14.4338
  0
LINE
  8
0
 10
15.625
 20
14.4338
 11
18.75
 21
14.4338
  0
LINE
  8
0
 10
18.75
 20
14.4338
 11
17.1875
 21
17.1401
  0
LINE
  8
0
 10
18.75
 20
3.60844
 11
17.1875
 21
0.902109
  0
LINE
  8
0
 10
17.1875
 20
0.902109
 11
20.3125
 21
0.902109
  0
LINE
  8
0
 10
20.3125
 20
0.902109
 11
18.75
 21
3.60844
  0
LINE
  8
0
 10
18.75
 20
-18.0422
 11
17.1875
 21
-20.7485
  0
LINE
  8
0
 10
17.1875
 20
-20.7485
 11
20.3125
 21
-20.7485
  0
LINE
  8
0
 10
20.3125
 20
-20.7485
 11
18.75
 21
-18.0422
  0
LINE
  8
0
 10
18.75
 20
25.2591
 11
17.1875
 21
22.5527
  0
LINE
  8
0
 10
17.1875
 20
22.5527
 11
20.3125
 21
22.5527
  0
LINE
  8
0
 10
20.3125
 20
22.5527
 11
18.75
 21
25.2591
  0
LINE
  8
0
 10
20.3125
 20
6.31477
 11
18.75
 21
3.60844
  0
LINE
  8
0
 10
18.75
 20
3.60844
 11
21.875
 21
3.60844
  0
LINE
  8
0
 10
21.875
 20
3.60844
 11
20.3125
 21
6.31477
  0
LINE
  8
0
 10
20.3125
 20
0.902109
 11
18.75
 21
-1.80422
  0
LINE
  8
0
 10
18.75
 20
-1.80422
 11
21.875
 21
-1.80422
  0
LINE
  8
0
 10
21.875
 20
-1.80422
 11
20.3125
 21
0.902109
  0
LINE
  8
0
 10
20.3125
 20
-4.51055
 11
18.75
 21
-7.21688
  0
LINE
  8
0
 10
18.75
 20
-7.21688
 11
21.875
 21
-7.21688
  0
LINE
  8
0
 10
21.875
 20
-7.21688
 11
20.3125
 21
-4.51055
  0
LINE
  8
0
 10
20.3125
 20
-26.1612
 11
18.75
 21
-28.8675
  0
LINE
  8
0
 10
18.75
 20
-28.8675
 11
21.875
 21
-28.8675
  0
LINE
  8
0
 10
21.875
 20
-28.8675
 11
20.3125
 21
-26.1612
  0
LINE
  8
0
 10
20.3125
 20
-20.7485
 11
18.75
 21
-23.4549
  0
LINE
  8
0
 10
18.75
 20
-23.4549
 11
21.875
 21
-23.4549
  0
LINE
  8
0
 10
21.875
 20
-23.4549
 11
20.3125
 21
-20.7485
  0
LINE
  8
0
 10
20.3125
 20
22.5527
 11
18.75
 21
19.8464
  0
LINE
  8
0
 10
18.75
 20
19.8464
 11
21.875
 21
19.8464
  0
LINE
  8
0
 10
21.875
 20
19.8464
 11
20.3125
 21
22.5527
  0
LINE
  8
0
 10
20.3125
 20
17.1401
 11
18.75
 21
14.4338
  0
LINE
  8
0
 10
18.75
 20
14.4338
 11
21.875
 21
14.4338
  0
LINE
  8
0
 10
21.875
 20
14.4338
 11
20.3125
 21
17.1401
  0
LINE
  8
0
 10
21.875
 20
-23.4549
 11
20.3125
 21
-26.1612
  0
LINE
  8
0
 10
20.3125
 20
-26.1612
 11
23.4375
 21
-26.1612
  0
LINE
  8
0
 10
23.4375
 20
-26.1612
 11
21.875
 21
-23.4549
  0
LINE
  8
0
 10
21.875
 20
9.0211
 11
20.3125
 21
6.31477
  0
LINE
  8
0
 10
20.3125
 20
6.31477
 11
23.4375
 21
6.31477
  0
LINE
  8
0
 10
23.4375
 20
6.31477
 11
21.875
 21
9.0211
  0
LINE
  8
0
 10
21.875
 20
19.8464
 11
20.3125
 21
17.1401
  0
LINE
  8
0
 10
20.3125
 20
17.1401
 11
23.4375
 21
17.1401
  0
LINE
  8
0
 10
23.4375
 20
17.1401
 11
21.875
 21
19.8464
  0
LINE
  8
0
 10
21.875
 20
-1.80422
 11
20.3125
 21
-4.51055
  0
LINE
  8
0
 10
20.3125
 20
-4.51055
 11
23.4375
 21
-4.51055
  0
LINE
  8
0
 10
23.4375
 20
-4.51055
 11
21.875
 21
-1.80422
  0
LINE
  8
0
 10
23.4375
 20
17.1401
 11
21.875
 21
14.4338
  0
LINE
  8
0
 10
21.875
 20
14.4338
 11
25
 21
14.4338
  0
LINE
  8
0
 10
25
 20
14.4338
 11
23.4375
 21
17.1401
  0
LINE
  8
0
 10
23.4375
 20
-26.1612
 11
21.875
 21
-28.8675
  0
LINE
  8
0
 10
21.875
 20
-28.8675
 11
25
 21
-28.8675
  0
LINE
  8
0
 10
25
 20
-28.8675
 11
23.4375
 21
-26.1612
  0
LINE
  8
0
 10
23.4375
 20
-4.51055
 11
21.875
 21
-7.21688
  0
LINE
  8
0
 10
21.875
 20
-7.21688
 11
25
 21
-7.21688
  0
LINE
  8
0
 10
25
 20
-7.21688
 11
23.4375
 21
-4.51055
  0
LINE
  8
0
 10
23.4375
 20
6.31477
 11
21.875
 21
3.60844
  0
LINE
  8
0
 10
21.875
 20
3.60844
 11
25
 21
3.60844
  0
LINE
  8
0
 10
25
 20
3.60844
 11
23.4375
 21
6.31477
  0
LINE
  8
0
 10
23.4375
 20
11.7274
 11
21.875
 21
9.0211
  0
LINE
  8
0
 10
21.875
 20
9.0211
 11
25
 21
9.0211
  0
LINE
  8
0
 10
25
 20
9.0211
 11
23.4375
 21
11.7274
  0
LINE
  8
0
 10
25
 20
14.4338
 11
23.4375
 21
11.7274
  0
LINE
  8
0
 10
23.4375
 20
11.7274
 11
26.5625
 21
11.7274
  0
LINE
  8
0
 10
26.5625
 20
11.7274
 11
25
 21
14.4338
  0
LINE
  8
0
 10
26.5625
 20
-26.1612
 11
25
 21
-28.8675
  0
LINE
  8
0
 10
25
 20
-28.8675
 11
28.125
 21
-28.8675
  0
LINE
  8
0
 10
28.125
 20
-28.8675
 11
26.5625
 21
-26.1612
  0
LINE
  8
0
 10
26.5625
 20
11.7274
 11
25
 21
9.0211
  0
LINE
  8
0
 10
25
 20
9.0211
 11
28.125
 21
9.0211
  0
LINE
  8
0
 10
28.125
 20
9.0211
 11
26.5625
 21
11.7274
  0
LINE
  8
0
 10
26.5625
 20
6.31477
 11
25
 21
3.60844
  0
LINE
  8
0
 10
25
 20
3.60844
 11
28.125
 21
3.60844
  0
LINE
  8
0
 10
28.125
 20
3.60844
 11
26.5625
 21
6.31477
  0
LINE
  8
0
 10
26.5625
 20
-4.51055
 11
25
 21
-7.21688
  0
LINE
  8
0
 10
25
 20
-7.21688
 11
28.125
 21
-7.21688
  0
LINE
  8
0
 10
28.125
 20
-7.21688
 11
26.5625
 21
-4.51055
  0
LINE
  8
0
 10
28.125
 20
9.0211
 11
26.5625
 21
6.31477
  0
LINE
  8
0
 10
26.5625
 20
6.31477
 11
29.6875
 21
6.31477
  0
LINE
  8
0
 10
29.6875
 20
6.31477
 11
28.125
 21
9.0211
  0
LINE
  8
0
 10
28.125
 20
-1.80422
 11
26.5625
 21
-4.51055
  0
LINE
  8
0
 10
26.5625
 20
-4.51055
 11
29.6875
 21
-4.51055
  0
LINE
  8
0
 10
29.6875
 20
-4.51055
 11
28.125
 21
-1.80422
  0
LINE
  8
0
 10
28.125
 20
-23.4549
 11
26.5625
 21
-26.1612
  0
LINE
  8
0
 10
26.5625
 20
-26.1612
 11
29.6875
 21
-26.1612
  0
LINE
  8
0
 10
29.6875
 20
-26.1612
 11
28.125
 21
-23.4549
  0
LINE
  8
0
 10
29.6875
 20
6.31477
 11
28.125
 21
3.60844
  0
LINE
  8
0
 10
28.125
 20
3.60844
 11
31.25
 21
3.60844
  0
LINE
  8
0
 10
31.25
 20
3.60844
 11
29.6875
 21
6.31477
  0
LINE
  8
0
 10
29.6875
 20
0.902109
 11
28.125
 21
-1.80422
  0
LINE
  8
0
 10
28.125
 20
-1.80422
 11
31.25
 21
-1.80422
  0
LINE
  8
0
 10
31.25
 20
-1.80422
 11
29.6875
 21
0.902109
  0
LINE
  8
0
 10
29.6875
 20
-4.51055
 11
28.125
 21
-7.21688
  0
LINE
  8
0
 10
28.125
 20
-7.21688
 11
31.25
 21
-7.21688
  0
LINE
  8
0
 10
31.25
 20
-7.21688
 11
29.6875
 21
-4.51055
  0
LINE
  8
0
 10
29.6875
 20
-26.1612
 11
28.125
 21
-28.8675
  0
LINE
  8
0
 10
28.125
 20
-28.8675
 11
31.25
 21
-28.8675
  0
LINE
  8
0
 10
31.25
 20
-28.8675
 11
29.6875
 21
-26.1612
  0
LINE
  8
0
 10
29.6875
 20
-20.7485
 11
28.125
 21
-23.4549
  0
LINE
  8
0
 10
28.125
 20
-23.4549
 11
31.25
 21
-23.4549
  0
LINE
  8
0
 10
31.25
 20
-23.4549
 11
29.6875
 21
-20.7485
  0
LINE
  8
0
 10
31.25
 20
3.60844
 11
29.6875
 21
0.902109
  0
LINE
  8
0
 10
29.6875
 20
0.902109
 11
32.8125
 21
0.902109
  0
LINE
  8
0
 10
32.8125
 20
0.902109
 11
31.25
 21
3.60844
  0
LINE
  8
0
 10
31.25
 20
-18.0422
 11
29.6875
 21
-20.7485
  0
LINE
  8
0
 10
29.6875
 20
-20.7485
 11
32.8125
 21
-20.7485
  0
LINE
  8
0
 10
32.8125
 20
-20.7485
 11
31.25
 21
-18.0422
  0
LINE
  8
0
 10
32.8125
 20
-15.3359
 11
31.25
 21
-18.0422
  0
LINE
  8
0
 10
31.25
 20
-18.0422
 11
34.375
 21
-18.0422
  0
LINE
  8
0
 10
34.375
 20
-18.0422
 11
32.8125
 21
-15.3359
  0
LINE
  8
0
 10
32.8125
 20
0.902109
 11
31.25
 21
-1.80422
  0
LINE
  8
0
 10
31.25
 20
-1.80422
 11
34.375
 21
-1.80422
  0
LINE
  8
0
 10
34.375
 20
-1.80422
 11
32.8125
 21
0.902109
  0
LINE
  8
0
 10
32.8125
 20
-4.51055
 11
31.25
 21
-7.21688
  0
LINE
  8
0
 10
31.25
 20
-7.21688
 11
34.375
 21
-7.21688
  0
LINE
  8
0
 10
34.375
 20
-7.21688
 11
32.8125
 21
-4.51055
  0
LINE
  8
0
 10
32.8125
 20
-26.1612
 11
31.25
 21
-28.8675
  0
LINE
  8
0
 10
31.25
 20
-28.8675
 11
34.375
 21
-28.8675
  0
LINE
  8
0
 10
34.375
 20
-28.8675
 11
32.8125
 21
-26.1612
  0
LINE
  8
0
 10
32.8125
 20
-20.7485
 11
31.25
 21
-23.4549
  0
LINE
  8
0
 10
31.25
 20
-23.4549
 11
34.375
 21
-23.4549
  0
LINE
  8
0
 10
34.375
 20
-23.4549
 11
32.8125
 21
-20.7485
  0
LINE
  8
0
 10
34.375
 20
-1.80422
 11
32.8125
 21
-4.51055
  0
LINE
  8
0
 10
32.8125
 20
-4.51055
 11
35.9375
 21
-4.51055
  0
LINE
  8
0
 10
35.9375
 20
-4.51055
 11
34.375
 21
-1.80422
  0
LINE
  8
0
 10
34.375
 20
-12.6295
 11
32.8125
 21
-15.3359
  0
LINE
  8
0
 10
32.8125
 20
-15.3359
 11
35.9375
 21
-15.3359
  0
LINE
  8
0
 10
35.9375
 20
-15.3359
 11
34.375
 21
-12.6295
  0
LINE
  8
0
 10
34.375
 20
-23.4549
 11
32.8125
 21
-26.1612
  0
LINE
  8
0
 10
32.8125
 20
-26.1612
 11
35.9375
 21
-26.1612
  0
LINE
  8
0
 10
35.9375
 20
-26.1612
 11
34.375
 21
-23.4549
  0
LINE
  8
0
 10
35.9375
 20
-4.51055
 11
34.375
 21
-7.21688
  0
LINE
  8
0
 10
34.375
 20
-7.21688
 11
37.5
 21
-7.21688
  0
LINE
  8
0
 10
37.5
 20
-7.21688
 11
35.9375
 21
-4.51055
  0
LINE
  8
0
 10
35.9375
 20
-26.1612
 11
34.375
 21
-28.8675
  0
LINE
  8
0
 10
34.375
 20
-28.8675
 11
37.5
 21
-28.8675
  0
LINE
  8
0
 10
37.5
 20
-28.8675
 11
35.9375
 21
-26.1612
  0
LINE
  8
0
 10
35.9375
 20
-15.3359
 11
34.375
 21
-18.0422
  0
LINE
  8
0
 10
34.375
 20
-18.0422
 11
37.5
 21
-18.0422
  0
LINE
  8
0
 10
37.5
 20
-18.0422
 11
35.9375
 21
-15.3359
  0
LINE
  8
0
 10
35.9375
 20
-9.92321
 11
34.375
 21
-12.6295
  0
LINE
  8
0
 10
34.375
 20
-12.6295
 11
37.5
 21
-12.6295
  0
LINE
  8
0
 10
37.5
 20
-12.6295
 11
35.9375
 21
-9.92321
  0
LINE
  8
0
 10
37.5
 20
-7.21688
 11
35.9375
 21
-9.92321
  0
LINE
  8
0
 10
35.9375
 20
-9.92321
 11
39.0625
 21
-9.92321
  0
LINE
  8
0
 10
39.0625
 20
-9.92321
 11
37.5
 21
-7.21688
  0
LINE
  8
0
 10
39.0625
 20
-26.1612
 11
37.5
 21
-28.8675
  0
LINE
  8
0
 10
37.5
 20
-28.8675
 11
40.625
 21
-28.8675
  0
LINE
  8
0
 10
40.625
 20
-28.8675
 11
39.0625
 21
-26.1612
  0
LINE
  8
0
 10
39.0625
 20
-15.3359
 11
37.5
 21
-18.0422
  0
LINE
  8
0
 10
37.5
 20
-18.0422
 11
40.625
 21
-18.0422
  0
LINE
  8
0
 10
40.625
 20
-18.0422
 11
39.0625
 21
-15.3359
  0
LINE
  8
0
 10
39.0625
 20
-9.92321
 11
37.5
 21
-12.6295
  0
LINE
  8
0
 10
37.5
 20
-12.6295
 11
40.625
 21
-12.6295
  0
LINE
  8
0
 10
40.625
 20
-12.6295
 11
39.0625
 21
-9.92321
  0
LINE
  8
0
 10
40.625
 20
-23.4549
 11
39.0625
 21
-26.1612
  0
LINE
  8
0
 10
39.0625
 20
-26.1612
 11
42.1875
 21
-26.1612
  0
LINE
  8
0
 10
42.1875
 20
-26.1612
 11
40.625
 21
-23.4549
  0
LINE
  8
0
 10
40.625
 20
-12.6295
 11
39.0625
 21
-15.3359
  0
LINE
  8
0
 10
39.0625
 20
-15.3359
 11
42.1875
 21
-15.3359
  0
LINE
  8
0
 10
42.1875
 20
-15.3359
 11
40.625
 21
-12.6295
  0
LINE
  8
0
 10
42.1875
 20
-26.1612
 11
40.625
 21
-28.8675
  0
LINE
  8
0
 10
40.625
 20
-28.8675
 11
43.75
 21
-28.8675
  0
LINE
  8
0
 10
43.75
 20
-28.8675
 11
42.1875
 21
-26.1612
  0
LINE
  8
0
 10
42.1875
 20
-20.7485
 11
40.625
 21
-23.4549
  0
LINE
  8
0
 10
40.625
 20
-23.4549
 11
43.75
 21
-23.4549
  0
LINE
  8
0
 10
43.75
 20
-23.4549
 11
42.1875
 21
-20.7485
  0
LINE
  8
0
 10
42.1875
 20
-15.3359
 11
40.625
 21
-18.0422
  0
LINE
  8
0
 10
40.625
 20
-18.0422
 11
43.75
 21
-18.0422
  0
LINE
  8
0
 10
43.75
 20
-18.0422
 11
42.1875
 21
-15.3359
  0
LINE
  8
0
 10
43.75
 20
-18.0422
 11
42.1875
 21
-20.7485
  0
LINE
  8
0
 10
42.1875
 20
-20.7485
 11
45.3125
 21
-20.7485
  0
LINE
  8
0
 10
45.3125
 20
-20.7485
 11
43.75
 21
-18.0422
  0
LINE
  8
0
 10
45.3125
 20
-26.1612
 11
43.75
 21
-28.8675
  0
LINE
  8
0
 10
43.75
 20
-28.8675
 11
46.875
 21
-28.8675
  0
LINE
  8
0
 10
46.875
 20
-28.8675
 11
45.3125
 21
-26.1612
  0
LINE
  8
0
 10
45.3125
 20
-20.7485
 11
43.75
 21
-23.4549
  0
LINE
  8
0
 10
43.75
 20
-23.4549
 11
46.875
 21
-23.4549
  0
LINE
  8
0
 10
46.875
 20
-23.4549
 11
45.3125
 21
-20.7485
  0
LINE
  8
0
 10
46.875
 20
-23.4549
 11
45.3125
 21
-26.1612
  0
LINE
  8
0
 10
45.3125
 20
-26.1612
 11
48.4375
 21
-26.1612
  0
LINE
  8
0
 10
48.4375
 20
-26.1612
 11
46.875
 21
-23.4549
  0
LINE
  8
0
 10
48.4375
 20
-26.1612
 11
46.875
 21
-28.8675
  0
LINE
  8
0
 10
46.875
 20
-28.8675
 11
50
 21
-28.8675
  0
LINE
  8
0
 10
50
 20
-28.8675
 11
48.4375
 21
-26.1612
  0
ENDSEC
  0
SECTION
  2
OBJECTS
  0
DICTIONARY
  0
ENDSEC
  0
EOF
