<?xml version="1.0" standalone="no"?>
<!DOCTYPE svg PUBLIC "-//W3C//DTD SVG 1.1//EN" "http://www.w3.org/Graphics/SVG/1.1/DTD/svg11.dtd">
<svg width="100mm" height="100mm" viewBox="0 -100 100 100" xmlns="http://www.w3.org/2000/svg" version="1.1">
<title>OpenSCAD Model</title>
<path d="
M 100,-100 L 0,-100 L 0,-0 L 100,-0 z
M 97.5309,-97.5309 L 97.5309,-98.7654 L 98.7654,-98.7654 L 98.7654,-97.5309 z
M 49.3827,-97.5309 L 49.3827,-98.7654 L 50.6173,-98.7654 L 50.6173,-97.5309 z
M 41.9753,-97.5309 L 41.9753,-98.7654 L 43.2099,-98.7654 L 43.2099,-97.5309 z
M 53.0864,-97.5309 L 53.0864,-98.7654 L 54.321,-98.7654 L 54.321,-97.5309 z
M 38.2716,-97.5309 L 38.2716,-98.7654 L 39.5062,-98.7654 L 39.5062,-97.5309 z
M 56.7901,-97.5309 L 56.7901,-98.7654 L 58.0247,-98.7654 L 58.0247,-97.5309 z
M 34.5679,-97.5309 L 34.5679,-98.7654 L 35.8025,-98.7654 L 35.8025,-97.5309 z
M 60.4938,-97.5309 L 60.4938,-98.7654 L 61.7284,-98.7654 L 61.7284,-97.5309 z
M 30.8642,-97.5309 L 30.8642,-98.7654 L 32.0988,-98.7654 L 32.0988,-97.5309 z
M 64.1975,-97.5309 L 64.1975,-98.7654 L 65.4321,-98.7654 L 65.4321,-97.5309 z
M 90.1234,-97.5309 L 90.1234,-98.7654 L 91.358,-98.7654 L 91.358,-97.5309 z
M 4.93826,-97.5309 L 4.93826,-98.7654 L 6.17284,-98.7654 L 6.17284,-97.5309 z
M 86.4197,-97.5309 L 86.4197,-98.7654 L 87.6543,-98.7654 L 87.6543,-97.5309 z
M 8.64197,-97.5309 L 8.64197,-98.7654 L 9.87654,-98.7654 L 9.87654,-97.5309 z
M 82.716,-97.5309 L 82.716,-98.7654 L 83.9506,-98.7654 L 83.9506,-97.5309 z
M 12.3457,-97.5309 L 12.3457,-98.7654 L 13.5802,-98.7654 L 13.5802,-97.5309 z
M 79.0123,-97.5309 L 79.0123,-98.7654 L 80.2469,-98.7654 L 80.2469,-97.5309 z
M 16.0494,-97.5309 L 16.0494,-98.7654 L 17.2839,-98.7654 L 17.2839,-97.5309 z
M 1.23456,-97.5309 L 1.23456,-98.7654 L 2.46913,-98.7654 L 2.46913,-97.5309 z
M 27.1605,-97.5309 L 27.1605,-98.7654 L 28.3951,-98.7654 L 28.3951,-97.5309 z
M 67.9012,-97.5309 L 67.9012,-98.7654 L 69.1358,-98.7654 L 69.1358,-97.5309 z
M 23.4568,-97.5309 L 23.4568,-98.7654 L 24.6913,-98.7654 L 24.6913,-97.5309 z
M 93.8271,-97.5309 L 93.8271,-98.7654 L 95.0617,-98.7654 L 95.0617,-97.5309 z
M 45.679,-97.5309 L 45.679,-98.7654 L 46.9136,-98.7654 L 46.9136,-97.5309 z
M 71.6049,-97.5309 L 71.6049,-98.7654 L 72.8395,-98.7654 L 72.8395,-97.5309 z
M 19.7531,-97.5309 L 19.7531,-98.7654 L 20.9876,-98.7654 L 20.9876,-97.5309 z
M 75.3086,-97.5309 L 75.3086,-98.7654 L 76.5432,-98.7654 L 76.5432,-97.5309 z
M 70.3704,-92.5926 L 70.3704,-96.2963 L 74.0741,-96.2963 L 74.0741,-92.5926 z
M 14.8148,-92.5926 L 14.8148,-96.2963 L 18.5185,-96.2963 L 18.5185,-92.5926 z
M 37.037,-92.5926 L 37.037,-96.2963 L 40.7407,-96.2963 L 40.7407,-92.5926 z
M 81.4815,-92.5926 L 81.4815,-96.2963 L 85.1852,-96.2963 L 85.1852,-92.5926 z
M 59.2592,-92.5926 L 59.2592,-96.2963 L 62.963,-96.2963 L 62.963,-92.5926 z
M 25.9259,-92.5926 L 25.9259,-96.2963 L 29.6296,-96.2963 L 29.6296,-92.5926 z
M 48.1481,-92.5926 L 48.1481,-96.2963 L 51.8518,-96.2963 L 51.8518,-92.5926 z
M 92.5926,-92.5926 L 92.5926,-96.2963 L 96.2963,-96.2963 L 96.2963,-92.5926 z
M 3.70369,-92.5926 L 3.70369,-96.2963 L 7.40739,-96.2963 L 7.40739,-92.5926 z
M 19.7531,-93.8271 L 19.7531,-95.0617 L 20.9876,-95.0617 L 20.9876,-93.8271 z
M 75.3086,-93.8271 L 75.3086,-95.0617 L 76.5432,-95.0617 L 76.5432,-93.8271 z
M 23.4568,-93.8271 L 23.4568,-95.0617 L 24.6913,-95.0617 L 24.6913,-93.8271 z
M 45.679,-93.8271 L 45.679,-95.0617 L 46.9136,-95.0617 L 46.9136,-93.8271 z
M 64.1975,-93.8271 L 64.1975,-95.0617 L 65.4321,-95.0617 L 65.4321,-93.8271 z
M 79.0123,-93.8271 L 79.0123,-95.0617 L 80.2469,-95.0617 L 80.2469,-93.8271 z
M 30.8642,-93.8271 L 30.8642,-95.0617 L 32.0988,-95.0617 L 32.0988,-93.8271 z
M 1.23456,-93.8271 L 1.23456,-95.0617 L 2.46913,-95.0617 L 2.46913,-93.8271 z
M 90.1234,-93.8271 L 90.1234,-95.0617 L 91.358,-95.0617 L 91.358,-93.8271 z
M 12.3457,-93.8271 L 12.3457,-95.0617 L 13.5802,-95.0617 L 13.5802,-93.8271 z
M 34.5679,-93.8271 L 34.5679,-95.0617 L 35.8025,-95.0617 L 35.8025,-93.8271 z
M 97.5309,-93.8271 L 97.5309,-95.0617 L 98.7654,-95.0617 L 98.7654,-93.8271 z
M 41.9753,-93.8271 L 41.9753,-95.0617 L 43.2099,-95.0617 L 43.2099,-93.8271 z
M 56.7901,-93.8271 L 56.7901,-95.0617 L 58.0247,-95.0617 L 58.0247,-93.8271 z
M 8.64197,-93.8271 L 8.64197,-95.0617 L 9.87654,-95.0617 L 9.87654,-93.8271 z
M 53.0864,-93.8271 L 53.0864,-95.0617 L 54.321,-95.0617 L 54.321,-93.8271 z
M 86.4197,-93.8271 L 86.4197,-95.0617 L 87.6543,-95.0617 L 87.6543,-93.8271 z
M 67.9012,-93.8271 L 67.9012,-95.0617 L 69.1358,-95.0617 L 69.1358,-93.8271 z
M 82.716,-90.1234 L 82.716,-91.358 L 83.9506,-91.358 L 83.9506,-90.1234 z
M 56.7901,-90.1234 L 56.7901,-91.358 L 58.0247,-91.358 L 58.0247,-90.1234 z
M 41.9753,-90.1234 L 41.9753,-91.358 L 43.2099,-91.358 L 43.2099,-90.1234 z
M 8.64197,-90.1234 L 8.64197,-91.358 L 9.87654,-91.358 L 9.87654,-90.1234 z
M 97.5309,-90.1234 L 97.5309,-91.358 L 98.7654,-91.358 L 98.7654,-90.1234 z
M 49.3827,-90.1234 L 49.3827,-91.358 L 50.6173,-91.358 L 50.6173,-90.1234 z
M 34.5679,-90.1234 L 34.5679,-91.358 L 35.8025,-91.358 L 35.8025,-90.1234 z
M 12.3457,-90.1234 L 12.3457,-91.358 L 13.5802,-91.358 L 13.5802,-90.1234 z
M 38.2716,-90.1234 L 38.2716,-91.358 L 39.5062,-91.358 L 39.5062,-90.1234 z
M 60.4938,-90.1234 L 60.4938,-91.358 L 61.7284,-91.358 L 61.7284,-90.1234 z
M 30.8642,-90.1234 L 30.8642,-91.358 L 32.0988,-91.358 L 32.0988,-90.1234 z
M 79.0123,-90.1234 L 79.0123,-91.358 L 80.2469,-91.358 L 80.2469,-90.1234 z
M 4.93826,-90.1234 L 4.93826,-91.358 L 6.17284,-91.358 L 6.17284,-90.1234 z
M 86.4197,-90.1234 L 86.4197,-91.358 L 87.6543,-91.358 L 87.6543,-90.1234 z
M 1.23456,-90.1234 L 1.23456,-91.358 L 2.46913,-91.358 L 2.46913,-90.1234 z
M 64.1975,-90.1234 L 64.1975,-91.358 L 65.4321,-91.358 L 65.4321,-90.1234 z
M 53.0864,-90.1234 L 53.0864,-91.358 L 54.321,-91.358 L 54.321,-90.1234 z
M 27.1605,-90.1234 L 27.1605,-91.358 L 28.3951,-91.358 L 28.3951,-90.1234 z
M 16.0494,-90.1234 L 16.0494,-91.358 L 17.2839,-91.358 L 17.2839,-90.1234 z
M 45.679,-90.1234 L 45.679,-91.358 L 46.9136,-91.358 L 46.9136,-90.1234 z
M 67.9012,-90.1234 L 67.9012,-91.358 L 69.1358,-91.358 L 69.1358,-90.1234 z
M 23.4568,-90.1234 L 23.4568,-91.358 L 24.6913,-91.358 L 24.6913,-90.1234 z
M 75.3086,-90.1234 L 75.3086,-91.358 L 76.5432,-91.358 L 76.5432,-90.1234 z
M 71.6049,-90.1234 L 71.6049,-91.358 L 72.8395,-91.358 L 72.8395,-90.1234 z
M 19.7531,-90.1234 L 19.7531,-91.358 L 20.9876,-91.358 L 20.9876,-90.1234 z
M 93.8271,-90.1234 L 93.8271,-91.358 L 95.0617,-91.358 L 95.0617,-90.1234 z
M 90.1234,-90.1234 L 90.1234,-91.358 L 91.358,-91.358 L 91.358,-90.1234 z
M 11.1111,-77.7778 L 11.1111,-88.8889 L 22.2222,-88.8889 L 22.2222,-77.7778 z
M 44.4444,-77.7778 L 44.4444,-88.8889 L 55.5555,-88.8889 L 55.5555,-77.7778 z
M 77.7778,-77.7778 L 77.7778,-88.8889 L 88.8889,-88.8889 L 88.8889,-77.7778 z
M 1.23456,-86.4197 L 1.23456,-87.6543 L 2.46913,-87.6543 L 2.46913,-86.4197 z
M 67.9012,-86.4197 L 67.9012,-87.6543 L 69.1358,-87.6543 L 69.1358,-86.4197 z
M 93.8271,-86.4197 L 93.8271,-87.6543 L 95.0617,-87.6543 L 95.0617,-86.4197 z
M 41.9753,-86.4197 L 41.9753,-87.6543 L 43.2099,-87.6543 L 43.2099,-86.4197 z
M 56.7901,-86.4197 L 56.7901,-87.6543 L 58.0247,-87.6543 L 58.0247,-86.4197 z
M 75.3086,-86.4197 L 75.3086,-87.6543 L 76.5432,-87.6543 L 76.5432,-86.4197 z
M 23.4568,-86.4197 L 23.4568,-87.6543 L 24.6913,-87.6543 L 24.6913,-86.4197 z
M 71.6049,-86.4197 L 71.6049,-87.6543 L 72.8395,-87.6543 L 72.8395,-86.4197 z
M 90.1234,-86.4197 L 90.1234,-87.6543 L 91.358,-87.6543 L 91.358,-86.4197 z
M 4.93826,-86.4197 L 4.93826,-87.6543 L 6.17284,-87.6543 L 6.17284,-86.4197 z
M 27.1605,-86.4197 L 27.1605,-87.6543 L 28.3951,-87.6543 L 28.3951,-86.4197 z
M 8.64197,-86.4197 L 8.64197,-87.6543 L 9.87654,-87.6543 L 9.87654,-86.4197 z
M 34.5679,-86.4197 L 34.5679,-87.6543 L 35.8025,-87.6543 L 35.8025,-86.4197 z
M 64.1975,-86.4197 L 64.1975,-87.6543 L 65.4321,-87.6543 L 65.4321,-86.4197 z
M 97.5309,-86.4197 L 97.5309,-87.6543 L 98.7654,-87.6543 L 98.7654,-86.4197 z
M 30.8642,-86.4197 L 30.8642,-87.6543 L 32.0988,-87.6543 L 32.0988,-86.4197 z
M 38.2716,-86.4197 L 38.2716,-87.6543 L 39.5062,-87.6543 L 39.5062,-86.4197 z
M 60.4938,-86.4197 L 60.4938,-87.6543 L 61.7284,-87.6543 L 61.7284,-86.4197 z
M 59.2592,-81.4815 L 59.2592,-85.1852 L 62.963,-85.1852 L 62.963,-81.4815 z
M 70.3704,-81.4815 L 70.3704,-85.1852 L 74.0741,-85.1852 L 74.0741,-81.4815 z
M 25.9259,-81.4815 L 25.9259,-85.1852 L 29.6296,-85.1852 L 29.6296,-81.4815 z
M 3.70369,-81.4815 L 3.70369,-85.1852 L 7.40739,-85.1852 L 7.40739,-81.4815 z
M 37.037,-81.4815 L 37.037,-85.1852 L 40.7407,-85.1852 L 40.7407,-81.4815 z
M 92.5926,-81.4815 L 92.5926,-85.1852 L 96.2963,-85.1852 L 96.2963,-81.4815 z
M 90.1234,-82.716 L 90.1234,-83.9506 L 91.358,-83.9506 L 91.358,-82.716 z
M 97.5309,-82.716 L 97.5309,-83.9506 L 98.7654,-83.9506 L 98.7654,-82.716 z
M 30.8642,-82.716 L 30.8642,-83.9506 L 32.0988,-83.9506 L 32.0988,-82.716 z
M 23.4568,-82.716 L 23.4568,-83.9506 L 24.6913,-83.9506 L 24.6913,-82.716 z
M 67.9012,-82.716 L 67.9012,-83.9506 L 69.1358,-83.9506 L 69.1358,-82.716 z
M 41.9753,-82.716 L 41.9753,-83.9506 L 43.2099,-83.9506 L 43.2099,-82.716 z
M 8.64197,-82.716 L 8.64197,-83.9506 L 9.87654,-83.9506 L 9.87654,-82.716 z
M 1.23456,-82.716 L 1.23456,-83.9506 L 2.46913,-83.9506 L 2.46913,-82.716 z
M 34.5679,-82.716 L 34.5679,-83.9506 L 35.8025,-83.9506 L 35.8025,-82.716 z
M 64.1975,-82.716 L 64.1975,-83.9506 L 65.4321,-83.9506 L 65.4321,-82.716 z
M 56.7901,-82.716 L 56.7901,-83.9506 L 58.0247,-83.9506 L 58.0247,-82.716 z
M 75.3086,-82.716 L 75.3086,-83.9506 L 76.5432,-83.9506 L 76.5432,-82.716 z
M 60.4938,-79.0123 L 60.4938,-80.2469 L 61.7284,-80.2469 L 61.7284,-79.0123 z
M 75.3086,-79.0123 L 75.3086,-80.2469 L 76.5432,-80.2469 L 76.5432,-79.0123 z
M 56.7901,-79.0123 L 56.7901,-80.2469 L 58.0247,-80.2469 L 58.0247,-79.0123 z
M 23.4568,-79.0123 L 23.4568,-80.2469 L 24.6913,-80.2469 L 24.6913,-79.0123 z
M 71.6049,-79.0123 L 71.6049,-80.2469 L 72.8395,-80.2469 L 72.8395,-79.0123 z
M 64.1975,-79.0123 L 64.1975,-80.2469 L 65.4321,-80.2469 L 65.4321,-79.0123 z
M 38.2716,-79.0123 L 38.2716,-80.2469 L 39.5062,-80.2469 L 39.5062,-79.0123 z
M 90.1234,-79.0123 L 90.1234,-80.2469 L 91.358,-80.2469 L 91.358,-79.0123 z
M 30.8642,-79.0123 L 30.8642,-80.2469 L 32.0988,-80.2469 L 32.0988,-79.0123 z
M 34.5679,-79.0123 L 34.5679,-80.2469 L 35.8025,-80.2469 L 35.8025,-79.0123 z
M 8.64197,-79.0123 L 8.64197,-80.2469 L 9.87654,-80.2469 L 9.87654,-79.0123 z
M 4.93826,-79.0123 L 4.93826,-80.2469 L 6.17284,-80.2469 L 6.17284,-79.0123 z
M 1.23456,-79.0123 L 1.23456,-80.2469 L 2.46913,-80.2469 L 2.46913,-79.0123 z
M 93.8271,-79.0123 L 93.8271,-80.2469 L 95.0617,-80.2469 L 95.0617,-79.0123 z
M 41.9753,-79.0123 L 41.9753,-80.2469 L 43.2099,-80.2469 L 43.2099,-79.0123 z
M 97.5309,-79.0123 L 97.5309,-80.2469 L 98.7654,-80.2469 L 98.7654,-79.0123 z
M 67.9012,-79.0123 L 67.9012,-80.2469 L 69.1358,-80.2469 L 69.1358,-79.0123 z
M 27.1605,-79.0123 L 27.1605,-80.2469 L 28.3951,-80.2469 L 28.3951,-79.0123 z
M 30.8642,-75.3086 L 30.8642,-76.5432 L 32.0988,-76.5432 L 32.0988,-75.3086 z
M 79.0123,-75.3086 L 79.0123,-76.5432 L 80.2469,-76.5432 L 80.2469,-75.3086 z
M 82.716,-75.3086 L 82.716,-76.5432 L 83.9506,-76.5432 L 83.9506,-75.3086 z
M 1.23456,-75.3086 L 1.23456,-76.5432 L 2.46913,-76.5432 L 2.46913,-75.3086 z
M 12.3457,-75.3086 L 12.3457,-76.5432 L 13.5802,-76.5432 L 13.5802,-75.3086 z
M 60.4938,-75.3086 L 60.4938,-76.5432 L 61.7284,-76.5432 L 61.7284,-75.3086 z
M 34.5679,-75.3086 L 34.5679,-76.5432 L 35.8025,-76.5432 L 35.8025,-75.3086 z
M 97.5309,-75.3086 L 97.5309,-76.5432 L 98.7654,-76.5432 L 98.7654,-75.3086 z
M 64.1975,-75.3086 L 64.1975,-76.5432 L 65.4321,-76.5432 L 65.4321,-75.3086 z
M 16.0494,-75.3086 L 16.0494,-76.5432 L 17.2839,-76.5432 L 17.2839,-75.3086 z
M 27.1605,-75.3086 L 27.1605,-76.5432 L 28.3951,-76.5432 L 28.3951,-75.3086 z
M 67.9012,-75.3086 L 67.9012,-76.5432 L 69.1358,-76.5432 L 69.1358,-75.3086 z
M 71.6049,-75.3086 L 71.6049,-76.5432 L 72.8395,-76.5432 L 72.8395,-75.3086 z
M 23.4568,-75.3086 L 23.4568,-76.5432 L 24.6913,-76.5432 L 24.6913,-75.3086 z
M 75.3086,-75.3086 L 75.3086,-76.5432 L 76.5432,-76.5432 L 76.5432,-75.3086 z
M 93.8271,-75.3086 L 93.8271,-76.5432 L 95.0617,-76.5432 L 95.0617,-75.3086 z
M 45.679,-75.3086 L 45.679,-76.5432 L 46.9136,-76.5432 L 46.9136,-75.3086 z
M 56.7901,-75.3086 L 56.7901,-76.5432 L 58.0247,-76.5432 L 58.0247,-75.3086 z
M 38.2716,-75.3086 L 38.2716,-76.5432 L 39.5062,-76.5432 L 39.5062,-75.3086 z
M 86.4197,-75.3086 L 86.4197,-76.5432 L 87.6543,-76.5432 L 87.6543,-75.3086 z
M 19.7531,-75.3086 L 19.7531,-76.5432 L 20.9876,-76.5432 L 20.9876,-75.3086 z
M 8.64197,-75.3086 L 8.64197,-76.5432 L 9.87654,-76.5432 L 9.87654,-75.3086 z
M 53.0864,-75.3086 L 53.0864,-76.5432 L 54.321,-76.5432 L 54.321,-75.3086 z
M 41.9753,-75.3086 L 41.9753,-76.5432 L 43.2099,-76.5432 L 43.2099,-75.3086 z
M 90.1234,-75.3086 L 90.1234,-76.5432 L 91.358,-76.5432 L 91.358,-75.3086 z
M 4.93826,-75.3086 L 4.93826,-76.5432 L 6.17284,-76.5432 L 6.17284,-75.3086 z
M 49.3827,-75.3086 L 49.3827,-76.5432 L 50.6173,-76.5432 L 50.6173,-75.3086 z
M 70.3704,-70.3704 L 70.3704,-74.0741 L 74.0741,-74.0741 L 74.0741,-70.3704 z
M 37.037,-70.3704 L 37.037,-74.0741 L 40.7407,-74.0741 L 40.7407,-70.3704 z
M 48.1481,-70.3704 L 48.1481,-74.0741 L 51.8518,-74.0741 L 51.8518,-70.3704 z
M 92.5926,-70.3704 L 92.5926,-74.0741 L 96.2963,-74.0741 L 96.2963,-70.3704 z
M 25.9259,-70.3704 L 25.9259,-74.0741 L 29.6296,-74.0741 L 29.6296,-70.3704 z
M 59.2592,-70.3704 L 59.2592,-74.0741 L 62.963,-74.0741 L 62.963,-70.3704 z
M 3.70369,-70.3704 L 3.70369,-74.0741 L 7.40739,-74.0741 L 7.40739,-70.3704 z
M 14.8148,-70.3704 L 14.8148,-74.0741 L 18.5185,-74.0741 L 18.5185,-70.3704 z
M 81.4815,-70.3704 L 81.4815,-74.0741 L 85.1852,-74.0741 L 85.1852,-70.3704 z
M 56.7901,-71.6049 L 56.7901,-72.8395 L 58.0247,-72.8395 L 58.0247,-71.6049 z
M 90.1234,-71.6049 L 90.1234,-72.8395 L 91.358,-72.8395 L 91.358,-71.6049 z
M 12.3457,-71.6049 L 12.3457,-72.8395 L 13.5802,-72.8395 L 13.5802,-71.6049 z
M 41.9753,-71.6049 L 41.9753,-72.8395 L 43.2099,-72.8395 L 43.2099,-71.6049 z
M 1.23456,-71.6049 L 1.23456,-72.8395 L 2.46913,-72.8395 L 2.46913,-71.6049 z
M 64.1975,-71.6049 L 64.1975,-72.8395 L 65.4321,-72.8395 L 65.4321,-71.6049 z
M 34.5679,-71.6049 L 34.5679,-72.8395 L 35.8025,-72.8395 L 35.8025,-71.6049 z
M 8.64197,-71.6049 L 8.64197,-72.8395 L 9.87654,-72.8395 L 9.87654,-71.6049 z
M 19.7531,-71.6049 L 19.7531,-72.8395 L 20.9876,-72.8395 L 20.9876,-71.6049 z
M 75.3086,-71.6049 L 75.3086,-72.8395 L 76.5432,-72.8395 L 76.5432,-71.6049 z
M 23.4568,-71.6049 L 23.4568,-72.8395 L 24.6913,-72.8395 L 24.6913,-71.6049 z
M 86.4197,-71.6049 L 86.4197,-72.8395 L 87.6543,-72.8395 L 87.6543,-71.6049 z
M 30.8642,-71.6049 L 30.8642,-72.8395 L 32.0988,-72.8395 L 32.0988,-71.6049 z
M 45.679,-71.6049 L 45.679,-72.8395 L 46.9136,-72.8395 L 46.9136,-71.6049 z
M 97.5309,-71.6049 L 97.5309,-72.8395 L 98.7654,-72.8395 L 98.7654,-71.6049 z
M 53.0864,-71.6049 L 53.0864,-72.8395 L 54.321,-72.8395 L 54.321,-71.6049 z
M 79.0123,-71.6049 L 79.0123,-72.8395 L 80.2469,-72.8395 L 80.2469,-71.6049 z
M 67.9012,-71.6049 L 67.9012,-72.8395 L 69.1358,-72.8395 L 69.1358,-71.6049 z
M 67.9012,-67.9012 L 67.9012,-69.1358 L 69.1358,-69.1358 L 69.1358,-67.9012 z
M 56.7901,-67.9012 L 56.7901,-69.1358 L 58.0247,-69.1358 L 58.0247,-67.9012 z
M 1.23456,-67.9012 L 1.23456,-69.1358 L 2.46913,-69.1358 L 2.46913,-67.9012 z
M 60.4938,-67.9012 L 60.4938,-69.1358 L 61.7284,-69.1358 L 61.7284,-67.9012 z
M 38.2716,-67.9012 L 38.2716,-69.1358 L 39.5062,-69.1358 L 39.5062,-67.9012 z
M 16.0494,-67.9012 L 16.0494,-69.1358 L 17.2839,-69.1358 L 17.2839,-67.9012 z
M 90.1234,-67.9012 L 90.1234,-69.1358 L 91.358,-69.1358 L 91.358,-67.9012 z
M 27.1605,-67.9012 L 27.1605,-69.1358 L 28.3951,-69.1358 L 28.3951,-67.9012 z
M 41.9753,-67.9012 L 41.9753,-69.1358 L 43.2099,-69.1358 L 43.2099,-67.9012 z
M 34.5679,-67.9012 L 34.5679,-69.1358 L 35.8025,-69.1358 L 35.8025,-67.9012 z
M 23.4568,-67.9012 L 23.4568,-69.1358 L 24.6913,-69.1358 L 24.6913,-67.9012 z
M 49.3827,-67.9012 L 49.3827,-69.1358 L 50.6173,-69.1358 L 50.6173,-67.9012 z
M 64.1975,-67.9012 L 64.1975,-69.1358 L 65.4321,-69.1358 L 65.4321,-67.9012 z
M 45.679,-67.9012 L 45.679,-69.1358 L 46.9136,-69.1358 L 46.9136,-67.9012 z
M 53.0864,-67.9012 L 53.0864,-69.1358 L 54.321,-69.1358 L 54.321,-67.9012 z
M 79.0123,-67.9012 L 79.0123,-69.1358 L 80.2469,-69.1358 L 80.2469,-67.9012 z
M 12.3457,-67.9012 L 12.3457,-69.1358 L 13.5802,-69.1358 L 13.5802,-67.9012 z
M 30.8642,-67.9012 L 30.8642,-69.1358 L 32.0988,-69.1358 L 32.0988,-67.9012 z
M 75.3086,-67.9012 L 75.3086,-69.1358 L 76.5432,-69.1358 L 76.5432,-67.9012 z
M 93.8271,-67.9012 L 93.8271,-69.1358 L 95.0617,-69.1358 L 95.0617,-67.9012 z
M 19.7531,-67.9012 L 19.7531,-69.1358 L 20.9876,-69.1358 L 20.9876,-67.9012 z
M 4.93826,-67.9012 L 4.93826,-69.1358 L 6.17284,-69.1358 L 6.17284,-67.9012 z
M 86.4197,-67.9012 L 86.4197,-69.1358 L 87.6543,-69.1358 L 87.6543,-67.9012 z
M 8.64197,-67.9012 L 8.64197,-69.1358 L 9.87654,-69.1358 L 9.87654,-67.9012 z
M 71.6049,-67.9012 L 71.6049,-69.1358 L 72.8395,-69.1358 L 72.8395,-67.9012 z
M 82.716,-67.9012 L 82.716,-69.1358 L 83.9506,-69.1358 L 83.9506,-67.9012 z
M 97.5309,-67.9012 L 97.5309,-69.1358 L 98.7654,-69.1358 L 98.7654,-67.9012 z
M 33.3333,-33.3333 L 33.3333,-66.6667 L 66.6667,-66.6667 L 66.6667,-33.3333 z
M 90.1234,-64.1975 L 90.1234,-65.4321 L 91.358,-65.4321 L 91.358,-64.1975 z
M 30.8642,-64.1975 L 30.8642,-65.4321 L 32.0988,-65.4321 L 32.0988,-64.1975 z
M 23.4568,-64.1975 L 23.4568,-65.4321 L 24.6913,-65.4321 L 24.6913,-64.1975 z
M 16.0494,-64.1975 L 16.0494,-65.4321 L 17.2839,-65.4321 L 17.2839,-64.1975 z
M 97.5309,-64.1975 L 97.5309,-65.4321 L 98.7654,-65.4321 L 98.7654,-64.1975 z
M 67.9012,-64.1975 L 67.9012,-65.4321 L 69.1358,-65.4321 L 69.1358,-64.1975 z
M 4.93826,-64.1975 L 4.93826,-65.4321 L 6.17284,-65.4321 L 6.17284,-64.1975 z
M 75.3086,-64.1975 L 75.3086,-65.4321 L 76.5432,-65.4321 L 76.5432,-64.1975 z
M 1.23456,-64.1975 L 1.23456,-65.4321 L 2.46913,-65.4321 L 2.46913,-64.1975 z
M 27.1605,-64.1975 L 27.1605,-65.4321 L 28.3951,-65.4321 L 28.3951,-64.1975 z
M 79.0123,-64.1975 L 79.0123,-65.4321 L 80.2469,-65.4321 L 80.2469,-64.1975 z
M 12.3457,-64.1975 L 12.3457,-65.4321 L 13.5802,-65.4321 L 13.5802,-64.1975 z
M 19.7531,-64.1975 L 19.7531,-65.4321 L 20.9876,-65.4321 L 20.9876,-64.1975 z
M 93.8271,-64.1975 L 93.8271,-65.4321 L 95.0617,-65.4321 L 95.0617,-64.1975 z
M 71.6049,-64.1975 L 71.6049,-65.4321 L 72.8395,-65.4321 L 72.8395,-64.1975 z
M 86.4197,-64.1975 L 86.4197,-65.4321 L 87.6543,-65.4321 L 87.6543,-64.1975 z
M 82.716,-64.1975 L 82.716,-65.4321 L 83.9506,-65.4321 L 83.9506,-64.1975 z
M 8.64197,-64.1975 L 8.64197,-65.4321 L 9.87654,-65.4321 L 9.87654,-64.1975 z
M 81.4815,-59.2592 L 81.4815,-62.963 L 85.1852,-62.963 L 85.1852,-59.2592 z
M 14.8148,-59.2592 L 14.8148,-62.963 L 18.5185,-62.963 L 18.5185,-59.2592 z
M 3.70369,-59.2592 L 3.70369,-62.963 L 7.40739,-62.963 L 7.40739,-59.2592 z
M 70.3704,-59.2592 L 70.3704,-62.963 L 74.0741,-62.963 L 74.0741,-59.2592 z
M 92.5926,-59.2592 L 92.5926,-62.963 L 96.2963,-62.963 L 96.2963,-59.2592 z
M 25.9259,-59.2592 L 25.9259,-62.963 L 29.6296,-62.963 L 29.6296,-59.2592 z
M 79.0123,-60.4938 L 79.0123,-61.7284 L 80.2469,-61.7284 L 80.2469,-60.4938 z
M 30.8642,-60.4938 L 30.8642,-61.7284 L 32.0988,-61.7284 L 32.0988,-60.4938 z
M 23.4568,-60.4938 L 23.4568,-61.7284 L 24.6913,-61.7284 L 24.6913,-60.4938 z
M 75.3086,-60.4938 L 75.3086,-61.7284 L 76.5432,-61.7284 L 76.5432,-60.4938 z
M 19.7531,-60.4938 L 19.7531,-61.7284 L 20.9876,-61.7284 L 20.9876,-60.4938 z
M 12.3457,-60.4938 L 12.3457,-61.7284 L 13.5802,-61.7284 L 13.5802,-60.4938 z
M 86.4197,-60.4938 L 86.4197,-61.7284 L 87.6543,-61.7284 L 87.6543,-60.4938 z
M 97.5309,-60.4938 L 97.5309,-61.7284 L 98.7654,-61.7284 L 98.7654,-60.4938 z
M 90.1234,-60.4938 L 90.1234,-61.7284 L 91.358,-61.7284 L 91.358,-60.4938 z
M 1.23456,-60.4938 L 1.23456,-61.7284 L 2.46913,-61.7284 L 2.46913,-60.4938 z
M 8.64197,-60.4938 L 8.64197,-61.7284 L 9.87654,-61.7284 L 9.87654,-60.4938 z
M 67.9012,-60.4938 L 67.9012,-61.7284 L 69.1358,-61.7284 L 69.1358,-60.4938 z
M 86.4197,-56.7901 L 86.4197,-58.0247 L 87.6543,-58.0247 L 87.6543,-56.7901 z
M 12.3457,-56.7901 L 12.3457,-58.0247 L 13.5802,-58.0247 L 13.5802,-56.7901 z
M 19.7531,-56.7901 L 19.7531,-58.0247 L 20.9876,-58.0247 L 20.9876,-56.7901 z
M 30.8642,-56.7901 L 30.8642,-58.0247 L 32.0988,-58.0247 L 32.0988,-56.7901 z
M 23.4568,-56.7901 L 23.4568,-58.0247 L 24.6913,-58.0247 L 24.6913,-56.7901 z
M 1.23456,-56.7901 L 1.23456,-58.0247 L 2.46913,-58.0247 L 2.46913,-56.7901 z
M 90.1234,-56.7901 L 90.1234,-58.0247 L 91.358,-58.0247 L 91.358,-56.7901 z
M 27.1605,-56.7901 L 27.1605,-58.0247 L 28.3951,-58.0247 L 28.3951,-56.7901 z
M 82.716,-56.7901 L 82.716,-58.0247 L 83.9506,-58.0247 L 83.9506,-56.7901 z
M 8.64197,-56.7901 L 8.64197,-58.0247 L 9.87654,-58.0247 L 9.87654,-56.7901 z
M 79.0123,-56.7901 L 79.0123,-58.0247 L 80.2469,-58.0247 L 80.2469,-56.7901 z
M 4.93826,-56.7901 L 4.93826,-58.0247 L 6.17284,-58.0247 L 6.17284,-56.7901 z
M 16.0494,-56.7901 L 16.0494,-58.0247 L 17.2839,-58.0247 L 17.2839,-56.7901 z
M 93.8271,-56.7901 L 93.8271,-58.0247 L 95.0617,-58.0247 L 95.0617,-56.7901 z
M 97.5309,-56.7901 L 97.5309,-58.0247 L 98.7654,-58.0247 L 98.7654,-56.7901 z
M 75.3086,-56.7901 L 75.3086,-58.0247 L 76.5432,-58.0247 L 76.5432,-56.7901 z
M 71.6049,-56.7901 L 71.6049,-58.0247 L 72.8395,-58.0247 L 72.8395,-56.7901 z
M 67.9012,-56.7901 L 67.9012,-58.0247 L 69.1358,-58.0247 L 69.1358,-56.7901 z
M 11.1111,-44.4444 L 11.1111,-55.5555 L 22.2222,-55.5555 L 22.2222,-44.4444 z
M 77.7778,-44.4444 L 77.7778,-55.5555 L 88.8889,-55.5555 L 88.8889,-44.4444 z
M 4.93826,-53.0864 L 4.93826,-54.321 L 6.17284,-54.321 L 6.17284,-53.0864 z
M 93.8271,-53.0864 L 93.8271,-54.321 L 95.0617,-54.321 L 95.0617,-53.0864 z
M 30.8642,-53.0864 L 30.8642,-54.321 L 32.0988,-54.321 L 32.0988,-53.0864 z
M 71.6049,-53.0864 L 71.6049,-54.321 L 72.8395,-54.321 L 72.8395,-53.0864 z
M 1.23456,-53.0864 L 1.23456,-54.321 L 2.46913,-54.321 L 2.46913,-53.0864 z
M 23.4568,-53.0864 L 23.4568,-54.321 L 24.6913,-54.321 L 24.6913,-53.0864 z
M 90.1234,-53.0864 L 90.1234,-54.321 L 91.358,-54.321 L 91.358,-53.0864 z
M 8.64197,-53.0864 L 8.64197,-54.321 L 9.87654,-54.321 L 9.87654,-53.0864 z
M 75.3086,-53.0864 L 75.3086,-54.321 L 76.5432,-54.321 L 76.5432,-53.0864 z
M 67.9012,-53.0864 L 67.9012,-54.321 L 69.1358,-54.321 L 69.1358,-53.0864 z
M 97.5309,-53.0864 L 97.5309,-54.321 L 98.7654,-54.321 L 98.7654,-53.0864 z
M 27.1605,-53.0864 L 27.1605,-54.321 L 28.3951,-54.321 L 28.3951,-53.0864 z
M 92.5926,-48.1481 L 92.5926,-51.8518 L 96.2963,-51.8518 L 96.2963,-48.1481 z
M 3.70369,-48.1481 L 3.70369,-51.8518 L 7.40739,-51.8518 L 7.40739,-48.1481 z
M 25.9259,-48.1481 L 25.9259,-51.8518 L 29.6296,-51.8518 L 29.6296,-48.1481 z
M 70.3704,-48.1481 L 70.3704,-51.8518 L 74.0741,-51.8518 L 74.0741,-48.1481 z
M 67.9012,-49.3827 L 67.9012,-50.6173 L 69.1358,-50.6173 L 69.1358,-49.3827 z
M 75.3086,-49.3827 L 75.3086,-50.6173 L 76.5432,-50.6173 L 76.5432,-49.3827 z
M 90.1234,-49.3827 L 90.1234,-50.6173 L 91.358,-50.6173 L 91.358,-49.3827 z
M 23.4568,-49.3827 L 23.4568,-50.6173 L 24.6913,-50.6173 L 24.6913,-49.3827 z
M 97.5309,-49.3827 L 97.5309,-50.6173 L 98.7654,-50.6173 L 98.7654,-49.3827 z
M 8.64197,-49.3827 L 8.64197,-50.6173 L 9.87654,-50.6173 L 9.87654,-49.3827 z
M 30.8642,-49.3827 L 30.8642,-50.6173 L 32.0988,-50.6173 L 32.0988,-49.3827 z
M 1.23456,-49.3827 L 1.23456,-50.6173 L 2.46913,-50.6173 L 2.46913,-49.3827 z
M 67.9012,-45.679 L 67.9012,-46.9136 L 69.1358,-46.9136 L 69.1358,-45.679 z
M 23.4568,-45.679 L 23.4568,-46.9136 L 24.6913,-46.9136 L 24.6913,-45.679 z
M 97.5309,-45.679 L 97.5309,-46.9136 L 98.7654,-46.9136 L 98.7654,-45.679 z
M 93.8271,-45.679 L 93.8271,-46.9136 L 95.0617,-46.9136 L 95.0617,-45.679 z
M 27.1605,-45.679 L 27.1605,-46.9136 L 28.3951,-46.9136 L 28.3951,-45.679 z
M 1.23456,-45.679 L 1.23456,-46.9136 L 2.46913,-46.9136 L 2.46913,-45.679 z
M 30.8642,-45.679 L 30.8642,-46.9136 L 32.0988,-46.9136 L 32.0988,-45.679 z
M 71.6049,-45.679 L 71.6049,-46.9136 L 72.8395,-46.9136 L 72.8395,-45.679 z
M 4.93826,-45.679 L 4.93826,-46.9136 L 6.17284,-46.9136 L 6.17284,-45.679 z
M 8.64197,-45.679 L 8.64197,-46.9136 L 9.87654,-46.9136 L 9.87654,-45.679 z
M 75.3086,-45.679 L 75.3086,-46.9136 L 76.5432,-46.9136 L 76.5432,-45.679 z
M 90.1234,-45.679 L 90.1234,-46.9136 L 91.358,-46.9136 L 91.358,-45.679 z
M 71.6049,-41.9753 L 71.6049,-43.2099 L 72.8395,-43.2099 L 72.8395,-41.9753 z
M 90.1234,-41.9753 L 90.1234,-43.2099 L 91.358,-43.2099 L 91.358,-41.9753 z
M 12.3457,-41.9753 L 12.3457,-43.2099 L 13.5802,-43.2099 L 13.5802,-41.9753 z
M 79.0123,-41.9753 L 79.0123,-43.2099 L 80.2469,-43.2099 L 80.2469,-41.9753 z
M 97.5309,-41.9753 L 97.5309,-43.2099 L 98.7654,-43.2099 L 98.7654,-41.9753 z
M 19.7531,-41.9753 L 19.7531,-43.2099 L 20.9876,-43.2099 L 20.9876,-41.9753 z
M 16.0494,-41.9753 L 16.0494,-43.2099 L 17.2839,-43.2099 L 17.2839,-41.9753 z
M 30.8642,-41.9753 L 30.8642,-43.2099 L 32.0988,-43.2099 L 32.0988,-41.9753 z
M 82.716,-41.9753 L 82.716,-43.2099 L 83.9506,-43.2099 L 83.9506,-41.9753 z
M 23.4568,-41.9753 L 23.4568,-43.2099 L 24.6913,-43.2099 L 24.6913,-41.9753 z
M 67.9012,-41.9753 L 67.9012,-43.2099 L 69.1358,-43.2099 L 69.1358,-41.9753 z
M 27.1605,-41.9753 L 27.1605,-43.2099 L 28.3951,-43.2099 L 28.3951,-41.9753 z
M 4.93826,-41.9753 L 4.93826,-43.2099 L 6.17284,-43.2099 L 6.17284,-41.9753 z
M 86.4197,-41.9753 L 86.4197,-43.2099 L 87.6543,-43.2099 L 87.6543,-41.9753 z
M 93.8271,-41.9753 L 93.8271,-43.2099 L 95.0617,-43.2099 L 95.0617,-41.9753 z
M 1.23456,-41.9753 L 1.23456,-43.2099 L 2.46913,-43.2099 L 2.46913,-41.9753 z
M 75.3086,-41.9753 L 75.3086,-43.2099 L 76.5432,-43.2099 L 76.5432,-41.9753 z
M 8.64197,-41.9753 L 8.64197,-43.2099 L 9.87654,-43.2099 L 9.87654,-41.9753 z
M 3.70369,-37.037 L 3.70369,-40.7407 L 7.40739,-40.7407 L 7.40739,-37.037 z
M 92.5926,-37.037 L 92.5926,-40.7407 L 96.2963,-40.7407 L 96.2963,-37.037 z
M 14.8148,-37.037 L 14.8148,-40.7407 L 18.5185,-40.7407 L 18.5185,-37.037 z
M 25.9259,-37.037 L 25.9259,-40.7407 L 29.6296,-40.7407 L 29.6296,-37.037 z
M 70.3704,-37.037 L 70.3704,-40.7407 L 74.0741,-40.7407 L 74.0741,-37.037 z
M 81.4815,-37.037 L 81.4815,-40.7407 L 85.1852,-40.7407 L 85.1852,-37.037 z
M 90.1234,-38.2716 L 90.1234,-39.5062 L 91.358,-39.5062 L 91.358,-38.2716 z
M 86.4197,-38.2716 L 86.4197,-39.5062 L 87.6543,-39.5062 L 87.6543,-38.2716 z
M 97.5309,-38.2716 L 97.5309,-39.5062 L 98.7654,-39.5062 L 98.7654,-38.2716 z
M 12.3457,-38.2716 L 12.3457,-39.5062 L 13.5802,-39.5062 L 13.5802,-38.2716 z
M 23.4568,-38.2716 L 23.4568,-39.5062 L 24.6913,-39.5062 L 24.6913,-38.2716 z
M 67.9012,-38.2716 L 67.9012,-39.5062 L 69.1358,-39.5062 L 69.1358,-38.2716 z
M 79.0123,-38.2716 L 79.0123,-39.5062 L 80.2469,-39.5062 L 80.2469,-38.2716 z
M 19.7531,-38.2716 L 19.7531,-39.5062 L 20.9876,-39.5062 L 20.9876,-38.2716 z
M 30.8642,-38.2716 L 30.8642,-39.5062 L 32.0988,-39.5062 L 32.0988,-38.2716 z
M 75.3086,-38.2716 L 75.3086,-39.5062 L 76.5432,-39.5062 L 76.5432,-38.2716 z
M 1.23456,-38.2716 L 1.23456,-39.5062 L 2.46913,-39.5062 L 2.46913,-38.2716 z
M 8.64197,-38.2716 L 8.64197,-39.5062 L 9.87654,-39.5062 L 9.87654,-38.2716 z
M 67.9012,-34.5679 L 67.9012,-35.8025 L 69.1358,-35.8025 L 69.1358,-34.5679 z
M 19.7531,-34.5679 L 19.7531,-35.8025 L 20.9876,-35.8025 L 20.9876,-34.5679 z
M 93.8271,-34.5679 L 93.8271,-35.8025 L 95.0617,-35.8025 L 95.0617,-34.5679 z
M 30.8642,-34.5679 L 30.8642,-35.8025 L 32.0988,-35.8025 L 32.0988,-34.5679 z
M 12.3457,-34.5679 L 12.3457,-35.8025 L 13.5802,-35.8025 L 13.5802,-34.5679 z
M 16.0494,-34.5679 L 16.0494,-35.8025 L 17.2839,-35.8025 L 17.2839,-34.5679 z
M 75.3086,-34.5679 L 75.3086,-35.8025 L 76.5432,-35.8025 L 76.5432,-34.5679 z
M 1.23456,-34.5679 L 1.23456,-35.8025 L 2.46913,-35.8025 L 2.46913,-34.5679 z
M 27.1605,-34.5679 L 27.1605,-35.8025 L 28.3951,-35.8025 L 28.3951,-34.5679 z
M 4.93826,-34.5679 L 4.93826,-35.8025 L 6.17284,-35.8025 L 6.17284,-34.5679 z
M 97.5309,-34.5679 L 97.5309,-35.8025 L 98.7654,-35.8025 L 98.7654,-34.5679 z
M 23.4568,-34.5679 L 23.4568,-35.8025 L 24.6913,-35.8025 L 24.6913,-34.5679 z
M 8.64197,-34.5679 L 8.64197,-35.8025 L 9.87654,-35.8025 L 9.87654,-34.5679 z
M 90.1234,-34.5679 L 90.1234,-35.8025 L 91.358,-35.8025 L 91.358,-34.5679 z
M 86.4197,-34.5679 L 86.4197,-35.8025 L 87.6543,-35.8025 L 87.6543,-34.5679 z
M 82.716,-34.5679 L 82.716,-35.8025 L 83.9506,-35.8025 L 83.9506,-34.5679 z
M 79.0123,-34.5679 L 79.0123,-35.8025 L 80.2469,-35.8025 L 80.2469,-34.5679 z
M 71.6049,-34.5679 L 71.6049,-35.8025 L 72.8395,-35.8025 L 72.8395,-34.5679 z
M 4.93826,-30.8642 L 4.93826,-32.0988 L 6.17284,-32.0988 L 6.17284,-30.8642 z
M 97.5309,-30.8642 L 97.5309,-32.0988 L 98.7654,-32.0988 L 98.7654,-30.8642 z
M 12.3457,-30.8642 L 12.3457,-32.0988 L 13.5802,-32.0988 L 13.5802,-30.8642 z
M 27.1605,-30.8642 L 27.1605,-32.0988 L 28.3951,-32.0988 L 28.3951,-30.8642 z
M 60.4938,-30.8642 L 60.4938,-32.0988 L 61.7284,-32.0988 L 61.7284,-30.8642 z
M 45.679,-30.8642 L 45.679,-32.0988 L 46.9136,-32.0988 L 46.9136,-30.8642 z
M 49.3827,-30.8642 L 49.3827,-32.0988 L 50.6173,-32.0988 L 50.6173,-30.8642 z
M 16.0494,-30.8642 L 16.0494,-32.0988 L 17.2839,-32.0988 L 17.2839,-30.8642 z
M 79.0123,-30.8642 L 79.0123,-32.0988 L 80.2469,-32.0988 L 80.2469,-30.8642 z
M 38.2716,-30.8642 L 38.2716,-32.0988 L 39.5062,-32.0988 L 39.5062,-30.8642 z
M 1.23456,-30.8642 L 1.23456,-32.0988 L 2.46913,-32.0988 L 2.46913,-30.8642 z
M 93.8271,-30.8642 L 93.8271,-32.0988 L 95.0617,-32.0988 L 95.0617,-30.8642 z
M 67.9012,-30.8642 L 67.9012,-32.0988 L 69.1358,-32.0988 L 69.1358,-30.8642 z
M 30.8642,-30.8642 L 30.8642,-32.0988 L 32.0988,-32.0988 L 32.0988,-30.8642 z
M 71.6049,-30.8642 L 71.6049,-32.0988 L 72.8395,-32.0988 L 72.8395,-30.8642 z
M 34.5679,-30.8642 L 34.5679,-32.0988 L 35.8025,-32.0988 L 35.8025,-30.8642 z
M 19.7531,-30.8642 L 19.7531,-32.0988 L 20.9876,-32.0988 L 20.9876,-30.8642 z
M 56.7901,-30.8642 L 56.7901,-32.0988 L 58.0247,-32.0988 L 58.0247,-30.8642 z
M 90.1234,-30.8642 L 90.1234,-32.0988 L 91.358,-32.0988 L 91.358,-30.8642 z
M 82.716,-30.8642 L 82.716,-32.0988 L 83.9506,-32.0988 L 83.9506,-30.8642 z
M 86.4197,-30.8642 L 86.4197,-32.0988 L 87.6543,-32.0988 L 87.6543,-30.8642 z
M 8.64197,-30.8642 L 8.64197,-32.0988 L 9.87654,-32.0988 L 9.87654,-30.8642 z
M 23.4568,-30.8642 L 23.4568,-32.0988 L 24.6913,-32.0988 L 24.6913,-30.8642 z
M 41.9753,-30.8642 L 41.9753,-32.0988 L 43.2099,-32.0988 L 43.2099,-30.8642 z
M 53.0864,-30.8642 L 53.0864,-32.0988 L 54.321,-32.0988 L 54.321,-30.8642 z
M 75.3086,-30.8642 L 75.3086,-32.0988 L 76.5432,-32.0988 L 76.5432,-30.8642 z
M 64.1975,-30.8642 L 64.1975,-32.0988 L 65.4321,-32.0988 L 65.4321,-30.8642 z
M 81.4815,-25.9259 L 81.4815,-29.6296 L 85.1852,-29.6296 L 85.1852,-25.9259 z
M 70.3704,-25.9259 L 70.3704,-29.6296 L 74.0741,-29.6296 L 74.0741,-25.9259 z
M 14.8148,-25.9259 L 14.8148,-29.6296 L 18.5185,-29.6296 L 18.5185,-25.9259 z
M 25.9259,-25.9259 L 25.9259,-29.6296 L 29.6296,-29.6296 L 29.6296,-25.9259 z
M 59.2592,-25.9259 L 59.2592,-29.6296 L 62.963,-29.6296 L 62.963,-25.9259 z
M 92.5926,-25.9259 L 92.5926,-29.6296 L 96.2963,-29.6296 L 96.2963,-25.9259 z
M 37.037,-25.9259 L 37.037,-29.6296 L 40.7407,-29.6296 L 40.7407,-25.9259 z
M 48.1481,-25.9259 L 48.1481,-29.6296 L 51.8518,-29.6296 L 51.8518,-25.9259 z
M 3.70369,-25.9259 L 3.70369,-29.6296 L 7.40739,-29.6296 L 7.40739,-25.9259 z
M 30.8642,-27.1605 L 30.8642,-28.3951 L 32.0988,-28.3951 L 32.0988,-27.1605 z
M 1.23456,-27.1605 L 1.23456,-28.3951 L 2.46913,-28.3951 L 2.46913,-27.1605 z
M 12.3457,-27.1605 L 12.3457,-28.3951 L 13.5802,-28.3951 L 13.5802,-27.1605 z
M 79.0123,-27.1605 L 79.0123,-28.3951 L 80.2469,-28.3951 L 80.2469,-27.1605 z
M 45.679,-27.1605 L 45.679,-28.3951 L 46.9136,-28.3951 L 46.9136,-27.1605 z
M 67.9012,-27.1605 L 67.9012,-28.3951 L 69.1358,-28.3951 L 69.1358,-27.1605 z
M 34.5679,-27.1605 L 34.5679,-28.3951 L 35.8025,-28.3951 L 35.8025,-27.1605 z
M 90.1234,-27.1605 L 90.1234,-28.3951 L 91.358,-28.3951 L 91.358,-27.1605 z
M 64.1975,-27.1605 L 64.1975,-28.3951 L 65.4321,-28.3951 L 65.4321,-27.1605 z
M 75.3086,-27.1605 L 75.3086,-28.3951 L 76.5432,-28.3951 L 76.5432,-27.1605 z
M 56.7901,-27.1605 L 56.7901,-28.3951 L 58.0247,-28.3951 L 58.0247,-27.1605 z
M 53.0864,-27.1605 L 53.0864,-28.3951 L 54.321,-28.3951 L 54.321,-27.1605 z
M 97.5309,-27.1605 L 97.5309,-28.3951 L 98.7654,-28.3951 L 98.7654,-27.1605 z
M 86.4197,-27.1605 L 86.4197,-28.3951 L 87.6543,-28.3951 L 87.6543,-27.1605 z
M 8.64197,-27.1605 L 8.64197,-28.3951 L 9.87654,-28.3951 L 9.87654,-27.1605 z
M 19.7531,-27.1605 L 19.7531,-28.3951 L 20.9876,-28.3951 L 20.9876,-27.1605 z
M 41.9753,-27.1605 L 41.9753,-28.3951 L 43.2099,-28.3951 L 43.2099,-27.1605 z
M 23.4568,-27.1605 L 23.4568,-28.3951 L 24.6913,-28.3951 L 24.6913,-27.1605 z
M 34.5679,-23.4568 L 34.5679,-24.6913 L 35.8025,-24.6913 L 35.8025,-23.4568 z
M 16.0494,-23.4568 L 16.0494,-24.6913 L 17.2839,-24.6913 L 17.2839,-23.4568 z
M 4.93826,-23.4568 L 4.93826,-24.6913 L 6.17284,-24.6913 L 6.17284,-23.4568 z
M 82.716,-23.4568 L 82.716,-24.6913 L 83.9506,-24.6913 L 83.9506,-23.4568 z
M 27.1605,-23.4568 L 27.1605,-24.6913 L 28.3951,-24.6913 L 28.3951,-23.4568 z
M 49.3827,-23.4568 L 49.3827,-24.6913 L 50.6173,-24.6913 L 50.6173,-23.4568 z
M 30.8642,-23.4568 L 30.8642,-24.6913 L 32.0988,-24.6913 L 32.0988,-23.4568 z
M 71.6049,-23.4568 L 71.6049,-24.6913 L 72.8395,-24.6913 L 72.8395,-23.4568 z
M 79.0123,-23.4568 L 79.0123,-24.6913 L 80.2469,-24.6913 L 80.2469,-23.4568 z
M 12.3457,-23.4568 L 12.3457,-24.6913 L 13.5802,-24.6913 L 13.5802,-23.4568 z
M 67.9012,-23.4568 L 67.9012,-24.6913 L 69.1358,-24.6913 L 69.1358,-23.4568 z
M 1.23456,-23.4568 L 1.23456,-24.6913 L 2.46913,-24.6913 L 2.46913,-23.4568 z
M 23.4568,-23.4568 L 23.4568,-24.6913 L 24.6913,-24.6913 L 24.6913,-23.4568 z
M 45.679,-23.4568 L 45.679,-24.6913 L 46.9136,-24.6913 L 46.9136,-23.4568 z
M 38.2716,-23.4568 L 38.2716,-24.6913 L 39.5062,-24.6913 L 39.5062,-23.4568 z
M 90.1234,-23.4568 L 90.1234,-24.6913 L 91.358,-24.6913 L 91.358,-23.4568 z
M 93.8271,-23.4568 L 93.8271,-24.6913 L 95.0617,-24.6913 L 95.0617,-23.4568 z
M 60.4938,-23.4568 L 60.4938,-24.6913 L 61.7284,-24.6913 L 61.7284,-23.4568 z
M 86.4197,-23.4568 L 86.4197,-24.6913 L 87.6543,-24.6913 L 87.6543,-23.4568 z
M 41.9753,-23.4568 L 41.9753,-24.6913 L 43.2099,-24.6913 L 43.2099,-23.4568 z
M 97.5309,-23.4568 L 97.5309,-24.6913 L 98.7654,-24.6913 L 98.7654,-23.4568 z
M 8.64197,-23.4568 L 8.64197,-24.6913 L 9.87654,-24.6913 L 9.87654,-23.4568 z
M 64.1975,-23.4568 L 64.1975,-24.6913 L 65.4321,-24.6913 L 65.4321,-23.4568 z
M 56.7901,-23.4568 L 56.7901,-24.6913 L 58.0247,-24.6913 L 58.0247,-23.4568 z
M 75.3086,-23.4568 L 75.3086,-24.6913 L 76.5432,-24.6913 L 76.5432,-23.4568 z
M 19.7531,-23.4568 L 19.7531,-24.6913 L 20.9876,-24.6913 L 20.9876,-23.4568 z
M 53.0864,-23.4568 L 53.0864,-24.6913 L 54.321,-24.6913 L 54.321,-23.4568 z
M 77.7778,-11.1111 L 77.7778,-22.2222 L 88.8889,-22.2222 L 88.8889,-11.1111 z
M 44.4444,-11.1111 L 44.4444,-22.2222 L 55.5555,-22.2222 L 55.5555,-11.1111 z
M 11.1111,-11.1111 L 11.1111,-22.2222 L 22.2222,-22.2222 L 22.2222,-11.1111 z
M 93.8271,-19.7531 L 93.8271,-20.9876 L 95.0617,-20.9876 L 95.0617,-19.7531 z
M 60.4938,-19.7531 L 60.4938,-20.9876 L 61.7284,-20.9876 L 61.7284,-19.7531 z
M 71.6049,-19.7531 L 71.6049,-20.9876 L 72.8395,-20.9876 L 72.8395,-19.7531 z
M 4.93826,-19.7531 L 4.93826,-20.9876 L 6.17284,-20.9876 L 6.17284,-19.7531 z
M 67.9012,-19.7531 L 67.9012,-20.9876 L 69.1358,-20.9876 L 69.1358,-19.7531 z
M 30.8642,-19.7531 L 30.8642,-20.9876 L 32.0988,-20.9876 L 32.0988,-19.7531 z
M 64.1975,-19.7531 L 64.1975,-20.9876 L 65.4321,-20.9876 L 65.4321,-19.7531 z
M 34.5679,-19.7531 L 34.5679,-20.9876 L 35.8025,-20.9876 L 35.8025,-19.7531 z
M 97.5309,-19.7531 L 97.5309,-20.9876 L 98.7654,-20.9876 L 98.7654,-19.7531 z
M 75.3086,-19.7531 L 75.3086,-20.9876 L 76.5432,-20.9876 L 76.5432,-19.7531 z
M 23.4568,-19.7531 L 23.4568,-20.9876 L 24.6913,-20.9876 L 24.6913,-19.7531 z
M 27.1605,-19.7531 L 27.1605,-20.9876 L 28.3951,-20.9876 L 28.3951,-19.7531 z
M 8.64197,-19.7531 L 8.64197,-20.9876 L 9.87654,-20.9876 L 9.87654,-19.7531 z
M 41.9753,-19.7531 L 41.9753,-20.9876 L 43.2099,-20.9876 L 43.2099,-19.7531 z
M 56.7901,-19.7531 L 56.7901,-20.9876 L 58.0247,-20.9876 L 58.0247,-19.7531 z
M 1.23456,-19.7531 L 1.23456,-20.9876 L 2.46913,-20.9876 L 2.46913,-19.7531 z
M 90.1234,-19.7531 L 90.1234,-20.9876 L 91.358,-20.9876 L 91.358,-19.7531 z
M 38.2716,-19.7531 L 38.2716,-20.9876 L 39.5062,-20.9876 L 39.5062,-19.7531 z
M 25.9259,-14.8148 L 25.9259,-18.5185 L 29.6296,-18.5185 L 29.6296,-14.8148 z
M 70.3704,-14.8148 L 70.3704,-18.5185 L 74.0741,-18.5185 L 74.0741,-14.8148 z
M 92.5926,-14.8148 L 92.5926,-18.5185 L 96.2963,-18.5185 L 96.2963,-14.8148 z
M 59.2592,-14.8148 L 59.2592,-18.5185 L 62.963,-18.5185 L 62.963,-14.8148 z
M 37.037,-14.8148 L 37.037,-18.5185 L 40.7407,-18.5185 L 40.7407,-14.8148 z
M 3.70369,-14.8148 L 3.70369,-18.5185 L 7.40739,-18.5185 L 7.40739,-14.8148 z
M 41.9753,-16.0494 L 41.9753,-17.2839 L 43.2099,-17.2839 L 43.2099,-16.0494 z
M 56.7901,-16.0494 L 56.7901,-17.2839 L 58.0247,-17.2839 L 58.0247,-16.0494 z
M 1.23456,-16.0494 L 1.23456,-17.2839 L 2.46913,-17.2839 L 2.46913,-16.0494 z
M 23.4568,-16.0494 L 23.4568,-17.2839 L 24.6913,-17.2839 L 24.6913,-16.0494 z
M 64.1975,-16.0494 L 64.1975,-17.2839 L 65.4321,-17.2839 L 65.4321,-16.0494 z
M 75.3086,-16.0494 L 75.3086,-17.2839 L 76.5432,-17.2839 L 76.5432,-16.0494 z
M 97.5309,-16.0494 L 97.5309,-17.2839 L 98.7654,-17.2839 L 98.7654,-16.0494 z
M 30.8642,-16.0494 L 30.8642,-17.2839 L 32.0988,-17.2839 L 32.0988,-16.0494 z
M 67.9012,-16.0494 L 67.9012,-17.2839 L 69.1358,-17.2839 L 69.1358,-16.0494 z
M 90.1234,-16.0494 L 90.1234,-17.2839 L 91.358,-17.2839 L 91.358,-16.0494 z
M 8.64197,-16.0494 L 8.64197,-17.2839 L 9.87654,-17.2839 L 9.87654,-16.0494 z
M 34.5679,-16.0494 L 34.5679,-17.2839 L 35.8025,-17.2839 L 35.8025,-16.0494 z
M 30.8642,-12.3457 L 30.8642,-13.5802 L 32.0988,-13.5802 L 32.0988,-12.3457 z
M 8.64197,-12.3457 L 8.64197,-13.5802 L 9.87654,-13.5802 L 9.87654,-12.3457 z
M 71.6049,-12.3457 L 71.6049,-13.5802 L 72.8395,-13.5802 L 72.8395,-12.3457 z
M 38.2716,-12.3457 L 38.2716,-13.5802 L 39.5062,-13.5802 L 39.5062,-12.3457 z
M 97.5309,-12.3457 L 97.5309,-13.5802 L 98.7654,-13.5802 L 98.7654,-12.3457 z
M 75.3086,-12.3457 L 75.3086,-13.5802 L 76.5432,-13.5802 L 76.5432,-12.3457 z
M 34.5679,-12.3457 L 34.5679,-13.5802 L 35.8025,-13.5802 L 35.8025,-12.3457 z
M 41.9753,-12.3457 L 41.9753,-13.5802 L 43.2099,-13.5802 L 43.2099,-12.3457 z
M 64.1975,-12.3457 L 64.1975,-13.5802 L 65.4321,-13.5802 L 65.4321,-12.3457 z
M 56.7901,-12.3457 L 56.7901,-13.5802 L 58.0247,-13.5802 L 58.0247,-12.3457 z
M 1.23456,-12.3457 L 1.23456,-13.5802 L 2.46913,-13.5802 L 2.46913,-12.3457 z
M 4.93826,-12.3457 L 4.93826,-13.5802 L 6.17284,-13.5802 L 6.17284,-12.3457 z
M 27.1605,-12.3457 L 27.1605,-13.5802 L 28.3951,-13.5802 L 28.3951,-12.3457 z
M 93.8271,-12.3457 L 93.8271,-13.5802 L 95.0617,-13.5802 L 95.0617,-12.3457 z
M 23.4568,-12.3457 L 23.4568,-13.5802 L 24.6913,-13.5802 L 24.6913,-12.3457 z
M 67.9012,-12.3457 L 67.9012,-13.5802 L 69.1358,-13.5802 L 69.1358,-12.3457 z
M 60.4938,-12.3457 L 60.4938,-13.5802 L 61.7284,-13.5802 L 61.7284,-12.3457 z
M 90.1234,-12.3457 L 90.1234,-13.5802 L 91.358,-13.5802 L 91.358,-12.3457 z
M 79.0123,-8.64197 L 79.0123,-9.87654 L 80.2469,-9.87654 L 80.2469,-8.64197 z
M 27.1605,-8.64197 L 27.1605,-9.87654 L 28.3951,-9.87654 L 28.3951,-8.64197 z
M 53.0864,-8.64197 L 53.0864,-9.87654 L 54.321,-9.87654 L 54.321,-8.64197 z
M 82.716,-8.64197 L 82.716,-9.87654 L 83.9506,-9.87654 L 83.9506,-8.64197 z
M 71.6049,-8.64197 L 71.6049,-9.87654 L 72.8395,-9.87654 L 72.8395,-8.64197 z
M 97.5309,-8.64197 L 97.5309,-9.87654 L 98.7654,-9.87654 L 98.7654,-8.64197 z
M 8.64197,-8.64197 L 8.64197,-9.87654 L 9.87654,-9.87654 L 9.87654,-8.64197 z
M 30.8642,-8.64197 L 30.8642,-9.87654 L 32.0988,-9.87654 L 32.0988,-8.64197 z
M 67.9012,-8.64197 L 67.9012,-9.87654 L 69.1358,-9.87654 L 69.1358,-8.64197 z
M 12.3457,-8.64197 L 12.3457,-9.87654 L 13.5802,-9.87654 L 13.5802,-8.64197 z
M 75.3086,-8.64197 L 75.3086,-9.87654 L 76.5432,-9.87654 L 76.5432,-8.64197 z
M 90.1234,-8.64197 L 90.1234,-9.87654 L 91.358,-9.87654 L 91.358,-8.64197 z
M 60.4938,-8.64197 L 60.4938,-9.87654 L 61.7284,-9.87654 L 61.7284,-8.64197 z
M 49.3827,-8.64197 L 49.3827,-9.87654 L 50.6173,-9.87654 L 50.6173,-8.64197 z
M 4.93826,-8.64197 L 4.93826,-9.87654 L 6.17284,-9.87654 L 6.17284,-8.64197 z
M 23.4568,-8.64197 L 23.4568,-9.87654 L 24.6913,-9.87654 L 24.6913,-8.64197 z
M 38.2716,-8.64197 L 38.2716,-9.87654 L 39.5062,-9.87654 L 39.5062,-8.64197 z
M 1.23456,-8.64197 L 1.23456,-9.87654 L 2.46913,-9.87654 L 2.46913,-8.64197 z
M 45.679,-8.64197 L 45.679,-9.87654 L 46.9136,-9.87654 L 46.9136,-8.64197 z
M 64.1975,-8.64197 L 64.1975,-9.87654 L 65.4321,-9.87654 L 65.4321,-8.64197 z
M 56.7901,-8.64197 L 56.7901,-9.87654 L 58.0247,-9.87654 L 58.0247,-8.64197 z
M 93.8271,-8.64197 L 93.8271,-9.87654 L 95.0617,-9.87654 L 95.0617,-8.64197 z
M 86.4197,-8.64197 L 86.4197,-9.87654 L 87.6543,-9.87654 L 87.6543,-8.64197 z
M 41.9753,-8.64197 L 41.9753,-9.87654 L 43.2099,-9.87654 L 43.2099,-8.64197 z
M 34.5679,-8.64197 L 34.5679,-9.87654 L 35.8025,-9.87654 L 35.8025,-8.64197 z
M 19.7531,-8.64197 L 19.7531,-9.87654 L 20.9876,-9.87654 L 20.9876,-8.64197 z
M 16.0494,-8.64197 L 16.0494,-9.87654 L 17.2839,-9.87654 L 17.2839,-8.64197 z
M 48.1481,-3.70369 L 48.1481,-7.40739 L 51.8518,-7.40739 L 51.8518,-3.70369 z
M 3.70369,-3.70369 L 3.70369,-7.40739 L 7.40739,-7.40739 L 7.40739,-3.70369 z
M 25.9259,-3.70369 L 25.9259,-7.40739 L 29.6296,-7.40739 L 29.6296,-3.70369 z
M 81.4815,-3.70369 L 81.4815,-7.40739 L 85.1852,-7.40739 L 85.1852,-3.70369 z
M 70.3704,-3.70369 L 70.3704,-7.40739 L 74.0741,-7.40739 L 74.0741,-3.70369 z
M 14.8148,-3.70369 L 14.8148,-7.40739 L 18.5185,-7.40739 L 18.5185,-3.70369 z
M 37.037,-3.70369 L 37.037,-7.40739 L 40.7407,-7.40739 L 40.7407,-3.70369 z
M 92.5926,-3.70369 L 92.5926,-7.40739 L 96.2963,-7.40739 L 96.2963,-3.70369 z
M 59.2592,-3.70369 L 59.2592,-7.40739 L 62.963,-7.40739 L 62.963,-3.70369 z
M 8.64197,-4.93826 L 8.64197,-6.17284 L 9.87654,-6.17284 L 9.87654,-4.93826 z
M 56.7901,-4.93826 L 56.7901,-6.17284 L 58.0247,-6.17284 L 58.0247,-4.93826 z
M 41.9753,-4.93826 L 41.9753,-6.17284 L 43.2099,-6.17284 L 43.2099,-4.93826 z
M 90.1234,-4.93826 L 90.1234,-6.17284 L 91.358,-6.17284 L 91.358,-4.93826 z
M 12.3457,-4.93826 L 12.3457,-6.17284 L 13.5802,-6.17284 L 13.5802,-4.93826 z
M 79.0123,-4.93826 L 79.0123,-6.17284 L 80.2469,-6.17284 L 80.2469,-4.93826 z
M 53.0864,-4.93826 L 53.0864,-6.17284 L 54.321,-6.17284 L 54.321,-4.93826 z
M 45.679,-4.93826 L 45.679,-6.17284 L 46.9136,-6.17284 L 46.9136,-4.93826 z
M 64.1975,-4.93826 L 64.1975,-6.17284 L 65.4321,-6.17284 L 65.4321,-4.93826 z
M 86.4197,-4.93826 L 86.4197,-6.17284 L 87.6543,-6.17284 L 87.6543,-4.93826 z
M 34.5679,-4.93826 L 34.5679,-6.17284 L 35.8025,-6.17284 L 35.8025,-4.93826 z
M 1.23456,-4.93826 L 1.23456,-6.17284 L 2.46913,-6.17284 L 2.46913,-4.93826 z
M 67.9012,-4.93826 L 67.9012,-6.17284 L 69.1358,-6.17284 L 69.1358,-4.93826 z
M 30.8642,-4.93826 L 30.8642,-6.17284 L 32.0988,-6.17284 L 32.0988,-4.93826 z
M 23.4568,-4.93826 L 23.4568,-6.17284 L 24.6913,-6.17284 L 24.6913,-4.93826 z
M 19.7531,-4.93826 L 19.7531,-6.17284 L 20.9876,-6.17284 L 20.9876,-4.93826 z
M 75.3086,-4.93826 L 75.3086,-6.17284 L 76.5432,-6.17284 L 76.5432,-4.93826 z
M 97.5309,-4.93826 L 97.5309,-6.17284 L 98.7654,-6.17284 L 98.7654,-4.93826 z
M 97.5309,-1.23456 L 97.5309,-2.46913 L 98.7654,-2.46913 L 98.7654,-1.23456 z
M 4.93826,-1.23456 L 4.93826,-2.46913 L 6.17284,-2.46913 L 6.17284,-1.23456 z
M 93.8271,-1.23456 L 93.8271,-2.46913 L 95.0617,-2.46913 L 95.0617,-1.23456 z
M 8.64197,-1.23456 L 8.64197,-2.46913 L 9.87654,-2.46913 L 9.87654,-1.23456 z
M 90.1234,-1.23456 L 90.1234,-2.46913 L 91.358,-2.46913 L 91.358,-1.23456 z
M 12.3457,-1.23456 L 12.3457,-2.46913 L 13.5802,-2.46913 L 13.5802,-1.23456 z
M 86.4197,-1.23456 L 86.4197,-2.46913 L 87.6543,-2.46913 L 87.6543,-1.23456 z
M 16.0494,-1.23456 L 16.0494,-2.46913 L 17.2839,-2.46913 L 17.2839,-1.23456 z
M 82.716,-1.23456 L 82.716,-2.46913 L 83.9506,-2.46913 L 83.9506,-1.23456 z
M 19.7531,-1.23456 L 19.7531,-2.46913 L 20.9876,-2.46913 L 20.9876,-1.23456 z
M 79.0123,-1.23456 L 79.0123,-2.46913 L 80.2469,-2.46913 L 80.2469,-1.23456 z
M 23.4568,-1.23456 L 23.4568,-2.46913 L 24.6913,-2.46913 L 24.6913,-1.23456 z
M 75.3086,-1.23456 L 75.3086,-2.46913 L 76.5432,-2.46913 L 76.5432,-1.23456 z
M 27.1605,-1.23456 L 27.1605,-2.46913 L 28.3951,-2.46913 L 28.3951,-1.23456 z
M 71.6049,-1.23456 L 71.6049,-2.46913 L 72.8395,-2.46913 L 72.8395,-1.23456 z
M 30.8642,-1.23456 L 30.8642,-2.46913 L 32.0988,-2.46913 L 32.0988,-1.23456 z
M 67.9012,-1.23456 L 67.9012,-2.46913 L 69.1358,-2.46913 L 69.1358,-1.23456 z
M 34.5679,-1.23456 L 34.5679,-2.46913 L 35.8025,-2.46913 L 35.8025,-1.23456 z
M 64.1975,-1.23456 L 64.1975,-2.46913 L 65.4321,-2.46913 L 65.4321,-1.23456 z
M 38.2716,-1.23456 L 38.2716,-2.46913 L 39.5062,-2.46913 L 39.5062,-1.23456 z
M 60.4938,-1.23456 L 60.4938,-2.46913 L 61.7284,-2.46913 L 61.7284,-1.23456 z
M 41.9753,-1.23456 L 41.9753,-2.46913 L 43.2099,-2.46913 L 43.2099,-1.23456 z
M 56.7901,-1.23456 L 56.7901,-2.46913 L 58.0247,-2.46913 L 58.0247,-1.23456 z
M 45.679,-1.23456 L 45.679,-2.46913 L 46.9136,-2.46913 L 46.9136,-1.23456 z
M 53.0864,-1.23456 L 53.0864,-2.46913 L 54.321,-2.46913 L 54.321,-1.23456 z
M 49.3827,-1.23456 L 49.3827,-2.46913 L 50.6173,-2.46913 L 50.6173,-1.23456 z
M 1.23456,-1.23456 L 1.23456,-2.46913 L 2.46913,-2.46913 L 2.46913,-1.23456 z
" stroke="black" fill="lightgrey" stroke-width=".15"/>
</svg>
