<?xml version="1.0" standalone="no"?>
<!DOCTYPE svg PUBLIC "-//W3C//DTD SVG 1.1//EN" "http://www.w3.org/Graphics/SVG/1.1/DTD/svg11.dtd">
<svg width="100mm" height="100mm" viewBox="0 -100 100 100" xmlns="http://www.w3.org/2000/svg" version="1.1">
<title>OpenSCAD Model</title>
<path d="
M 100,-100 L 0,-100 L 0,-0 L 100,-0 z
M 11.1111,-77.7778 L 11.1111,-88.8889 L 22.2222,-88.8889 L 22.2222,-77.7778 z
M 44.4444,-77.7778 L 44.4444,-88.8889 L 55.5555,-88.8889 L 55.5555,-77.7778 z
M 77.7778,-77.7778 L 77.7778,-88.8889 L 88.8889,-88.8889 L 88.8889,-77.7778 z
M 33.3333,-33.3333 L 33.3333,-66.6667 L 66.6667,-66.6667 L 66.6667,-33.3333 z
M 11.1111,-44.4444 L 11.1111,-55.5555 L 22.2222,-55.5555 L 22.2222,-44.4444 z
M 77.7778,-44.4444 L 77.7778,-55.5555 L 88.8889,-55.5555 L 88.8889,-44.4444 z
M 11.1111,-11.1111 L 11.1111,-22.2222 L 22.2222,-22.2222 L 22.2222,-11.1111 z
M 44.4444,-11.1111 L 44.4444,-22.2222 L 55.5555,-22.2222 L 55.5555,-11.1111 z
M 77.7778,-11.1111 L 77.7778,-22.2222 L 88.8889,-22.2222 L 88.8889,-11.1111 z
" stroke="black" fill="lightgray" stroke-width="0.5"/>
</svg>
