<?xml version="1.0" standalone="no"?>
<!DOCTYPE svg PUBLIC "-//W3C//DTD SVG 1.1//EN" "http://www.w3.org/Graphics/SVG/1.1/DTD/svg11.dtd">
<svg width="100mm" height="100mm" viewBox="0 -100 100 100" xmlns="http://www.w3.org/2000/svg" version="1.1">
<title>OpenSCAD Model</title>
<path d="
M 100,-100 L 0,-100 L 0,-0 L 100,-0 z
M 37.037,-92.5926 L 37.037,-96.2963 L 40.7407,-96.2963 L 40.7407,-92.5926 z
M 92.5926,-92.5926 L 92.5926,-96.2963 L 96.2963,-96.2963 L 96.2963,-92.5926 z
M 48.1481,-92.5926 L 48.1481,-96.2963 L 51.8518,-96.2963 L 51.8518,-92.5926 z
M 25.9259,-92.5926 L 25.9259,-96.2963 L 29.6296,-96.2963 L 29.6296,-92.5926 z
M 59.2592,-92.5926 L 59.2592,-96.2963 L 62.963,-96.2963 L 62.963,-92.5926 z
M 81.4815,-92.5926 L 81.4815,-96.2963 L 85.1852,-96.2963 L 85.1852,-92.5926 z
M 14.8148,-92.5926 L 14.8148,-96.2963 L 18.5185,-96.2963 L 18.5185,-92.5926 z
M 70.3704,-92.5926 L 70.3704,-96.2963 L 74.0741,-96.2963 L 74.0741,-92.5926 z
M 3.70369,-92.5926 L 3.70369,-96.2963 L 7.40739,-96.2963 L 7.40739,-92.5926 z
M 11.1111,-77.7778 L 11.1111,-88.8889 L 22.2222,-88.8889 L 22.2222,-77.7778 z
M 44.4444,-77.7778 L 44.4444,-88.8889 L 55.5555,-88.8889 L 55.5555,-77.7778 z
M 77.7778,-77.7778 L 77.7778,-88.8889 L 88.8889,-88.8889 L 88.8889,-77.7778 z
M 37.037,-81.4815 L 37.037,-85.1852 L 40.7407,-85.1852 L 40.7407,-81.4815 z
M 92.5926,-81.4815 L 92.5926,-85.1852 L 96.2963,-85.1852 L 96.2963,-81.4815 z
M 25.9259,-81.4815 L 25.9259,-85.1852 L 29.6296,-85.1852 L 29.6296,-81.4815 z
M 59.2592,-81.4815 L 59.2592,-85.1852 L 62.963,-85.1852 L 62.963,-81.4815 z
M 70.3704,-81.4815 L 70.3704,-85.1852 L 74.0741,-85.1852 L 74.0741,-81.4815 z
M 3.70369,-81.4815 L 3.70369,-85.1852 L 7.40739,-85.1852 L 7.40739,-81.4815 z
M 3.70369,-70.3704 L 3.70369,-74.0741 L 7.40739,-74.0741 L 7.40739,-70.3704 z
M 59.2592,-70.3704 L 59.2592,-74.0741 L 62.963,-74.0741 L 62.963,-70.3704 z
M 25.9259,-70.3704 L 25.9259,-74.0741 L 29.6296,-74.0741 L 29.6296,-70.3704 z
M 92.5926,-70.3704 L 92.5926,-74.0741 L 96.2963,-74.0741 L 96.2963,-70.3704 z
M 48.1481,-70.3704 L 48.1481,-74.0741 L 51.8518,-74.0741 L 51.8518,-70.3704 z
M 37.037,-70.3704 L 37.037,-74.0741 L 40.7407,-74.0741 L 40.7407,-70.3704 z
M 70.3704,-70.3704 L 70.3704,-74.0741 L 74.0741,-74.0741 L 74.0741,-70.3704 z
M 81.4815,-70.3704 L 81.4815,-74.0741 L 85.1852,-74.0741 L 85.1852,-70.3704 z
M 14.8148,-70.3704 L 14.8148,-74.0741 L 18.5185,-74.0741 L 18.5185,-70.3704 z
M 33.3333,-33.3333 L 33.3333,-66.6667 L 66.6667,-66.6667 L 66.6667,-33.3333 z
M 81.4815,-59.2592 L 81.4815,-62.963 L 85.1852,-62.963 L 85.1852,-59.2592 z
M 14.8148,-59.2592 L 14.8148,-62.963 L 18.5185,-62.963 L 18.5185,-59.2592 z
M 3.70369,-59.2592 L 3.70369,-62.963 L 7.40739,-62.963 L 7.40739,-59.2592 z
M 70.3704,-59.2592 L 70.3704,-62.963 L 74.0741,-62.963 L 74.0741,-59.2592 z
M 92.5926,-59.2592 L 92.5926,-62.963 L 96.2963,-62.963 L 96.2963,-59.2592 z
M 25.9259,-59.2592 L 25.9259,-62.963 L 29.6296,-62.963 L 29.6296,-59.2592 z
M 77.7778,-44.4444 L 77.7778,-55.5555 L 88.8889,-55.5555 L 88.8889,-44.4444 z
M 11.1111,-44.4444 L 11.1111,-55.5555 L 22.2222,-55.5555 L 22.2222,-44.4444 z
M 25.9259,-48.1481 L 25.9259,-51.8518 L 29.6296,-51.8518 L 29.6296,-48.1481 z
M 70.3704,-48.1481 L 70.3704,-51.8518 L 74.0741,-51.8518 L 74.0741,-48.1481 z
M 92.5926,-48.1481 L 92.5926,-51.8518 L 96.2963,-51.8518 L 96.2963,-48.1481 z
M 3.70369,-48.1481 L 3.70369,-51.8518 L 7.40739,-51.8518 L 7.40739,-48.1481 z
M 70.3704,-37.037 L 70.3704,-40.7407 L 74.0741,-40.7407 L 74.0741,-37.037 z
M 3.70369,-37.037 L 3.70369,-40.7407 L 7.40739,-40.7407 L 7.40739,-37.037 z
M 92.5926,-37.037 L 92.5926,-40.7407 L 96.2963,-40.7407 L 96.2963,-37.037 z
M 25.9259,-37.037 L 25.9259,-40.7407 L 29.6296,-40.7407 L 29.6296,-37.037 z
M 81.4815,-37.037 L 81.4815,-40.7407 L 85.1852,-40.7407 L 85.1852,-37.037 z
M 14.8148,-37.037 L 14.8148,-40.7407 L 18.5185,-40.7407 L 18.5185,-37.037 z
M 70.3704,-25.9259 L 70.3704,-29.6296 L 74.0741,-29.6296 L 74.0741,-25.9259 z
M 81.4815,-25.9259 L 81.4815,-29.6296 L 85.1852,-29.6296 L 85.1852,-25.9259 z
M 14.8148,-25.9259 L 14.8148,-29.6296 L 18.5185,-29.6296 L 18.5185,-25.9259 z
M 3.70369,-25.9259 L 3.70369,-29.6296 L 7.40739,-29.6296 L 7.40739,-25.9259 z
M 48.1481,-25.9259 L 48.1481,-29.6296 L 51.8518,-29.6296 L 51.8518,-25.9259 z
M 37.037,-25.9259 L 37.037,-29.6296 L 40.7407,-29.6296 L 40.7407,-25.9259 z
M 92.5926,-25.9259 L 92.5926,-29.6296 L 96.2963,-29.6296 L 96.2963,-25.9259 z
M 59.2592,-25.9259 L 59.2592,-29.6296 L 62.963,-29.6296 L 62.963,-25.9259 z
M 25.9259,-25.9259 L 25.9259,-29.6296 L 29.6296,-29.6296 L 29.6296,-25.9259 z
M 44.4444,-11.1111 L 44.4444,-22.2222 L 55.5555,-22.2222 L 55.5555,-11.1111 z
M 77.7778,-11.1111 L 77.7778,-22.2222 L 88.8889,-22.2222 L 88.8889,-11.1111 z
M 11.1111,-11.1111 L 11.1111,-22.2222 L 22.2222,-22.2222 L 22.2222,-11.1111 z
M 25.9259,-14.8148 L 25.9259,-18.5185 L 29.6296,-18.5185 L 29.6296,-14.8148 z
M 70.3704,-14.8148 L 70.3704,-18.5185 L 74.0741,-18.5185 L 74.0741,-14.8148 z
M 92.5926,-14.8148 L 92.5926,-18.5185 L 96.2963,-18.5185 L 96.2963,-14.8148 z
M 59.2592,-14.8148 L 59.2592,-18.5185 L 62.963,-18.5185 L 62.963,-14.8148 z
M 37.037,-14.8148 L 37.037,-18.5185 L 40.7407,-18.5185 L 40.7407,-14.8148 z
M 3.70369,-14.8148 L 3.70369,-18.5185 L 7.40739,-18.5185 L 7.40739,-14.8148 z
M 25.9259,-3.70369 L 25.9259,-7.40739 L 29.6296,-7.40739 L 29.6296,-3.70369 z
M 81.4815,-3.70369 L 81.4815,-7.40739 L 85.1852,-7.40739 L 85.1852,-3.70369 z
M 70.3704,-3.70369 L 70.3704,-7.40739 L 74.0741,-7.40739 L 74.0741,-3.70369 z
M 14.8148,-3.70369 L 14.8148,-7.40739 L 18.5185,-7.40739 L 18.5185,-3.70369 z
M 37.037,-3.70369 L 37.037,-7.40739 L 40.7407,-7.40739 L 40.7407,-3.70369 z
M 92.5926,-3.70369 L 92.5926,-7.40739 L 96.2963,-7.40739 L 96.2963,-3.70369 z
M 59.2592,-3.70369 L 59.2592,-7.40739 L 62.963,-7.40739 L 62.963,-3.70369 z
M 48.1481,-3.70369 L 48.1481,-7.40739 L 51.8518,-7.40739 L 51.8518,-3.70369 z
M 3.70369,-3.70369 L 3.70369,-7.40739 L 7.40739,-7.40739 L 7.40739,-3.70369 z
" stroke="black" fill="lightgray" stroke-width="0.5"/>
</svg>
