  0
SECTION
  2
BLOCKS
  0
ENDSEC
  0
SECTION
  2
ENTITIES
  0
LINE
  8
0
 10
0
 20
57.735
 11
-1.5625
 21
55.0287
  0
LINE
  8
0
 10
-1.5625
 20
55.0287
 11
1.5625
 21
55.0287
  0
LINE
  8
0
 10
1.5625
 20
55.0287
 11
0
 21
57.735
  0
LINE
  8
0
 10
1.5625
 20
55.0287
 11
0
 21
52.3224
  0
LINE
  8
0
 10
0
 20
52.3224
 11
3.125
 21
52.3224
  0
LINE
  8
0
 10
3.125
 20
52.3224
 11
1.5625
 21
55.0287
  0
LINE
  8
0
 10
-1.5625
 20
55.0287
 11
-3.125
 21
52.3224
  0
LINE
  8
0
 10
-3.125
 20
52.3224
 11
0
 21
52.3224
  0
LINE
  8
0
 10
0
 20
52.3224
 11
-1.5625
 21
55.0287
  0
LINE
  8
0
 10
3.125
 20
52.3224
 11
1.5625
 21
49.616
  0
LINE
  8
0
 10
1.5625
 20
49.616
 11
4.6875
 21
49.616
  0
LINE
  8
0
 10
4.6875
 20
49.616
 11
3.125
 21
52.3224
  0
LINE
  8
0
 10
-3.125
 20
52.3224
 11
-4.6875
 21
49.616
  0
LINE
  8
0
 10
-4.6875
 20
49.616
 11
-1.5625
 21
49.616
  0
LINE
  8
0
 10
-1.5625
 20
49.616
 11
-3.125
 21
52.3224
  0
LINE
  8
0
 10
1.5625
 20
49.616
 11
0
 21
46.9097
  0
LINE
  8
0
 10
0
 20
46.9097
 11
3.125
 21
46.9097
  0
LINE
  8
0
 10
3.125
 20
46.9097
 11
1.5625
 21
49.616
  0
LINE
  8
0
 10
-4.6875
 20
49.616
 11
-6.25
 21
46.9097
  0
LINE
  8
0
 10
-6.25
 20
46.9097
 11
-3.125
 21
46.9097
  0
LINE
  8
0
 10
-3.125
 20
46.9097
 11
-4.6875
 21
49.616
  0
LINE
  8
0
 10
4.6875
 20
49.616
 11
3.125
 21
46.9097
  0
LINE
  8
0
 10
3.125
 20
46.9097
 11
6.25
 21
46.9097
  0
LINE
  8
0
 10
6.25
 20
46.9097
 11
4.6875
 21
49.616
  0
LINE
  8
0
 10
-1.5625
 20
49.616
 11
-3.125
 21
46.9097
  0
LINE
  8
0
 10
-3.125
 20
46.9097
 11
0
 21
46.9097
  0
LINE
  8
0
 10
0
 20
46.9097
 11
-1.5625
 21
49.616
  0
LINE
  8
0
 10
-6.25
 20
46.9097
 11
-7.8125
 21
44.2034
  0
LINE
  8
0
 10
-7.8125
 20
44.2034
 11
-4.6875
 21
44.2034
  0
LINE
  8
0
 10
-4.6875
 20
44.2034
 11
-6.25
 21
46.9097
  0
LINE
  8
0
 10
6.25
 20
46.9097
 11
4.6875
 21
44.2034
  0
LINE
  8
0
 10
4.6875
 20
44.2034
 11
7.8125
 21
44.2034
  0
LINE
  8
0
 10
7.8125
 20
44.2034
 11
6.25
 21
46.9097
  0
LINE
  8
0
 10
-7.8125
 20
44.2034
 11
-9.375
 21
41.497
  0
LINE
  8
0
 10
-9.375
 20
41.497
 11
-6.25
 21
41.497
  0
LINE
  8
0
 10
-6.25
 20
41.497
 11
-7.8125
 21
44.2034
  0
LINE
  8
0
 10
7.8125
 20
44.2034
 11
6.25
 21
41.497
  0
LINE
  8
0
 10
6.25
 20
41.497
 11
9.375
 21
41.497
  0
LINE
  8
0
 10
9.375
 20
41.497
 11
7.8125
 21
44.2034
  0
LINE
  8
0
 10
-4.6875
 20
44.2034
 11
-6.25
 21
41.497
  0
LINE
  8
0
 10
-6.25
 20
41.497
 11
-3.125
 21
41.497
  0
LINE
  8
0
 10
-3.125
 20
41.497
 11
-4.6875
 21
44.2034
  0
LINE
  8
0
 10
4.6875
 20
44.2034
 11
3.125
 21
41.497
  0
LINE
  8
0
 10
3.125
 20
41.497
 11
6.25
 21
41.497
  0
LINE
  8
0
 10
6.25
 20
41.497
 11
4.6875
 21
44.2034
  0
LINE
  8
0
 10
-9.375
 20
41.497
 11
-10.9375
 21
38.7907
  0
LINE
  8
0
 10
-10.9375
 20
38.7907
 11
-7.8125
 21
38.7907
  0
LINE
  8
0
 10
-7.8125
 20
38.7907
 11
-9.375
 21
41.497
  0
LINE
  8
0
 10
9.375
 20
41.497
 11
7.8125
 21
38.7907
  0
LINE
  8
0
 10
7.8125
 20
38.7907
 11
10.9375
 21
38.7907
  0
LINE
  8
0
 10
10.9375
 20
38.7907
 11
9.375
 21
41.497
  0
LINE
  8
0
 10
3.125
 20
41.497
 11
1.5625
 21
38.7907
  0
LINE
  8
0
 10
1.5625
 20
38.7907
 11
4.6875
 21
38.7907
  0
LINE
  8
0
 10
4.6875
 20
38.7907
 11
3.125
 21
41.497
  0
LINE
  8
0
 10
-3.125
 20
41.497
 11
-4.6875
 21
38.7907
  0
LINE
  8
0
 10
-4.6875
 20
38.7907
 11
-1.5625
 21
38.7907
  0
LINE
  8
0
 10
-1.5625
 20
38.7907
 11
-3.125
 21
41.497
  0
LINE
  8
0
 10
-10.9375
 20
38.7907
 11
-12.5
 21
36.0844
  0
LINE
  8
0
 10
-12.5
 20
36.0844
 11
-9.375
 21
36.0844
  0
LINE
  8
0
 10
-9.375
 20
36.0844
 11
-10.9375
 21
38.7907
  0
LINE
  8
0
 10
-1.5625
 20
38.7907
 11
-3.125
 21
36.0844
  0
LINE
  8
0
 10
-3.125
 20
36.0844
 11
0
 21
36.0844
  0
LINE
  8
0
 10
0
 20
36.0844
 11
-1.5625
 21
38.7907
  0
LINE
  8
0
 10
1.5625
 20
38.7907
 11
0
 21
36.0844
  0
LINE
  8
0
 10
0
 20
36.0844
 11
3.125
 21
36.0844
  0
LINE
  8
0
 10
3.125
 20
36.0844
 11
1.5625
 21
38.7907
  0
LINE
  8
0
 10
4.6875
 20
38.7907
 11
3.125
 21
36.0844
  0
LINE
  8
0
 10
3.125
 20
36.0844
 11
6.25
 21
36.0844
  0
LINE
  8
0
 10
6.25
 20
36.0844
 11
4.6875
 21
38.7907
  0
LINE
  8
0
 10
7.8125
 20
38.7907
 11
6.25
 21
36.0844
  0
LINE
  8
0
 10
6.25
 20
36.0844
 11
9.375
 21
36.0844
  0
LINE
  8
0
 10
9.375
 20
36.0844
 11
7.8125
 21
38.7907
  0
LINE
  8
0
 10
-4.6875
 20
38.7907
 11
-6.25
 21
36.0844
  0
LINE
  8
0
 10
-6.25
 20
36.0844
 11
-3.125
 21
36.0844
  0
LINE
  8
0
 10
-3.125
 20
36.0844
 11
-4.6875
 21
38.7907
  0
LINE
  8
0
 10
10.9375
 20
38.7907
 11
9.375
 21
36.0844
  0
LINE
  8
0
 10
9.375
 20
36.0844
 11
12.5
 21
36.0844
  0
LINE
  8
0
 10
12.5
 20
36.0844
 11
10.9375
 21
38.7907
  0
LINE
  8
0
 10
-7.8125
 20
38.7907
 11
-9.375
 21
36.0844
  0
LINE
  8
0
 10
-9.375
 20
36.0844
 11
-6.25
 21
36.0844
  0
LINE
  8
0
 10
-6.25
 20
36.0844
 11
-7.8125
 21
38.7907
  0
LINE
  8
0
 10
-12.5
 20
36.0844
 11
-14.0625
 21
33.3781
  0
LINE
  8
0
 10
-14.0625
 20
33.3781
 11
-10.9375
 21
33.3781
  0
LINE
  8
0
 10
-10.9375
 20
33.3781
 11
-12.5
 21
36.0844
  0
LINE
  8
0
 10
12.5
 20
36.0844
 11
10.9375
 21
33.3781
  0
LINE
  8
0
 10
10.9375
 20
33.3781
 11
14.0625
 21
33.3781
  0
LINE
  8
0
 10
14.0625
 20
33.3781
 11
12.5
 21
36.0844
  0
LINE
  8
0
 10
14.0625
 20
33.3781
 11
12.5
 21
30.6717
  0
LINE
  8
0
 10
12.5
 20
30.6717
 11
15.625
 21
30.6717
  0
LINE
  8
0
 10
15.625
 20
30.6717
 11
14.0625
 21
33.3781
  0
LINE
  8
0
 10
-14.0625
 20
33.3781
 11
-15.625
 21
30.6717
  0
LINE
  8
0
 10
-15.625
 20
30.6717
 11
-12.5
 21
30.6717
  0
LINE
  8
0
 10
-12.5
 20
30.6717
 11
-14.0625
 21
33.3781
  0
LINE
  8
0
 10
-10.9375
 20
33.3781
 11
-12.5
 21
30.6717
  0
LINE
  8
0
 10
-12.5
 20
30.6717
 11
-9.375
 21
30.6717
  0
LINE
  8
0
 10
-9.375
 20
30.6717
 11
-10.9375
 21
33.3781
  0
LINE
  8
0
 10
10.9375
 20
33.3781
 11
9.375
 21
30.6717
  0
LINE
  8
0
 10
9.375
 20
30.6717
 11
12.5
 21
30.6717
  0
LINE
  8
0
 10
12.5
 20
30.6717
 11
10.9375
 21
33.3781
  0
LINE
  8
0
 10
-8.33334
 20
25.2591
 11
-6.25
 21
25.2591
  0
LINE
  8
0
 10
-6.25
 20
25.2591
 11
-7.29167
 21
27.0633
  0
LINE
  8
0
 10
-7.29167
 20
27.0633
 11
-6.25
 21
28.8675
  0
LINE
  8
0
 10
-6.25
 20
28.8675
 11
-8.33334
 21
28.8675
  0
LINE
  8
0
 10
-8.33334
 20
28.8675
 11
-9.375
 21
30.6717
  0
LINE
  8
0
 10
-9.375
 20
30.6717
 11
-10.4167
 21
28.8675
  0
LINE
  8
0
 10
-10.4167
 20
28.8675
 11
-12.5
 21
28.8675
  0
LINE
  8
0
 10
-12.5
 20
28.8675
 11
-11.4583
 21
27.0633
  0
LINE
  8
0
 10
-11.4583
 20
27.0633
 11
-12.5
 21
25.2591
  0
LINE
  8
0
 10
-12.5
 20
25.2591
 11
-10.4167
 21
25.2591
  0
LINE
  8
0
 10
-10.4167
 20
25.2591
 11
-9.375
 21
23.4548
  0
LINE
  8
0
 10
-9.375
 20
23.4548
 11
-8.33334
 21
25.2591
  0
LINE
  8
0
 10
-9.89584
 20
26.1612
 11
-10.4167
 21
27.0633
  0
LINE
  8
0
 10
-10.4167
 20
27.0633
 11
-9.89584
 21
27.9654
  0
LINE
  8
0
 10
-9.89584
 20
27.9654
 11
-8.85416
 21
27.9654
  0
LINE
  8
0
 10
-8.85416
 20
27.9654
 11
-8.33333
 21
27.0633
  0
LINE
  8
0
 10
-8.33333
 20
27.0633
 11
-8.85416
 21
26.1612
  0
LINE
  8
0
 10
-8.85416
 20
26.1612
 11
-9.89584
 21
26.1612
  0
LINE
  8
0
 10
16.6667
 20
25.2591
 11
18.75
 21
25.2591
  0
LINE
  8
0
 10
18.75
 20
25.2591
 11
17.7083
 21
27.0633
  0
LINE
  8
0
 10
17.7083
 20
27.0633
 11
18.75
 21
28.8675
  0
LINE
  8
0
 10
18.75
 20
28.8675
 11
16.6667
 21
28.8675
  0
LINE
  8
0
 10
16.6667
 20
28.8675
 11
15.625
 21
30.6717
  0
LINE
  8
0
 10
15.625
 20
30.6717
 11
14.5833
 21
28.8675
  0
LINE
  8
0
 10
14.5833
 20
28.8675
 11
12.5
 21
28.8675
  0
LINE
  8
0
 10
12.5
 20
28.8675
 11
13.5417
 21
27.0633
  0
LINE
  8
0
 10
13.5417
 20
27.0633
 11
12.5
 21
25.2591
  0
LINE
  8
0
 10
12.5
 20
25.2591
 11
14.5833
 21
25.2591
  0
LINE
  8
0
 10
14.5833
 20
25.2591
 11
15.625
 21
23.4548
  0
LINE
  8
0
 10
15.625
 20
23.4548
 11
16.6667
 21
25.2591
  0
LINE
  8
0
 10
15.1042
 20
26.1612
 11
14.5833
 21
27.0633
  0
LINE
  8
0
 10
14.5833
 20
27.0633
 11
15.1042
 21
27.9654
  0
LINE
  8
0
 10
15.1042
 20
27.9654
 11
16.1458
 21
27.9654
  0
LINE
  8
0
 10
16.1458
 20
27.9654
 11
16.6667
 21
27.0633
  0
LINE
  8
0
 10
16.6667
 20
27.0633
 11
16.1458
 21
26.1612
  0
LINE
  8
0
 10
16.1458
 20
26.1612
 11
15.1042
 21
26.1612
  0
LINE
  8
0
 10
10.4167
 20
25.2591
 11
12.5
 21
25.2591
  0
LINE
  8
0
 10
12.5
 20
25.2591
 11
11.4583
 21
27.0633
  0
LINE
  8
0
 10
11.4583
 20
27.0633
 11
12.5
 21
28.8675
  0
LINE
  8
0
 10
12.5
 20
28.8675
 11
10.4167
 21
28.8675
  0
LINE
  8
0
 10
10.4167
 20
28.8675
 11
9.375
 21
30.6717
  0
LINE
  8
0
 10
9.375
 20
30.6717
 11
8.33334
 21
28.8675
  0
LINE
  8
0
 10
8.33334
 20
28.8675
 11
6.25
 21
28.8675
  0
LINE
  8
0
 10
6.25
 20
28.8675
 11
7.29167
 21
27.0633
  0
LINE
  8
0
 10
7.29167
 20
27.0633
 11
6.25
 21
25.2591
  0
LINE
  8
0
 10
6.25
 20
25.2591
 11
8.33334
 21
25.2591
  0
LINE
  8
0
 10
8.33334
 20
25.2591
 11
9.375
 21
23.4548
  0
LINE
  8
0
 10
9.375
 20
23.4548
 11
10.4167
 21
25.2591
  0
LINE
  8
0
 10
8.85416
 20
26.1612
 11
8.33333
 21
27.0633
  0
LINE
  8
0
 10
8.33333
 20
27.0633
 11
8.85416
 21
27.9654
  0
LINE
  8
0
 10
8.85416
 20
27.9654
 11
9.89584
 21
27.9654
  0
LINE
  8
0
 10
9.89584
 20
27.9654
 11
10.4167
 21
27.0633
  0
LINE
  8
0
 10
10.4167
 20
27.0633
 11
9.89584
 21
26.1612
  0
LINE
  8
0
 10
9.89584
 20
26.1612
 11
8.85416
 21
26.1612
  0
LINE
  8
0
 10
-14.5833
 20
25.2591
 11
-12.5
 21
25.2591
  0
LINE
  8
0
 10
-12.5
 20
25.2591
 11
-13.5417
 21
27.0633
  0
LINE
  8
0
 10
-13.5417
 20
27.0633
 11
-12.5
 21
28.8675
  0
LINE
  8
0
 10
-12.5
 20
28.8675
 11
-14.5833
 21
28.8675
  0
LINE
  8
0
 10
-14.5833
 20
28.8675
 11
-15.625
 21
30.6717
  0
LINE
  8
0
 10
-15.625
 20
30.6717
 11
-16.6667
 21
28.8675
  0
LINE
  8
0
 10
-16.6667
 20
28.8675
 11
-18.75
 21
28.8675
  0
LINE
  8
0
 10
-18.75
 20
28.8675
 11
-17.7083
 21
27.0633
  0
LINE
  8
0
 10
-17.7083
 20
27.0633
 11
-18.75
 21
25.2591
  0
LINE
  8
0
 10
-18.75
 20
25.2591
 11
-16.6667
 21
25.2591
  0
LINE
  8
0
 10
-16.6667
 20
25.2591
 11
-15.625
 21
23.4548
  0
LINE
  8
0
 10
-15.625
 20
23.4548
 11
-14.5833
 21
25.2591
  0
LINE
  8
0
 10
-16.1458
 20
26.1612
 11
-16.6667
 21
27.0633
  0
LINE
  8
0
 10
-16.6667
 20
27.0633
 11
-16.1458
 21
27.9654
  0
LINE
  8
0
 10
-16.1458
 20
27.9654
 11
-15.1042
 21
27.9654
  0
LINE
  8
0
 10
-15.1042
 20
27.9654
 11
-14.5833
 21
27.0633
  0
LINE
  8
0
 10
-14.5833
 20
27.0633
 11
-15.1042
 21
26.1612
  0
LINE
  8
0
 10
-15.1042
 20
26.1612
 11
-16.1458
 21
26.1612
  0
LINE
  8
0
 10
-46.875
 20
28.8675
 11
-50
 21
28.8675
  0
LINE
  8
0
 10
-50
 20
28.8675
 11
-48.4375
 21
26.1612
  0
LINE
  8
0
 10
-48.4375
 20
26.1612
 11
-46.875
 21
28.8675
  0
LINE
  8
0
 10
46.875
 20
28.8675
 11
43.75
 21
28.8675
  0
LINE
  8
0
 10
43.75
 20
28.8675
 11
45.3125
 21
26.1612
  0
LINE
  8
0
 10
45.3125
 20
26.1612
 11
46.875
 21
28.8675
  0
LINE
  8
0
 10
43.75
 20
28.8675
 11
40.625
 21
28.8675
  0
LINE
  8
0
 10
40.625
 20
28.8675
 11
42.1875
 21
26.1612
  0
LINE
  8
0
 10
42.1875
 20
26.1612
 11
43.75
 21
28.8675
  0
LINE
  8
0
 10
40.625
 20
28.8675
 11
37.5
 21
28.8675
  0
LINE
  8
0
 10
37.5
 20
28.8675
 11
39.0625
 21
26.1612
  0
LINE
  8
0
 10
39.0625
 20
26.1612
 11
40.625
 21
28.8675
  0
LINE
  8
0
 10
37.5
 20
28.8675
 11
34.375
 21
28.8675
  0
LINE
  8
0
 10
34.375
 20
28.8675
 11
35.9375
 21
26.1612
  0
LINE
  8
0
 10
35.9375
 20
26.1612
 11
37.5
 21
28.8675
  0
LINE
  8
0
 10
34.375
 20
28.8675
 11
31.25
 21
28.8675
  0
LINE
  8
0
 10
31.25
 20
28.8675
 11
32.8125
 21
26.1612
  0
LINE
  8
0
 10
32.8125
 20
26.1612
 11
34.375
 21
28.8675
  0
LINE
  8
0
 10
-28.125
 20
28.8675
 11
-31.25
 21
28.8675
  0
LINE
  8
0
 10
-31.25
 20
28.8675
 11
-29.6875
 21
26.1612
  0
LINE
  8
0
 10
-29.6875
 20
26.1612
 11
-28.125
 21
28.8675
  0
LINE
  8
0
 10
31.25
 20
28.8675
 11
28.125
 21
28.8675
  0
LINE
  8
0
 10
28.125
 20
28.8675
 11
29.6875
 21
26.1612
  0
LINE
  8
0
 10
29.6875
 20
26.1612
 11
31.25
 21
28.8675
  0
LINE
  8
0
 10
-43.75
 20
28.8675
 11
-46.875
 21
28.8675
  0
LINE
  8
0
 10
-46.875
 20
28.8675
 11
-45.3125
 21
26.1612
  0
LINE
  8
0
 10
-45.3125
 20
26.1612
 11
-43.75
 21
28.8675
  0
LINE
  8
0
 10
50
 20
28.8675
 11
46.875
 21
28.8675
  0
LINE
  8
0
 10
46.875
 20
28.8675
 11
48.4375
 21
26.1612
  0
LINE
  8
0
 10
48.4375
 20
26.1612
 11
50
 21
28.8675
  0
LINE
  8
0
 10
28.125
 20
28.8675
 11
25
 21
28.8675
  0
LINE
  8
0
 10
25
 20
28.8675
 11
26.5625
 21
26.1612
  0
LINE
  8
0
 10
26.5625
 20
26.1612
 11
28.125
 21
28.8675
  0
LINE
  8
0
 10
25
 20
28.8675
 11
21.875
 21
28.8675
  0
LINE
  8
0
 10
21.875
 20
28.8675
 11
23.4375
 21
26.1612
  0
LINE
  8
0
 10
23.4375
 20
26.1612
 11
25
 21
28.8675
  0
LINE
  8
0
 10
21.875
 20
28.8675
 11
18.75
 21
28.8675
  0
LINE
  8
0
 10
18.75
 20
28.8675
 11
20.3125
 21
26.1612
  0
LINE
  8
0
 10
20.3125
 20
26.1612
 11
21.875
 21
28.8675
  0
LINE
  8
0
 10
-25
 20
28.8675
 11
-28.125
 21
28.8675
  0
LINE
  8
0
 10
-28.125
 20
28.8675
 11
-26.5625
 21
26.1612
  0
LINE
  8
0
 10
-26.5625
 20
26.1612
 11
-25
 21
28.8675
  0
LINE
  8
0
 10
-31.25
 20
28.8675
 11
-34.375
 21
28.8675
  0
LINE
  8
0
 10
-34.375
 20
28.8675
 11
-32.8125
 21
26.1612
  0
LINE
  8
0
 10
-32.8125
 20
26.1612
 11
-31.25
 21
28.8675
  0
LINE
  8
0
 10
-40.625
 20
28.8675
 11
-43.75
 21
28.8675
  0
LINE
  8
0
 10
-43.75
 20
28.8675
 11
-42.1875
 21
26.1612
  0
LINE
  8
0
 10
-42.1875
 20
26.1612
 11
-40.625
 21
28.8675
  0
LINE
  8
0
 10
-21.875
 20
28.8675
 11
-25
 21
28.8675
  0
LINE
  8
0
 10
-25
 20
28.8675
 11
-23.4375
 21
26.1612
  0
LINE
  8
0
 10
-23.4375
 20
26.1612
 11
-21.875
 21
28.8675
  0
LINE
  8
0
 10
6.25
 20
28.8675
 11
3.125
 21
28.8675
  0
LINE
  8
0
 10
3.125
 20
28.8675
 11
4.6875
 21
26.1612
  0
LINE
  8
0
 10
4.6875
 20
26.1612
 11
6.25
 21
28.8675
  0
LINE
  8
0
 10
-37.5
 20
28.8675
 11
-40.625
 21
28.8675
  0
LINE
  8
0
 10
-40.625
 20
28.8675
 11
-39.0625
 21
26.1612
  0
LINE
  8
0
 10
-39.0625
 20
26.1612
 11
-37.5
 21
28.8675
  0
LINE
  8
0
 10
3.125
 20
28.8675
 11
0
 21
28.8675
  0
LINE
  8
0
 10
0
 20
28.8675
 11
1.5625
 21
26.1612
  0
LINE
  8
0
 10
1.5625
 20
26.1612
 11
3.125
 21
28.8675
  0
LINE
  8
0
 10
0
 20
28.8675
 11
-3.125
 21
28.8675
  0
LINE
  8
0
 10
-3.125
 20
28.8675
 11
-1.5625
 21
26.1612
  0
LINE
  8
0
 10
-1.5625
 20
26.1612
 11
0
 21
28.8675
  0
LINE
  8
0
 10
-18.75
 20
28.8675
 11
-21.875
 21
28.8675
  0
LINE
  8
0
 10
-21.875
 20
28.8675
 11
-20.3125
 21
26.1612
  0
LINE
  8
0
 10
-20.3125
 20
26.1612
 11
-18.75
 21
28.8675
  0
LINE
  8
0
 10
-3.125
 20
28.8675
 11
-6.25
 21
28.8675
  0
LINE
  8
0
 10
-6.25
 20
28.8675
 11
-4.6875
 21
26.1612
  0
LINE
  8
0
 10
-4.6875
 20
26.1612
 11
-3.125
 21
28.8675
  0
LINE
  8
0
 10
-34.375
 20
28.8675
 11
-37.5
 21
28.8675
  0
LINE
  8
0
 10
-37.5
 20
28.8675
 11
-35.9375
 21
26.1612
  0
LINE
  8
0
 10
-35.9375
 20
26.1612
 11
-34.375
 21
28.8675
  0
LINE
  8
0
 10
-1.5625
 20
26.1612
 11
-4.6875
 21
26.1612
  0
LINE
  8
0
 10
-4.6875
 20
26.1612
 11
-3.125
 21
23.4548
  0
LINE
  8
0
 10
-3.125
 20
23.4548
 11
-1.5625
 21
26.1612
  0
LINE
  8
0
 10
-39.0625
 20
26.1612
 11
-42.1875
 21
26.1612
  0
LINE
  8
0
 10
-42.1875
 20
26.1612
 11
-40.625
 21
23.4548
  0
LINE
  8
0
 10
-40.625
 20
23.4548
 11
-39.0625
 21
26.1612
  0
LINE
  8
0
 10
35.9375
 20
26.1612
 11
32.8125
 21
26.1612
  0
LINE
  8
0
 10
32.8125
 20
26.1612
 11
34.375
 21
23.4548
  0
LINE
  8
0
 10
34.375
 20
23.4548
 11
35.9375
 21
26.1612
  0
LINE
  8
0
 10
42.1875
 20
26.1612
 11
39.0625
 21
26.1612
  0
LINE
  8
0
 10
39.0625
 20
26.1612
 11
40.625
 21
23.4548
  0
LINE
  8
0
 10
40.625
 20
23.4548
 11
42.1875
 21
26.1612
  0
LINE
  8
0
 10
-45.3125
 20
26.1612
 11
-48.4375
 21
26.1612
  0
LINE
  8
0
 10
-48.4375
 20
26.1612
 11
-46.875
 21
23.4548
  0
LINE
  8
0
 10
-46.875
 20
23.4548
 11
-45.3125
 21
26.1612
  0
LINE
  8
0
 10
29.6875
 20
26.1612
 11
26.5625
 21
26.1612
  0
LINE
  8
0
 10
26.5625
 20
26.1612
 11
28.125
 21
23.4548
  0
LINE
  8
0
 10
28.125
 20
23.4548
 11
29.6875
 21
26.1612
  0
LINE
  8
0
 10
23.4375
 20
26.1612
 11
20.3125
 21
26.1612
  0
LINE
  8
0
 10
20.3125
 20
26.1612
 11
21.875
 21
23.4548
  0
LINE
  8
0
 10
21.875
 20
23.4548
 11
23.4375
 21
26.1612
  0
LINE
  8
0
 10
-26.5625
 20
26.1612
 11
-29.6875
 21
26.1612
  0
LINE
  8
0
 10
-29.6875
 20
26.1612
 11
-28.125
 21
23.4548
  0
LINE
  8
0
 10
-28.125
 20
23.4548
 11
-26.5625
 21
26.1612
  0
LINE
  8
0
 10
48.4375
 20
26.1612
 11
45.3125
 21
26.1612
  0
LINE
  8
0
 10
45.3125
 20
26.1612
 11
46.875
 21
23.4548
  0
LINE
  8
0
 10
46.875
 20
23.4548
 11
48.4375
 21
26.1612
  0
LINE
  8
0
 10
4.6875
 20
26.1612
 11
1.5625
 21
26.1612
  0
LINE
  8
0
 10
1.5625
 20
26.1612
 11
3.125
 21
23.4548
  0
LINE
  8
0
 10
3.125
 20
23.4548
 11
4.6875
 21
26.1612
  0
LINE
  8
0
 10
-20.3125
 20
26.1612
 11
-23.4375
 21
26.1612
  0
LINE
  8
0
 10
-23.4375
 20
26.1612
 11
-21.875
 21
23.4548
  0
LINE
  8
0
 10
-21.875
 20
23.4548
 11
-20.3125
 21
26.1612
  0
LINE
  8
0
 10
-32.8125
 20
26.1612
 11
-35.9375
 21
26.1612
  0
LINE
  8
0
 10
-35.9375
 20
26.1612
 11
-34.375
 21
23.4548
  0
LINE
  8
0
 10
-34.375
 20
23.4548
 11
-32.8125
 21
26.1612
  0
LINE
  8
0
 10
-17.7083
 20
19.8464
 11
-15.625
 21
19.8464
  0
LINE
  8
0
 10
-15.625
 20
19.8464
 11
-16.6667
 21
21.6506
  0
LINE
  8
0
 10
-16.6667
 20
21.6506
 11
-15.625
 21
23.4548
  0
LINE
  8
0
 10
-15.625
 20
23.4548
 11
-17.7083
 21
23.4548
  0
LINE
  8
0
 10
-17.7083
 20
23.4548
 11
-18.75
 21
25.2591
  0
LINE
  8
0
 10
-18.75
 20
25.2591
 11
-19.7917
 21
23.4548
  0
LINE
  8
0
 10
-19.7917
 20
23.4548
 11
-21.875
 21
23.4548
  0
LINE
  8
0
 10
-21.875
 20
23.4548
 11
-20.8333
 21
21.6506
  0
LINE
  8
0
 10
-20.8333
 20
21.6506
 11
-21.875
 21
19.8464
  0
LINE
  8
0
 10
-21.875
 20
19.8464
 11
-19.7917
 21
19.8464
  0
LINE
  8
0
 10
-19.7917
 20
19.8464
 11
-18.75
 21
18.0422
  0
LINE
  8
0
 10
-18.75
 20
18.0422
 11
-17.7083
 21
19.8464
  0
LINE
  8
0
 10
-19.2708
 20
20.7485
 11
-19.7917
 21
21.6506
  0
LINE
  8
0
 10
-19.7917
 20
21.6506
 11
-19.2708
 21
22.5527
  0
LINE
  8
0
 10
-19.2708
 20
22.5527
 11
-18.2292
 21
22.5527
  0
LINE
  8
0
 10
-18.2292
 20
22.5527
 11
-17.7083
 21
21.6506
  0
LINE
  8
0
 10
-17.7083
 20
21.6506
 11
-18.2292
 21
20.7485
  0
LINE
  8
0
 10
-18.2292
 20
20.7485
 11
-19.2708
 21
20.7485
  0
LINE
  8
0
 10
7.29166
 20
19.8464
 11
9.375
 21
19.8464
  0
LINE
  8
0
 10
9.375
 20
19.8464
 11
8.33333
 21
21.6506
  0
LINE
  8
0
 10
8.33333
 20
21.6506
 11
9.375
 21
23.4548
  0
LINE
  8
0
 10
9.375
 20
23.4548
 11
7.29166
 21
23.4548
  0
LINE
  8
0
 10
7.29166
 20
23.4548
 11
6.25
 21
25.2591
  0
LINE
  8
0
 10
6.25
 20
25.2591
 11
5.20834
 21
23.4548
  0
LINE
  8
0
 10
5.20834
 20
23.4548
 11
3.125
 21
23.4548
  0
LINE
  8
0
 10
3.125
 20
23.4548
 11
4.16667
 21
21.6506
  0
LINE
  8
0
 10
4.16667
 20
21.6506
 11
3.125
 21
19.8464
  0
LINE
  8
0
 10
3.125
 20
19.8464
 11
5.20834
 21
19.8464
  0
LINE
  8
0
 10
5.20834
 20
19.8464
 11
6.25
 21
18.0422
  0
LINE
  8
0
 10
6.25
 20
18.0422
 11
7.29166
 21
19.8464
  0
LINE
  8
0
 10
5.72916
 20
20.7485
 11
5.20833
 21
21.6506
  0
LINE
  8
0
 10
5.20833
 20
21.6506
 11
5.72916
 21
22.5527
  0
LINE
  8
0
 10
5.72916
 20
22.5527
 11
6.77084
 21
22.5527
  0
LINE
  8
0
 10
6.77084
 20
22.5527
 11
7.29167
 21
21.6506
  0
LINE
  8
0
 10
7.29167
 20
21.6506
 11
6.77084
 21
20.7485
  0
LINE
  8
0
 10
6.77084
 20
20.7485
 11
5.72916
 21
20.7485
  0
LINE
  8
0
 10
-5.20834
 20
19.8464
 11
-3.125
 21
19.8464
  0
LINE
  8
0
 10
-3.125
 20
19.8464
 11
-4.16667
 21
21.6506
  0
LINE
  8
0
 10
-4.16667
 20
21.6506
 11
-3.125
 21
23.4548
  0
LINE
  8
0
 10
-3.125
 20
23.4548
 11
-5.20834
 21
23.4548
  0
LINE
  8
0
 10
-5.20834
 20
23.4548
 11
-6.25
 21
25.2591
  0
LINE
  8
0
 10
-6.25
 20
25.2591
 11
-7.29166
 21
23.4548
  0
LINE
  8
0
 10
-7.29166
 20
23.4548
 11
-9.375
 21
23.4548
  0
LINE
  8
0
 10
-9.375
 20
23.4548
 11
-8.33333
 21
21.6506
  0
LINE
  8
0
 10
-8.33333
 20
21.6506
 11
-9.375
 21
19.8464
  0
LINE
  8
0
 10
-9.375
 20
19.8464
 11
-7.29166
 21
19.8464
  0
LINE
  8
0
 10
-7.29166
 20
19.8464
 11
-6.25
 21
18.0422
  0
LINE
  8
0
 10
-6.25
 20
18.0422
 11
-5.20834
 21
19.8464
  0
LINE
  8
0
 10
-6.77084
 20
20.7485
 11
-7.29167
 21
21.6506
  0
LINE
  8
0
 10
-7.29167
 20
21.6506
 11
-6.77084
 21
22.5527
  0
LINE
  8
0
 10
-6.77084
 20
22.5527
 11
-5.72916
 21
22.5527
  0
LINE
  8
0
 10
-5.72916
 20
22.5527
 11
-5.20833
 21
21.6506
  0
LINE
  8
0
 10
-5.20833
 20
21.6506
 11
-5.72916
 21
20.7485
  0
LINE
  8
0
 10
-5.72916
 20
20.7485
 11
-6.77084
 21
20.7485
  0
LINE
  8
0
 10
19.7917
 20
19.8464
 11
21.875
 21
19.8464
  0
LINE
  8
0
 10
21.875
 20
19.8464
 11
20.8333
 21
21.6506
  0
LINE
  8
0
 10
20.8333
 20
21.6506
 11
21.875
 21
23.4548
  0
LINE
  8
0
 10
21.875
 20
23.4548
 11
19.7917
 21
23.4548
  0
LINE
  8
0
 10
19.7917
 20
23.4548
 11
18.75
 21
25.2591
  0
LINE
  8
0
 10
18.75
 20
25.2591
 11
17.7083
 21
23.4548
  0
LINE
  8
0
 10
17.7083
 20
23.4548
 11
15.625
 21
23.4548
  0
LINE
  8
0
 10
15.625
 20
23.4548
 11
16.6667
 21
21.6506
  0
LINE
  8
0
 10
16.6667
 20
21.6506
 11
15.625
 21
19.8464
  0
LINE
  8
0
 10
15.625
 20
19.8464
 11
17.7083
 21
19.8464
  0
LINE
  8
0
 10
17.7083
 20
19.8464
 11
18.75
 21
18.0422
  0
LINE
  8
0
 10
18.75
 20
18.0422
 11
19.7917
 21
19.8464
  0
LINE
  8
0
 10
18.2292
 20
20.7485
 11
17.7083
 21
21.6506
  0
LINE
  8
0
 10
17.7083
 20
21.6506
 11
18.2292
 21
22.5527
  0
LINE
  8
0
 10
18.2292
 20
22.5527
 11
19.2708
 21
22.5527
  0
LINE
  8
0
 10
19.2708
 20
22.5527
 11
19.7917
 21
21.6506
  0
LINE
  8
0
 10
19.7917
 20
21.6506
 11
19.2708
 21
20.7485
  0
LINE
  8
0
 10
19.2708
 20
20.7485
 11
18.2292
 21
20.7485
  0
LINE
  8
0
 10
-28.125
 20
23.4548
 11
-31.25
 21
23.4548
  0
LINE
  8
0
 10
-31.25
 20
23.4548
 11
-29.6875
 21
20.7485
  0
LINE
  8
0
 10
-29.6875
 20
20.7485
 11
-28.125
 21
23.4548
  0
LINE
  8
0
 10
46.875
 20
23.4548
 11
43.75
 21
23.4548
  0
LINE
  8
0
 10
43.75
 20
23.4548
 11
45.3125
 21
20.7485
  0
LINE
  8
0
 10
45.3125
 20
20.7485
 11
46.875
 21
23.4548
  0
LINE
  8
0
 10
-31.25
 20
23.4548
 11
-34.375
 21
23.4548
  0
LINE
  8
0
 10
-34.375
 20
23.4548
 11
-32.8125
 21
20.7485
  0
LINE
  8
0
 10
-32.8125
 20
20.7485
 11
-31.25
 21
23.4548
  0
LINE
  8
0
 10
34.375
 20
23.4548
 11
31.25
 21
23.4548
  0
LINE
  8
0
 10
31.25
 20
23.4548
 11
32.8125
 21
20.7485
  0
LINE
  8
0
 10
32.8125
 20
20.7485
 11
34.375
 21
23.4548
  0
LINE
  8
0
 10
43.75
 20
23.4548
 11
40.625
 21
23.4548
  0
LINE
  8
0
 10
40.625
 20
23.4548
 11
42.1875
 21
20.7485
  0
LINE
  8
0
 10
42.1875
 20
20.7485
 11
43.75
 21
23.4548
  0
LINE
  8
0
 10
31.25
 20
23.4548
 11
28.125
 21
23.4548
  0
LINE
  8
0
 10
28.125
 20
23.4548
 11
29.6875
 21
20.7485
  0
LINE
  8
0
 10
29.6875
 20
20.7485
 11
31.25
 21
23.4548
  0
LINE
  8
0
 10
-43.75
 20
23.4548
 11
-46.875
 21
23.4548
  0
LINE
  8
0
 10
-46.875
 20
23.4548
 11
-45.3125
 21
20.7485
  0
LINE
  8
0
 10
-45.3125
 20
20.7485
 11
-43.75
 21
23.4548
  0
LINE
  8
0
 10
-40.625
 20
23.4548
 11
-43.75
 21
23.4548
  0
LINE
  8
0
 10
-43.75
 20
23.4548
 11
-42.1875
 21
20.7485
  0
LINE
  8
0
 10
-42.1875
 20
20.7485
 11
-40.625
 21
23.4548
  0
LINE
  8
0
 10
-29.6875
 20
20.7485
 11
-32.8125
 21
20.7485
  0
LINE
  8
0
 10
-32.8125
 20
20.7485
 11
-31.25
 21
18.0422
  0
LINE
  8
0
 10
-31.25
 20
18.0422
 11
-29.6875
 21
20.7485
  0
LINE
  8
0
 10
32.8125
 20
20.7485
 11
29.6875
 21
20.7485
  0
LINE
  8
0
 10
29.6875
 20
20.7485
 11
31.25
 21
18.0422
  0
LINE
  8
0
 10
31.25
 20
18.0422
 11
32.8125
 21
20.7485
  0
LINE
  8
0
 10
45.3125
 20
20.7485
 11
42.1875
 21
20.7485
  0
LINE
  8
0
 10
42.1875
 20
20.7485
 11
43.75
 21
18.0422
  0
LINE
  8
0
 10
43.75
 20
18.0422
 11
45.3125
 21
20.7485
  0
LINE
  8
0
 10
-42.1875
 20
20.7485
 11
-45.3125
 21
20.7485
  0
LINE
  8
0
 10
-45.3125
 20
20.7485
 11
-43.75
 21
18.0422
  0
LINE
  8
0
 10
-43.75
 20
18.0422
 11
-42.1875
 21
20.7485
  0
LINE
  8
0
 10
10.4167
 20
14.4337
 11
12.5
 21
14.4337
  0
LINE
  8
0
 10
12.5
 20
14.4337
 11
11.4583
 21
16.238
  0
LINE
  8
0
 10
11.4583
 20
16.238
 11
12.5
 21
18.0422
  0
LINE
  8
0
 10
12.5
 20
18.0422
 11
10.4167
 21
18.0422
  0
LINE
  8
0
 10
10.4167
 20
18.0422
 11
9.375
 21
19.8464
  0
LINE
  8
0
 10
9.375
 20
19.8464
 11
8.33334
 21
18.0422
  0
LINE
  8
0
 10
8.33334
 20
18.0422
 11
6.25
 21
18.0422
  0
LINE
  8
0
 10
6.25
 20
18.0422
 11
7.29167
 21
16.238
  0
LINE
  8
0
 10
7.29167
 20
16.238
 11
6.25
 21
14.4337
  0
LINE
  8
0
 10
6.25
 20
14.4337
 11
8.33334
 21
14.4337
  0
LINE
  8
0
 10
8.33334
 20
14.4337
 11
9.375
 21
12.6295
  0
LINE
  8
0
 10
9.375
 20
12.6295
 11
10.4167
 21
14.4337
  0
LINE
  8
0
 10
8.85416
 20
15.3359
 11
8.33333
 21
16.238
  0
LINE
  8
0
 10
8.33333
 20
16.238
 11
8.85416
 21
17.1401
  0
LINE
  8
0
 10
8.85416
 20
17.1401
 11
9.89584
 21
17.1401
  0
LINE
  8
0
 10
9.89584
 20
17.1401
 11
10.4167
 21
16.238
  0
LINE
  8
0
 10
10.4167
 20
16.238
 11
9.89584
 21
15.3359
  0
LINE
  8
0
 10
9.89584
 20
15.3359
 11
8.85416
 21
15.3359
  0
LINE
  8
0
 10
-3.125
 20
19.8464
 11
-4.6875
 21
17.1401
  0
LINE
  8
0
 10
-4.6875
 20
17.1401
 11
-1.5625
 21
17.1401
  0
LINE
  8
0
 10
-1.5625
 20
17.1401
 11
-3.125
 21
19.8464
  0
LINE
  8
0
 10
16.6667
 20
14.4337
 11
18.75
 21
14.4337
  0
LINE
  8
0
 10
18.75
 20
14.4337
 11
17.7083
 21
16.238
  0
LINE
  8
0
 10
17.7083
 20
16.238
 11
18.75
 21
18.0422
  0
LINE
  8
0
 10
18.75
 20
18.0422
 11
16.6667
 21
18.0422
  0
LINE
  8
0
 10
16.6667
 20
18.0422
 11
15.625
 21
19.8464
  0
LINE
  8
0
 10
15.625
 20
19.8464
 11
14.5833
 21
18.0422
  0
LINE
  8
0
 10
14.5833
 20
18.0422
 11
12.5
 21
18.0422
  0
LINE
  8
0
 10
12.5
 20
18.0422
 11
13.5417
 21
16.238
  0
LINE
  8
0
 10
13.5417
 20
16.238
 11
12.5
 21
14.4337
  0
LINE
  8
0
 10
12.5
 20
14.4337
 11
14.5833
 21
14.4337
  0
LINE
  8
0
 10
14.5833
 20
14.4337
 11
15.625
 21
12.6295
  0
LINE
  8
0
 10
15.625
 20
12.6295
 11
16.6667
 21
14.4337
  0
LINE
  8
0
 10
15.1042
 20
15.3359
 11
14.5833
 21
16.238
  0
LINE
  8
0
 10
14.5833
 20
16.238
 11
15.1042
 21
17.1401
  0
LINE
  8
0
 10
15.1042
 20
17.1401
 11
16.1458
 21
17.1401
  0
LINE
  8
0
 10
16.1458
 20
17.1401
 11
16.6667
 21
16.238
  0
LINE
  8
0
 10
16.6667
 20
16.238
 11
16.1458
 21
15.3359
  0
LINE
  8
0
 10
16.1458
 20
15.3359
 11
15.1042
 21
15.3359
  0
LINE
  8
0
 10
-8.33334
 20
14.4337
 11
-6.25
 21
14.4337
  0
LINE
  8
0
 10
-6.25
 20
14.4337
 11
-7.29167
 21
16.238
  0
LINE
  8
0
 10
-7.29167
 20
16.238
 11
-6.25
 21
18.0422
  0
LINE
  8
0
 10
-6.25
 20
18.0422
 11
-8.33334
 21
18.0422
  0
LINE
  8
0
 10
-8.33334
 20
18.0422
 11
-9.375
 21
19.8464
  0
LINE
  8
0
 10
-9.375
 20
19.8464
 11
-10.4167
 21
18.0422
  0
LINE
  8
0
 10
-10.4167
 20
18.0422
 11
-12.5
 21
18.0422
  0
LINE
  8
0
 10
-12.5
 20
18.0422
 11
-11.4583
 21
16.238
  0
LINE
  8
0
 10
-11.4583
 20
16.238
 11
-12.5
 21
14.4337
  0
LINE
  8
0
 10
-12.5
 20
14.4337
 11
-10.4167
 21
14.4337
  0
LINE
  8
0
 10
-10.4167
 20
14.4337
 11
-9.375
 21
12.6295
  0
LINE
  8
0
 10
-9.375
 20
12.6295
 11
-8.33334
 21
14.4337
  0
LINE
  8
0
 10
-9.89584
 20
15.3359
 11
-10.4167
 21
16.238
  0
LINE
  8
0
 10
-10.4167
 20
16.238
 11
-9.89584
 21
17.1401
  0
LINE
  8
0
 10
-9.89584
 20
17.1401
 11
-8.85416
 21
17.1401
  0
LINE
  8
0
 10
-8.85416
 20
17.1401
 11
-8.33333
 21
16.238
  0
LINE
  8
0
 10
-8.33333
 20
16.238
 11
-8.85416
 21
15.3359
  0
LINE
  8
0
 10
-8.85416
 20
15.3359
 11
-9.89584
 21
15.3359
  0
LINE
  8
0
 10
-21.875
 20
19.8464
 11
-23.4375
 21
17.1401
  0
LINE
  8
0
 10
-23.4375
 20
17.1401
 11
-20.3125
 21
17.1401
  0
LINE
  8
0
 10
-20.3125
 20
17.1401
 11
-21.875
 21
19.8464
  0
LINE
  8
0
 10
-14.5833
 20
14.4337
 11
-12.5
 21
14.4337
  0
LINE
  8
0
 10
-12.5
 20
14.4337
 11
-13.5417
 21
16.238
  0
LINE
  8
0
 10
-13.5417
 20
16.238
 11
-12.5
 21
18.0422
  0
LINE
  8
0
 10
-12.5
 20
18.0422
 11
-14.5833
 21
18.0422
  0
LINE
  8
0
 10
-14.5833
 20
18.0422
 11
-15.625
 21
19.8464
  0
LINE
  8
0
 10
-15.625
 20
19.8464
 11
-16.6667
 21
18.0422
  0
LINE
  8
0
 10
-16.6667
 20
18.0422
 11
-18.75
 21
18.0422
  0
LINE
  8
0
 10
-18.75
 20
18.0422
 11
-17.7083
 21
16.238
  0
LINE
  8
0
 10
-17.7083
 20
16.238
 11
-18.75
 21
14.4337
  0
LINE
  8
0
 10
-18.75
 20
14.4337
 11
-16.6667
 21
14.4337
  0
LINE
  8
0
 10
-16.6667
 20
14.4337
 11
-15.625
 21
12.6295
  0
LINE
  8
0
 10
-15.625
 20
12.6295
 11
-14.5833
 21
14.4337
  0
LINE
  8
0
 10
-16.1458
 20
15.3359
 11
-16.6667
 21
16.238
  0
LINE
  8
0
 10
-16.6667
 20
16.238
 11
-16.1458
 21
17.1401
  0
LINE
  8
0
 10
-16.1458
 20
17.1401
 11
-15.1042
 21
17.1401
  0
LINE
  8
0
 10
-15.1042
 20
17.1401
 11
-14.5833
 21
16.238
  0
LINE
  8
0
 10
-14.5833
 20
16.238
 11
-15.1042
 21
15.3359
  0
LINE
  8
0
 10
-15.1042
 20
15.3359
 11
-16.1458
 21
15.3359
  0
LINE
  8
0
 10
3.125
 20
19.8464
 11
1.5625
 21
17.1401
  0
LINE
  8
0
 10
1.5625
 20
17.1401
 11
4.6875
 21
17.1401
  0
LINE
  8
0
 10
4.6875
 20
17.1401
 11
3.125
 21
19.8464
  0
LINE
  8
0
 10
21.875
 20
19.8464
 11
20.3125
 21
17.1401
  0
LINE
  8
0
 10
20.3125
 20
17.1401
 11
23.4375
 21
17.1401
  0
LINE
  8
0
 10
23.4375
 20
17.1401
 11
21.875
 21
19.8464
  0
LINE
  8
0
 10
-37.5
 20
18.0422
 11
-40.625
 21
18.0422
  0
LINE
  8
0
 10
-40.625
 20
18.0422
 11
-39.0625
 21
15.3359
  0
LINE
  8
0
 10
-39.0625
 20
15.3359
 11
-37.5
 21
18.0422
  0
LINE
  8
0
 10
37.5
 20
18.0422
 11
34.375
 21
18.0422
  0
LINE
  8
0
 10
34.375
 20
18.0422
 11
35.9375
 21
15.3359
  0
LINE
  8
0
 10
35.9375
 20
15.3359
 11
37.5
 21
18.0422
  0
LINE
  8
0
 10
-31.25
 20
18.0422
 11
-34.375
 21
18.0422
  0
LINE
  8
0
 10
-34.375
 20
18.0422
 11
-32.8125
 21
15.3359
  0
LINE
  8
0
 10
-32.8125
 20
15.3359
 11
-31.25
 21
18.0422
  0
LINE
  8
0
 10
-40.625
 20
18.0422
 11
-43.75
 21
18.0422
  0
LINE
  8
0
 10
-43.75
 20
18.0422
 11
-42.1875
 21
15.3359
  0
LINE
  8
0
 10
-42.1875
 20
15.3359
 11
-40.625
 21
18.0422
  0
LINE
  8
0
 10
43.75
 20
18.0422
 11
40.625
 21
18.0422
  0
LINE
  8
0
 10
40.625
 20
18.0422
 11
42.1875
 21
15.3359
  0
LINE
  8
0
 10
42.1875
 20
15.3359
 11
43.75
 21
18.0422
  0
LINE
  8
0
 10
34.375
 20
18.0422
 11
31.25
 21
18.0422
  0
LINE
  8
0
 10
31.25
 20
18.0422
 11
32.8125
 21
15.3359
  0
LINE
  8
0
 10
32.8125
 20
15.3359
 11
34.375
 21
18.0422
  0
LINE
  8
0
 10
40.625
 20
18.0422
 11
37.5
 21
18.0422
  0
LINE
  8
0
 10
37.5
 20
18.0422
 11
39.0625
 21
15.3359
  0
LINE
  8
0
 10
39.0625
 20
15.3359
 11
40.625
 21
18.0422
  0
LINE
  8
0
 10
-34.375
 20
18.0422
 11
-37.5
 21
18.0422
  0
LINE
  8
0
 10
-37.5
 20
18.0422
 11
-35.9375
 21
15.3359
  0
LINE
  8
0
 10
-35.9375
 20
15.3359
 11
-34.375
 21
18.0422
  0
LINE
  8
0
 10
-1.5625
 20
17.1401
 11
-3.125
 21
14.4337
  0
LINE
  8
0
 10
-3.125
 20
14.4337
 11
0
 21
14.4337
  0
LINE
  8
0
 10
0
 20
14.4337
 11
-1.5625
 21
17.1401
  0
LINE
  8
0
 10
-23.4375
 20
17.1401
 11
-25
 21
14.4337
  0
LINE
  8
0
 10
-25
 20
14.4337
 11
-21.875
 21
14.4337
  0
LINE
  8
0
 10
-21.875
 20
14.4337
 11
-23.4375
 21
17.1401
  0
LINE
  8
0
 10
23.4375
 20
17.1401
 11
21.875
 21
14.4337
  0
LINE
  8
0
 10
21.875
 20
14.4337
 11
25
 21
14.4337
  0
LINE
  8
0
 10
25
 20
14.4337
 11
23.4375
 21
17.1401
  0
LINE
  8
0
 10
20.3125
 20
17.1401
 11
18.75
 21
14.4337
  0
LINE
  8
0
 10
18.75
 20
14.4337
 11
21.875
 21
14.4337
  0
LINE
  8
0
 10
21.875
 20
14.4337
 11
20.3125
 21
17.1401
  0
LINE
  8
0
 10
-20.3125
 20
17.1401
 11
-21.875
 21
14.4337
  0
LINE
  8
0
 10
-21.875
 20
14.4337
 11
-18.75
 21
14.4337
  0
LINE
  8
0
 10
-18.75
 20
14.4337
 11
-20.3125
 21
17.1401
  0
LINE
  8
0
 10
-4.6875
 20
17.1401
 11
-6.25
 21
14.4337
  0
LINE
  8
0
 10
-6.25
 20
14.4337
 11
-3.125
 21
14.4337
  0
LINE
  8
0
 10
-3.125
 20
14.4337
 11
-4.6875
 21
17.1401
  0
LINE
  8
0
 10
1.5625
 20
17.1401
 11
0
 21
14.4337
  0
LINE
  8
0
 10
0
 20
14.4337
 11
3.125
 21
14.4337
  0
LINE
  8
0
 10
3.125
 20
14.4337
 11
1.5625
 21
17.1401
  0
LINE
  8
0
 10
4.6875
 20
17.1401
 11
3.125
 21
14.4337
  0
LINE
  8
0
 10
3.125
 20
14.4337
 11
6.25
 21
14.4337
  0
LINE
  8
0
 10
6.25
 20
14.4337
 11
4.6875
 21
17.1401
  0
LINE
  8
0
 10
-32.8125
 20
15.3359
 11
-35.9375
 21
15.3359
  0
LINE
  8
0
 10
-35.9375
 20
15.3359
 11
-34.375
 21
12.6295
  0
LINE
  8
0
 10
-34.375
 20
12.6295
 11
-32.8125
 21
15.3359
  0
LINE
  8
0
 10
-39.0625
 20
15.3359
 11
-42.1875
 21
15.3359
  0
LINE
  8
0
 10
-42.1875
 20
15.3359
 11
-40.625
 21
12.6295
  0
LINE
  8
0
 10
-40.625
 20
12.6295
 11
-39.0625
 21
15.3359
  0
LINE
  8
0
 10
42.1875
 20
15.3359
 11
39.0625
 21
15.3359
  0
LINE
  8
0
 10
39.0625
 20
15.3359
 11
40.625
 21
12.6295
  0
LINE
  8
0
 10
40.625
 20
12.6295
 11
42.1875
 21
15.3359
  0
LINE
  8
0
 10
35.9375
 20
15.3359
 11
32.8125
 21
15.3359
  0
LINE
  8
0
 10
32.8125
 20
15.3359
 11
34.375
 21
12.6295
  0
LINE
  8
0
 10
34.375
 20
12.6295
 11
35.9375
 21
15.3359
  0
LINE
  8
0
 10
25
 20
14.4337
 11
23.4375
 21
11.7274
  0
LINE
  8
0
 10
23.4375
 20
11.7274
 11
26.5625
 21
11.7274
  0
LINE
  8
0
 10
26.5625
 20
11.7274
 11
25
 21
14.4337
  0
LINE
  8
0
 10
-25
 20
14.4337
 11
-26.5625
 21
11.7274
  0
LINE
  8
0
 10
-26.5625
 20
11.7274
 11
-23.4375
 21
11.7274
  0
LINE
  8
0
 10
-23.4375
 20
11.7274
 11
-25
 21
14.4337
  0
LINE
  8
0
 10
-34.375
 20
12.6295
 11
-37.5
 21
12.6295
  0
LINE
  8
0
 10
-37.5
 20
12.6295
 11
-35.9375
 21
9.9232
  0
LINE
  8
0
 10
-35.9375
 20
9.9232
 11
-34.375
 21
12.6295
  0
LINE
  8
0
 10
-12.5
 20
12.6295
 11
-15.625
 21
12.6295
  0
LINE
  8
0
 10
-15.625
 20
12.6295
 11
-14.0625
 21
9.9232
  0
LINE
  8
0
 10
-14.0625
 20
9.9232
 11
-12.5
 21
12.6295
  0
LINE
  8
0
 10
15.625
 20
12.6295
 11
12.5
 21
12.6295
  0
LINE
  8
0
 10
12.5
 20
12.6295
 11
14.0625
 21
9.9232
  0
LINE
  8
0
 10
14.0625
 20
9.9232
 11
15.625
 21
12.6295
  0
LINE
  8
0
 10
12.5
 20
12.6295
 11
9.375
 21
12.6295
  0
LINE
  8
0
 10
9.375
 20
12.6295
 11
10.9375
 21
9.9232
  0
LINE
  8
0
 10
10.9375
 20
9.9232
 11
12.5
 21
12.6295
  0
LINE
  8
0
 10
40.625
 20
12.6295
 11
37.5
 21
12.6295
  0
LINE
  8
0
 10
37.5
 20
12.6295
 11
39.0625
 21
9.9232
  0
LINE
  8
0
 10
39.0625
 20
9.9232
 11
40.625
 21
12.6295
  0
LINE
  8
0
 10
-37.5
 20
12.6295
 11
-40.625
 21
12.6295
  0
LINE
  8
0
 10
-40.625
 20
12.6295
 11
-39.0625
 21
9.9232
  0
LINE
  8
0
 10
-39.0625
 20
9.9232
 11
-37.5
 21
12.6295
  0
LINE
  8
0
 10
37.5
 20
12.6295
 11
34.375
 21
12.6295
  0
LINE
  8
0
 10
34.375
 20
12.6295
 11
35.9375
 21
9.9232
  0
LINE
  8
0
 10
35.9375
 20
9.9232
 11
37.5
 21
12.6295
  0
LINE
  8
0
 10
-9.375
 20
12.6295
 11
-12.5
 21
12.6295
  0
LINE
  8
0
 10
-12.5
 20
12.6295
 11
-10.9375
 21
9.9232
  0
LINE
  8
0
 10
-10.9375
 20
9.9232
 11
-9.375
 21
12.6295
  0
LINE
  8
0
 10
-26.5625
 20
11.7274
 11
-28.125
 21
9.02109
  0
LINE
  8
0
 10
-28.125
 20
9.02109
 11
-25
 21
9.02109
  0
LINE
  8
0
 10
-25
 20
9.02109
 11
-26.5625
 21
11.7274
  0
LINE
  8
0
 10
26.5625
 20
11.7274
 11
25
 21
9.02109
  0
LINE
  8
0
 10
25
 20
9.02109
 11
28.125
 21
9.02109
  0
LINE
  8
0
 10
28.125
 20
9.02109
 11
26.5625
 21
11.7274
  0
LINE
  8
0
 10
-23.4375
 20
11.7274
 11
-25
 21
9.02109
  0
LINE
  8
0
 10
-25
 20
9.02109
 11
-21.875
 21
9.02109
  0
LINE
  8
0
 10
-21.875
 20
9.02109
 11
-23.4375
 21
11.7274
  0
LINE
  8
0
 10
23.4375
 20
11.7274
 11
21.875
 21
9.02109
  0
LINE
  8
0
 10
21.875
 20
9.02109
 11
25
 21
9.02109
  0
LINE
  8
0
 10
25
 20
9.02109
 11
23.4375
 21
11.7274
  0
LINE
  8
0
 10
14.0625
 20
9.9232
 11
10.9375
 21
9.9232
  0
LINE
  8
0
 10
10.9375
 20
9.9232
 11
12.5
 21
7.21687
  0
LINE
  8
0
 10
12.5
 20
7.21687
 11
14.0625
 21
9.9232
  0
LINE
  8
0
 10
-35.9375
 20
9.9232
 11
-39.0625
 21
9.9232
  0
LINE
  8
0
 10
-39.0625
 20
9.9232
 11
-37.5
 21
7.21687
  0
LINE
  8
0
 10
-37.5
 20
7.21687
 11
-35.9375
 21
9.9232
  0
LINE
  8
0
 10
-10.9375
 20
9.9232
 11
-14.0625
 21
9.9232
  0
LINE
  8
0
 10
-14.0625
 20
9.9232
 11
-12.5
 21
7.21687
  0
LINE
  8
0
 10
-12.5
 20
7.21687
 11
-10.9375
 21
9.9232
  0
LINE
  8
0
 10
39.0625
 20
9.9232
 11
35.9375
 21
9.9232
  0
LINE
  8
0
 10
35.9375
 20
9.9232
 11
37.5
 21
7.21687
  0
LINE
  8
0
 10
37.5
 20
7.21687
 11
39.0625
 21
9.9232
  0
LINE
  8
0
 10
-20.8333
 20
3.60843
 11
-18.75
 21
3.60843
  0
LINE
  8
0
 10
-18.75
 20
3.60843
 11
-19.7917
 21
5.41264
  0
LINE
  8
0
 10
-19.7917
 20
5.41264
 11
-18.75
 21
7.21687
  0
LINE
  8
0
 10
-18.75
 20
7.21687
 11
-20.8333
 21
7.21687
  0
LINE
  8
0
 10
-20.8333
 20
7.21687
 11
-21.875
 21
9.02109
  0
LINE
  8
0
 10
-21.875
 20
9.02109
 11
-22.9167
 21
7.21687
  0
LINE
  8
0
 10
-22.9167
 20
7.21687
 11
-25
 21
7.21687
  0
LINE
  8
0
 10
-25
 20
7.21687
 11
-23.9583
 21
5.41264
  0
LINE
  8
0
 10
-23.9583
 20
5.41264
 11
-25
 21
3.60843
  0
LINE
  8
0
 10
-25
 20
3.60843
 11
-22.9167
 21
3.60843
  0
LINE
  8
0
 10
-22.9167
 20
3.60843
 11
-21.875
 21
1.80421
  0
LINE
  8
0
 10
-21.875
 20
1.80421
 11
-20.8333
 21
3.60843
  0
LINE
  8
0
 10
-22.3958
 20
4.51054
 11
-22.9167
 21
5.41264
  0
LINE
  8
0
 10
-22.9167
 20
5.41264
 11
-22.3958
 21
6.31476
  0
LINE
  8
0
 10
-22.3958
 20
6.31476
 11
-21.3542
 21
6.31476
  0
LINE
  8
0
 10
-21.3542
 20
6.31476
 11
-20.8333
 21
5.41264
  0
LINE
  8
0
 10
-20.8333
 20
5.41264
 11
-21.3542
 21
4.51054
  0
LINE
  8
0
 10
-21.3542
 20
4.51054
 11
-22.3958
 21
4.51054
  0
LINE
  8
0
 10
-27.0833
 20
3.60843
 11
-25
 21
3.60843
  0
LINE
  8
0
 10
-25
 20
3.60843
 11
-26.0417
 21
5.41264
  0
LINE
  8
0
 10
-26.0417
 20
5.41264
 11
-25
 21
7.21687
  0
LINE
  8
0
 10
-25
 20
7.21687
 11
-27.0833
 21
7.21687
  0
LINE
  8
0
 10
-27.0833
 20
7.21687
 11
-28.125
 21
9.02109
  0
LINE
  8
0
 10
-28.125
 20
9.02109
 11
-29.1667
 21
7.21687
  0
LINE
  8
0
 10
-29.1667
 20
7.21687
 11
-31.25
 21
7.21687
  0
LINE
  8
0
 10
-31.25
 20
7.21687
 11
-30.2083
 21
5.41266
  0
LINE
  8
0
 10
-30.2083
 20
5.41266
 11
-31.25
 21
3.60843
  0
LINE
  8
0
 10
-31.25
 20
3.60843
 11
-29.1667
 21
3.60843
  0
LINE
  8
0
 10
-29.1667
 20
3.60843
 11
-28.125
 21
1.80421
  0
LINE
  8
0
 10
-28.125
 20
1.80421
 11
-27.0833
 21
3.60843
  0
LINE
  8
0
 10
-28.6458
 20
4.51054
 11
-29.1667
 21
5.41264
  0
LINE
  8
0
 10
-29.1667
 20
5.41264
 11
-28.6458
 21
6.31476
  0
LINE
  8
0
 10
-28.6458
 20
6.31476
 11
-27.6042
 21
6.31476
  0
LINE
  8
0
 10
-27.6042
 20
6.31476
 11
-27.0833
 21
5.41264
  0
LINE
  8
0
 10
-27.0833
 20
5.41264
 11
-27.6042
 21
4.51054
  0
LINE
  8
0
 10
-27.6042
 20
4.51054
 11
-28.6458
 21
4.51054
  0
LINE
  8
0
 10
29.1667
 20
3.60843
 11
31.25
 21
3.60843
  0
LINE
  8
0
 10
31.25
 20
3.60843
 11
30.2083
 21
5.41266
  0
LINE
  8
0
 10
30.2083
 20
5.41266
 11
31.25
 21
7.21687
  0
LINE
  8
0
 10
31.25
 20
7.21687
 11
29.1667
 21
7.21687
  0
LINE
  8
0
 10
29.1667
 20
7.21687
 11
28.125
 21
9.02109
  0
LINE
  8
0
 10
28.125
 20
9.02109
 11
27.0833
 21
7.21687
  0
LINE
  8
0
 10
27.0833
 20
7.21687
 11
25
 21
7.21687
  0
LINE
  8
0
 10
25
 20
7.21687
 11
26.0417
 21
5.41264
  0
LINE
  8
0
 10
26.0417
 20
5.41264
 11
25
 21
3.60843
  0
LINE
  8
0
 10
25
 20
3.60843
 11
27.0833
 21
3.60843
  0
LINE
  8
0
 10
27.0833
 20
3.60843
 11
28.125
 21
1.80421
  0
LINE
  8
0
 10
28.125
 20
1.80421
 11
29.1667
 21
3.60843
  0
LINE
  8
0
 10
27.6042
 20
4.51054
 11
27.0833
 21
5.41264
  0
LINE
  8
0
 10
27.0833
 20
5.41264
 11
27.6042
 21
6.31476
  0
LINE
  8
0
 10
27.6042
 20
6.31476
 11
28.6458
 21
6.31476
  0
LINE
  8
0
 10
28.6458
 20
6.31476
 11
29.1667
 21
5.41264
  0
LINE
  8
0
 10
29.1667
 20
5.41264
 11
28.6458
 21
4.51054
  0
LINE
  8
0
 10
28.6458
 20
4.51054
 11
27.6042
 21
4.51054
  0
LINE
  8
0
 10
22.9167
 20
3.60843
 11
25
 21
3.60843
  0
LINE
  8
0
 10
25
 20
3.60843
 11
23.9583
 21
5.41264
  0
LINE
  8
0
 10
23.9583
 20
5.41264
 11
25
 21
7.21687
  0
LINE
  8
0
 10
25
 20
7.21687
 11
22.9167
 21
7.21687
  0
LINE
  8
0
 10
22.9167
 20
7.21687
 11
21.875
 21
9.02109
  0
LINE
  8
0
 10
21.875
 20
9.02109
 11
20.8333
 21
7.21687
  0
LINE
  8
0
 10
20.8333
 20
7.21687
 11
18.75
 21
7.21687
  0
LINE
  8
0
 10
18.75
 20
7.21687
 11
19.7917
 21
5.41264
  0
LINE
  8
0
 10
19.7917
 20
5.41264
 11
18.75
 21
3.60843
  0
LINE
  8
0
 10
18.75
 20
3.60843
 11
20.8333
 21
3.60843
  0
LINE
  8
0
 10
20.8333
 20
3.60843
 11
21.875
 21
1.80421
  0
LINE
  8
0
 10
21.875
 20
1.80421
 11
22.9167
 21
3.60843
  0
LINE
  8
0
 10
21.3542
 20
4.51054
 11
20.8333
 21
5.41264
  0
LINE
  8
0
 10
20.8333
 20
5.41264
 11
21.3542
 21
6.31476
  0
LINE
  8
0
 10
21.3542
 20
6.31476
 11
22.3958
 21
6.31476
  0
LINE
  8
0
 10
22.3958
 20
6.31476
 11
22.9167
 21
5.41264
  0
LINE
  8
0
 10
22.9167
 20
5.41264
 11
22.3958
 21
4.51054
  0
LINE
  8
0
 10
22.3958
 20
4.51054
 11
21.3542
 21
4.51054
  0
LINE
  8
0
 10
37.5
 20
7.21687
 11
34.375
 21
7.21687
  0
LINE
  8
0
 10
34.375
 20
7.21687
 11
35.9375
 21
4.51054
  0
LINE
  8
0
 10
35.9375
 20
4.51054
 11
37.5
 21
7.21687
  0
LINE
  8
0
 10
-12.5
 20
7.21687
 11
-15.625
 21
7.21687
  0
LINE
  8
0
 10
-15.625
 20
7.21687
 11
-14.0625
 21
4.51054
  0
LINE
  8
0
 10
-14.0625
 20
4.51054
 11
-12.5
 21
7.21687
  0
LINE
  8
0
 10
34.375
 20
7.21687
 11
31.25
 21
7.21687
  0
LINE
  8
0
 10
31.25
 20
7.21687
 11
32.8125
 21
4.51054
  0
LINE
  8
0
 10
32.8125
 20
4.51054
 11
34.375
 21
7.21687
  0
LINE
  8
0
 10
-31.25
 20
7.21687
 11
-34.375
 21
7.21687
  0
LINE
  8
0
 10
-34.375
 20
7.21687
 11
-32.8125
 21
4.51054
  0
LINE
  8
0
 10
-32.8125
 20
4.51054
 11
-31.25
 21
7.21687
  0
LINE
  8
0
 10
-34.375
 20
7.21687
 11
-37.5
 21
7.21687
  0
LINE
  8
0
 10
-37.5
 20
7.21687
 11
-35.9375
 21
4.51054
  0
LINE
  8
0
 10
-35.9375
 20
4.51054
 11
-34.375
 21
7.21687
  0
LINE
  8
0
 10
15.625
 20
7.21687
 11
12.5
 21
7.21687
  0
LINE
  8
0
 10
12.5
 20
7.21687
 11
14.0625
 21
4.51054
  0
LINE
  8
0
 10
14.0625
 20
4.51054
 11
15.625
 21
7.21687
  0
LINE
  8
0
 10
-15.625
 20
7.21687
 11
-18.75
 21
7.21687
  0
LINE
  8
0
 10
-18.75
 20
7.21687
 11
-17.1875
 21
4.51054
  0
LINE
  8
0
 10
-17.1875
 20
4.51054
 11
-15.625
 21
7.21687
  0
LINE
  8
0
 10
18.75
 20
7.21687
 11
15.625
 21
7.21687
  0
LINE
  8
0
 10
15.625
 20
7.21687
 11
17.1875
 21
4.51054
  0
LINE
  8
0
 10
17.1875
 20
4.51054
 11
18.75
 21
7.21687
  0
LINE
  8
0
 10
35.9375
 20
4.51054
 11
32.8125
 21
4.51054
  0
LINE
  8
0
 10
32.8125
 20
4.51054
 11
34.375
 21
1.80421
  0
LINE
  8
0
 10
34.375
 20
1.80421
 11
35.9375
 21
4.51054
  0
LINE
  8
0
 10
17.1875
 20
4.51054
 11
14.0625
 21
4.51054
  0
LINE
  8
0
 10
14.0625
 20
4.51054
 11
15.625
 21
1.80421
  0
LINE
  8
0
 10
15.625
 20
1.80421
 11
17.1875
 21
4.51054
  0
LINE
  8
0
 10
-32.8125
 20
4.51054
 11
-35.9375
 21
4.51054
  0
LINE
  8
0
 10
-35.9375
 20
4.51054
 11
-34.375
 21
1.80421
  0
LINE
  8
0
 10
-34.375
 20
1.80421
 11
-32.8125
 21
4.51054
  0
LINE
  8
0
 10
-14.0625
 20
4.51054
 11
-17.1875
 21
4.51054
  0
LINE
  8
0
 10
-17.1875
 20
4.51054
 11
-15.625
 21
1.80421
  0
LINE
  8
0
 10
-15.625
 20
1.80421
 11
-14.0625
 21
4.51054
  0
LINE
  8
0
 10
32.2917
 20
-1.80421
 11
34.375
 21
-1.80421
  0
LINE
  8
0
 10
34.375
 20
-1.80421
 11
33.3333
 21
0
  0
LINE
  8
0
 10
33.3333
 20
0
 11
34.375
 21
1.80421
  0
LINE
  8
0
 10
34.375
 20
1.80421
 11
32.2917
 21
1.80421
  0
LINE
  8
0
 10
32.2917
 20
1.80421
 11
31.25
 21
3.60843
  0
LINE
  8
0
 10
31.25
 20
3.60843
 11
30.2083
 21
1.80421
  0
LINE
  8
0
 10
30.2083
 20
1.80421
 11
28.125
 21
1.80421
  0
LINE
  8
0
 10
28.125
 20
1.80421
 11
29.1667
 21
0
  0
LINE
  8
0
 10
29.1667
 20
0
 11
28.125
 21
-1.80421
  0
LINE
  8
0
 10
28.125
 20
-1.80421
 11
30.2083
 21
-1.80421
  0
LINE
  8
0
 10
30.2083
 20
-1.80421
 11
31.25
 21
-3.60843
  0
LINE
  8
0
 10
31.25
 20
-3.60843
 11
32.2917
 21
-1.80421
  0
LINE
  8
0
 10
30.7292
 20
-0.9021
 11
30.2083
 21
0
  0
LINE
  8
0
 10
30.2083
 20
0
 11
30.7292
 21
0.9021
  0
LINE
  8
0
 10
30.7292
 20
0.9021
 11
31.7708
 21
0.9021
  0
LINE
  8
0
 10
31.7708
 20
0.9021
 11
32.2917
 21
0
  0
LINE
  8
0
 10
32.2917
 20
0
 11
31.7708
 21
-0.9021
  0
LINE
  8
0
 10
31.7708
 20
-0.9021
 11
30.7292
 21
-0.9021
  0
LINE
  8
0
 10
-30.2083
 20
-1.80421
 11
-28.125
 21
-1.80421
  0
LINE
  8
0
 10
-28.125
 20
-1.80421
 11
-29.1667
 21
0
  0
LINE
  8
0
 10
-29.1667
 20
0
 11
-28.125
 21
1.80421
  0
LINE
  8
0
 10
-28.125
 20
1.80421
 11
-30.2083
 21
1.80421
  0
LINE
  8
0
 10
-30.2083
 20
1.80421
 11
-31.25
 21
3.60843
  0
LINE
  8
0
 10
-31.25
 20
3.60843
 11
-32.2917
 21
1.80421
  0
LINE
  8
0
 10
-32.2917
 20
1.80421
 11
-34.375
 21
1.80421
  0
LINE
  8
0
 10
-34.375
 20
1.80421
 11
-33.3333
 21
0
  0
LINE
  8
0
 10
-33.3333
 20
0
 11
-34.375
 21
-1.80421
  0
LINE
  8
0
 10
-34.375
 20
-1.80421
 11
-32.2917
 21
-1.80421
  0
LINE
  8
0
 10
-32.2917
 20
-1.80421
 11
-31.25
 21
-3.60843
  0
LINE
  8
0
 10
-31.25
 20
-3.60843
 11
-30.2083
 21
-1.80421
  0
LINE
  8
0
 10
-31.7708
 20
-0.9021
 11
-32.2917
 21
0
  0
LINE
  8
0
 10
-32.2917
 20
0
 11
-31.7708
 21
0.9021
  0
LINE
  8
0
 10
-31.7708
 20
0.9021
 11
-30.7292
 21
0.9021
  0
LINE
  8
0
 10
-30.7292
 20
0.9021
 11
-30.2083
 21
0
  0
LINE
  8
0
 10
-30.2083
 20
0
 11
-30.7292
 21
-0.9021
  0
LINE
  8
0
 10
-30.7292
 20
-0.9021
 11
-31.7708
 21
-0.9021
  0
LINE
  8
0
 10
-17.7083
 20
-1.80421
 11
-15.625
 21
-1.80421
  0
LINE
  8
0
 10
-15.625
 20
-1.80421
 11
-16.6667
 21
0
  0
LINE
  8
0
 10
-16.6667
 20
0
 11
-15.625
 21
1.80421
  0
LINE
  8
0
 10
-15.625
 20
1.80421
 11
-17.7083
 21
1.80421
  0
LINE
  8
0
 10
-17.7083
 20
1.80421
 11
-18.75
 21
3.60843
  0
LINE
  8
0
 10
-18.75
 20
3.60843
 11
-19.7917
 21
1.80421
  0
LINE
  8
0
 10
-19.7917
 20
1.80421
 11
-21.875
 21
1.80421
  0
LINE
  8
0
 10
-21.875
 20
1.80421
 11
-20.8333
 21
0
  0
LINE
  8
0
 10
-20.8333
 20
0
 11
-21.875
 21
-1.80421
  0
LINE
  8
0
 10
-21.875
 20
-1.80421
 11
-19.7917
 21
-1.80421
  0
LINE
  8
0
 10
-19.7917
 20
-1.80421
 11
-18.75
 21
-3.60843
  0
LINE
  8
0
 10
-18.75
 20
-3.60843
 11
-17.7083
 21
-1.80421
  0
LINE
  8
0
 10
-19.2708
 20
-0.9021
 11
-19.7917
 21
0
  0
LINE
  8
0
 10
-19.7917
 20
0
 11
-19.2708
 21
0.9021
  0
LINE
  8
0
 10
-19.2708
 20
0.9021
 11
-18.2292
 21
0.9021
  0
LINE
  8
0
 10
-18.2292
 20
0.9021
 11
-17.7083
 21
0
  0
LINE
  8
0
 10
-17.7083
 20
0
 11
-18.2292
 21
-0.9021
  0
LINE
  8
0
 10
-18.2292
 20
-0.9021
 11
-19.2708
 21
-0.9021
  0
LINE
  8
0
 10
19.7917
 20
-1.80421
 11
21.875
 21
-1.80421
  0
LINE
  8
0
 10
21.875
 20
-1.80421
 11
20.8333
 21
0
  0
LINE
  8
0
 10
20.8333
 20
0
 11
21.875
 21
1.80421
  0
LINE
  8
0
 10
21.875
 20
1.80421
 11
19.7917
 21
1.80421
  0
LINE
  8
0
 10
19.7917
 20
1.80421
 11
18.75
 21
3.60843
  0
LINE
  8
0
 10
18.75
 20
3.60843
 11
17.7083
 21
1.80421
  0
LINE
  8
0
 10
17.7083
 20
1.80421
 11
15.625
 21
1.80421
  0
LINE
  8
0
 10
15.625
 20
1.80421
 11
16.6667
 21
0
  0
LINE
  8
0
 10
16.6667
 20
0
 11
15.625
 21
-1.80421
  0
LINE
  8
0
 10
15.625
 20
-1.80421
 11
17.7083
 21
-1.80421
  0
LINE
  8
0
 10
17.7083
 20
-1.80421
 11
18.75
 21
-3.60843
  0
LINE
  8
0
 10
18.75
 20
-3.60843
 11
19.7917
 21
-1.80421
  0
LINE
  8
0
 10
18.2292
 20
-0.9021
 11
17.7083
 21
0
  0
LINE
  8
0
 10
17.7083
 20
0
 11
18.2292
 21
0.9021
  0
LINE
  8
0
 10
18.2292
 20
0.9021
 11
19.2708
 21
0.9021
  0
LINE
  8
0
 10
19.2708
 20
0.9021
 11
19.7917
 21
0
  0
LINE
  8
0
 10
19.7917
 20
0
 11
19.2708
 21
-0.9021
  0
LINE
  8
0
 10
19.2708
 20
-0.9021
 11
18.2292
 21
-0.9021
  0
LINE
  8
0
 10
-20.8333
 20
-7.21687
 11
-18.75
 21
-7.21687
  0
LINE
  8
0
 10
-18.75
 20
-7.21687
 11
-19.7917
 21
-5.41266
  0
LINE
  8
0
 10
-19.7917
 20
-5.41266
 11
-18.75
 21
-3.60843
  0
LINE
  8
0
 10
-18.75
 20
-3.60843
 11
-20.8333
 21
-3.60843
  0
LINE
  8
0
 10
-20.8333
 20
-3.60843
 11
-21.875
 21
-1.80421
  0
LINE
  8
0
 10
-21.875
 20
-1.80421
 11
-22.9167
 21
-3.60843
  0
LINE
  8
0
 10
-22.9167
 20
-3.60843
 11
-25
 21
-3.60843
  0
LINE
  8
0
 10
-25
 20
-3.60843
 11
-23.9583
 21
-5.41266
  0
LINE
  8
0
 10
-23.9583
 20
-5.41266
 11
-25
 21
-7.21687
  0
LINE
  8
0
 10
-25
 20
-7.21687
 11
-22.9167
 21
-7.21687
  0
LINE
  8
0
 10
-22.9167
 20
-7.21687
 11
-21.875
 21
-9.02109
  0
LINE
  8
0
 10
-21.875
 20
-9.02109
 11
-20.8333
 21
-7.21687
  0
LINE
  8
0
 10
-22.3958
 20
-6.31476
 11
-22.9167
 21
-5.41266
  0
LINE
  8
0
 10
-22.9167
 20
-5.41266
 11
-22.3958
 21
-4.51054
  0
LINE
  8
0
 10
-22.3958
 20
-4.51054
 11
-21.3542
 21
-4.51054
  0
LINE
  8
0
 10
-21.3542
 20
-4.51054
 11
-20.8333
 21
-5.41266
  0
LINE
  8
0
 10
-20.8333
 20
-5.41266
 11
-21.3542
 21
-6.31476
  0
LINE
  8
0
 10
-21.3542
 20
-6.31476
 11
-22.3958
 21
-6.31476
  0
LINE
  8
0
 10
29.1667
 20
-7.21687
 11
31.25
 21
-7.21687
  0
LINE
  8
0
 10
31.25
 20
-7.21687
 11
30.2083
 21
-5.41266
  0
LINE
  8
0
 10
30.2083
 20
-5.41266
 11
31.25
 21
-3.60843
  0
LINE
  8
0
 10
31.25
 20
-3.60843
 11
29.1667
 21
-3.60843
  0
LINE
  8
0
 10
29.1667
 20
-3.60843
 11
28.125
 21
-1.80421
  0
LINE
  8
0
 10
28.125
 20
-1.80421
 11
27.0833
 21
-3.60843
  0
LINE
  8
0
 10
27.0833
 20
-3.60843
 11
25
 21
-3.60843
  0
LINE
  8
0
 10
25
 20
-3.60843
 11
26.0417
 21
-5.41266
  0
LINE
  8
0
 10
26.0417
 20
-5.41266
 11
25
 21
-7.21687
  0
LINE
  8
0
 10
25
 20
-7.21687
 11
27.0833
 21
-7.21687
  0
LINE
  8
0
 10
27.0833
 20
-7.21687
 11
28.125
 21
-9.02109
  0
LINE
  8
0
 10
28.125
 20
-9.02109
 11
29.1667
 21
-7.21687
  0
LINE
  8
0
 10
27.6042
 20
-6.31476
 11
27.0833
 21
-5.41266
  0
LINE
  8
0
 10
27.0833
 20
-5.41266
 11
27.6042
 21
-4.51054
  0
LINE
  8
0
 10
27.6042
 20
-4.51054
 11
28.6458
 21
-4.51054
  0
LINE
  8
0
 10
28.6458
 20
-4.51054
 11
29.1667
 21
-5.41264
  0
LINE
  8
0
 10
29.1667
 20
-5.41264
 11
28.6458
 21
-6.31476
  0
LINE
  8
0
 10
28.6458
 20
-6.31476
 11
27.6042
 21
-6.31476
  0
LINE
  8
0
 10
-15.625
 20
-1.80421
 11
-17.1875
 21
-4.51054
  0
LINE
  8
0
 10
-17.1875
 20
-4.51054
 11
-14.0625
 21
-4.51054
  0
LINE
  8
0
 10
-14.0625
 20
-4.51054
 11
-15.625
 21
-1.80421
  0
LINE
  8
0
 10
34.375
 20
-1.80421
 11
32.8125
 21
-4.51054
  0
LINE
  8
0
 10
32.8125
 20
-4.51054
 11
35.9375
 21
-4.51054
  0
LINE
  8
0
 10
35.9375
 20
-4.51054
 11
34.375
 21
-1.80421
  0
LINE
  8
0
 10
-34.375
 20
-1.80421
 11
-35.9375
 21
-4.51054
  0
LINE
  8
0
 10
-35.9375
 20
-4.51054
 11
-32.8125
 21
-4.51054
  0
LINE
  8
0
 10
-32.8125
 20
-4.51054
 11
-34.375
 21
-1.80421
  0
LINE
  8
0
 10
22.9167
 20
-7.21687
 11
25
 21
-7.21687
  0
LINE
  8
0
 10
25
 20
-7.21687
 11
23.9583
 21
-5.41266
  0
LINE
  8
0
 10
23.9583
 20
-5.41266
 11
25
 21
-3.60843
  0
LINE
  8
0
 10
25
 20
-3.60843
 11
22.9167
 21
-3.60843
  0
LINE
  8
0
 10
22.9167
 20
-3.60843
 11
21.875
 21
-1.80421
  0
LINE
  8
0
 10
21.875
 20
-1.80421
 11
20.8333
 21
-3.60843
  0
LINE
  8
0
 10
20.8333
 20
-3.60843
 11
18.75
 21
-3.60843
  0
LINE
  8
0
 10
18.75
 20
-3.60843
 11
19.7917
 21
-5.41266
  0
LINE
  8
0
 10
19.7917
 20
-5.41266
 11
18.75
 21
-7.21687
  0
LINE
  8
0
 10
18.75
 20
-7.21687
 11
20.8333
 21
-7.21687
  0
LINE
  8
0
 10
20.8333
 20
-7.21687
 11
21.875
 21
-9.02109
  0
LINE
  8
0
 10
21.875
 20
-9.02109
 11
22.9167
 21
-7.21687
  0
LINE
  8
0
 10
21.3542
 20
-6.31476
 11
20.8333
 21
-5.41266
  0
LINE
  8
0
 10
20.8333
 20
-5.41266
 11
21.3542
 21
-4.51054
  0
LINE
  8
0
 10
21.3542
 20
-4.51054
 11
22.3958
 21
-4.51054
  0
LINE
  8
0
 10
22.3958
 20
-4.51054
 11
22.9167
 21
-5.41266
  0
LINE
  8
0
 10
22.9167
 20
-5.41266
 11
22.3958
 21
-6.31476
  0
LINE
  8
0
 10
22.3958
 20
-6.31476
 11
21.3542
 21
-6.31476
  0
LINE
  8
0
 10
-27.0833
 20
-7.21687
 11
-25
 21
-7.21687
  0
LINE
  8
0
 10
-25
 20
-7.21687
 11
-26.0417
 21
-5.41266
  0
LINE
  8
0
 10
-26.0417
 20
-5.41266
 11
-25
 21
-3.60843
  0
LINE
  8
0
 10
-25
 20
-3.60843
 11
-27.0833
 21
-3.60843
  0
LINE
  8
0
 10
-27.0833
 20
-3.60843
 11
-28.125
 21
-1.80421
  0
LINE
  8
0
 10
-28.125
 20
-1.80421
 11
-29.1667
 21
-3.60843
  0
LINE
  8
0
 10
-29.1667
 20
-3.60843
 11
-31.25
 21
-3.60843
  0
LINE
  8
0
 10
-31.25
 20
-3.60843
 11
-30.2083
 21
-5.41266
  0
LINE
  8
0
 10
-30.2083
 20
-5.41266
 11
-31.25
 21
-7.21687
  0
LINE
  8
0
 10
-31.25
 20
-7.21687
 11
-29.1667
 21
-7.21687
  0
LINE
  8
0
 10
-29.1667
 20
-7.21687
 11
-28.125
 21
-9.02109
  0
LINE
  8
0
 10
-28.125
 20
-9.02109
 11
-27.0833
 21
-7.21687
  0
LINE
  8
0
 10
-28.6458
 20
-6.31476
 11
-29.1667
 21
-5.41264
  0
LINE
  8
0
 10
-29.1667
 20
-5.41264
 11
-28.6458
 21
-4.51054
  0
LINE
  8
0
 10
-28.6458
 20
-4.51054
 11
-27.6042
 21
-4.51054
  0
LINE
  8
0
 10
-27.6042
 20
-4.51054
 11
-27.0833
 21
-5.41266
  0
LINE
  8
0
 10
-27.0833
 20
-5.41266
 11
-27.6042
 21
-6.31476
  0
LINE
  8
0
 10
-27.6042
 20
-6.31476
 11
-28.6458
 21
-6.31476
  0
LINE
  8
0
 10
15.625
 20
-1.80421
 11
14.0625
 21
-4.51054
  0
LINE
  8
0
 10
14.0625
 20
-4.51054
 11
17.1875
 21
-4.51054
  0
LINE
  8
0
 10
17.1875
 20
-4.51054
 11
15.625
 21
-1.80421
  0
LINE
  8
0
 10
-32.8125
 20
-4.51054
 11
-34.375
 21
-7.21687
  0
LINE
  8
0
 10
-34.375
 20
-7.21687
 11
-31.25
 21
-7.21687
  0
LINE
  8
0
 10
-31.25
 20
-7.21687
 11
-32.8125
 21
-4.51054
  0
LINE
  8
0
 10
32.8125
 20
-4.51054
 11
31.25
 21
-7.21687
  0
LINE
  8
0
 10
31.25
 20
-7.21687
 11
34.375
 21
-7.21687
  0
LINE
  8
0
 10
34.375
 20
-7.21687
 11
32.8125
 21
-4.51054
  0
LINE
  8
0
 10
17.1875
 20
-4.51054
 11
15.625
 21
-7.21687
  0
LINE
  8
0
 10
15.625
 20
-7.21687
 11
18.75
 21
-7.21687
  0
LINE
  8
0
 10
18.75
 20
-7.21687
 11
17.1875
 21
-4.51054
  0
LINE
  8
0
 10
-14.0625
 20
-4.51054
 11
-15.625
 21
-7.21687
  0
LINE
  8
0
 10
-15.625
 20
-7.21687
 11
-12.5
 21
-7.21687
  0
LINE
  8
0
 10
-12.5
 20
-7.21687
 11
-14.0625
 21
-4.51054
  0
LINE
  8
0
 10
35.9375
 20
-4.51054
 11
34.375
 21
-7.21687
  0
LINE
  8
0
 10
34.375
 20
-7.21687
 11
37.5
 21
-7.21687
  0
LINE
  8
0
 10
37.5
 20
-7.21687
 11
35.9375
 21
-4.51054
  0
LINE
  8
0
 10
-17.1875
 20
-4.51054
 11
-18.75
 21
-7.21687
  0
LINE
  8
0
 10
-18.75
 20
-7.21687
 11
-15.625
 21
-7.21687
  0
LINE
  8
0
 10
-15.625
 20
-7.21687
 11
-17.1875
 21
-4.51054
  0
LINE
  8
0
 10
-35.9375
 20
-4.51054
 11
-37.5
 21
-7.21687
  0
LINE
  8
0
 10
-37.5
 20
-7.21687
 11
-34.375
 21
-7.21687
  0
LINE
  8
0
 10
-34.375
 20
-7.21687
 11
-35.9375
 21
-4.51054
  0
LINE
  8
0
 10
14.0625
 20
-4.51054
 11
12.5
 21
-7.21687
  0
LINE
  8
0
 10
12.5
 20
-7.21687
 11
15.625
 21
-7.21687
  0
LINE
  8
0
 10
15.625
 20
-7.21687
 11
14.0625
 21
-4.51054
  0
LINE
  8
0
 10
37.5
 20
-7.21687
 11
35.9375
 21
-9.9232
  0
LINE
  8
0
 10
35.9375
 20
-9.9232
 11
39.0625
 21
-9.9232
  0
LINE
  8
0
 10
39.0625
 20
-9.9232
 11
37.5
 21
-7.21687
  0
LINE
  8
0
 10
12.5
 20
-7.21687
 11
10.9375
 21
-9.9232
  0
LINE
  8
0
 10
10.9375
 20
-9.9232
 11
14.0625
 21
-9.9232
  0
LINE
  8
0
 10
14.0625
 20
-9.9232
 11
12.5
 21
-7.21687
  0
LINE
  8
0
 10
-37.5
 20
-7.21687
 11
-39.0625
 21
-9.9232
  0
LINE
  8
0
 10
-39.0625
 20
-9.9232
 11
-35.9375
 21
-9.9232
  0
LINE
  8
0
 10
-35.9375
 20
-9.9232
 11
-37.5
 21
-7.21687
  0
LINE
  8
0
 10
-12.5
 20
-7.21687
 11
-14.0625
 21
-9.9232
  0
LINE
  8
0
 10
-14.0625
 20
-9.9232
 11
-10.9375
 21
-9.9232
  0
LINE
  8
0
 10
-10.9375
 20
-9.9232
 11
-12.5
 21
-7.21687
  0
LINE
  8
0
 10
25
 20
-9.02109
 11
21.875
 21
-9.02109
  0
LINE
  8
0
 10
21.875
 20
-9.02109
 11
23.4375
 21
-11.7274
  0
LINE
  8
0
 10
23.4375
 20
-11.7274
 11
25
 21
-9.02109
  0
LINE
  8
0
 10
-25
 20
-9.02109
 11
-28.125
 21
-9.02109
  0
LINE
  8
0
 10
-28.125
 20
-9.02109
 11
-26.5625
 21
-11.7274
  0
LINE
  8
0
 10
-26.5625
 20
-11.7274
 11
-25
 21
-9.02109
  0
LINE
  8
0
 10
28.125
 20
-9.02109
 11
25
 21
-9.02109
  0
LINE
  8
0
 10
25
 20
-9.02109
 11
26.5625
 21
-11.7274
  0
LINE
  8
0
 10
26.5625
 20
-11.7274
 11
28.125
 21
-9.02109
  0
LINE
  8
0
 10
-21.875
 20
-9.02109
 11
-25
 21
-9.02109
  0
LINE
  8
0
 10
-25
 20
-9.02109
 11
-23.4375
 21
-11.7274
  0
LINE
  8
0
 10
-23.4375
 20
-11.7274
 11
-21.875
 21
-9.02109
  0
LINE
  8
0
 10
39.0625
 20
-9.9232
 11
37.5
 21
-12.6295
  0
LINE
  8
0
 10
37.5
 20
-12.6295
 11
40.625
 21
-12.6295
  0
LINE
  8
0
 10
40.625
 20
-12.6295
 11
39.0625
 21
-9.9232
  0
LINE
  8
0
 10
-35.9375
 20
-9.9232
 11
-37.5
 21
-12.6295
  0
LINE
  8
0
 10
-37.5
 20
-12.6295
 11
-34.375
 21
-12.6295
  0
LINE
  8
0
 10
-34.375
 20
-12.6295
 11
-35.9375
 21
-9.9232
  0
LINE
  8
0
 10
14.0625
 20
-9.9232
 11
12.5
 21
-12.6295
  0
LINE
  8
0
 10
12.5
 20
-12.6295
 11
15.625
 21
-12.6295
  0
LINE
  8
0
 10
15.625
 20
-12.6295
 11
14.0625
 21
-9.9232
  0
LINE
  8
0
 10
-39.0625
 20
-9.9232
 11
-40.625
 21
-12.6295
  0
LINE
  8
0
 10
-40.625
 20
-12.6295
 11
-37.5
 21
-12.6295
  0
LINE
  8
0
 10
-37.5
 20
-12.6295
 11
-39.0625
 21
-9.9232
  0
LINE
  8
0
 10
35.9375
 20
-9.9232
 11
34.375
 21
-12.6295
  0
LINE
  8
0
 10
34.375
 20
-12.6295
 11
37.5
 21
-12.6295
  0
LINE
  8
0
 10
37.5
 20
-12.6295
 11
35.9375
 21
-9.9232
  0
LINE
  8
0
 10
-10.9375
 20
-9.9232
 11
-12.5
 21
-12.6295
  0
LINE
  8
0
 10
-12.5
 20
-12.6295
 11
-9.375
 21
-12.6295
  0
LINE
  8
0
 10
-9.375
 20
-12.6295
 11
-10.9375
 21
-9.9232
  0
LINE
  8
0
 10
10.9375
 20
-9.9232
 11
9.375
 21
-12.6295
  0
LINE
  8
0
 10
9.375
 20
-12.6295
 11
12.5
 21
-12.6295
  0
LINE
  8
0
 10
12.5
 20
-12.6295
 11
10.9375
 21
-9.9232
  0
LINE
  8
0
 10
-14.0625
 20
-9.9232
 11
-15.625
 21
-12.6295
  0
LINE
  8
0
 10
-15.625
 20
-12.6295
 11
-12.5
 21
-12.6295
  0
LINE
  8
0
 10
-12.5
 20
-12.6295
 11
-14.0625
 21
-9.9232
  0
LINE
  8
0
 10
26.5625
 20
-11.7274
 11
23.4375
 21
-11.7274
  0
LINE
  8
0
 10
23.4375
 20
-11.7274
 11
25
 21
-14.4337
  0
LINE
  8
0
 10
25
 20
-14.4337
 11
26.5625
 21
-11.7274
  0
LINE
  8
0
 10
-23.4375
 20
-11.7274
 11
-26.5625
 21
-11.7274
  0
LINE
  8
0
 10
-26.5625
 20
-11.7274
 11
-25
 21
-14.4337
  0
LINE
  8
0
 10
-25
 20
-14.4337
 11
-23.4375
 21
-11.7274
  0
LINE
  8
0
 10
-40.625
 20
-12.6295
 11
-42.1875
 21
-15.3359
  0
LINE
  8
0
 10
-42.1875
 20
-15.3359
 11
-39.0625
 21
-15.3359
  0
LINE
  8
0
 10
-39.0625
 20
-15.3359
 11
-40.625
 21
-12.6295
  0
LINE
  8
0
 10
40.625
 20
-12.6295
 11
39.0625
 21
-15.3359
  0
LINE
  8
0
 10
39.0625
 20
-15.3359
 11
42.1875
 21
-15.3359
  0
LINE
  8
0
 10
42.1875
 20
-15.3359
 11
40.625
 21
-12.6295
  0
LINE
  8
0
 10
16.6667
 20
-18.0422
 11
18.75
 21
-18.0422
  0
LINE
  8
0
 10
18.75
 20
-18.0422
 11
17.7083
 21
-16.238
  0
LINE
  8
0
 10
17.7083
 20
-16.238
 11
18.75
 21
-14.4337
  0
LINE
  8
0
 10
18.75
 20
-14.4337
 11
16.6667
 21
-14.4337
  0
LINE
  8
0
 10
16.6667
 20
-14.4337
 11
15.625
 21
-12.6295
  0
LINE
  8
0
 10
15.625
 20
-12.6295
 11
14.5833
 21
-14.4337
  0
LINE
  8
0
 10
14.5833
 20
-14.4337
 11
12.5
 21
-14.4337
  0
LINE
  8
0
 10
12.5
 20
-14.4337
 11
13.5417
 21
-16.238
  0
LINE
  8
0
 10
13.5417
 20
-16.238
 11
12.5
 21
-18.0422
  0
LINE
  8
0
 10
12.5
 20
-18.0422
 11
14.5833
 21
-18.0422
  0
LINE
  8
0
 10
14.5833
 20
-18.0422
 11
15.625
 21
-19.8464
  0
LINE
  8
0
 10
15.625
 20
-19.8464
 11
16.6667
 21
-18.0422
  0
LINE
  8
0
 10
15.1042
 20
-17.1401
 11
14.5833
 21
-16.238
  0
LINE
  8
0
 10
14.5833
 20
-16.238
 11
15.1042
 21
-15.3359
  0
LINE
  8
0
 10
15.1042
 20
-15.3359
 11
16.1458
 21
-15.3359
  0
LINE
  8
0
 10
16.1458
 20
-15.3359
 11
16.6667
 21
-16.238
  0
LINE
  8
0
 10
16.6667
 20
-16.238
 11
16.1458
 21
-17.1401
  0
LINE
  8
0
 10
16.1458
 20
-17.1401
 11
15.1042
 21
-17.1401
  0
LINE
  8
0
 10
-34.375
 20
-12.6295
 11
-35.9375
 21
-15.3359
  0
LINE
  8
0
 10
-35.9375
 20
-15.3359
 11
-32.8125
 21
-15.3359
  0
LINE
  8
0
 10
-32.8125
 20
-15.3359
 11
-34.375
 21
-12.6295
  0
LINE
  8
0
 10
34.375
 20
-12.6295
 11
32.8125
 21
-15.3359
  0
LINE
  8
0
 10
32.8125
 20
-15.3359
 11
35.9375
 21
-15.3359
  0
LINE
  8
0
 10
35.9375
 20
-15.3359
 11
34.375
 21
-12.6295
  0
LINE
  8
0
 10
-8.33334
 20
-18.0422
 11
-6.25
 21
-18.0422
  0
LINE
  8
0
 10
-6.25
 20
-18.0422
 11
-7.29167
 21
-16.238
  0
LINE
  8
0
 10
-7.29167
 20
-16.238
 11
-6.25
 21
-14.4337
  0
LINE
  8
0
 10
-6.25
 20
-14.4337
 11
-8.33334
 21
-14.4337
  0
LINE
  8
0
 10
-8.33334
 20
-14.4337
 11
-9.375
 21
-12.6295
  0
LINE
  8
0
 10
-9.375
 20
-12.6295
 11
-10.4167
 21
-14.4337
  0
LINE
  8
0
 10
-10.4167
 20
-14.4337
 11
-12.5
 21
-14.4337
  0
LINE
  8
0
 10
-12.5
 20
-14.4337
 11
-11.4583
 21
-16.238
  0
LINE
  8
0
 10
-11.4583
 20
-16.238
 11
-12.5
 21
-18.0422
  0
LINE
  8
0
 10
-12.5
 20
-18.0422
 11
-10.4167
 21
-18.0422
  0
LINE
  8
0
 10
-10.4167
 20
-18.0422
 11
-9.375
 21
-19.8464
  0
LINE
  8
0
 10
-9.375
 20
-19.8464
 11
-8.33334
 21
-18.0422
  0
LINE
  8
0
 10
-9.89584
 20
-17.1401
 11
-10.4167
 21
-16.238
  0
LINE
  8
0
 10
-10.4167
 20
-16.238
 11
-9.89584
 21
-15.3359
  0
LINE
  8
0
 10
-9.89584
 20
-15.3359
 11
-8.85416
 21
-15.3359
  0
LINE
  8
0
 10
-8.85416
 20
-15.3359
 11
-8.33333
 21
-16.238
  0
LINE
  8
0
 10
-8.33333
 20
-16.238
 11
-8.85416
 21
-17.1401
  0
LINE
  8
0
 10
-8.85416
 20
-17.1401
 11
-9.89584
 21
-17.1401
  0
LINE
  8
0
 10
-14.5833
 20
-18.0422
 11
-12.5
 21
-18.0422
  0
LINE
  8
0
 10
-12.5
 20
-18.0422
 11
-13.5417
 21
-16.238
  0
LINE
  8
0
 10
-13.5417
 20
-16.238
 11
-12.5
 21
-14.4337
  0
LINE
  8
0
 10
-12.5
 20
-14.4337
 11
-14.5833
 21
-14.4337
  0
LINE
  8
0
 10
-14.5833
 20
-14.4337
 11
-15.625
 21
-12.6295
  0
LINE
  8
0
 10
-15.625
 20
-12.6295
 11
-16.6667
 21
-14.4337
  0
LINE
  8
0
 10
-16.6667
 20
-14.4337
 11
-18.75
 21
-14.4337
  0
LINE
  8
0
 10
-18.75
 20
-14.4337
 11
-17.7083
 21
-16.238
  0
LINE
  8
0
 10
-17.7083
 20
-16.238
 11
-18.75
 21
-18.0422
  0
LINE
  8
0
 10
-18.75
 20
-18.0422
 11
-16.6667
 21
-18.0422
  0
LINE
  8
0
 10
-16.6667
 20
-18.0422
 11
-15.625
 21
-19.8464
  0
LINE
  8
0
 10
-15.625
 20
-19.8464
 11
-14.5833
 21
-18.0422
  0
LINE
  8
0
 10
-16.1458
 20
-17.1401
 11
-16.6667
 21
-16.238
  0
LINE
  8
0
 10
-16.6667
 20
-16.238
 11
-16.1458
 21
-15.3359
  0
LINE
  8
0
 10
-16.1458
 20
-15.3359
 11
-15.1042
 21
-15.3359
  0
LINE
  8
0
 10
-15.1042
 20
-15.3359
 11
-14.5833
 21
-16.238
  0
LINE
  8
0
 10
-14.5833
 20
-16.238
 11
-15.1042
 21
-17.1401
  0
LINE
  8
0
 10
-15.1042
 20
-17.1401
 11
-16.1458
 21
-17.1401
  0
LINE
  8
0
 10
10.4167
 20
-18.0422
 11
12.5
 21
-18.0422
  0
LINE
  8
0
 10
12.5
 20
-18.0422
 11
11.4583
 21
-16.238
  0
LINE
  8
0
 10
11.4583
 20
-16.238
 11
12.5
 21
-14.4337
  0
LINE
  8
0
 10
12.5
 20
-14.4337
 11
10.4167
 21
-14.4337
  0
LINE
  8
0
 10
10.4167
 20
-14.4337
 11
9.375
 21
-12.6295
  0
LINE
  8
0
 10
9.375
 20
-12.6295
 11
8.33334
 21
-14.4337
  0
LINE
  8
0
 10
8.33334
 20
-14.4337
 11
6.25
 21
-14.4337
  0
LINE
  8
0
 10
6.25
 20
-14.4337
 11
7.29167
 21
-16.238
  0
LINE
  8
0
 10
7.29167
 20
-16.238
 11
6.25
 21
-18.0422
  0
LINE
  8
0
 10
6.25
 20
-18.0422
 11
8.33334
 21
-18.0422
  0
LINE
  8
0
 10
8.33334
 20
-18.0422
 11
9.375
 21
-19.8464
  0
LINE
  8
0
 10
9.375
 20
-19.8464
 11
10.4167
 21
-18.0422
  0
LINE
  8
0
 10
8.85416
 20
-17.1401
 11
8.33333
 21
-16.238
  0
LINE
  8
0
 10
8.33333
 20
-16.238
 11
8.85416
 21
-15.3359
  0
LINE
  8
0
 10
8.85416
 20
-15.3359
 11
9.89584
 21
-15.3359
  0
LINE
  8
0
 10
9.89584
 20
-15.3359
 11
10.4167
 21
-16.238
  0
LINE
  8
0
 10
10.4167
 20
-16.238
 11
9.89584
 21
-17.1401
  0
LINE
  8
0
 10
9.89584
 20
-17.1401
 11
8.85416
 21
-17.1401
  0
LINE
  8
0
 10
6.25
 20
-14.4337
 11
3.125
 21
-14.4337
  0
LINE
  8
0
 10
3.125
 20
-14.4337
 11
4.6875
 21
-17.1401
  0
LINE
  8
0
 10
4.6875
 20
-17.1401
 11
6.25
 21
-14.4337
  0
LINE
  8
0
 10
-18.75
 20
-14.4337
 11
-21.875
 21
-14.4337
  0
LINE
  8
0
 10
-21.875
 20
-14.4337
 11
-20.3125
 21
-17.1401
  0
LINE
  8
0
 10
-20.3125
 20
-17.1401
 11
-18.75
 21
-14.4337
  0
LINE
  8
0
 10
3.125
 20
-14.4337
 11
0
 21
-14.4337
  0
LINE
  8
0
 10
0
 20
-14.4337
 11
1.5625
 21
-17.1401
  0
LINE
  8
0
 10
1.5625
 20
-17.1401
 11
3.125
 21
-14.4337
  0
LINE
  8
0
 10
0
 20
-14.4337
 11
-3.125
 21
-14.4337
  0
LINE
  8
0
 10
-3.125
 20
-14.4337
 11
-1.5625
 21
-17.1401
  0
LINE
  8
0
 10
-1.5625
 20
-17.1401
 11
0
 21
-14.4337
  0
LINE
  8
0
 10
-21.875
 20
-14.4337
 11
-25
 21
-14.4337
  0
LINE
  8
0
 10
-25
 20
-14.4337
 11
-23.4375
 21
-17.1401
  0
LINE
  8
0
 10
-23.4375
 20
-17.1401
 11
-21.875
 21
-14.4337
  0
LINE
  8
0
 10
-3.125
 20
-14.4337
 11
-6.25
 21
-14.4337
  0
LINE
  8
0
 10
-6.25
 20
-14.4337
 11
-4.6875
 21
-17.1401
  0
LINE
  8
0
 10
-4.6875
 20
-17.1401
 11
-3.125
 21
-14.4337
  0
LINE
  8
0
 10
21.875
 20
-14.4337
 11
18.75
 21
-14.4337
  0
LINE
  8
0
 10
18.75
 20
-14.4337
 11
20.3125
 21
-17.1401
  0
LINE
  8
0
 10
20.3125
 20
-17.1401
 11
21.875
 21
-14.4337
  0
LINE
  8
0
 10
25
 20
-14.4337
 11
21.875
 21
-14.4337
  0
LINE
  8
0
 10
21.875
 20
-14.4337
 11
23.4375
 21
-17.1401
  0
LINE
  8
0
 10
23.4375
 20
-17.1401
 11
25
 21
-14.4337
  0
LINE
  8
0
 10
-42.1875
 20
-15.3359
 11
-43.75
 21
-18.0422
  0
LINE
  8
0
 10
-43.75
 20
-18.0422
 11
-40.625
 21
-18.0422
  0
LINE
  8
0
 10
-40.625
 20
-18.0422
 11
-42.1875
 21
-15.3359
  0
LINE
  8
0
 10
-32.8125
 20
-15.3359
 11
-34.375
 21
-18.0422
  0
LINE
  8
0
 10
-34.375
 20
-18.0422
 11
-31.25
 21
-18.0422
  0
LINE
  8
0
 10
-31.25
 20
-18.0422
 11
-32.8125
 21
-15.3359
  0
LINE
  8
0
 10
-39.0625
 20
-15.3359
 11
-40.625
 21
-18.0422
  0
LINE
  8
0
 10
-40.625
 20
-18.0422
 11
-37.5
 21
-18.0422
  0
LINE
  8
0
 10
-37.5
 20
-18.0422
 11
-39.0625
 21
-15.3359
  0
LINE
  8
0
 10
42.1875
 20
-15.3359
 11
40.625
 21
-18.0422
  0
LINE
  8
0
 10
40.625
 20
-18.0422
 11
43.75
 21
-18.0422
  0
LINE
  8
0
 10
43.75
 20
-18.0422
 11
42.1875
 21
-15.3359
  0
LINE
  8
0
 10
-35.9375
 20
-15.3359
 11
-37.5
 21
-18.0422
  0
LINE
  8
0
 10
-37.5
 20
-18.0422
 11
-34.375
 21
-18.0422
  0
LINE
  8
0
 10
-34.375
 20
-18.0422
 11
-35.9375
 21
-15.3359
  0
LINE
  8
0
 10
39.0625
 20
-15.3359
 11
37.5
 21
-18.0422
  0
LINE
  8
0
 10
37.5
 20
-18.0422
 11
40.625
 21
-18.0422
  0
LINE
  8
0
 10
40.625
 20
-18.0422
 11
39.0625
 21
-15.3359
  0
LINE
  8
0
 10
35.9375
 20
-15.3359
 11
34.375
 21
-18.0422
  0
LINE
  8
0
 10
34.375
 20
-18.0422
 11
37.5
 21
-18.0422
  0
LINE
  8
0
 10
37.5
 20
-18.0422
 11
35.9375
 21
-15.3359
  0
LINE
  8
0
 10
32.8125
 20
-15.3359
 11
31.25
 21
-18.0422
  0
LINE
  8
0
 10
31.25
 20
-18.0422
 11
34.375
 21
-18.0422
  0
LINE
  8
0
 10
34.375
 20
-18.0422
 11
32.8125
 21
-15.3359
  0
LINE
  8
0
 10
-20.3125
 20
-17.1401
 11
-23.4375
 21
-17.1401
  0
LINE
  8
0
 10
-23.4375
 20
-17.1401
 11
-21.875
 21
-19.8464
  0
LINE
  8
0
 10
-21.875
 20
-19.8464
 11
-20.3125
 21
-17.1401
  0
LINE
  8
0
 10
23.4375
 20
-17.1401
 11
20.3125
 21
-17.1401
  0
LINE
  8
0
 10
20.3125
 20
-17.1401
 11
21.875
 21
-19.8464
  0
LINE
  8
0
 10
21.875
 20
-19.8464
 11
23.4375
 21
-17.1401
  0
LINE
  8
0
 10
-1.5625
 20
-17.1401
 11
-4.6875
 21
-17.1401
  0
LINE
  8
0
 10
-4.6875
 20
-17.1401
 11
-3.125
 21
-19.8464
  0
LINE
  8
0
 10
-3.125
 20
-19.8464
 11
-1.5625
 21
-17.1401
  0
LINE
  8
0
 10
4.6875
 20
-17.1401
 11
1.5625
 21
-17.1401
  0
LINE
  8
0
 10
1.5625
 20
-17.1401
 11
3.125
 21
-19.8464
  0
LINE
  8
0
 10
3.125
 20
-19.8464
 11
4.6875
 21
-17.1401
  0
LINE
  8
0
 10
31.25
 20
-18.0422
 11
29.6875
 21
-20.7485
  0
LINE
  8
0
 10
29.6875
 20
-20.7485
 11
32.8125
 21
-20.7485
  0
LINE
  8
0
 10
32.8125
 20
-20.7485
 11
31.25
 21
-18.0422
  0
LINE
  8
0
 10
-5.20834
 20
-23.4548
 11
-3.125
 21
-23.4548
  0
LINE
  8
0
 10
-3.125
 20
-23.4548
 11
-4.16667
 21
-21.6506
  0
LINE
  8
0
 10
-4.16667
 20
-21.6506
 11
-3.125
 21
-19.8464
  0
LINE
  8
0
 10
-3.125
 20
-19.8464
 11
-5.20834
 21
-19.8464
  0
LINE
  8
0
 10
-5.20834
 20
-19.8464
 11
-6.25
 21
-18.0422
  0
LINE
  8
0
 10
-6.25
 20
-18.0422
 11
-7.29166
 21
-19.8464
  0
LINE
  8
0
 10
-7.29166
 20
-19.8464
 11
-9.375
 21
-19.8464
  0
LINE
  8
0
 10
-9.375
 20
-19.8464
 11
-8.33333
 21
-21.6506
  0
LINE
  8
0
 10
-8.33333
 20
-21.6506
 11
-9.375
 21
-23.4548
  0
LINE
  8
0
 10
-9.375
 20
-23.4548
 11
-7.29166
 21
-23.4548
  0
LINE
  8
0
 10
-7.29166
 20
-23.4548
 11
-6.25
 21
-25.2591
  0
LINE
  8
0
 10
-6.25
 20
-25.2591
 11
-5.20834
 21
-23.4548
  0
LINE
  8
0
 10
-6.77084
 20
-22.5527
 11
-7.29167
 21
-21.6506
  0
LINE
  8
0
 10
-7.29167
 20
-21.6506
 11
-6.77084
 21
-20.7485
  0
LINE
  8
0
 10
-6.77084
 20
-20.7485
 11
-5.72916
 21
-20.7485
  0
LINE
  8
0
 10
-5.72916
 20
-20.7485
 11
-5.20833
 21
-21.6506
  0
LINE
  8
0
 10
-5.20833
 20
-21.6506
 11
-5.72916
 21
-22.5527
  0
LINE
  8
0
 10
-5.72916
 20
-22.5527
 11
-6.77084
 21
-22.5527
  0
LINE
  8
0
 10
-31.25
 20
-18.0422
 11
-32.8125
 21
-20.7485
  0
LINE
  8
0
 10
-32.8125
 20
-20.7485
 11
-29.6875
 21
-20.7485
  0
LINE
  8
0
 10
-29.6875
 20
-20.7485
 11
-31.25
 21
-18.0422
  0
LINE
  8
0
 10
7.29166
 20
-23.4548
 11
9.375
 21
-23.4548
  0
LINE
  8
0
 10
9.375
 20
-23.4548
 11
8.33333
 21
-21.6506
  0
LINE
  8
0
 10
8.33333
 20
-21.6506
 11
9.375
 21
-19.8464
  0
LINE
  8
0
 10
9.375
 20
-19.8464
 11
7.29166
 21
-19.8464
  0
LINE
  8
0
 10
7.29166
 20
-19.8464
 11
6.25
 21
-18.0422
  0
LINE
  8
0
 10
6.25
 20
-18.0422
 11
5.20834
 21
-19.8464
  0
LINE
  8
0
 10
5.20834
 20
-19.8464
 11
3.125
 21
-19.8464
  0
LINE
  8
0
 10
3.125
 20
-19.8464
 11
4.16667
 21
-21.6506
  0
LINE
  8
0
 10
4.16667
 20
-21.6506
 11
3.125
 21
-23.4548
  0
LINE
  8
0
 10
3.125
 20
-23.4548
 11
5.20834
 21
-23.4548
  0
LINE
  8
0
 10
5.20834
 20
-23.4548
 11
6.25
 21
-25.2591
  0
LINE
  8
0
 10
6.25
 20
-25.2591
 11
7.29166
 21
-23.4548
  0
LINE
  8
0
 10
5.72916
 20
-22.5527
 11
5.20833
 21
-21.6506
  0
LINE
  8
0
 10
5.20833
 20
-21.6506
 11
5.72916
 21
-20.7485
  0
LINE
  8
0
 10
5.72916
 20
-20.7485
 11
6.77084
 21
-20.7485
  0
LINE
  8
0
 10
6.77084
 20
-20.7485
 11
7.29167
 21
-21.6506
  0
LINE
  8
0
 10
7.29167
 20
-21.6506
 11
6.77084
 21
-22.5527
  0
LINE
  8
0
 10
6.77084
 20
-22.5527
 11
5.72916
 21
-22.5527
  0
LINE
  8
0
 10
-17.7083
 20
-23.4548
 11
-15.625
 21
-23.4548
  0
LINE
  8
0
 10
-15.625
 20
-23.4548
 11
-16.6667
 21
-21.6506
  0
LINE
  8
0
 10
-16.6667
 20
-21.6506
 11
-15.625
 21
-19.8464
  0
LINE
  8
0
 10
-15.625
 20
-19.8464
 11
-17.7083
 21
-19.8464
  0
LINE
  8
0
 10
-17.7083
 20
-19.8464
 11
-18.75
 21
-18.0422
  0
LINE
  8
0
 10
-18.75
 20
-18.0422
 11
-19.7917
 21
-19.8464
  0
LINE
  8
0
 10
-19.7917
 20
-19.8464
 11
-21.875
 21
-19.8464
  0
LINE
  8
0
 10
-21.875
 20
-19.8464
 11
-20.8333
 21
-21.6506
  0
LINE
  8
0
 10
-20.8333
 20
-21.6506
 11
-21.875
 21
-23.4548
  0
LINE
  8
0
 10
-21.875
 20
-23.4548
 11
-19.7917
 21
-23.4548
  0
LINE
  8
0
 10
-19.7917
 20
-23.4548
 11
-18.75
 21
-25.2591
  0
LINE
  8
0
 10
-18.75
 20
-25.2591
 11
-17.7083
 21
-23.4548
  0
LINE
  8
0
 10
-19.2708
 20
-22.5527
 11
-19.7917
 21
-21.6506
  0
LINE
  8
0
 10
-19.7917
 20
-21.6506
 11
-19.2708
 21
-20.7485
  0
LINE
  8
0
 10
-19.2708
 20
-20.7485
 11
-18.2292
 21
-20.7485
  0
LINE
  8
0
 10
-18.2292
 20
-20.7485
 11
-17.7083
 21
-21.6506
  0
LINE
  8
0
 10
-17.7083
 20
-21.6506
 11
-18.2292
 21
-22.5527
  0
LINE
  8
0
 10
-18.2292
 20
-22.5527
 11
-19.2708
 21
-22.5527
  0
LINE
  8
0
 10
-43.75
 20
-18.0422
 11
-45.3125
 21
-20.7485
  0
LINE
  8
0
 10
-45.3125
 20
-20.7485
 11
-42.1875
 21
-20.7485
  0
LINE
  8
0
 10
-42.1875
 20
-20.7485
 11
-43.75
 21
-18.0422
  0
LINE
  8
0
 10
43.75
 20
-18.0422
 11
42.1875
 21
-20.7485
  0
LINE
  8
0
 10
42.1875
 20
-20.7485
 11
45.3125
 21
-20.7485
  0
LINE
  8
0
 10
45.3125
 20
-20.7485
 11
43.75
 21
-18.0422
  0
LINE
  8
0
 10
19.7917
 20
-23.4548
 11
21.875
 21
-23.4548
  0
LINE
  8
0
 10
21.875
 20
-23.4548
 11
20.8333
 21
-21.6506
  0
LINE
  8
0
 10
20.8333
 20
-21.6506
 11
21.875
 21
-19.8464
  0
LINE
  8
0
 10
21.875
 20
-19.8464
 11
19.7917
 21
-19.8464
  0
LINE
  8
0
 10
19.7917
 20
-19.8464
 11
18.75
 21
-18.0422
  0
LINE
  8
0
 10
18.75
 20
-18.0422
 11
17.7083
 21
-19.8464
  0
LINE
  8
0
 10
17.7083
 20
-19.8464
 11
15.625
 21
-19.8464
  0
LINE
  8
0
 10
15.625
 20
-19.8464
 11
16.6667
 21
-21.6506
  0
LINE
  8
0
 10
16.6667
 20
-21.6506
 11
15.625
 21
-23.4548
  0
LINE
  8
0
 10
15.625
 20
-23.4548
 11
17.7083
 21
-23.4548
  0
LINE
  8
0
 10
17.7083
 20
-23.4548
 11
18.75
 21
-25.2591
  0
LINE
  8
0
 10
18.75
 20
-25.2591
 11
19.7917
 21
-23.4548
  0
LINE
  8
0
 10
18.2292
 20
-22.5527
 11
17.7083
 21
-21.6506
  0
LINE
  8
0
 10
17.7083
 20
-21.6506
 11
18.2292
 21
-20.7485
  0
LINE
  8
0
 10
18.2292
 20
-20.7485
 11
19.2708
 21
-20.7485
  0
LINE
  8
0
 10
19.2708
 20
-20.7485
 11
19.7917
 21
-21.6506
  0
LINE
  8
0
 10
19.7917
 20
-21.6506
 11
19.2708
 21
-22.5527
  0
LINE
  8
0
 10
19.2708
 20
-22.5527
 11
18.2292
 21
-22.5527
  0
LINE
  8
0
 10
-29.6875
 20
-20.7485
 11
-31.25
 21
-23.4548
  0
LINE
  8
0
 10
-31.25
 20
-23.4548
 11
-28.125
 21
-23.4548
  0
LINE
  8
0
 10
-28.125
 20
-23.4548
 11
-29.6875
 21
-20.7485
  0
LINE
  8
0
 10
29.6875
 20
-20.7485
 11
28.125
 21
-23.4548
  0
LINE
  8
0
 10
28.125
 20
-23.4548
 11
31.25
 21
-23.4548
  0
LINE
  8
0
 10
31.25
 20
-23.4548
 11
29.6875
 21
-20.7485
  0
LINE
  8
0
 10
32.8125
 20
-20.7485
 11
31.25
 21
-23.4548
  0
LINE
  8
0
 10
31.25
 20
-23.4548
 11
34.375
 21
-23.4548
  0
LINE
  8
0
 10
34.375
 20
-23.4548
 11
32.8125
 21
-20.7485
  0
LINE
  8
0
 10
-42.1875
 20
-20.7485
 11
-43.75
 21
-23.4548
  0
LINE
  8
0
 10
-43.75
 20
-23.4548
 11
-40.625
 21
-23.4548
  0
LINE
  8
0
 10
-40.625
 20
-23.4548
 11
-42.1875
 21
-20.7485
  0
LINE
  8
0
 10
45.3125
 20
-20.7485
 11
43.75
 21
-23.4548
  0
LINE
  8
0
 10
43.75
 20
-23.4548
 11
46.875
 21
-23.4548
  0
LINE
  8
0
 10
46.875
 20
-23.4548
 11
45.3125
 21
-20.7485
  0
LINE
  8
0
 10
42.1875
 20
-20.7485
 11
40.625
 21
-23.4548
  0
LINE
  8
0
 10
40.625
 20
-23.4548
 11
43.75
 21
-23.4548
  0
LINE
  8
0
 10
43.75
 20
-23.4548
 11
42.1875
 21
-20.7485
  0
LINE
  8
0
 10
-32.8125
 20
-20.7485
 11
-34.375
 21
-23.4548
  0
LINE
  8
0
 10
-34.375
 20
-23.4548
 11
-31.25
 21
-23.4548
  0
LINE
  8
0
 10
-31.25
 20
-23.4548
 11
-32.8125
 21
-20.7485
  0
LINE
  8
0
 10
-45.3125
 20
-20.7485
 11
-46.875
 21
-23.4548
  0
LINE
  8
0
 10
-46.875
 20
-23.4548
 11
-43.75
 21
-23.4548
  0
LINE
  8
0
 10
-43.75
 20
-23.4548
 11
-45.3125
 21
-20.7485
  0
LINE
  8
0
 10
-34.375
 20
-23.4548
 11
-35.9375
 21
-26.1612
  0
LINE
  8
0
 10
-35.9375
 20
-26.1612
 11
-32.8125
 21
-26.1612
  0
LINE
  8
0
 10
-32.8125
 20
-26.1612
 11
-34.375
 21
-23.4548
  0
LINE
  8
0
 10
28.125
 20
-23.4548
 11
26.5625
 21
-26.1612
  0
LINE
  8
0
 10
26.5625
 20
-26.1612
 11
29.6875
 21
-26.1612
  0
LINE
  8
0
 10
29.6875
 20
-26.1612
 11
28.125
 21
-23.4548
  0
LINE
  8
0
 10
3.125
 20
-23.4548
 11
1.5625
 21
-26.1612
  0
LINE
  8
0
 10
1.5625
 20
-26.1612
 11
4.6875
 21
-26.1612
  0
LINE
  8
0
 10
4.6875
 20
-26.1612
 11
3.125
 21
-23.4548
  0
LINE
  8
0
 10
10.4167
 20
-28.8675
 11
12.5
 21
-28.8675
  0
LINE
  8
0
 10
12.5
 20
-28.8675
 11
11.4583
 21
-27.0633
  0
LINE
  8
0
 10
11.4583
 20
-27.0633
 11
12.5
 21
-25.2591
  0
LINE
  8
0
 10
12.5
 20
-25.2591
 11
10.4167
 21
-25.2591
  0
LINE
  8
0
 10
10.4167
 20
-25.2591
 11
9.375
 21
-23.4548
  0
LINE
  8
0
 10
9.375
 20
-23.4548
 11
8.33334
 21
-25.2591
  0
LINE
  8
0
 10
8.33334
 20
-25.2591
 11
6.25
 21
-25.2591
  0
LINE
  8
0
 10
6.25
 20
-25.2591
 11
7.29167
 21
-27.0633
  0
LINE
  8
0
 10
7.29167
 20
-27.0633
 11
6.25
 21
-28.8675
  0
LINE
  8
0
 10
6.25
 20
-28.8675
 11
8.33334
 21
-28.8675
  0
LINE
  8
0
 10
8.33334
 20
-28.8675
 11
9.375
 21
-30.6717
  0
LINE
  8
0
 10
9.375
 20
-30.6717
 11
10.4167
 21
-28.8675
  0
LINE
  8
0
 10
8.85416
 20
-27.9654
 11
8.33333
 21
-27.0633
  0
LINE
  8
0
 10
8.33333
 20
-27.0633
 11
8.85416
 21
-26.1612
  0
LINE
  8
0
 10
8.85416
 20
-26.1612
 11
9.89584
 21
-26.1612
  0
LINE
  8
0
 10
9.89584
 20
-26.1612
 11
10.4167
 21
-27.0633
  0
LINE
  8
0
 10
10.4167
 20
-27.0633
 11
9.89584
 21
-27.9654
  0
LINE
  8
0
 10
9.89584
 20
-27.9654
 11
8.85416
 21
-27.9654
  0
LINE
  8
0
 10
16.6667
 20
-28.8675
 11
18.75
 21
-28.8675
  0
LINE
  8
0
 10
18.75
 20
-28.8675
 11
17.7083
 21
-27.0633
  0
LINE
  8
0
 10
17.7083
 20
-27.0633
 11
18.75
 21
-25.2591
  0
LINE
  8
0
 10
18.75
 20
-25.2591
 11
16.6667
 21
-25.2591
  0
LINE
  8
0
 10
16.6667
 20
-25.2591
 11
15.625
 21
-23.4548
  0
LINE
  8
0
 10
15.625
 20
-23.4548
 11
14.5833
 21
-25.2591
  0
LINE
  8
0
 10
14.5833
 20
-25.2591
 11
12.5
 21
-25.2591
  0
LINE
  8
0
 10
12.5
 20
-25.2591
 11
13.5417
 21
-27.0633
  0
LINE
  8
0
 10
13.5417
 20
-27.0633
 11
12.5
 21
-28.8675
  0
LINE
  8
0
 10
12.5
 20
-28.8675
 11
14.5833
 21
-28.8675
  0
LINE
  8
0
 10
14.5833
 20
-28.8675
 11
15.625
 21
-30.6717
  0
LINE
  8
0
 10
15.625
 20
-30.6717
 11
16.6667
 21
-28.8675
  0
LINE
  8
0
 10
15.1042
 20
-27.9654
 11
14.5833
 21
-27.0633
  0
LINE
  8
0
 10
14.5833
 20
-27.0633
 11
15.1042
 21
-26.1612
  0
LINE
  8
0
 10
15.1042
 20
-26.1612
 11
16.1458
 21
-26.1612
  0
LINE
  8
0
 10
16.1458
 20
-26.1612
 11
16.6667
 21
-27.0633
  0
LINE
  8
0
 10
16.6667
 20
-27.0633
 11
16.1458
 21
-27.9654
  0
LINE
  8
0
 10
16.1458
 20
-27.9654
 11
15.1042
 21
-27.9654
  0
LINE
  8
0
 10
-8.33334
 20
-28.8675
 11
-6.25
 21
-28.8675
  0
LINE
  8
0
 10
-6.25
 20
-28.8675
 11
-7.29167
 21
-27.0633
  0
LINE
  8
0
 10
-7.29167
 20
-27.0633
 11
-6.25
 21
-25.2591
  0
LINE
  8
0
 10
-6.25
 20
-25.2591
 11
-8.33334
 21
-25.2591
  0
LINE
  8
0
 10
-8.33334
 20
-25.2591
 11
-9.375
 21
-23.4548
  0
LINE
  8
0
 10
-9.375
 20
-23.4548
 11
-10.4167
 21
-25.2591
  0
LINE
  8
0
 10
-10.4167
 20
-25.2591
 11
-12.5
 21
-25.2591
  0
LINE
  8
0
 10
-12.5
 20
-25.2591
 11
-11.4583
 21
-27.0633
  0
LINE
  8
0
 10
-11.4583
 20
-27.0633
 11
-12.5
 21
-28.8675
  0
LINE
  8
0
 10
-12.5
 20
-28.8675
 11
-10.4167
 21
-28.8675
  0
LINE
  8
0
 10
-10.4167
 20
-28.8675
 11
-9.375
 21
-30.6717
  0
LINE
  8
0
 10
-9.375
 20
-30.6717
 11
-8.33334
 21
-28.8675
  0
LINE
  8
0
 10
-9.89584
 20
-27.9654
 11
-10.4167
 21
-27.0633
  0
LINE
  8
0
 10
-10.4167
 20
-27.0633
 11
-9.89584
 21
-26.1612
  0
LINE
  8
0
 10
-9.89584
 20
-26.1612
 11
-8.85416
 21
-26.1612
  0
LINE
  8
0
 10
-8.85416
 20
-26.1612
 11
-8.33333
 21
-27.0633
  0
LINE
  8
0
 10
-8.33333
 20
-27.0633
 11
-8.85416
 21
-27.9654
  0
LINE
  8
0
 10
-8.85416
 20
-27.9654
 11
-9.89584
 21
-27.9654
  0
LINE
  8
0
 10
-3.125
 20
-23.4548
 11
-4.6875
 21
-26.1612
  0
LINE
  8
0
 10
-4.6875
 20
-26.1612
 11
-1.5625
 21
-26.1612
  0
LINE
  8
0
 10
-1.5625
 20
-26.1612
 11
-3.125
 21
-23.4548
  0
LINE
  8
0
 10
-14.5833
 20
-28.8675
 11
-12.5
 21
-28.8675
  0
LINE
  8
0
 10
-12.5
 20
-28.8675
 11
-13.5417
 21
-27.0633
  0
LINE
  8
0
 10
-13.5417
 20
-27.0633
 11
-12.5
 21
-25.2591
  0
LINE
  8
0
 10
-12.5
 20
-25.2591
 11
-14.5833
 21
-25.2591
  0
LINE
  8
0
 10
-14.5833
 20
-25.2591
 11
-15.625
 21
-23.4548
  0
LINE
  8
0
 10
-15.625
 20
-23.4548
 11
-16.6667
 21
-25.2591
  0
LINE
  8
0
 10
-16.6667
 20
-25.2591
 11
-18.75
 21
-25.2591
  0
LINE
  8
0
 10
-18.75
 20
-25.2591
 11
-17.7083
 21
-27.0633
  0
LINE
  8
0
 10
-17.7083
 20
-27.0633
 11
-18.75
 21
-28.8675
  0
LINE
  8
0
 10
-18.75
 20
-28.8675
 11
-16.6667
 21
-28.8675
  0
LINE
  8
0
 10
-16.6667
 20
-28.8675
 11
-15.625
 21
-30.6717
  0
LINE
  8
0
 10
-15.625
 20
-30.6717
 11
-14.5833
 21
-28.8675
  0
LINE
  8
0
 10
-16.1458
 20
-27.9654
 11
-16.6667
 21
-27.0633
  0
LINE
  8
0
 10
-16.6667
 20
-27.0633
 11
-16.1458
 21
-26.1612
  0
LINE
  8
0
 10
-16.1458
 20
-26.1612
 11
-15.1042
 21
-26.1612
  0
LINE
  8
0
 10
-15.1042
 20
-26.1612
 11
-14.5833
 21
-27.0633
  0
LINE
  8
0
 10
-14.5833
 20
-27.0633
 11
-15.1042
 21
-27.9654
  0
LINE
  8
0
 10
-15.1042
 20
-27.9654
 11
-16.1458
 21
-27.9654
  0
LINE
  8
0
 10
40.625
 20
-23.4548
 11
39.0625
 21
-26.1612
  0
LINE
  8
0
 10
39.0625
 20
-26.1612
 11
42.1875
 21
-26.1612
  0
LINE
  8
0
 10
42.1875
 20
-26.1612
 11
40.625
 21
-23.4548
  0
LINE
  8
0
 10
-21.875
 20
-23.4548
 11
-23.4375
 21
-26.1612
  0
LINE
  8
0
 10
-23.4375
 20
-26.1612
 11
-20.3125
 21
-26.1612
  0
LINE
  8
0
 10
-20.3125
 20
-26.1612
 11
-21.875
 21
-23.4548
  0
LINE
  8
0
 10
-40.625
 20
-23.4548
 11
-42.1875
 21
-26.1612
  0
LINE
  8
0
 10
-42.1875
 20
-26.1612
 11
-39.0625
 21
-26.1612
  0
LINE
  8
0
 10
-39.0625
 20
-26.1612
 11
-40.625
 21
-23.4548
  0
LINE
  8
0
 10
34.375
 20
-23.4548
 11
32.8125
 21
-26.1612
  0
LINE
  8
0
 10
32.8125
 20
-26.1612
 11
35.9375
 21
-26.1612
  0
LINE
  8
0
 10
35.9375
 20
-26.1612
 11
34.375
 21
-23.4548
  0
LINE
  8
0
 10
-28.125
 20
-23.4548
 11
-29.6875
 21
-26.1612
  0
LINE
  8
0
 10
-29.6875
 20
-26.1612
 11
-26.5625
 21
-26.1612
  0
LINE
  8
0
 10
-26.5625
 20
-26.1612
 11
-28.125
 21
-23.4548
  0
LINE
  8
0
 10
46.875
 20
-23.4548
 11
45.3125
 21
-26.1612
  0
LINE
  8
0
 10
45.3125
 20
-26.1612
 11
48.4375
 21
-26.1612
  0
LINE
  8
0
 10
48.4375
 20
-26.1612
 11
46.875
 21
-23.4548
  0
LINE
  8
0
 10
21.875
 20
-23.4548
 11
20.3125
 21
-26.1612
  0
LINE
  8
0
 10
20.3125
 20
-26.1612
 11
23.4375
 21
-26.1612
  0
LINE
  8
0
 10
23.4375
 20
-26.1612
 11
21.875
 21
-23.4548
  0
LINE
  8
0
 10
-46.875
 20
-23.4548
 11
-48.4375
 21
-26.1612
  0
LINE
  8
0
 10
-48.4375
 20
-26.1612
 11
-45.3125
 21
-26.1612
  0
LINE
  8
0
 10
-45.3125
 20
-26.1612
 11
-46.875
 21
-23.4548
  0
LINE
  8
0
 10
-48.4375
 20
-26.1612
 11
-50
 21
-28.8675
  0
LINE
  8
0
 10
-50
 20
-28.8675
 11
-46.875
 21
-28.8675
  0
LINE
  8
0
 10
-46.875
 20
-28.8675
 11
-48.4375
 21
-26.1612
  0
LINE
  8
0
 10
26.5625
 20
-26.1612
 11
25
 21
-28.8675
  0
LINE
  8
0
 10
25
 20
-28.8675
 11
28.125
 21
-28.8675
  0
LINE
  8
0
 10
28.125
 20
-28.8675
 11
26.5625
 21
-26.1612
  0
LINE
  8
0
 10
-42.1875
 20
-26.1612
 11
-43.75
 21
-28.8675
  0
LINE
  8
0
 10
-43.75
 20
-28.8675
 11
-40.625
 21
-28.8675
  0
LINE
  8
0
 10
-40.625
 20
-28.8675
 11
-42.1875
 21
-26.1612
  0
LINE
  8
0
 10
-29.6875
 20
-26.1612
 11
-31.25
 21
-28.8675
  0
LINE
  8
0
 10
-31.25
 20
-28.8675
 11
-28.125
 21
-28.8675
  0
LINE
  8
0
 10
-28.125
 20
-28.8675
 11
-29.6875
 21
-26.1612
  0
LINE
  8
0
 10
32.8125
 20
-26.1612
 11
31.25
 21
-28.8675
  0
LINE
  8
0
 10
31.25
 20
-28.8675
 11
34.375
 21
-28.8675
  0
LINE
  8
0
 10
34.375
 20
-28.8675
 11
32.8125
 21
-26.1612
  0
LINE
  8
0
 10
-23.4375
 20
-26.1612
 11
-25
 21
-28.8675
  0
LINE
  8
0
 10
-25
 20
-28.8675
 11
-21.875
 21
-28.8675
  0
LINE
  8
0
 10
-21.875
 20
-28.8675
 11
-23.4375
 21
-26.1612
  0
LINE
  8
0
 10
23.4375
 20
-26.1612
 11
21.875
 21
-28.8675
  0
LINE
  8
0
 10
21.875
 20
-28.8675
 11
25
 21
-28.8675
  0
LINE
  8
0
 10
25
 20
-28.8675
 11
23.4375
 21
-26.1612
  0
LINE
  8
0
 10
4.6875
 20
-26.1612
 11
3.125
 21
-28.8675
  0
LINE
  8
0
 10
3.125
 20
-28.8675
 11
6.25
 21
-28.8675
  0
LINE
  8
0
 10
6.25
 20
-28.8675
 11
4.6875
 21
-26.1612
  0
LINE
  8
0
 10
-4.6875
 20
-26.1612
 11
-6.25
 21
-28.8675
  0
LINE
  8
0
 10
-6.25
 20
-28.8675
 11
-3.125
 21
-28.8675
  0
LINE
  8
0
 10
-3.125
 20
-28.8675
 11
-4.6875
 21
-26.1612
  0
LINE
  8
0
 10
20.3125
 20
-26.1612
 11
18.75
 21
-28.8675
  0
LINE
  8
0
 10
18.75
 20
-28.8675
 11
21.875
 21
-28.8675
  0
LINE
  8
0
 10
21.875
 20
-28.8675
 11
20.3125
 21
-26.1612
  0
LINE
  8
0
 10
29.6875
 20
-26.1612
 11
28.125
 21
-28.8675
  0
LINE
  8
0
 10
28.125
 20
-28.8675
 11
31.25
 21
-28.8675
  0
LINE
  8
0
 10
31.25
 20
-28.8675
 11
29.6875
 21
-26.1612
  0
LINE
  8
0
 10
35.9375
 20
-26.1612
 11
34.375
 21
-28.8675
  0
LINE
  8
0
 10
34.375
 20
-28.8675
 11
37.5
 21
-28.8675
  0
LINE
  8
0
 10
37.5
 20
-28.8675
 11
35.9375
 21
-26.1612
  0
LINE
  8
0
 10
48.4375
 20
-26.1612
 11
46.875
 21
-28.8675
  0
LINE
  8
0
 10
46.875
 20
-28.8675
 11
50
 21
-28.8675
  0
LINE
  8
0
 10
50
 20
-28.8675
 11
48.4375
 21
-26.1612
  0
LINE
  8
0
 10
-32.8125
 20
-26.1612
 11
-34.375
 21
-28.8675
  0
LINE
  8
0
 10
-34.375
 20
-28.8675
 11
-31.25
 21
-28.8675
  0
LINE
  8
0
 10
-31.25
 20
-28.8675
 11
-32.8125
 21
-26.1612
  0
LINE
  8
0
 10
1.5625
 20
-26.1612
 11
0
 21
-28.8675
  0
LINE
  8
0
 10
0
 20
-28.8675
 11
3.125
 21
-28.8675
  0
LINE
  8
0
 10
3.125
 20
-28.8675
 11
1.5625
 21
-26.1612
  0
LINE
  8
0
 10
39.0625
 20
-26.1612
 11
37.5
 21
-28.8675
  0
LINE
  8
0
 10
37.5
 20
-28.8675
 11
40.625
 21
-28.8675
  0
LINE
  8
0
 10
40.625
 20
-28.8675
 11
39.0625
 21
-26.1612
  0
LINE
  8
0
 10
-20.3125
 20
-26.1612
 11
-21.875
 21
-28.8675
  0
LINE
  8
0
 10
-21.875
 20
-28.8675
 11
-18.75
 21
-28.8675
  0
LINE
  8
0
 10
-18.75
 20
-28.8675
 11
-20.3125
 21
-26.1612
  0
LINE
  8
0
 10
-39.0625
 20
-26.1612
 11
-40.625
 21
-28.8675
  0
LINE
  8
0
 10
-40.625
 20
-28.8675
 11
-37.5
 21
-28.8675
  0
LINE
  8
0
 10
-37.5
 20
-28.8675
 11
-39.0625
 21
-26.1612
  0
LINE
  8
0
 10
-45.3125
 20
-26.1612
 11
-46.875
 21
-28.8675
  0
LINE
  8
0
 10
-46.875
 20
-28.8675
 11
-43.75
 21
-28.8675
  0
LINE
  8
0
 10
-43.75
 20
-28.8675
 11
-45.3125
 21
-26.1612
  0
LINE
  8
0
 10
42.1875
 20
-26.1612
 11
40.625
 21
-28.8675
  0
LINE
  8
0
 10
40.625
 20
-28.8675
 11
43.75
 21
-28.8675
  0
LINE
  8
0
 10
43.75
 20
-28.8675
 11
42.1875
 21
-26.1612
  0
LINE
  8
0
 10
-26.5625
 20
-26.1612
 11
-28.125
 21
-28.8675
  0
LINE
  8
0
 10
-28.125
 20
-28.8675
 11
-25
 21
-28.8675
  0
LINE
  8
0
 10
-25
 20
-28.8675
 11
-26.5625
 21
-26.1612
  0
LINE
  8
0
 10
-1.5625
 20
-26.1612
 11
-3.125
 21
-28.8675
  0
LINE
  8
0
 10
-3.125
 20
-28.8675
 11
0
 21
-28.8675
  0
LINE
  8
0
 10
0
 20
-28.8675
 11
-1.5625
 21
-26.1612
  0
LINE
  8
0
 10
45.3125
 20
-26.1612
 11
43.75
 21
-28.8675
  0
LINE
  8
0
 10
43.75
 20
-28.8675
 11
46.875
 21
-28.8675
  0
LINE
  8
0
 10
46.875
 20
-28.8675
 11
45.3125
 21
-26.1612
  0
LINE
  8
0
 10
-35.9375
 20
-26.1612
 11
-37.5
 21
-28.8675
  0
LINE
  8
0
 10
-37.5
 20
-28.8675
 11
-34.375
 21
-28.8675
  0
LINE
  8
0
 10
-34.375
 20
-28.8675
 11
-35.9375
 21
-26.1612
  0
LINE
  8
0
 10
-9.375
 20
-30.6717
 11
-12.5
 21
-30.6717
  0
LINE
  8
0
 10
-12.5
 20
-30.6717
 11
-10.9375
 21
-33.3781
  0
LINE
  8
0
 10
-10.9375
 20
-33.3781
 11
-9.375
 21
-30.6717
  0
LINE
  8
0
 10
15.625
 20
-30.6717
 11
12.5
 21
-30.6717
  0
LINE
  8
0
 10
12.5
 20
-30.6717
 11
14.0625
 21
-33.3781
  0
LINE
  8
0
 10
14.0625
 20
-33.3781
 11
15.625
 21
-30.6717
  0
LINE
  8
0
 10
-12.5
 20
-30.6717
 11
-15.625
 21
-30.6717
  0
LINE
  8
0
 10
-15.625
 20
-30.6717
 11
-14.0625
 21
-33.3781
  0
LINE
  8
0
 10
-14.0625
 20
-33.3781
 11
-12.5
 21
-30.6717
  0
LINE
  8
0
 10
12.5
 20
-30.6717
 11
9.375
 21
-30.6717
  0
LINE
  8
0
 10
9.375
 20
-30.6717
 11
10.9375
 21
-33.3781
  0
LINE
  8
0
 10
10.9375
 20
-33.3781
 11
12.5
 21
-30.6717
  0
LINE
  8
0
 10
-10.9375
 20
-33.3781
 11
-14.0625
 21
-33.3781
  0
LINE
  8
0
 10
-14.0625
 20
-33.3781
 11
-12.5
 21
-36.0844
  0
LINE
  8
0
 10
-12.5
 20
-36.0844
 11
-10.9375
 21
-33.3781
  0
LINE
  8
0
 10
14.0625
 20
-33.3781
 11
10.9375
 21
-33.3781
  0
LINE
  8
0
 10
10.9375
 20
-33.3781
 11
12.5
 21
-36.0844
  0
LINE
  8
0
 10
12.5
 20
-36.0844
 11
14.0625
 21
-33.3781
  0
LINE
  8
0
 10
-3.125
 20
-36.0844
 11
-6.25
 21
-36.0844
  0
LINE
  8
0
 10
-6.25
 20
-36.0844
 11
-4.6875
 21
-38.7907
  0
LINE
  8
0
 10
-4.6875
 20
-38.7907
 11
-3.125
 21
-36.0844
  0
LINE
  8
0
 10
0
 20
-36.0844
 11
-3.125
 21
-36.0844
  0
LINE
  8
0
 10
-3.125
 20
-36.0844
 11
-1.5625
 21
-38.7907
  0
LINE
  8
0
 10
-1.5625
 20
-38.7907
 11
0
 21
-36.0844
  0
LINE
  8
0
 10
-6.25
 20
-36.0844
 11
-9.375
 21
-36.0844
  0
LINE
  8
0
 10
-9.375
 20
-36.0844
 11
-7.8125
 21
-38.7907
  0
LINE
  8
0
 10
-7.8125
 20
-38.7907
 11
-6.25
 21
-36.0844
  0
LINE
  8
0
 10
6.25
 20
-36.0844
 11
3.125
 21
-36.0844
  0
LINE
  8
0
 10
3.125
 20
-36.0844
 11
4.6875
 21
-38.7907
  0
LINE
  8
0
 10
4.6875
 20
-38.7907
 11
6.25
 21
-36.0844
  0
LINE
  8
0
 10
-9.375
 20
-36.0844
 11
-12.5
 21
-36.0844
  0
LINE
  8
0
 10
-12.5
 20
-36.0844
 11
-10.9375
 21
-38.7907
  0
LINE
  8
0
 10
-10.9375
 20
-38.7907
 11
-9.375
 21
-36.0844
  0
LINE
  8
0
 10
9.375
 20
-36.0844
 11
6.25
 21
-36.0844
  0
LINE
  8
0
 10
6.25
 20
-36.0844
 11
7.8125
 21
-38.7907
  0
LINE
  8
0
 10
7.8125
 20
-38.7907
 11
9.375
 21
-36.0844
  0
LINE
  8
0
 10
3.125
 20
-36.0844
 11
0
 21
-36.0844
  0
LINE
  8
0
 10
0
 20
-36.0844
 11
1.5625
 21
-38.7907
  0
LINE
  8
0
 10
1.5625
 20
-38.7907
 11
3.125
 21
-36.0844
  0
LINE
  8
0
 10
12.5
 20
-36.0844
 11
9.375
 21
-36.0844
  0
LINE
  8
0
 10
9.375
 20
-36.0844
 11
10.9375
 21
-38.7907
  0
LINE
  8
0
 10
10.9375
 20
-38.7907
 11
12.5
 21
-36.0844
  0
LINE
  8
0
 10
-1.5625
 20
-38.7907
 11
-4.6875
 21
-38.7907
  0
LINE
  8
0
 10
-4.6875
 20
-38.7907
 11
-3.125
 21
-41.497
  0
LINE
  8
0
 10
-3.125
 20
-41.497
 11
-1.5625
 21
-38.7907
  0
LINE
  8
0
 10
4.6875
 20
-38.7907
 11
1.5625
 21
-38.7907
  0
LINE
  8
0
 10
1.5625
 20
-38.7907
 11
3.125
 21
-41.497
  0
LINE
  8
0
 10
3.125
 20
-41.497
 11
4.6875
 21
-38.7907
  0
LINE
  8
0
 10
-7.8125
 20
-38.7907
 11
-10.9375
 21
-38.7907
  0
LINE
  8
0
 10
-10.9375
 20
-38.7907
 11
-9.375
 21
-41.497
  0
LINE
  8
0
 10
-9.375
 20
-41.497
 11
-7.8125
 21
-38.7907
  0
LINE
  8
0
 10
10.9375
 20
-38.7907
 11
7.8125
 21
-38.7907
  0
LINE
  8
0
 10
7.8125
 20
-38.7907
 11
9.375
 21
-41.497
  0
LINE
  8
0
 10
9.375
 20
-41.497
 11
10.9375
 21
-38.7907
  0
LINE
  8
0
 10
-3.125
 20
-41.497
 11
-6.25
 21
-41.497
  0
LINE
  8
0
 10
-6.25
 20
-41.497
 11
-4.6875
 21
-44.2034
  0
LINE
  8
0
 10
-4.6875
 20
-44.2034
 11
-3.125
 21
-41.497
  0
LINE
  8
0
 10
-6.25
 20
-41.497
 11
-9.375
 21
-41.497
  0
LINE
  8
0
 10
-9.375
 20
-41.497
 11
-7.8125
 21
-44.2034
  0
LINE
  8
0
 10
-7.8125
 20
-44.2034
 11
-6.25
 21
-41.497
  0
LINE
  8
0
 10
6.25
 20
-41.497
 11
3.125
 21
-41.497
  0
LINE
  8
0
 10
3.125
 20
-41.497
 11
4.6875
 21
-44.2034
  0
LINE
  8
0
 10
4.6875
 20
-44.2034
 11
6.25
 21
-41.497
  0
LINE
  8
0
 10
9.375
 20
-41.497
 11
6.25
 21
-41.497
  0
LINE
  8
0
 10
6.25
 20
-41.497
 11
7.8125
 21
-44.2034
  0
LINE
  8
0
 10
7.8125
 20
-44.2034
 11
9.375
 21
-41.497
  0
LINE
  8
0
 10
-4.6875
 20
-44.2034
 11
-7.8125
 21
-44.2034
  0
LINE
  8
0
 10
-7.8125
 20
-44.2034
 11
-6.25
 21
-46.9097
  0
LINE
  8
0
 10
-6.25
 20
-46.9097
 11
-4.6875
 21
-44.2034
  0
LINE
  8
0
 10
7.8125
 20
-44.2034
 11
4.6875
 21
-44.2034
  0
LINE
  8
0
 10
4.6875
 20
-44.2034
 11
6.25
 21
-46.9097
  0
LINE
  8
0
 10
6.25
 20
-46.9097
 11
7.8125
 21
-44.2034
  0
LINE
  8
0
 10
-3.125
 20
-46.9097
 11
-6.25
 21
-46.9097
  0
LINE
  8
0
 10
-6.25
 20
-46.9097
 11
-4.6875
 21
-49.616
  0
LINE
  8
0
 10
-4.6875
 20
-49.616
 11
-3.125
 21
-46.9097
  0
LINE
  8
0
 10
0
 20
-46.9097
 11
-3.125
 21
-46.9097
  0
LINE
  8
0
 10
-3.125
 20
-46.9097
 11
-1.5625
 21
-49.616
  0
LINE
  8
0
 10
-1.5625
 20
-49.616
 11
0
 21
-46.9097
  0
LINE
  8
0
 10
3.125
 20
-46.9097
 11
0
 21
-46.9097
  0
LINE
  8
0
 10
0
 20
-46.9097
 11
1.5625
 21
-49.616
  0
LINE
  8
0
 10
1.5625
 20
-49.616
 11
3.125
 21
-46.9097
  0
LINE
  8
0
 10
6.25
 20
-46.9097
 11
3.125
 21
-46.9097
  0
LINE
  8
0
 10
3.125
 20
-46.9097
 11
4.6875
 21
-49.616
  0
LINE
  8
0
 10
4.6875
 20
-49.616
 11
6.25
 21
-46.9097
  0
LINE
  8
0
 10
-1.5625
 20
-49.616
 11
-4.6875
 21
-49.616
  0
LINE
  8
0
 10
-4.6875
 20
-49.616
 11
-3.125
 21
-52.3224
  0
LINE
  8
0
 10
-3.125
 20
-52.3224
 11
-1.5625
 21
-49.616
  0
LINE
  8
0
 10
4.6875
 20
-49.616
 11
1.5625
 21
-49.616
  0
LINE
  8
0
 10
1.5625
 20
-49.616
 11
3.125
 21
-52.3224
  0
LINE
  8
0
 10
3.125
 20
-52.3224
 11
4.6875
 21
-49.616
  0
LINE
  8
0
 10
0
 20
-52.3224
 11
-3.125
 21
-52.3224
  0
LINE
  8
0
 10
-3.125
 20
-52.3224
 11
-1.5625
 21
-55.0287
  0
LINE
  8
0
 10
-1.5625
 20
-55.0287
 11
0
 21
-52.3224
  0
LINE
  8
0
 10
3.125
 20
-52.3224
 11
0
 21
-52.3224
  0
LINE
  8
0
 10
0
 20
-52.3224
 11
1.5625
 21
-55.0287
  0
LINE
  8
0
 10
1.5625
 20
-55.0287
 11
3.125
 21
-52.3224
  0
LINE
  8
0
 10
1.5625
 20
-55.0287
 11
-1.5625
 21
-55.0287
  0
LINE
  8
0
 10
-1.5625
 20
-55.0287
 11
0
 21
-57.735
  0
LINE
  8
0
 10
0
 20
-57.735
 11
1.5625
 21
-55.0287
  0
ENDSEC
  0
SECTION
  2
OBJECTS
  0
DICTIONARY
  0
ENDSEC
  0
EOF
