<?xml version="1.0" standalone="no"?>
<!DOCTYPE svg PUBLIC "-//W3C//DTD SVG 1.1//EN" "http://www.w3.org/Graphics/SVG/1.1/DTD/svg11.dtd">
<svg width="100mm" height="116mm" viewBox="-50 -58 100 116" xmlns="http://www.w3.org/2000/svg" version="1.1">
<title>OpenSCAD Model</title>
<path d="
M 0,-57.735 L -6.25,-46.9097 L 6.25,-46.9097 z
M 6.25,-46.9097 L 0,-36.0844 L 12.5,-36.0844 z
M -6.25,-46.9097 L -12.5,-36.0844 L 0,-36.0844 z
M 16.6667,-14.4337 L 25,-14.4337 L 20.8333,-21.6506 L 25,-28.8675 L 16.6667,-28.8675 L 12.5,-36.0844
 L 8.33334,-28.8675 L 0,-28.8675 L 4.16667,-21.6506 L 0,-14.4337 L 8.33334,-14.4337 L 12.5,-7.21687
 z
M 10.4167,-18.0422 L 8.33333,-21.6506 L 10.4167,-25.2591 L 14.5833,-25.2591 L 16.6667,-21.6506 L 14.5833,-18.0422
 z
M -8.33334,-14.4337 L 0,-14.4337 L -4.16667,-21.6506 L 0,-28.8675 L -8.33334,-28.8675 L -12.5,-36.0844
 L -16.6667,-28.8675 L -25,-28.8675 L -20.8333,-21.6506 L -25,-14.4337 L -16.6667,-14.4337 L -12.5,-7.21687
 z
M -14.5833,-18.0422 L -16.6667,-21.6506 L -14.5833,-25.2591 L -10.4167,-25.2591 L -8.33333,-21.6506 L -10.4167,-18.0422
 z
M -37.5,-28.8675 L -50,-28.8675 L -43.75,-18.0422 z
M -25,-28.8675 L -37.5,-28.8675 L -31.25,-18.0422 z
M 50,-28.8675 L 37.5,-28.8675 L 43.75,-18.0422 z
M 37.5,-28.8675 L 25,-28.8675 L 31.25,-18.0422 z
M -31.25,-18.0422 L -43.75,-18.0422 L -37.5,-7.21687 z
M 43.75,-18.0422 L 31.25,-18.0422 L 37.5,-7.21687 z
M -20.8333,7.21687 L -12.5,7.21687 L -16.6667,-0 L -12.5,-7.21687 L -20.8333,-7.21687 L -25,-14.4337
 L -29.1667,-7.21687 L -37.5,-7.21687 L -33.3333,-0 L -37.5,7.21687 L -29.1667,7.21687 L -25,14.4337
 z
M -27.0833,3.60843 L -29.1667,-0 L -27.0833,-3.60843 L -22.9167,-3.60843 L -20.8333,-0 L -22.9167,3.60843
 z
M 29.1667,7.21687 L 37.5,7.21687 L 33.3333,-0 L 37.5,-7.21687 L 29.1667,-7.21687 L 25,-14.4337
 L 20.8333,-7.21687 L 12.5,-7.21687 L 16.6667,-0 L 12.5,7.21687 L 20.8333,7.21687 L 25,14.4337
 z
M 22.9167,3.60843 L 20.8333,-0 L 22.9167,-3.60843 L 27.0833,-3.60843 L 29.1667,-0 L 27.0833,3.60843
 z
M 37.5,7.21687 L 31.25,18.0422 L 43.75,18.0422 z
M 16.6667,28.8675 L 25,28.8675 L 20.8333,21.6506 L 25,14.4337 L 16.6667,14.4337 L 12.5,7.21687
 L 8.33334,14.4337 L 0,14.4337 L 4.16667,21.6506 L 0,28.8675 L 8.33334,28.8675 L 12.5,36.0844
 z
M 10.4167,25.2591 L 8.33333,21.6506 L 10.4167,18.0422 L 14.5833,18.0422 L 16.6667,21.6506 L 14.5833,25.2591
 z
M -37.5,7.21687 L -43.75,18.0422 L -31.25,18.0422 z
M -8.33334,28.8675 L 0,28.8675 L -4.16667,21.6506 L 0,14.4337 L -8.33334,14.4337 L -12.5,7.21687
 L -16.6667,14.4337 L -25,14.4337 L -20.8333,21.6506 L -25,28.8675 L -16.6667,28.8675 L -12.5,36.0844
 z
M -14.5833,25.2591 L -16.6667,21.6506 L -14.5833,18.0422 L -10.4167,18.0422 L -8.33333,21.6506 L -10.4167,25.2591
 z
M 43.75,18.0422 L 37.5,28.8675 L 50,28.8675 z
M 31.25,18.0422 L 25,28.8675 L 37.5,28.8675 z
M -31.25,18.0422 L -37.5,28.8675 L -25,28.8675 z
M -43.75,18.0422 L -50,28.8675 L -37.5,28.8675 z
M 12.5,36.0844 L 0,36.0844 L 6.25,46.9097 z
M 0,36.0844 L -12.5,36.0844 L -6.25,46.9097 z
M 6.25,46.9097 L -6.25,46.9097 L 0,57.735 z
" stroke="black" fill="lightgray" stroke-width=".005"/>
</svg>
